# This file uses centimeters as units for non-parametric coordinates.

g default
v 0.531318 -0.060580 -0.471549
v 0.112362 -0.060580 -0.713433
v -0.364057 -0.060580 -0.629427
v -0.675018 -0.060580 -0.258839
v -0.675018 -0.060580 0.224929
v -0.364057 -0.060580 0.595519
v 0.112362 -0.060580 0.679523
v 0.531318 -0.060580 0.437639
v 0.696778 -0.060580 -0.016954
v 0.523928 0.598334 -0.465346
v 0.110687 0.598334 -0.703931
v -0.359233 0.598334 -0.621073
v -0.665951 0.598334 -0.255539
v -0.665951 0.598334 0.221629
v -0.359233 0.598334 0.587163
v 0.110687 0.598334 0.670023
v 0.523928 0.598334 0.431438
v 0.687130 0.598334 -0.016954
v -0.010445 -0.066627 -0.016954
v 0.523928 2.190258 -0.465348
v 0.110687 2.190258 -0.703931
v -0.359233 2.190258 -0.621073
v -0.665951 2.190258 -0.255539
v -0.665951 2.190258 0.221629
v -0.359233 2.190258 0.587163
v 0.110687 2.190258 0.670023
v 0.523928 2.190258 0.431438
v 0.687130 2.190258 -0.016954
v 0.533762 2.750919 -0.473097
v 0.113364 2.751128 -0.715722
v -0.364572 2.751364 -0.631354
v -0.676449 2.751515 -0.259578
v -0.676449 2.751515 0.225668
v -0.364572 2.751364 0.597445
v 0.113363 2.751128 0.681813
v 0.533762 2.750919 0.439188
v 0.699818 2.750836 -0.016954
v 0.442619 2.804297 -0.394122
v 0.095018 2.804303 -0.594804
v -0.300250 2.804313 -0.525101
v -0.558240 2.804317 -0.217636
v -0.558240 2.804317 0.183726
v -0.300250 2.804313 0.491192
v 0.095018 2.804303 0.560896
v 0.442618 2.804297 0.360213
v 0.579899 2.804294 -0.016954
v 0.402880 2.701404 -0.359246
v 0.087422 2.701404 -0.541375
v -0.271302 2.701404 -0.478123
v -0.505443 2.701404 -0.199084
v -0.505443 2.701404 0.165174
v -0.271302 2.701404 0.444213
v 0.087421 2.701404 0.507466
v 0.402880 2.701404 0.325336
v 0.527463 2.701404 -0.016954
v 0.199679 2.685770 -0.181141
v 0.048362 2.685768 -0.268503
v -0.123705 2.685765 -0.238160
v -0.236013 2.685764 -0.104314
v -0.236013 2.685764 0.070406
v -0.123705 2.685765 0.204251
v 0.048362 2.685768 0.234593
v 0.199679 2.685770 0.147233
v 0.259425 2.685756 -0.016954
v 0.199035 2.985868 -0.180579
v 0.048237 2.985868 -0.267642
v 0.004035 2.933983 -0.016954
v -0.123243 2.985868 -0.237406
v -0.235169 2.985868 -0.104017
v -0.235169 2.985868 0.070107
v -0.123243 2.985868 0.203497
v 0.048237 2.985868 0.233733
v 0.199035 2.985868 0.146670
v 0.258590 2.985868 -0.016954
vt 0.475073 0.390983
vt 0.543362 0.390983
vt 0.543404 0.532884
vt 0.475101 0.532884
vt 0.610237 0.390983
vt 0.610272 0.532884
vt 0.004634 0.390983
vt 0.070355 0.390983
vt 0.070368 0.532884
vt 0.004669 0.532884
vt 0.135639 0.390983
vt 0.135626 0.532884
vt 0.201360 0.390983
vt 0.201325 0.532884
vt 0.268234 0.390983
vt 0.268193 0.532884
vt 0.336523 0.390983
vt 0.336495 0.532884
vt 0.405798 0.390983
vt 0.405798 0.532884
vt 0.038421 0.300975
vt 0.010694 0.175915
vt 0.195534 0.202910
vt 0.139662 0.380150
vt 0.267047 0.376392
vt 0.360970 0.291461
vt 0.377484 0.165095
vt 0.308862 0.056423
vt 0.187212 0.016295
vt 0.069457 0.063485
vt 0.811832 0.236500
vt 0.850391 0.263867
vt 0.794504 0.303240
vt 0.862800 0.309658
vt 0.843253 0.352446
vt 0.800896 0.372210
vt 0.755547 0.359702
vt 0.728428 0.320776
vt 0.732225 0.273644
vt 0.765164 0.240361
vt 0.543404 0.875715
vt 0.475102 0.875715
vt 0.610272 0.875715
vt 0.070368 0.875715
vt 0.004669 0.875715
vt 0.135626 0.875715
vt 0.201325 0.875715
vt 0.268193 0.875715
vt 0.336495 0.875715
vt 0.405798 0.875715
vt 0.543271 0.996502
vt 0.475012 0.996457
vt 0.610160 0.996553
vt 0.070325 0.996585
vt 0.004558 0.996553
vt 0.135669 0.996585
vt 0.201436 0.996553
vt 0.268325 0.996502
vt 0.336585 0.996457
vt 0.405798 0.996439
vt 0.847992 0.110459
vt 0.961576 0.191103
vt 0.932724 0.210397
vt 0.838791 0.143726
vt 0.998103 0.325992
vt 0.962952 0.321946
vt 0.940515 0.452007
vt 0.915333 0.426179
vt 0.815765 0.510215
vt 0.812149 0.474325
vt 0.682197 0.473394
vt 0.701678 0.443857
vt 0.602290 0.358746
vt 0.635611 0.349031
vt 0.613457 0.219893
vt 0.644863 0.234213
vt 0.710497 0.121826
vt 0.725104 0.153132
vt 0.919914 0.218789
vt 0.834665 0.158284
vt 0.947348 0.320024
vt 0.904133 0.414621
vt 0.810487 0.458316
vt 0.710230 0.430664
vt 0.650272 0.344604
vt 0.658669 0.240404
vt 0.731492 0.166820
vt 0.854520 0.261719
vt 0.813629 0.232696
vt 0.867679 0.310278
vt 0.846950 0.355652
vt 0.802031 0.376611
vt 0.753942 0.363348
vt 0.725182 0.322068
vt 0.729209 0.272086
vt 0.764141 0.236794
vt 0.929852 0.525885
vt 0.945197 0.525884
vt 0.945197 0.662033
vt 0.929852 0.662033
vt 0.960235 0.525883
vt 0.960235 0.662033
vt 0.824081 0.525883
vt 0.838870 0.525882
vt 0.838870 0.662033
vt 0.824082 0.662033
vt 0.853564 0.525882
vt 0.853564 0.662033
vt 0.868352 0.525883
vt 0.868352 0.662033
vt 0.883391 0.525884
vt 0.883391 0.662033
vt 0.898736 0.525885
vt 0.898736 0.662033
vt 0.914293 0.525879
vt 0.914293 0.662033
vn 0.530918 -0.720875 -0.445494
vn 0.120350 -0.720875 -0.682536
vn 0.173644 0.007321 -0.984781
vn 0.766024 0.007321 -0.642771
vn -0.346532 -0.720876 -0.600212
vn -0.499986 0.007320 -0.866002
vn -0.651268 -0.720875 -0.237042
vn -0.939668 0.007321 -0.342011
vn -0.651268 -0.720875 0.237042
vn -0.939668 0.007321 0.342010
vn -0.346532 -0.720876 0.600211
vn -0.499987 0.007321 0.866002
vn 0.120350 -0.720876 0.682535
vn 0.173644 0.007320 0.984781
vn 0.530918 -0.720876 0.445494
vn 0.766024 0.007320 0.642771
vn 0.693064 -0.720876 0.000000
vn 0.999973 0.007320 0.000000
vn 0.000000 -1.000000 0.000000
vn 0.461840 0.797832 -0.387515
vn 0.104682 0.797846 -0.593703
vn 0.000000 1.000000 0.000000
vn -0.301425 0.797860 -0.522075
vn -0.566476 0.797870 -0.206178
vn -0.566476 0.797870 0.206179
vn -0.301425 0.797860 0.522076
vn 0.104681 0.797845 0.593705
vn 0.461840 0.797832 0.387516
vn 0.602901 0.797816 -0.000000
vn 0.173590 -0.010760 -0.984759
vn 0.765976 -0.011147 -0.642772
vn -0.500011 -0.010320 -0.865958
vn -0.939651 -0.010032 -0.341986
vn -0.939651 -0.010033 0.341986
vn -0.500012 -0.010320 0.865957
vn 0.173589 -0.010761 0.984759
vn 0.765976 -0.011147 0.642772
vn 0.999936 -0.011300 0.000000
vn 0.145402 0.553763 -0.819881
vn 0.639808 0.550626 -0.536150
vn -0.414558 0.557253 -0.719452
vn -0.778759 0.559488 -0.283738
vn -0.778759 0.559488 0.283738
vn -0.414559 0.557252 0.719451
vn 0.145401 0.553762 0.819882
vn 0.639808 0.550626 0.536150
vn 0.835579 0.549370 0.000000
vn -0.054265 0.948997 0.310579
vn -0.241749 0.948804 0.203292
vn 0.157642 0.949230 0.272232
vn 0.295207 0.949391 0.107284
vn 0.295207 0.949391 -0.107283
vn 0.157642 0.949231 -0.272229
vn -0.054264 0.948999 -0.310574
vn -0.241749 0.948805 -0.203290
vn -0.316084 0.948731 -0.000001
vn -0.092560 0.848097 0.521694
vn -0.408998 0.845736 0.342713
vn 0.262379 0.850726 0.455437
vn 0.491268 0.852414 0.179013
vn 0.491267 0.852415 -0.179013
vn 0.262379 0.850727 -0.455434
vn -0.092559 0.848100 -0.521689
vn -0.408997 0.845736 -0.342712
vn -0.535094 0.844793 -0.000001
vn 0.114697 0.749883 -0.651553
vn 0.506394 0.750262 -0.425056
vn -0.331155 0.749472 -0.573261
vn -0.622409 0.749211 -0.226473
vn -0.622409 0.749211 0.226473
vn -0.331156 0.749471 0.573262
vn 0.114696 0.749881 0.651554
vn 0.506393 0.750262 0.425057
vn 0.660982 0.750402 0.000000
s 1
g Smoke_Grenade polySurface1
f 1/1/1 2/2/2 11/3/3 10/4/4
f 2/2/2 3/5/5 12/6/6 11/3/3
f 3/7/5 4/8/7 13/9/8 12/10/6
f 4/8/7 5/11/9 14/12/10 13/9/8
f 5/11/9 6/13/11 15/14/12 14/12/10
f 6/13/11 7/15/13 16/16/14 15/14/12
f 7/15/13 8/17/15 17/18/16 16/16/14
f 8/17/15 9/19/17 18/20/18 17/18/16
f 9/19/17 1/1/1 10/4/4 18/20/18
f 2/21/2 1/22/1 19/23/19
f 3/24/5 2/21/2 19/23/19
f 4/25/7 3/24/5 19/23/19
f 5/26/9 4/25/7 19/23/19
f 6/27/11 5/26/9 19/23/19
f 7/28/13 6/27/11 19/23/19
f 8/29/15 7/28/13 19/23/19
f 9/30/17 8/29/15 19/23/19
f 1/22/1 9/30/17 19/23/19
f 65/31/20 66/32/21 67/33/22
f 66/32/21 68/34/23 67/33/22
f 68/34/23 69/35/24 67/33/22
f 69/35/24 70/36/25 67/33/22
f 70/36/25 71/37/26 67/33/22
f 71/37/26 72/38/27 67/33/22
f 72/38/27 73/39/28 67/33/22
f 73/39/28 74/40/29 67/33/22
f 74/40/29 65/31/20 67/33/22
f 10/4/4 11/3/3 21/41/30 20/42/31
f 11/3/3 12/6/6 22/43/32 21/41/30
f 12/10/6 13/9/8 23/44/33 22/45/32
f 13/9/8 14/12/10 24/46/34 23/44/33
f 14/12/10 15/14/12 25/47/35 24/46/34
f 15/14/12 16/16/14 26/48/36 25/47/35
f 16/16/14 17/18/16 27/49/37 26/48/36
f 17/18/16 18/20/18 28/50/38 27/49/37
f 18/20/18 10/4/4 20/42/31 28/50/38
f 20/42/31 21/41/30 30/51/39 29/52/40
f 21/41/30 22/43/32 31/53/41 30/51/39
f 22/45/32 23/44/33 32/54/42 31/55/41
f 23/44/33 24/46/34 33/56/43 32/54/42
f 24/46/34 25/47/35 34/57/44 33/56/43
f 25/47/35 26/48/36 35/58/45 34/57/44
f 26/48/36 27/49/37 36/59/46 35/58/45
f 27/49/37 28/50/38 37/60/47 36/59/46
f 28/50/38 20/42/31 29/52/40 37/60/47
f 29/61/40 30/62/39 39/63/48 38/64/49
f 30/62/39 31/65/41 40/66/50 39/63/48
f 31/65/41 32/67/42 41/68/51 40/66/50
f 32/67/42 33/69/43 42/70/52 41/68/51
f 33/69/43 34/71/44 43/72/53 42/70/52
f 34/71/44 35/73/45 44/74/54 43/72/53
f 35/73/45 36/75/46 45/76/55 44/74/54
f 36/75/46 37/77/47 46/78/56 45/76/55
f 37/77/47 29/61/40 38/64/49 46/78/56
f 38/64/49 39/63/48 48/79/57 47/80/58
f 39/63/48 40/66/50 49/81/59 48/79/57
f 40/66/50 41/68/51 50/82/60 49/81/59
f 41/68/51 42/70/52 51/83/61 50/82/60
f 42/70/52 43/72/53 52/84/62 51/83/61
f 43/72/53 44/74/54 53/85/63 52/84/62
f 44/74/54 45/76/55 54/86/64 53/85/63
f 45/76/55 46/78/56 55/87/65 54/86/64
f 46/78/56 38/64/49 47/80/58 55/87/65
f 47/80/58 48/79/57 57/88/66 56/89/67
f 48/79/57 49/81/59 58/90/68 57/88/66
f 49/81/59 50/82/60 59/91/69 58/90/68
f 50/82/60 51/83/61 60/92/70 59/91/69
f 51/83/61 52/84/62 61/93/71 60/92/70
f 52/84/62 53/85/63 62/94/72 61/93/71
f 53/85/63 54/86/64 63/95/73 62/94/72
f 54/86/64 55/87/65 64/96/74 63/95/73
f 55/87/65 47/80/58 56/89/67 64/96/74
f 56/97/67 57/98/66 66/99/21 65/100/20
f 57/98/66 58/101/68 68/102/23 66/99/21
f 58/103/68 59/104/69 69/105/24 68/106/23
f 59/104/69 60/107/70 70/108/25 69/105/24
f 60/107/70 61/109/71 71/110/26 70/108/25
f 61/109/71 62/111/72 72/112/27 71/110/26
f 62/111/72 63/113/73 73/114/28 72/112/27
f 63/113/73 64/115/74 74/116/29 73/114/28
f 64/115/74 56/97/67 65/100/20 74/116/29
g default
v -0.249419 2.956933 0.214939
v 0.249418 2.956925 0.214942
v -0.277003 3.612205 0.233252
v 0.277002 3.612207 0.233252
v -0.297760 3.601997 -0.219520
v 0.297759 3.601997 -0.219520
v -0.355612 2.959933 -0.241252
v 0.355612 2.959933 -0.241252
v -0.369760 3.545510 -0.421699
v 0.369770 3.545508 -0.421689
v 0.303072 2.958734 -0.549962
v -0.300315 2.960121 -0.550529
v -0.357001 3.287712 -0.532674
v 0.356989 3.287702 -0.532659
v 0.293980 2.972361 -0.645604
v -0.297078 2.972855 -0.648310
v -0.214303 2.562124 -0.767367
v 0.214303 2.562124 -0.767367
v -0.214316 2.562200 -0.814676
v 0.214316 2.562200 -0.814676
v -0.187016 1.707181 -0.863337
v 0.187016 1.707181 -0.863337
v -0.187019 1.707199 -0.918470
v 0.187019 1.707199 -0.918470
v -0.132947 0.988827 -0.880024
v 0.132947 0.988827 -0.880024
v -0.132947 0.988827 -0.933110
v 0.132947 0.988827 -0.933110
v 0.367817 3.529663 -0.215630
v 0.365771 3.457916 0.336472
v -0.365776 3.457845 0.336440
v -0.367817 3.529640 -0.215630
v 0.307087 3.544603 0.484410
v -0.307075 3.544494 0.484392
v 0.237768 3.611916 0.453533
v -0.237770 3.611916 0.453533
vt 0.669656 0.524322
vt 0.762785 0.524329
vt 0.784499 0.617862
vt 0.647925 0.617836
vt 0.597342 0.275799
vt 0.493913 0.275799
vt 0.490038 0.191270
vt 0.601217 0.191270
vt 0.505667 0.139042
vt 0.505669 0.005746
vt 0.564540 0.017509
vt 0.564448 0.127855
vt 0.644344 0.731337
vt 0.777124 0.731337
vt 0.757298 0.816504
vt 0.664170 0.816504
vt 0.782896 0.743895
vt 0.868063 0.744456
vt 0.863280 0.850820
vt 0.760207 0.837426
vt 0.751179 0.981047
vt 0.854246 0.967643
vt 0.834982 0.996461
vt 0.750453 0.994555
vt 0.476594 0.153526
vt 0.614659 0.153524
vt 0.925697 0.744232
vt 0.901749 0.853779
vt 0.654668 0.673597
vt 0.767315 0.673703
vt 0.712707 0.984009
vt 0.457538 0.141424
vt 0.457538 0.003360
vt 0.943553 0.746776
vt 0.922467 0.805648
vt 0.444419 0.016764
vt 0.394779 0.016765
vt 0.394779 0.006854
vt 0.444419 0.006853
vt 0.688656 0.874722
vt 0.691989 0.935880
vt 0.670401 0.877099
vt 0.476180 0.384531
vt 0.363532 0.384790
vt 0.379590 0.310487
vt 0.459608 0.310487
vt 0.639342 0.800433
vt 0.648174 0.800419
vt 0.641114 0.032381
vt 0.641114 0.112404
vt 0.966285 0.670188
vt 0.975117 0.670203
vt 0.384685 0.150876
vt 0.454513 0.150876
vt 0.619964 0.640811
vt 0.630257 0.640808
vt 0.800736 0.037478
vt 0.800736 0.107308
vt 0.984202 0.510577
vt 0.994495 0.510581
vt 0.617231 0.506697
vt 0.627142 0.506697
vt 0.934851 0.047573
vt 0.934851 0.097213
vt 0.987317 0.376466
vt 0.997228 0.376466
vt 0.864006 0.864325
vt 0.779477 0.866231
vt 0.658880 0.645459
vt 0.773539 0.645479
vt 0.760598 0.658046
vt 0.671818 0.658046
vt 0.746396 0.874687
vt 0.831563 0.874127
vt 0.738352 0.866176
vt 0.732588 0.853610
vt 0.590017 0.316923
vt 0.501238 0.316923
vt 0.881868 0.983820
vt 0.876107 0.996407
vn -0.495196 -0.686299 0.532706
vn 0.495180 -0.686301 0.532717
vn 0.835958 -0.010865 0.548685
vn -0.835938 -0.011006 0.548713
vn -0.447010 0.894076 0.028472
vn 0.446894 0.894136 0.028407
vn 0.423411 0.904598 -0.049253
vn -0.423489 0.904562 -0.049238
vn -0.472554 0.272032 -0.838267
vn 0.468309 0.271561 -0.840798
vn 0.721115 0.141317 -0.678250
vn -0.733782 0.133999 -0.666039
vn -0.671113 -0.741341 -0.004527
vn 0.671116 -0.741347 -0.002711
vn 0.953573 0.299621 0.030420
vn -0.953752 0.299195 0.028985
vn 0.780289 0.531896 -0.328992
vn -0.783511 0.531976 -0.321109
vn 0.824459 -0.520859 0.221298
vn -0.816501 -0.525051 0.240099
vn 0.557434 -0.613951 0.558867
vn -0.557434 -0.613951 0.558867
vn -0.565787 -0.598414 -0.567262
vn 0.565787 -0.598414 -0.567262
vn -0.703246 -0.287273 0.650322
vn 0.710972 -0.283727 0.643442
vn -0.707463 0.100177 -0.699614
vn 0.701043 0.105718 -0.705239
vn -0.705062 -0.085368 0.703988
vn 0.705062 -0.085368 0.703988
vn -0.707818 0.012020 -0.706292
vn 0.707818 0.012020 -0.706292
vn -0.469076 0.094670 0.878069
vn 0.469067 0.094845 0.878055
vn 0.332414 0.848987 0.410757
vn -0.332551 0.848888 0.410852
s 1
g polySurface1 Lever
f 75/117/75 76/118/76 104/119/77 105/120/78
f 77/121/79 78/122/80 80/123/81 79/124/82
f 87/125/83 88/126/84 89/127/85 90/128/86
f 81/129/87 82/130/88 76/131/76 75/132/75
f 76/133/76 82/134/88 103/135/89 104/136/77
f 106/137/90 105/138/78 77/139/79 79/140/82
f 79/124/82 80/123/81 84/141/91 83/142/92
f 103/135/89 82/134/88 85/143/93 84/144/91
f 82/130/88 81/129/87 86/145/94 85/146/93
f 106/137/90 79/140/82 83/147/92
f 83/148/92 84/149/91 88/126/84 87/125/83
f 84/144/91 85/143/93 89/150/85 88/151/84
f 100/152/95 99/153/96 101/154/97 102/155/98
f 86/156/94 83/147/92 87/157/83 90/158/86
f 85/159/93 86/160/94 91/161/99 92/162/100
f 86/156/94 90/158/86 93/163/101 91/164/99
f 90/128/86 89/127/85 94/165/102 93/166/101
f 89/150/85 85/143/93 92/167/100 94/168/102
f 92/162/100 91/161/99 95/169/103 96/170/104
f 91/164/99 93/163/101 97/171/105 95/172/103
f 93/166/101 94/165/102 98/173/106 97/174/105
f 94/168/102 92/167/100 96/175/104 98/176/106
f 96/170/104 95/169/103 99/153/96 100/152/95
f 95/172/103 97/171/105 101/177/97 99/178/96
f 97/174/105 98/173/106 102/179/98 101/180/97
f 98/176/106 96/175/104 100/181/95 102/182/98
f 80/183/81 103/135/89 84/144/91
f 104/136/77 103/135/89 80/183/81 78/184/80
f 108/185/107 107/186/108 109/187/109 110/188/110
f 81/189/87 106/137/90 83/147/92 86/156/94
f 81/189/87 75/190/75 105/138/78 106/137/90
f 105/120/78 104/119/77 107/186/108 108/185/107
f 104/136/77 78/184/80 109/191/109 107/192/108
f 78/122/80 77/121/79 110/193/110 109/194/109
f 77/139/79 105/138/78 108/195/107 110/196/110
g default
v 0.298149 3.349537 -0.898550
v 0.342602 3.081922 -0.973806
v 0.431511 2.867313 -0.814762
v 0.497923 2.867313 -0.541181
v 0.491832 3.081922 -0.359075
v 0.417821 3.349537 -0.405574
v 0.331625 3.468637 -0.645662
v 0.271852 3.353291 -0.903854
v 0.318295 3.073694 -0.982480
v 0.411184 2.849473 -0.816313
v 0.480570 2.849473 -0.530482
v 0.474206 3.073694 -0.340222
v 0.396882 3.353291 -0.388803
v 0.306826 3.477724 -0.639643
v 0.272628 3.369519 -0.922952
v 0.322293 3.070533 -1.007031
v 0.421624 2.830764 -0.829343
v 0.495823 2.830764 -0.523689
v 0.489015 3.070533 -0.320236
v 0.406329 3.369519 -0.372186
v 0.310028 3.502581 -0.640420
v 0.299406 3.375796 -0.929453
v 0.349070 3.076809 -1.013532
v 0.448401 2.837040 -0.835843
v 0.522600 2.837040 -0.530190
v 0.515794 3.076809 -0.326736
v 0.433107 3.375796 -0.378687
v 0.336806 3.508858 -0.646920
v 0.315179 3.363447 -0.914371
v 0.361622 3.083848 -0.992997
v 0.454512 2.859628 -0.826832
v 0.523899 2.859628 -0.541000
v 0.517533 3.083848 -0.350740
v 0.440210 3.363446 -0.399321
v 0.350153 3.487878 -0.650160
vt 0.982804 0.739923
vt 0.973460 0.782264
vt 0.969485 0.781463
vt 0.978844 0.738997
vt 0.994548 0.698216
vt 0.990840 0.696230
vt 0.938006 0.953856
vt 0.926547 0.996388
vt 0.922430 0.996097
vt 0.934120 0.952856
vt 0.947625 0.910848
vt 0.943674 0.910006
vt 0.956299 0.867909
vt 0.952330 0.867117
vt 0.964820 0.825029
vt 0.960846 0.824252
vt 0.966075 0.780788
vt 0.975450 0.738228
vt 0.987761 0.693805
vt 0.918615 0.996588
vt 0.930832 0.952013
vt 0.940290 0.909311
vt 0.948931 0.866462
vt 0.957441 0.823600
vt 0.961795 0.779896
vt 0.971254 0.737194
vt 0.983470 0.692619
vt 0.914325 0.995402
vt 0.926636 0.950979
vt 0.936007 0.908422
vt 0.944641 0.865610
vt 0.953155 0.822748
vt 0.958411 0.779200
vt 0.967966 0.736354
vt 0.979656 0.693110
vt 0.911245 0.992976
vt 0.923241 0.950209
vt 0.932601 0.907744
vt 0.941239 0.864955
vt 0.949755 0.822090
vt 0.954460 0.778359
vt 0.964079 0.735351
vt 0.975539 0.692819
vt 0.907538 0.990991
vt 0.919281 0.949284
vt 0.928625 0.906946
vt 0.937265 0.864178
vt 0.945787 0.821301
vn 0.181959 0.216966 0.959071
vn 0.318985 -0.607923 0.727102
vn -0.811383 -0.391404 0.434120
vn -0.851774 -0.148252 0.502496
vn -0.092074 0.878472 0.468838
vn -0.932554 0.046735 0.357993
vn -0.296785 0.878473 -0.374439
vn -0.992896 0.046735 0.109420
vn -0.278008 0.216966 -0.935755
vn -0.987361 -0.148252 -0.056038
vn -0.049875 -0.607920 -0.792430
vn -0.920116 -0.391403 -0.013793
vn 0.215815 -0.975028 -0.052394
vn -0.841797 -0.499618 0.204352
vn -0.821107 0.355563 -0.446496
vn -0.711108 -0.306598 -0.632711
vn -0.491103 -0.837618 -0.239195
vn -0.326776 -0.837617 0.437738
vn -0.341865 -0.306595 0.888329
vn -0.524993 0.355570 0.773273
vn -0.738274 0.650255 0.179223
vn 0.308970 0.620430 -0.720836
vn 0.418961 -0.041738 -0.907044
vn 0.638951 -0.572750 -0.513516
vn 0.803280 -0.572748 0.163405
vn 0.788203 -0.041732 0.613999
vn 0.605073 0.620431 0.498951
vn 0.391796 0.915123 -0.095108
vn 0.999440 0.033006 -0.005461
vn 0.959050 0.276159 0.062917
vn 0.878272 0.471149 -0.081594
vn 0.817927 0.471151 -0.330171
vn 0.823460 0.276165 -0.495628
vn 0.890708 0.033009 -0.453376
vn 0.969025 -0.075205 -0.235235
s 1
g polySurface1 Pin
f 112/197/111 111/198/112 118/199/113 119/200/114
f 113/201/115 112/197/111 119/200/114 120/202/116
f 114/203/117 113/204/115 120/205/116 121/206/118
f 115/207/119 114/203/117 121/206/118 122/208/120
f 116/209/121 115/207/119 122/208/120 123/210/122
f 117/211/123 116/209/121 123/210/122 124/212/124
f 111/198/112 117/211/123 124/212/124 118/199/113
f 119/200/114 118/199/113 125/213/125 126/214/126
f 120/202/116 119/200/114 126/214/126 127/215/127
f 121/206/118 120/205/116 127/216/127 128/217/128
f 122/208/120 121/206/118 128/217/128 129/218/129
f 123/210/122 122/208/120 129/218/129 130/219/130
f 124/212/124 123/210/122 130/219/130 131/220/131
f 118/199/113 124/212/124 131/220/131 125/213/125
f 126/214/126 125/213/125 132/221/132 133/222/133
f 127/215/127 126/214/126 133/222/133 134/223/134
f 128/217/128 127/216/127 134/224/134 135/225/135
f 129/218/129 128/217/128 135/225/135 136/226/136
f 130/219/130 129/218/129 136/226/136 137/227/137
f 131/220/131 130/219/130 137/227/137 138/228/138
f 125/213/125 131/220/131 138/228/138 132/221/132
f 133/222/133 132/221/132 139/229/139 140/230/140
f 134/223/134 133/222/133 140/230/140 141/231/141
f 135/225/135 134/224/134 141/232/141 142/233/142
f 136/226/136 135/225/135 142/233/142 143/234/143
f 137/227/137 136/226/136 143/234/143 144/235/144
f 138/228/138 137/227/137 144/235/144 145/236/145
f 132/221/132 138/228/138 145/236/145 139/229/139
f 140/230/140 139/229/139 111/237/112 112/238/111
f 141/231/141 140/230/140 112/238/111 113/239/115
f 142/233/142 141/232/141 113/240/115 114/241/117
f 143/234/143 142/233/142 114/241/117 115/242/119
f 144/235/144 143/234/143 115/242/119 116/243/121
f 145/236/145 144/235/144 116/243/121 117/244/123
f 139/229/139 145/236/145 117/244/123 111/237/112
