<?xml version="1.0" encoding="UTF-8"?>
<svg width="512px" height="512px" viewBox="0 0 512 512" version="1.1" xmlns="http://www.w3.org/2000/svg" xmlns:xlink="http://www.w3.org/1999/xlink">
    <!-- Generator: Sketch 59 (86127) - https://sketch.com -->
    <title>ic_arrow_right</title>
    <desc>Created with Sketch.</desc>
    <g id="ic_arrow_right" stroke="none" stroke-width="1" fill="none" fill-rule="evenodd">
        <path d="M305.844614,24.7634916 L488.49856,207.683745 C490.498743,209.237441 492.424066,210.933989 494.260764,212.773389 C505.963381,224.493226 511.875212,239.816291 512,255.176625 L512,255.999516 C512.084503,271.635308 506.172356,287.297491 494.260764,299.226611 C492.424531,301.065545 490.499717,302.7617 488.500077,304.315076 L305.844614,487.236508 C282.194758,510.921164 243.850765,510.921164 220.200909,487.236508 C196.787552,463.788699 196.553419,425.917976 219.498509,402.181709 L220.200909,401.466784 L281.239347,324.085938 L68.1367607,324.085938 C30.5058669,324.085938 0,293.602825 0,256 C0,218.397175 30.5058669,187.914062 68.1367607,187.914062 L281.936288,187.914062 L220.200909,110.533216 C196.551054,86.8485609 196.551054,48.4481471 220.200909,24.7634916 C243.850765,1.07883613 282.194758,1.07883613 305.844614,24.7634916 Z" id="Path" fill="#FFFFFF"></path>
    </g>
</svg>