<?xml version="1.0" encoding="UTF-8"?>
<svg width="512px" height="512px" viewBox="0 0 512 512" version="1.1" xmlns="http://www.w3.org/2000/svg" xmlns:xlink="http://www.w3.org/1999/xlink">
    <!-- Generator: Sketch 59 (86127) - https://sketch.com -->
    <title>ic_announcement_v2</title>
    <desc>Created with Sketch.</desc>
    <g id="ic_announcement_v2" stroke="none" stroke-width="1" fill="none" fill-rule="evenodd">
        <path d="M444.693587,0 L410.489311,0 C410.447126,0 410.414062,0.0227555556 410.371876,0.0227555556 C410.16323,0.0250311111 409.977387,0.137671111 409.768741,0.145635556 C402.933587,0.444871111 414.675914,-5.34414222 234.730641,102.4 L136.855107,102.4 C70.8511164,102.4 16,155.999573 16,221.866667 C16,281.890133 61.8907363,331.237831 119.752969,339.608462 L119.752969,460.8 C119.752969,489.032818 142.767886,512 171.059382,512 C199.350879,512 222.365796,489.032818 222.365796,460.8 L222.365796,341.333333 L234.730641,341.333333 C412.064988,447.514169 403.795534,443.733333 410.489311,443.733333 L444.693587,443.733333 C472.985083,443.733333 496,420.766151 496,392.533333 L496,51.2 C496,22.9671822 472.985083,0 444.693587,0 Z" id="Path" fill="#FFFFFF" fill-rule="nonzero"></path>
    </g>
</svg>