<?xml version="1.0" encoding="UTF-8"?>
<svg width="512px" height="512px" viewBox="0 0 512 512" version="1.1" xmlns="http://www.w3.org/2000/svg" xmlns:xlink="http://www.w3.org/1999/xlink">
    <!-- Generator: Sketch 59 (86127) - https://sketch.com -->
    <title>ic_arrow_top</title>
    <desc>Created with Sketch.</desc>
    <g id="ic_arrow_top" stroke="none" stroke-width="1" fill="none" fill-rule="evenodd">
        <path d="M24.7634916,206.156442 L207.683745,23.5031269 C209.237441,21.5029501 210.933989,19.5776335 212.773389,17.7409428 C224.493226,6.03836574 239.816291,0.12655472 255.176625,0 L255.999516,0 C271.635308,-0.0827348423 287.297491,5.82939115 299.226611,17.7409428 C301.065545,19.5771689 302.7617,21.501976 304.315076,23.5016089 L487.236508,206.156442 C510.921164,229.806216 510.921164,268.150076 487.236508,291.799851 C463.788699,315.213127 425.917976,315.44726 402.181709,292.502249 L401.466784,291.799851 L324.085938,230.761624 L324.085938,443.863475 C324.085938,481.494238 293.602825,512 256,512 C218.397175,512 187.914062,481.494238 187.914062,443.863475 L187.914062,230.064685 L110.533216,291.799851 C86.8485609,315.449625 48.4481471,315.449625 24.7634916,291.799851 C1.07883613,268.150076 1.07883613,229.806216 24.7634916,206.156442 Z" id="Path" fill="#FFFFFF"></path>
    </g>
</svg>