<?xml version="1.0" encoding="UTF-8"?>
<svg width="512px" height="512px" viewBox="0 0 512 512" version="1.1" xmlns="http://www.w3.org/2000/svg" xmlns:xlink="http://www.w3.org/1999/xlink">
    <!-- Generator: Sketch 59 (86127) - https://sketch.com -->
    <title>ic_arrow_bottom</title>
    <desc>Created with Sketch.</desc>
    <g id="ic_arrow_bottom" stroke="none" stroke-width="1" fill="none" fill-rule="evenodd">
        <path d="M487.236508,305.84408 L304.316255,488.497707 C302.762559,490.497888 301.066011,492.423208 299.226611,494.259901 C287.506774,505.962498 272.183709,511.874319 256.823375,512 L256.000484,512 C240.364692,512.083609 224.702509,506.171473 212.773389,494.259901 C210.934455,492.423672 209.2383,490.498862 207.684924,488.499225 L24.7634916,305.84408 C1.07883613,282.194266 1.07883613,243.85034 24.7634916,220.200525 C48.2113006,196.787209 86.0820242,196.553076 109.818291,219.498126 L110.533216,220.200525 L187.914062,281.238856 L187.914062,68.1366419 C187.914062,30.5058137 218.397175,0 256,0 C293.602825,0 324.085938,30.5058137 324.085938,68.1366419 L324.085938,281.935797 L401.466784,220.200525 C425.151439,196.550711 463.551853,196.550711 487.236508,220.200525 C510.921164,243.85034 510.921164,282.194266 487.236508,305.84408 Z" id="Path" fill="#FFFFFF"></path>
    </g>
</svg>