<?xml version="1.0" encoding="UTF-8"?>
<svg width="512px" height="512px" viewBox="0 0 512 512" version="1.1" xmlns="http://www.w3.org/2000/svg" xmlns:xlink="http://www.w3.org/1999/xlink">
    <!-- Generator: Sketch 59 (86127) - https://sketch.com -->
    <title>ic_announcement</title>
    <desc>Created with Sketch.</desc>
    <g id="ic_announcement" stroke="none" stroke-width="1" fill="none" fill-rule="evenodd">
        <g id="news_icon" transform="translate(1.000000, 1.000000)" fill="#FFFFFF" fill-rule="nonzero">
            <path d="M194.951867,9.8128015 C207.862165,-3.09648403 228.68508,-3.26860784 241.805395,9.29643008 L242.333042,9.8128015 L314.964665,82.4444251 C330.728155,66.6809354 356.173278,66.5018048 372.156805,81.9070334 L372.704182,82.4444251 L427.924713,137.663929 C443.688203,153.427419 443.867333,178.872542 428.462105,194.856069 L427.924,195.404 L500.556337,268.036097 C513.465622,280.945382 513.637746,301.768283 501.072708,314.889585 L500.556337,315.417271 C487.647051,328.326557 466.823151,328.498681 453.702809,315.933643 L453.175162,315.417271 L450.045866,315.412884 C350.938308,315.201081 353.122397,305.302497 279.585841,378.465571 L272.542,385.494 L325.486284,421.171561 L326.16182,421.724635 C337.55754,431.218563 344.430539,445.362446 344.430539,460.350884 C344.430539,474.140099 338.82161,486.644663 329.764351,495.701923 C320.707091,504.759182 308.202527,510.370165 294.412285,510.370165 C281.390092,510.370165 269.109526,505.386373 259.850903,496.514731 L259.194743,495.874442 L210.678,447.358 L157.348836,500.689577 C151.344165,506.694247 143.266529,510.149874 134.798285,510.359987 L133.977614,510.370165 C125.48592,510.370165 117.330564,507.102184 111.193905,501.262693 L9.6805881,399.763772 L9.6805881,399.763772 C3.48221855,393.565403 0,385.158171 0,376.392551 C0,367.900856 3.26798049,359.745501 9.10747181,353.608841 L9.6805881,353.021329 L129.614011,233.081147 C205.270738,157.189916 195.169213,160.451551 194.955227,60.3232413 L194.951867,57.1939763 L194.435495,56.6663294 C181.870457,43.5459875 182.042581,22.722087 194.951867,9.8128015 Z" id="Path"></path>
        </g>
    </g>
</svg>