<?xml version="1.0" encoding="UTF-8"?>
<svg width="512px" height="512px" viewBox="0 0 512 512" version="1.1" xmlns="http://www.w3.org/2000/svg" xmlns:xlink="http://www.w3.org/1999/xlink">
    <!-- Generator: Sketch 59 (86127) - https://sketch.com -->
    <title>ic_arrow_left</title>
    <desc>Created with Sketch.</desc>
    <g id="ic_arrow_left" stroke="none" stroke-width="1" fill="none" fill-rule="evenodd">
        <path d="M206.15592,487.236508 L23.5022926,304.316255 C21.5021124,302.762559 19.5767925,301.066011 17.7400986,299.226611 C6.03750161,287.506774 0.125680501,272.183709 0,256.823375 L0,256.000484 C-0.0836094193,240.364692 5.82852667,224.702509 17.7400986,212.773389 C19.5763279,210.934455 21.5011383,209.2383 23.5007746,207.684924 L206.15592,24.7634916 C229.805734,1.07883613 268.14966,1.07883613 291.799475,24.7634916 C315.212791,48.2113006 315.446924,86.0820242 292.501874,109.818291 L291.799475,110.533216 L230.761144,187.914062 L443.863358,187.914062 C481.494186,187.914062 512,218.397175 512,256 C512,293.602825 481.494186,324.085938 443.863358,324.085938 L230.064203,324.085938 L291.799475,401.466784 C315.449289,425.151439 315.449289,463.551853 291.799475,487.236508 C268.14966,510.921164 229.805734,510.921164 206.15592,487.236508 Z" id="Path" fill="#FFFFFF"></path>
    </g>
</svg>