<?xml version="1.0" encoding="UTF-8"?>
<svg width="512px" height="512px" viewBox="0 0 512 512" version="1.1" xmlns="http://www.w3.org/2000/svg" xmlns:xlink="http://www.w3.org/1999/xlink">
    <!-- Generator: Sketch 59 (86127) - https://sketch.com -->
    <title>ic_bomb</title>
    <desc>Created with Sketch.</desc>
    <g id="ic_bomb" stroke="none" stroke-width="1" fill="none" fill-rule="evenodd">
        <path d="M368.670261,224.279761 C401.465937,254.585141 422,297.950412 422,346.108535 C422,437.727861 347.679268,512 256,512 C164.320732,512 90,437.727861 90,346.108535 C90,297.523575 106.685503,255.50063 139.906199,225.194536 L140.917948,224.279761 L368.670261,224.279761 Z M256,66.665692 C263.353952,66.665692 269.315508,72.6233502 269.315508,79.9724941 L269.315508,129.651222 L287.069519,129.651222 C324.927664,129.651222 355.689435,160.014546 356.300884,197.70232 L356.31016,198.846592 L154.802139,198.846592 C154.802139,160.631044 185.80223,129.651222 224.042781,129.651222 L242.684492,129.651222 L242.684492,79.9724941 C242.684492,72.6233502 248.646048,66.665692 256,66.665692 Z M206.367425,61.0190748 L225.204556,79.8438897 C230.409035,85.0326654 230.41179,93.458066 225.216861,98.6563946 C225.21481,98.6584466 225.212759,98.6604979 225.204556,98.6563946 L225.198397,98.6625496 C219.996319,103.848919 211.575663,103.848919 206.373584,98.6625496 L187.536453,79.8377347 C182.331975,74.6489589 182.329219,66.2235584 187.524149,61.0252298 C187.5262,61.0231778 187.528251,61.0211264 187.536453,61.0252298 L187.542612,61.0190748 C192.744691,55.8327054 201.165347,55.8327054 206.367425,61.0190748 Z M324.620857,61.0190748 L324.627016,61.0252298 C329.831495,66.2140055 329.83425,74.6394061 324.63932,79.8377347 C324.63727,79.8397867 324.635218,79.841838 324.627016,79.8377347 L305.789885,98.6625496 C300.587807,103.848919 292.167151,103.848919 286.965072,98.6625496 L286.958913,98.6563946 C281.754435,93.4676188 281.751679,85.0422183 286.946609,79.8438897 C286.94866,79.8418377 286.950711,79.8397863 286.958913,79.8438897 L305.796044,61.0190748 C310.998123,55.8327054 319.418779,55.8327054 324.620857,61.0190748 Z M256.090441,0 C263.439585,-1.35001582e-15 269.397243,5.9576582 269.397243,13.306802 L269.397243,39.9204061 C269.397243,47.2695499 263.439585,53.2272081 256.090441,53.2272081 L256.073029,53.2272081 C248.723885,53.2272081 242.766227,47.2695499 242.766227,39.9204061 L242.766227,13.306802 C242.766227,5.9576582 248.723885,1.35001582e-15 256.073029,0 L256.090441,0 Z" id="bomb" fill="#FFFFFF"></path>
    </g>
</svg>