<?xml version="1.0" encoding="UTF-8"?>
<svg width="512px" height="512px" viewBox="0 0 512 512" version="1.1" xmlns="http://www.w3.org/2000/svg" xmlns:xlink="http://www.w3.org/1999/xlink">
    <!-- Generator: Sketch 59 (86127) - https://sketch.com -->
    <title>ic_backward</title>
    <desc>Created with Sketch.</desc>
    <g id="ic_backward" stroke="none" stroke-width="1" fill="none" fill-rule="evenodd">
        <path d="M170.500126,447.304099 L19.4374425,295.972484 C17.7832044,294.687097 16.1908791,293.283527 14.6718515,291.761775 C4.99328268,282.065845 0.10394337,269.388932 0.000738619807,256.681186 L0.000738619807,256.000401 C-0.0691487129,243.064765 4.82045109,230.107297 14.6718515,220.238225 C16.1904949,218.716858 17.7823988,217.313613 19.4361871,216.028491 L170.500126,64.6959007 C190.059575,45.1013664 221.771709,45.1013664 241.331159,64.6959007 C260.695015,84.0944896 260.888653,115.425289 241.912075,135.062522 L241.331159,135.653986 L145.893235,256.681186 L241.331159,376.346014 C260.890609,395.940548 260.890609,427.709565 241.331159,447.304099 C221.771709,466.898634 190.059575,466.898634 170.500126,447.304099 Z M426.499379,447.304099 L275.436696,295.972484 C273.782458,294.687097 272.190133,293.283527 270.671105,291.761775 C260.992536,282.065845 256.103197,269.388932 255.999992,256.681186 L255.999992,256.000401 C255.930105,243.064765 260.819705,230.107297 270.671105,220.238225 C272.189748,218.716858 273.781652,217.313613 275.435441,216.028491 L426.499379,64.6959007 C446.058829,45.1013664 477.770963,45.1013664 497.330413,64.6959007 C516.694268,84.0944896 516.887907,115.425289 497.911328,135.062522 L497.330413,135.653986 L401.892488,256.681186 L497.330413,376.346014 C516.889862,395.940548 516.889862,427.709565 497.330413,447.304099 C477.770963,466.898634 446.058829,466.898634 426.499379,447.304099 Z" id="Shape" fill="#FFFFFF"></path>
    </g>
</svg>