<?xml version="1.0" encoding="UTF-8"?>
<svg width="512px" height="512px" viewBox="0 0 512 512" version="1.1" xmlns="http://www.w3.org/2000/svg" xmlns:xlink="http://www.w3.org/1999/xlink">
    <!-- Generator: Sketch 59 (86127) - https://sketch.com -->
    <title>ic_camera</title>
    <desc>Created with Sketch.</desc>
    <g id="ic_camera" stroke="none" stroke-width="1" fill="none" fill-rule="evenodd">
        <path d="M230.403171,54 L138.826691,54 C116.78123,54 96.9400056,66.1499341 86.8765228,85.7238059 L86.5745695,86.3192211 L70.8471835,117.789679 L59.4387972,117.789679 C27.5243039,117.789679 1.5246422,143.486179 1.00784041,175.298973 L1,176.264849 L1,399.528724 C1,431.463081 26.6805168,457.475109 58.473522,457.992156 L59.4387972,458 L452.561203,458 C484.475696,458 510.475358,432.307316 510.99216,400.494599 L511,399.528724 L511,176.264849 C511,144.330492 485.319483,118.314647 453.526478,117.797524 L452.561203,117.789679 L426.001328,117.788682 L426.001297,96.5277505 C426.001297,84.78911 416.480042,75.2619282 404.748703,75.2619282 C393.021256,75.2619282 383.5,84.78911 383.5,96.5277505 L383.500996,117.788682 L297.715317,117.789679 L281.987931,86.3192211 C272.122751,66.5958529 252.403329,54.2486851 230.403171,54 Z M182.954422,181.369458 C241.541077,181.369458 289.201828,229.063767 289.201828,287.686887 C289.201828,346.310007 241.541077,394.000422 182.954422,394.000422 C124.367767,394.000422 76.703125,346.310007 76.703125,287.686887 C76.703125,229.063767 124.367767,181.369458 182.954422,181.369458 Z M367.661865,197.29064 L461.095948,197.29064 C472.147711,197.29064 481.117188,206.206464 481.117188,217.192118 C481.117188,228.046991 472.359999,236.881021 461.489756,237.089817 L461.095948,237.093596 L367.661865,237.093596 C356.610102,237.093596 347.640625,228.177773 347.640625,217.192118 C347.640625,206.337246 356.397814,197.503215 367.268056,197.29442 L367.661865,197.29064 Z" id="Shape" fill="#FFFFFF" fill-rule="nonzero"></path>
    </g>
</svg>