<?xml version="1.0" encoding="UTF-8"?>
<svg width="512px" height="512px" viewBox="0 0 512 512" version="1.1" xmlns="http://www.w3.org/2000/svg" xmlns:xlink="http://www.w3.org/1999/xlink">
    <!-- Generator: Sketch 59 (86127) - https://sketch.com -->
    <title>ic_coin</title>
    <desc>Created with Sketch.</desc>
    <g id="ic_coin" stroke="none" stroke-width="1" fill="none" fill-rule="evenodd">
        <path d="M256,0 C397.384896,0 512,114.615104 512,256 C512,397.384896 397.384896,512 256,512 C114.615104,512 0,397.384896 0,256 C0,114.615104 114.615104,0 256,0 Z M256.5,62 C149.632901,62 63,148.632901 63,255.5 C63,362.367099 149.632901,449 256.5,449 C363.367099,449 450,362.367099 450,255.5 C450,148.632901 363.367099,62 256.5,62 Z M256.5,102 C341.827994,102 411,171.172006 411,256.5 C411,341.827994 341.827994,411 256.5,411 C171.172006,411 102,341.827994 102,256.5 C102,171.172006 171.172006,102 256.5,102 Z M257,142 C232.395714,142 212.403414,161.746257 212.006029,186.255843 L212,187 L212,327 C212,351.852814 232.147186,372 257,372 C281.604286,372 301.596586,352.253743 301.993971,327.744157 L302,327 L302,187 C302,162.147186 281.852814,142 257,142 Z M257,176 C268.045695,176 277,184.954305 277,196 L277,316 C277,327.045695 268.045695,336 257,336 C245.954305,336 237,327.045695 237,316 L237,196 C237,184.954305 245.954305,176 257,176 Z" id="Combined-Shape" fill="#FFFFFF"></path>
    </g>
</svg>