<?xml version="1.0" encoding="UTF-8"?>
<svg width="512px" height="512px" viewBox="0 0 512 512" version="1.1" xmlns="http://www.w3.org/2000/svg" xmlns:xlink="http://www.w3.org/1999/xlink">
    <!-- Generator: Sketch 59 (86127) - https://sketch.com -->
    <title>ic_crown</title>
    <desc>Created with Sketch.</desc>
    <g id="ic_crown" stroke="none" stroke-width="1" fill="none" fill-rule="evenodd">
        <path d="M457.299145,359.769231 C487.509593,359.769231 512,384.221371 512,414.384615 C512,444.547859 487.509593,469 457.299145,469 L54.7008547,469 C24.4904068,469 0,444.547859 0,414.384615 C0,384.221371 24.4904068,359.769231 54.7008547,359.769231 L457.299145,359.769231 Z M464.410256,43 C490.693346,43 512,64.2733623 512,90.5153846 C512,111.755702 498.041375,129.740901 478.783431,135.825208 L464.431675,323.723077 L47.5301199,323.723077 L32.2582986,135.511173 C13.4972966,129.140598 0,111.40176 0,90.5153846 C0,64.2733623 21.306654,43 47.5897436,43 C73.8728332,43 95.1794872,64.2733623 95.1794872,90.5153846 C95.1794872,110.306557 83.0605734,127.271628 65.8278509,134.416438 L149.581549,209.260862 L231.907088,131.816852 C217.545295,123.637184 207.863248,108.205199 207.863248,90.5153846 C207.863248,64.2733623 229.169902,43 255.452991,43 C281.736081,43 303.042735,64.2733623 303.042735,90.5153846 C303.042735,108.225834 293.338087,123.673183 278.948617,131.845447 L357.362217,209.260862 L444.647378,133.75264 C428.22884,126.259361 416.820513,109.71757 416.820513,90.5153846 C416.820513,64.2733623 438.127167,43 464.410256,43 Z" id="Shape" fill="#FFFFFF"></path>
    </g>
</svg>