<?xml version="1.0" encoding="UTF-8"?>
<svg width="512px" height="512px" viewBox="0 0 512 512" version="1.1" xmlns="http://www.w3.org/2000/svg" xmlns:xlink="http://www.w3.org/1999/xlink">
    <!-- Generator: Sketch 59 (86127) - https://sketch.com -->
    <title>ic_close</title>
    <desc>Created with Sketch.</desc>
    <g id="ic_close" stroke="none" stroke-width="1" fill="none" fill-rule="evenodd">
        <path d="M482.660651,29.3393487 C521.779783,68.4584803 521.779783,131.883124 482.660651,171.002256 L397.664678,255.998229 L482.660651,340.997744 C521.779783,380.116876 521.779783,443.54152 482.660651,482.660651 C443.54152,521.779783 380.116876,521.779783 340.997744,482.660651 L256,397.662907 L171.002256,482.660651 C131.883124,521.779783 68.4584803,521.779783 29.3393487,482.660651 C-9.7797829,443.54152 -9.7797829,380.116876 29.3393487,340.997744 L114.337093,256 L29.3393487,171.002256 C-9.7797829,131.883124 -9.7797829,68.4584803 29.3393487,29.3393487 C68.4584803,-9.7797829 131.883124,-9.7797829 171.002256,29.3393487 L256,114.337093 L340.997744,29.3393487 C380.116876,-9.7797829 443.54152,-9.7797829 482.660651,29.3393487 Z" id="Path" fill="#FFFFFF"></path>
    </g>
</svg>