<?xml version="1.0" encoding="UTF-8"?>
<svg width="512px" height="512px" viewBox="0 0 512 512" version="1.1" xmlns="http://www.w3.org/2000/svg" xmlns:xlink="http://www.w3.org/1999/xlink">
    <!-- Generator: Sketch 59 (86127) - https://sketch.com -->
    <title>ic_diamond</title>
    <desc>Created with Sketch.</desc>
    <g id="ic_diamond" stroke="none" stroke-width="1" fill="none" fill-rule="evenodd">
        <path d="M490.15594,249.737654 C495.856944,249.737654 500.478521,254.35923 500.478521,260.060234 C500.478521,262.897244 499.310898,265.609202 497.250001,267.5589 L310.559697,444.175966 C306.418298,448.093907 299.884912,447.91276 295.966971,443.771361 C293.447186,441.107862 292.52937,437.307617 293.555759,433.787664 L345.055808,257.170598 C346.340165,252.765954 350.377607,249.737654 354.965686,249.737654 L490.15594,249.737654 Z M155.686138,249.737654 C160.243555,249.737654 164.261662,252.726333 165.572507,257.091162 L218.573166,433.571876 C220.21294,439.031966 217.115961,444.787543 211.65587,446.427317 C208.129594,447.486327 204.306199,446.58695 201.621801,444.067002 L13.6240622,267.586289 C9.46753725,263.684399 9.26111481,257.151762 13.1630048,252.995238 C15.1142151,250.916692 17.8381694,249.737654 20.689059,249.737654 L155.686138,249.737654 Z M298.898191,249.737654 C304.599194,249.737654 309.220771,254.35923 309.220771,260.060234 C309.220771,261.012118 309.089109,261.959428 308.829527,262.875234 L265.733618,414.91788 C264.178937,420.402806 258.472207,423.588899 252.987282,422.034217 C249.541163,421.057428 246.847734,418.363999 245.870945,414.91788 L202.775035,262.875234 C201.220354,257.390308 204.406447,251.683579 209.891372,250.128898 C210.807178,249.869316 211.754488,249.737654 212.706372,249.737654 L298.898191,249.737654 Z M84.5224397,93.3828597 C86.0404136,94.3561539 87.2769494,95.710108 88.108925,97.309909 L143.771982,204.344064 C146.402353,209.401988 144.434432,215.634583 139.376508,218.264953 C137.905493,219.029954 136.271845,219.429353 134.613801,219.429353 L10.3226107,219.429353 C4.62160683,219.429353 3.00567804e-05,214.807776 3.00567804e-05,209.106772 C3.00567804e-05,207.131572 0.566723663,205.197839 1.63285387,203.535076 L70.2609867,96.5009204 C73.3381495,91.7017003 79.7232195,90.3056969 84.5224397,93.3828597 Z M251.773858,108.012697 C256.98409,105.698626 263.083743,108.046429 265.397814,113.256661 L265.397814,113.256661 L306.107712,204.916776 C306.69361,206.235951 306.996333,207.663339 306.996333,209.106772 C306.996333,214.807776 302.374756,219.429353 296.673752,219.429353 L296.673752,219.429353 L214.975012,219.429353 C213.522746,219.429353 212.086823,219.122915 210.761076,218.530063 C205.556736,216.202771 203.224428,210.097177 205.551721,204.892837 L205.551721,204.892837 L246.540563,113.232722 C247.580858,110.906391 249.444894,109.047083 251.773858,108.012697 Z M427.659031,93.5762408 C432.459336,90.5007706 438.843913,91.8990256 441.919383,96.6993306 L441.919383,96.6993306 L510.36911,203.538141 C511.433986,205.200237 511.99997,207.13281 511.99997,209.106772 C511.99997,214.807776 507.378393,219.429353 501.677389,219.429353 L501.677389,219.429353 L379.1248,219.429353 C377.504465,219.429353 375.906886,219.047908 374.461332,218.315884 C369.37528,215.740322 367.340126,209.529357 369.915688,204.443305 L369.915688,204.443305 L424.01855,97.6044945 C424.85084,95.960942 426.107817,94.5700758 427.659031,93.5762408 Z M214.120891,65 C215.486423,65 216.838385,65.2709352 218.09847,65.7971128 C223.359241,67.993869 225.843115,74.0393889 223.646359,79.3001595 L223.646359,79.3001595 L183.779447,174.773058 C182.802882,177.111727 181.000095,179.009409 178.714554,180.104558 C173.573292,182.568066 167.408408,180.397316 164.944901,175.256054 L164.944901,175.256054 L119.197733,79.7831552 C118.530567,78.3908016 118.184231,76.8665231 118.184231,75.3225806 C118.184231,69.6215768 122.805808,65 128.506812,65 L128.506812,65 Z M383.095458,65 C388.796462,65 393.418039,69.6215768 393.418039,75.3225806 C393.418039,76.8671559 393.071418,78.3920429 392.403726,79.7848459 L346.714715,175.091949 C344.250274,180.232763 338.084996,182.402393 332.944182,179.937952 C330.639844,178.833282 328.827164,176.913141 327.856888,174.549069 L288.740388,79.2419667 C286.575771,73.9678908 289.096485,67.9376385 294.370561,65.7730213 C295.614223,65.2625903 296.945613,65 298.289947,65 L383.095458,65 Z" id="diamong" fill="#FFFFFF"></path>
    </g>
</svg>