<?xml version="1.0" encoding="UTF-8"?>
<svg width="512px" height="512px" viewBox="0 0 512 512" version="1.1" xmlns="http://www.w3.org/2000/svg" xmlns:xlink="http://www.w3.org/1999/xlink">
    <!-- Generator: Sketch 59 (86127) - https://sketch.com -->
    <title>ic_delete</title>
    <desc>Created with Sketch.</desc>
    <g id="ic_delete" stroke="none" stroke-width="1" fill="none" fill-rule="evenodd">
        <path d="M449,194 L449,482 C449,498.568542 435.568542,512 419,512 L92,512 C75.4314575,512 62,498.568542 62,482 L62,194 L449,194 Z M186,244 C169.431458,244 156,257.431458 156,274 L156,274 L156,426 C156,442.568542 169.431458,456 186,456 C202.568542,456 216,442.568542 216,426 L216,426 L216,274 C216,257.431458 202.568542,244 186,244 Z M326,244 C309.431458,244 296,257.431458 296,274 L296,274 L296,426 C296,442.568542 309.431458,456 326,456 C342.568542,456 356,442.568542 356,426 L356,426 L356,274 C356,257.431458 342.568542,244 326,244 Z M436.5,68 C460.524387,68 480,87.4756134 480,111.5 C480,135.524387 460.524387,155 436.5,155 L75.5,155 C51.4756134,155 32,135.524387 32,111.5 C32,87.4756134 51.4756134,68 75.5,68 L436.5,68 Z M294,0 C317.510762,0 336.614515,18.8686458 336.994239,42.2889164 L337,43 L166,43 C166,19.2517558 185.251756,0 209,0 L294,0 Z" id="Shape" fill="#FFFFFF"></path>
    </g>
</svg>