<?xml version="1.0" encoding="UTF-8"?>
<svg width="512px" height="512px" viewBox="0 0 512 512" version="1.1" xmlns="http://www.w3.org/2000/svg" xmlns:xlink="http://www.w3.org/1999/xlink">
    <!-- Generator: Sketch 59 (86127) - https://sketch.com -->
    <title>ic_dislike</title>
    <desc>Created with Sketch.</desc>
    <g id="ic_dislike" stroke="none" stroke-width="1" fill="none" fill-rule="evenodd">
        <path d="M255.997748,494 L241.96983,494 C203.395884,494 171.452454,463.089279 171.007931,424.516481 C170.74317,401.501233 176.637281,345.572109 187.634324,324.763797 L188.049103,324.000081 L55.512314,324.000081 C28.9710232,324.000081 4.33676914,305.308641 1.33821973,278.937027 C-0.407069496,263.589121 4.71908136,249.384757 14.0144714,239.000121 C-11.2871324,210.737307 2.1311217,165.725152 38.5853838,155.792956 C36.2779373,149.965525 34.9997929,143.624574 34.9997929,136.999717 C34.9997929,113.524852 50.9528449,93.6853449 72.5851562,87.7923099 C58.5284294,52.2949749 86.3576467,18.6789203 122.469357,18.0101489 L123.566152,18 L234.771502,18 C298.663373,18 340.801338,33.9803515 373.995489,45.0851494 L374.998648,45.4201445 L374.998648,300.503725 L362.033216,306.929935 C346.200286,314.845873 332.57279,322.463427 317.17449,337.861721 C288.305393,366.731936 272.9982,437.688149 272.9982,476.999556 C272.9982,486.225883 265.667816,493.722925 256.508448,493.992494 L255.997748,494 L241.96983,494 L255.997748,494 Z M493.999552,324.000081 L425.998872,324.000081 C416.780315,324.000081 409.276869,316.663158 409.007064,307.51105 L408.999552,307.000768 L408.999552,35.0015755 C408.999552,25.783022 416.337568,18.278489 425.489719,18.0086443 L426.000003,18.0011311 L493.999552,18.0011311 C503.218106,18.0011311 510.722642,25.3391445 510.992487,34.4912915 L511,35.0015755 L511,306.999636 C511,316.21819 503.661983,323.722723 494.509832,323.992568 L493.999552,324.000081 L425.998872,324.000081 L493.999552,324.000081 Z" id="Shape" fill="#FFFFFF" fill-rule="nonzero"></path>
    </g>
</svg>