<?xml version="1.0" encoding="UTF-8"?>
<svg width="512px" height="512px" viewBox="0 0 512 512" version="1.1" xmlns="http://www.w3.org/2000/svg" xmlns:xlink="http://www.w3.org/1999/xlink">
    <!-- Generator: Sketch 59 (86127) - https://sketch.com -->
    <title>ic_forward</title>
    <desc>Created with Sketch.</desc>
    <g id="ic_forward" stroke="none" stroke-width="1" fill="none" fill-rule="evenodd">
        <path d="M341.500367,64.6959007 L492.563268,216.027516 C494.217509,217.312903 495.809836,218.716473 497.328866,220.238225 C507.007449,229.934155 511.896795,242.611068 511.999245,255.318814 L511.999245,255.999599 C512.069887,268.935235 507.180281,281.892703 497.328866,291.761775 C495.81022,293.283142 494.218314,294.686387 492.564523,295.971509 L341.500367,447.304099 C321.940889,466.898634 290.228709,466.898634 270.669231,447.304099 C251.305348,427.90551 251.111709,396.574711 270.088315,376.937478 L270.669231,376.346014 L366.107293,255.318814 L270.669231,135.653986 C251.109753,116.059452 251.109753,84.290435 270.669231,64.6959007 C290.228709,45.1013664 321.940889,45.1013664 341.500367,64.6959007 Z M85.5007444,64.6959007 L236.563645,216.027516 C238.217886,217.312903 239.810213,218.716473 241.329243,220.238225 C251.007826,229.934155 255.897172,242.611068 255.999623,255.318814 L255.999623,255.999599 C256.070265,268.935235 251.180658,281.892703 241.329243,291.761775 C239.810598,293.283142 238.218691,294.686387 236.564901,295.971509 L85.5007444,447.304099 C65.9412663,466.898634 34.2290866,466.898634 14.6696085,447.304099 C-4.69427474,427.90551 -4.88791357,396.574711 14.0886921,376.937478 L14.6696085,376.346014 L110.10767,255.318814 L14.6696085,135.653986 C-4.88986952,116.059452 -4.88986952,84.290435 14.6696085,64.6959007 C34.2290866,45.1013664 65.9412663,45.1013664 85.5007444,64.6959007 Z" id="Combined-Shape" fill="#FFFFFF"></path>
    </g>
</svg>