<?xml version="1.0" encoding="UTF-8"?>
<svg width="512px" height="512px" viewBox="0 0 512 512" version="1.1" xmlns="http://www.w3.org/2000/svg" xmlns:xlink="http://www.w3.org/1999/xlink">
    <!-- Generator: Sketch 59 (86127) - https://sketch.com -->
    <title>ic_gift</title>
    <desc>Created with Sketch.</desc>
    <g id="ic_gift" stroke="none" stroke-width="1" fill="none" fill-rule="evenodd">
        <path d="M479,253 L479,457 C479,487.375661 454.375661,512 424,512 L320,512 L320,253 L479,253 Z M193,253 L193,512 L88,512 C57.6243388,512 33,487.375661 33,457 L33,253 L193,253 Z M291,253 L291,512 L222,512 L222,253 L291,253 Z M315.5,0 C348.360943,0 375,26.6390574 375,59.5 C375,73.7157274 370.014635,86.7670604 361.696866,97.0010371 L447.5,97 C483.122366,97 512,125.877634 512,161.5 L512,214 C512,220.627417 506.627417,226 500,226 L320,226 L320,144.5 C320,136.491871 313.508129,130 305.5,130 C297.597241,130 291.171101,136.322156 291.00336,144.184689 L291,144.5 L291,226 L222,226 L222,144.5 C222,136.491871 215.508129,130 207.5,130 C199.597241,130 193.171101,136.322156 193.00336,144.184689 L193,144.5 L193,226 L12,226 C5.372583,226 0,220.627417 0,214 L0,161.5 C0,125.877634 28.8776336,97 64.5,97 L150.303134,97.0010371 C141.985365,86.7670604 137,73.7157274 137,59.5 C137,26.6390574 163.639057,0 196.5,0 C229.032333,0 255.466597,26.1089401 255.992029,58.5160587 L256,59.5 L256.007971,58.5160587 C256.533403,26.1089401 282.967667,0 315.5,0 Z M196,23 C175.565464,23 159,39.5654643 159,60 C159,80.4345357 175.565464,97 196,97 L233,97 L233,60 C233,39.5654643 216.434536,23 196,23 Z M316,23 C295.76981,23 279.331696,39.2358115 279.004957,59.3881373 L279,60 L279,97 L316,97 C336.434536,97 353,80.4345357 353,60 C353,39.5654643 336.434536,23 316,23 Z" id="Shape" fill="#FFFFFF"></path>
    </g>
</svg>