<?xml version="1.0" encoding="UTF-8"?>
<svg width="512px" height="512px" viewBox="0 0 512 512" version="1.1" xmlns="http://www.w3.org/2000/svg" xmlns:xlink="http://www.w3.org/1999/xlink">
    <!-- Generator: Sketch 59 (86127) - https://sketch.com -->
    <title>ic_home</title>
    <desc>Created with Sketch.</desc>
    <g id="ic_home" stroke="none" stroke-width="1" fill="none" fill-rule="evenodd">
        <path d="M280.377746,10.0396962 L496.759125,224.663082 C510.334261,238.127926 510.424793,260.049294 496.961336,273.625827 C490.461058,280.180699 481.612365,283.867755 472.381379,283.867755 L436.365308,283.86729 L436.365411,465.837087 C436.365411,491.33216 415.699699,512 390.207251,512 L320.970012,512 L320.970012,423.521084 C320.970012,387.403065 291.693587,358.123625 255.579287,358.123625 C219.826129,358.123625 190.774773,386.820404 190.197321,422.439618 L190.188561,423.521084 L190.188561,512 L120.951322,512 C95.4588745,512 74.7931626,491.33216 74.7931626,465.837087 L74.7930602,283.86729 L39.6186195,283.867755 C20.4992839,283.867755 5,268.366875 5,249.24557 C5,240.013633 8.68667609,231.164029 15.240873,224.663082 L231.622253,10.0396962 C245.118162,-3.34656539 266.881836,-3.34656539 280.377746,10.0396962 Z" id="Path" fill="#FFFFFF"></path>
    </g>
</svg>