<?xml version="1.0" encoding="UTF-8"?>
<svg width="512px" height="512px" viewBox="0 0 512 512" version="1.1" xmlns="http://www.w3.org/2000/svg" xmlns:xlink="http://www.w3.org/1999/xlink">
    <!-- Generator: Sketch 59 (86127) - https://sketch.com -->
    <title>ic_key</title>
    <desc>Created with Sketch.</desc>
    <g id="ic_key" stroke="none" stroke-width="1" fill="none" fill-rule="evenodd">
        <path d="M166.836625,423 C74.6953012,423 0,348.231553 0,256 C0,163.768447 74.6953012,89 166.836625,89 C243.537286,89 308.149076,140.809295 327.649947,211.3735 L497.292639,211.374656 C505.41529,211.374656 512,217.965813 512,226.096419 L512,349.391185 C512,357.52179 505.41529,364.112948 497.292639,364.112948 L438.463196,364.112948 C430.340545,364.112948 423.755835,357.52179 423.755835,349.391185 L423.755835,299.705234 L388.825853,299.705234 L388.825853,330.988981 C388.825853,339.119586 382.241143,345.710744 374.118492,345.710744 C365.995841,345.710744 359.411131,339.119586 359.411131,330.988981 L359.411131,299.705234 L327.901048,299.707619 C308.709118,370.740476 243.869834,423 166.836625,423 Z M166.836625,181.931129 C125.969536,181.931129 92.8402154,215.092892 92.8402154,256 C92.8402154,296.907108 125.969536,330.068871 166.836625,330.068871 C207.703713,330.068871 240.833034,296.907108 240.833034,256 C240.833034,215.092892 207.703713,181.931129 166.836625,181.931129 Z" id="Shape" fill="#FFFFFF"></path>
    </g>
</svg>