<?xml version="1.0" encoding="UTF-8"?>
<svg width="512px" height="512px" viewBox="0 0 512 512" version="1.1" xmlns="http://www.w3.org/2000/svg" xmlns:xlink="http://www.w3.org/1999/xlink">
    <!-- Generator: Sketch 59 (86127) - https://sketch.com -->
    <title>ic_like</title>
    <desc>Created with Sketch.</desc>
    <g id="ic_like" stroke="none" stroke-width="1" fill="none" fill-rule="evenodd">
        <path d="M270.03017,18 C308.604116,18 340.547546,48.9107215 340.992069,87.4835194 C341.26014,110.786457 335.214403,167.831262 323.950897,187.999919 L323.950897,187.999919 L456.487686,187.999919 C483.028977,187.999919 507.663231,206.691359 510.66178,233.062973 C512.407069,248.410879 507.280919,262.615243 497.985529,272.999879 C523.287132,301.262693 509.868878,346.274848 473.414616,356.207044 C475.722063,362.034475 477.000207,368.375426 477.000207,375.000283 C477.000207,398.475148 461.047155,418.314655 439.414844,424.20769 C453.613558,460.063584 425.075873,494 388.433848,494 L388.433848,494 L277.228498,494 C212.691254,494 170.34961,477.695183 137.001352,466.579855 L137.001352,466.579855 L137.001352,211.496275 C158.782969,200.610562 175.394322,193.569459 194.82551,174.138279 C223.694607,145.268064 239.0018,74.3118511 239.0018,35.0004444 C239.0018,25.6032593 246.606194,18 256.002252,18 L256.002252,18 Z M86.0011277,187.999919 C95.3903992,187.999919 103.000448,195.611096 103.000448,204.999232 L103.000448,204.999232 L103.000448,476.998425 C103.000448,486.387692 95.3881369,493.998869 86,493.998869 L86,493.998869 L18.0004518,493.998869 C8.6111803,493.998869 1,486.386561 1,476.998425 L1,476.998425 L1,205.000364 C1,195.611096 8.6123114,187.999919 18.0004518,187.999919 L18.0004518,187.999919 Z" id="Combined-Shape" fill="#FFFFFF" fill-rule="nonzero"></path>
    </g>
</svg>