<?xml version="1.0" encoding="UTF-8"?>
<svg width="512px" height="512px" viewBox="0 0 512 512" version="1.1" xmlns="http://www.w3.org/2000/svg" xmlns:xlink="http://www.w3.org/1999/xlink">
    <!-- Generator: Sketch 59 (86127) - https://sketch.com -->
    <title>ic_location</title>
    <desc>Created with Sketch.</desc>
    <g id="ic_location" stroke="none" stroke-width="1" fill="none" fill-rule="evenodd">
        <path d="M256.003532,298.372614 C210.929001,298.372614 174.390435,261.777192 174.390435,216.632521 C174.390435,171.507194 210.929001,134.911771 256.003532,134.911771 C301.078062,134.911771 337.616628,171.507194 337.616628,216.632521 C337.616628,261.777192 301.078062,298.372614 256.003532,298.372614 M427.707753,81.179169 C338.736732,-27.059723 173.251019,-27.059723 84.2799985,81.179169 L83.7199465,81.8754878 C17.015821,163.015972 16.030902,279.765428 81.2093685,362.143812 C119.003223,409.91902 164.193626,455.083032 216.394336,497.809929 C239.395093,516.649221 272.747155,516.765275 295.767224,497.945324 C349.570841,454.019212 396.190343,406.127951 435.548481,354.232857 C496.999705,273.227768 492.268231,159.7278 427.707753,81.179169" id="Fill-119" fill="#FFFFFF"></path>
    </g>
</svg>