<?xml version="1.0" encoding="UTF-8"?>
<svg width="512px" height="512px" viewBox="0 0 512 512" version="1.1" xmlns="http://www.w3.org/2000/svg" xmlns:xlink="http://www.w3.org/1999/xlink">
    <!-- Generator: Sketch 59 (86127) - https://sketch.com -->
    <title>ic_lock</title>
    <desc>Created with Sketch.</desc>
    <g id="ic_lock" stroke="none" stroke-width="1" fill="none" fill-rule="evenodd">
        <path d="M106,242 L406,242 C430.56586,242 450.595817,261.784299 450.99396,286.256984 L451,287 L451,467 C451,491.56586 431.215701,511.595817 406.743016,511.99396 L406,512 L106,512 C81.43414,512 61.4041828,492.215701 61.0060402,467.743016 L61,467 L61,287 C61,262.43414 80.7842986,242.404183 105.256984,242.00604 L106,242 L406,242 L106,242 Z M256,302 C231.186,302 211,322.186 211,347 C211,366.269597 223.229093,382.576246 240.276826,388.981277 L241,389.246 L241,437 L271,437 L271,389.246 C288.424,383.035 301,366.541 301,347 C301,322.186 280.814,302 256,302 Z M256,0 C346.05733,0 419.517647,72.5597433 420.977847,162.276127 L421,165 L421,192 C421,202.85848 412.346658,211.695863 401.55981,211.992316 L401,212 L351,212 C340.14152,212 331.304137,203.346658 331.007684,192.55981 L331,192 L331,165 C331,123.633 297.367,90 256,90 C215.04667,90 181.673433,122.963703 181.010064,163.761336 L181,165 L181,192 C181,202.85848 172.346658,211.695863 161.55981,211.992316 L161,212 L111,212 C100.14152,212 91.3041366,203.346658 91.0076836,192.55981 L91,192 L91,165 C91,74.033 165.033,0 256,0 Z" id="Shape" fill="#FFFFFF" fill-rule="nonzero"></path>
    </g>
</svg>