<?xml version="1.0" encoding="UTF-8"?>
<svg width="512px" height="512px" viewBox="0 0 512 512" version="1.1" xmlns="http://www.w3.org/2000/svg" xmlns:xlink="http://www.w3.org/1999/xlink">
    <!-- Generator: Sketch 59 (86127) - https://sketch.com -->
    <title>ic_leaderboards</title>
    <desc>Created with Sketch.</desc>
    <g id="ic_leaderboards" stroke="none" stroke-width="1" fill="none" fill-rule="evenodd">
        <g id="leaderboards_v2" transform="translate(0.000000, 37.000000)" fill="#FFFFFF" fill-rule="nonzero">
            <path d="M370.500713,1.0658141e-13 C389.207811,1.0658141e-13 404.371928,15.1641162 404.371928,33.8712151 C404.371928,37.3889212 403.835732,40.7814874 402.84061,43.9715922 C413.51129,40.3361462 424.758444,38.2205107 436.149386,38.6681072 C458.262746,39.5274853 477.782346,49.8556472 492.590993,68.543214 C507.040263,86.7698411 513.634037,109.605861 511.657467,134.582512 C509.911367,156.645091 501.196492,179.422516 487.12613,198.707741 C470.567477,221.403135 448.153334,238.000851 422.305586,246.704007 L420.894599,247.165049 C413.722891,249.4405 400.459731,252.67595 384.397781,253.347313 C374.676332,262.639206 362.120502,270.619134 346.169232,276.787823 C338.606397,295.012197 324.528629,316.501651 298.521175,328.039983 L298.439594,329.243455 C297.188871,349.024116 299.386363,384.372849 325.687231,410.345732 L326.508368,411.146001 C336.529933,420.78524 329.973786,437.625208 316.231142,438.006689 L315.754423,438.013285 L196.246184,438.013285 C182.335711,438.013285 175.50761,421.282853 185.153093,411.481206 L185.49224,411.146001 C213.12207,384.570973 214.904585,347.757188 213.481626,328.035069 C187.469185,316.499714 173.391147,295.009981 165.843731,276.776002 C149.878258,270.617891 137.323887,262.638697 127.588793,253.355841 C110.421184,252.629616 96.4411325,248.976718 89.6950213,246.704007 C63.8433669,238.000851 41.4292248,221.403135 24.8744776,198.707741 C10.8002083,179.422516 2.08924016,156.645091 0.343139921,134.582512 C-1.63342914,109.605861 4.95643741,86.7698411 19.4057081,68.543214 C34.218261,49.8556472 53.7378618,39.5274853 75.8512218,38.6681072 C87.2400397,38.2205941 98.4851239,40.3353575 109.15633,43.9690362 C108.160745,40.780067 107.624773,37.3881848 107.624773,33.8712151 C107.624773,15.1641162 122.78889,1.0658141e-13 141.495988,1.0658141e-13 L370.500713,1.0658141e-13 Z M57.3784998,98.6370716 C41.9643827,115.000411 46.1440846,145.660677 64.0152425,170.152952 C73.3044397,182.885289 85.8623273,192.890639 99.8037715,198.75925 C94.4632788,165.699048 102.804467,129.243603 113.400133,99.4595666 L112.185912,98.7343506 C94.1010703,88.0826918 72.7960857,82.2652017 57.3784998,98.6370716 Z M454.622108,98.6370716 C438.856517,81.8979039 416.937546,88.3548872 398.598138,99.4592048 L399.60025,102.315515 C409.711617,131.553249 417.368125,166.747903 412.203806,198.760389 C426.13828,192.890639 438.696168,182.885289 447.985365,170.152952 C465.856523,145.660677 470.032319,115.000411 454.622108,98.6370716 Z" id="Shape"></path>
        </g>
    </g>
</svg>