<?xml version="1.0" encoding="UTF-8"?>
<svg width="512px" height="512px" viewBox="0 0 512 512" version="1.1" xmlns="http://www.w3.org/2000/svg" xmlns:xlink="http://www.w3.org/1999/xlink">
    <!-- Generator: Sketch 59 (86127) - https://sketch.com -->
    <title>ic_music_off</title>
    <desc>Created with Sketch.</desc>
    <g id="ic_music_off" stroke="none" stroke-width="1" fill="none" fill-rule="evenodd">
        <path d="M148.153259,203.447914 L206.841599,262.191626 L206.841599,429.196984 C206.841599,468.243954 139.727082,504.272459 90.6789774,504.989125 L89.198289,505 C40.0321921,505 0,472.924822 0,433.483438 C0,394.042055 40.0321921,361.966877 89.198289,361.966877 C109.021122,361.966877 140.677426,366.635956 155.94167,375.427592 L156.703554,375.878175 L148.153259,203.447914 Z M183.091612,45.6115683 L495.80855,358.62417 C517.39715,380.233181 517.39715,415.26831 495.80855,436.877321 C474.219951,458.486331 439.217915,458.486331 417.629316,436.877321 L104.912377,123.864719 C83.3237777,102.255708 83.3237777,67.2205791 104.912377,45.6115683 C126.500977,24.0025575 161.503012,24.0025575 183.091612,45.6115683 Z M282.207581,337.629672 L380.850842,436.363955 C375.197334,437.169679 369.564974,437.592114 364.049228,437.592114 C314.847451,437.592114 274.850939,405.516936 274.850939,366.075552 C274.850939,355.971723 277.4757,346.3513 282.207581,337.629672 Z M465.059739,10.88792 C469.153941,14.1636339 471.556151,19.0353348 471.722515,24.2525954 L471.731771,24.8336495 L471.731771,296.380422 L423.032918,247.637289 L417.568201,134.906997 L338.849066,163.372 L233.787398,58.211 L450.038747,7.38360846 C455.390645,6.31086003 460.885259,7.4908833 465.059739,10.88792 Z" id="Shape" fill="#FFFFFF"></path>
    </g>
</svg>