<?xml version="1.0" encoding="UTF-8"?>
<svg width="512px" height="512px" viewBox="0 0 512 512" version="1.1" xmlns="http://www.w3.org/2000/svg" xmlns:xlink="http://www.w3.org/1999/xlink">
    <!-- Generator: Sketch 59 (86127) - https://sketch.com -->
    <title>ic_mail</title>
    <desc>Created with Sketch.</desc>
    <g id="ic_mail" stroke="none" stroke-width="1" fill="none" fill-rule="evenodd">
        <path d="M512,175.634443 L512,410.251167 L512,410.251167 C512,423.91957 499.463973,435 484,435 L28,435 C12.536027,435 0,423.91957 0,410.251167 L0,175.254572 C-4.63487968e-15,166.418016 7.163444,159.254572 16,159.254572 C19.3066296,159.254572 22.5320429,160.279052 25.2326224,162.187106 L250.144633,321.095312 L250.144633,321.095312 C255.101521,324.420273 261.946417,324.454307 266.945313,321.178848 L486.637875,162.659443 C493.80377,157.488885 503.804441,159.106424 508.975,166.272318 C510.941612,168.997852 512,172.273476 512,175.634443 Z M473.6,105.8 L264.4,262.7 L264.4,262.7 C259.573064,266.320202 252.990878,266.429905 248.057564,263.029109 L247.6,262.7 L38.4,105.8 C31.3307552,100.498066 29.8980664,90.4692448 35.2,83.4 C38.2216701,79.3711065 42.9638831,77 48,77 L464,77 C472.836556,77 480,84.163444 480,93 C480,98.0361169 477.628893,102.77833 473.6,105.8 Z" id="Shape" fill="#FFFFFF"></path>
    </g>
</svg>