<?xml version="1.0" encoding="UTF-8"?>
<svg width="512px" height="512px" viewBox="0 0 512 512" version="1.1" xmlns="http://www.w3.org/2000/svg" xmlns:xlink="http://www.w3.org/1999/xlink">
    <!-- Generator: Sketch 59 (86127) - https://sketch.com -->
    <title>ic_missions</title>
    <desc>Created with Sketch.</desc>
    <g id="ic_missions" stroke="none" stroke-width="1" fill="none" fill-rule="evenodd">
        <path d="M304.200212,48 C225.826292,48 157.597361,91.4377671 122.200397,155.566429 C125.433335,157.967797 128.358896,160.807178 130.867865,164.03617 L131.333388,164.64616 L167.339351,212.700366 C185.733332,154.576477 240.126277,112.328855 304.200212,112.328855 C383.345131,112.328855 447.733065,176.779827 447.733065,256 C447.733065,335.220173 383.345131,399.671145 304.200212,399.671145 C240.767016,399.671145 186.822159,358.26425 167.901944,301.038562 L167.339351,299.299634 L131.332388,347.355842 C128.72339,350.838191 125.635394,353.883118 122.200397,356.434572 C157.597361,420.563234 225.826292,464 304.200212,464 C418.965095,464 512,370.875457 512,256 C512,141.124543 418.965095,48 304.200212,48 Z M304.200212,142.357729 C247.25745,142.357729 199.976504,184.537686 191.892275,239.321616 L191.659326,240.985563 L226.375291,240.985563 C233.408284,204.393378 265.621251,176.656708 304.200212,176.656708 C347.908167,176.656708 383.467131,212.249933 383.467131,256 C383.467131,299.750067 347.908167,335.343292 304.200212,335.343292 C266.007041,335.343292 234.05318,308.158581 226.593816,272.109527 L226.375291,271.014437 L191.659326,271.014437 C199.022319,326.60589 246.68227,369.642271 304.200212,369.642271 C366.803148,369.642271 417.733096,318.662252 417.733096,256 C417.733096,193.337748 366.803148,142.357729 304.200212,142.357729 Z M95.3334244,176.656708 L15.0005063,176.656708 C9.31851205,176.656708 4.12451734,179.869798 1.58351993,184.956689 C-0.902238409,189.932996 -0.430887282,195.86626 2.7822498,200.380955 L3.00051849,200.679808 L44.4504763,256 L3.00051849,311.320192 C-0.408478042,315.869567 -0.957477483,321.95642 1.58351993,327.043311 C4.07363984,332.026388 9.1076572,335.211365 14.6532584,335.339288 L15.0005063,335.343292 L95.3334244,335.343292 C99.9268252,335.343292 104.25989,333.236805 107.100201,329.640633 L107.333412,329.337517 L155.53336,265.008662 C159.460632,259.767586 159.532037,252.595756 155.747578,247.284471 L155.53336,246.991338 L107.333412,182.662483 C104.576983,178.984027 100.293565,176.778122 95.7155788,176.661571 L95.3334244,176.656708 Z M304.200212,206.685582 C282.483594,206.685582 264.010124,220.827322 257.47076,240.391071 L257.276259,240.985563 L304.200212,240.985563 C312.484203,240.985563 319.200196,247.708027 319.200196,256 C319.200196,264.187011 312.653152,270.843997 304.514029,271.011216 L304.200212,271.014437 L257.276259,271.014437 C263.637253,290.885544 282.263234,305.314418 304.200212,305.314418 C331.366184,305.314418 353.467161,283.192146 353.467161,256 C353.467161,228.807854 331.366184,206.685582 304.200212,206.685582 Z" id="Shape" fill="#FFFFFF" fill-rule="nonzero"></path>
    </g>
</svg>