<?xml version="1.0" encoding="UTF-8"?>
<svg width="512px" height="512px" viewBox="0 0 512 512" version="1.1" xmlns="http://www.w3.org/2000/svg" xmlns:xlink="http://www.w3.org/1999/xlink">
    <!-- Generator: Sketch 59 (86127) - https://sketch.com -->
    <title>ic_medal</title>
    <desc>Created with Sketch.</desc>
    <g id="ic_medal" stroke="none" stroke-width="1" fill="none" fill-rule="evenodd">
        <path d="M256,75 C376.95036,75 475,172.825782 475,293.5 C475,414.174218 376.95036,512 256,512 C135.04964,512 37,414.174218 37,293.5 C37,172.825782 135.04964,75 256,75 Z M242.035648,142.269639 L241.857138,142.562432 L198.806483,214.771413 L116.671127,233.307738 C113.900433,233.933028 111.330395,235.239538 109.194793,237.108423 C102.212088,243.219051 101.434814,253.762052 107.382367,260.821849 L107.620633,261.098698 L163.149222,324.262627 L155.437434,407.927687 C155.177291,410.749983 155.628513,413.592387 156.750058,416.196345 C160.421677,424.720963 170.251185,428.715817 178.826229,425.231085 L179.131934,425.103445 L256.501144,391.93192 L333.870354,425.103445 C336.48027,426.222429 339.329179,426.672622 342.157933,426.413072 C351.421006,425.563147 358.26773,417.466353 357.591503,408.249645 L357.564854,407.927687 L349.853067,324.262627 L405.381655,261.098698 C407.254816,258.967972 408.564316,256.403802 409.191037,253.639434 C411.24303,244.588425 405.642446,235.590832 396.649945,233.382837 L396.331162,233.307738 L314.195805,214.771413 L271.145151,142.562432 C269.692911,140.126587 267.653318,138.09165 265.211899,136.642726 C257.222867,131.901428 246.922634,134.429701 242.035648,142.269639 Z M260.067365,196.579786 C260.927075,197.091171 261.645288,197.809384 262.156673,198.669094 L290.360339,246.083432 L344.169467,258.254877 C347.401523,258.985957 349.428965,262.198714 348.697884,265.43077 C348.477193,266.406429 348.016072,267.31143 347.356466,268.063451 L310.978163,309.538568 L316.030366,364.475273 C316.333828,367.775057 313.904828,370.696065 310.605044,370.999527 C309.60894,371.091133 308.605738,370.932241 307.686695,370.537306 L257,348.755999 L206.313305,370.537306 C203.268799,371.845604 199.740154,370.438129 198.431855,367.393623 C198.036919,366.474579 197.878028,365.471378 197.969634,364.475273 L203.021837,309.538568 L166.643534,268.063451 C164.458464,265.57224 164.70664,261.781365 167.197851,259.596295 C167.949872,258.936689 168.854873,258.475568 169.830533,258.254877 L223.639661,246.083432 L251.843327,198.669094 C253.537386,195.821142 257.219413,194.885727 260.067365,196.579786 Z M367.64352,0 C369.16649,0 370.675851,0.286306815 372.092777,0.843967705 C378.240701,3.26361304 381.304691,10.1391694 379.034897,16.3009256 L378.934348,16.5645487 L355.765259,75.2874731 C325.485584,61.7575789 291.958244,54.1674509 256.672286,54.0027383 L274.952005,7.677062 C276.745172,3.13220013 281.08967,0.115463208 285.961211,0.00324204341 L286.242832,0 L367.64352,0 Z M225.757168,0 C230.74229,0 235.220344,3.04479894 237.047995,7.677062 L255.324458,54.001 L251.438062,54.032823 C217.54047,54.581166 185.312546,61.9823431 156.085365,74.9083171 L133.065652,16.5645487 C130.608396,10.3365233 133.671472,3.2981794 139.907223,0.843967705 C141.324149,0.286306815 142.83351,0 144.35648,0 L225.757168,0 Z" id="Combined-Shape" fill="#FFFFFF"></path>
    </g>
</svg>