<?xml version="1.0" encoding="UTF-8"?>
<svg width="512px" height="512px" viewBox="0 0 512 512" version="1.1" xmlns="http://www.w3.org/2000/svg" xmlns:xlink="http://www.w3.org/1999/xlink">
    <!-- Generator: Sketch 59 (86127) - https://sketch.com -->
    <title>ic_map</title>
    <desc>Created with Sketch.</desc>
    <g id="ic_map" stroke="none" stroke-width="1" fill="none" fill-rule="evenodd">
        <path d="M77.2573766,361.301587 C116.664194,361.301587 148.609731,393.245715 148.609731,432.650794 C148.609731,472.055872 116.664194,504 77.2573766,504 C37.8505595,504 5.90502242,472.055872 5.90502242,432.650794 C5.90502242,393.245715 37.8505595,361.301587 77.2573766,361.301587 Z M348.423233,19.1137153 C360.456254,22.4018271 373.587497,39.8918651 387.81696,71.5838294 C405.68196,38.4720569 417.193422,20.9820188 422.351346,19.1137153 C430.088233,16.3112599 498.835995,42.5924479 503.895246,54.1194196 C508.954497,65.6463914 519.276753,469.351811 503.895246,479.767795 C488.513739,490.18378 428.86522,455.18616 387.81696,452.398686 C346.768701,449.611211 274.41631,472.482949 264.207465,469.351811 C257.401567,467.264385 250.537363,455.030713 243.614852,432.650794 C232.286641,464.062128 224.144809,481.721313 219.189357,485.628348 C214.233906,489.535384 196.310599,494.224723 165.419438,499.696367 C179.506659,479.607618 186.550269,458.981316 186.550269,437.81746 C186.550269,406.071677 181.400674,71.7491319 186.550269,62.9342758 C191.699863,54.1194196 330.373702,14.1815476 348.423233,19.1137153 Z M401.999267,204.109215 L401.676572,204.426724 L358.408838,247.693838 L315.141104,204.426724 C304.45059,193.73621 287.117842,193.73621 276.427328,204.426724 C265.843719,215.010333 265.737883,232.103995 276.109819,242.817805 L276.427328,243.1405 L319.694838,286.407838 L276.426724,329.676572 C265.73621,340.367087 265.73621,357.699835 276.426724,368.390349 C287.010333,378.973958 304.103995,379.079794 314.817805,368.707857 L315.1405,368.390349 L358.408838,325.121838 L401.677176,368.390349 C412.36769,379.080863 429.700438,379.080863 440.390953,368.390349 C450.974562,357.80674 451.080398,340.713077 440.708461,329.999267 L440.390953,329.676572 L397.122838,286.407838 L440.390349,243.1405 C451.080863,232.449986 451.080863,215.117238 440.390349,204.426724 C429.80674,193.843115 412.713077,193.737279 401.999267,204.109215 Z M77.2573766,8 C119.925448,8 154.514753,42.5893057 154.514753,85.2573766 L154.514753,355.852369 C128.969893,336.237744 103.217434,326.430432 77.2573766,326.430432 C51.2973193,326.430432 25.5448604,336.237744 0,355.852369 L0,85.2573766 C-5.22533165e-15,42.5893057 34.5893057,8 77.2573766,8 Z" id="Combined-Shape" fill="#FFFFFF"></path>
    </g>
</svg>