<?xml version="1.0" encoding="UTF-8"?>
<svg width="512px" height="512px" viewBox="0 0 512 512" version="1.1" xmlns="http://www.w3.org/2000/svg" xmlns:xlink="http://www.w3.org/1999/xlink">
    <!-- Generator: Sketch 59 (86127) - https://sketch.com -->
    <title>ic_music_on</title>
    <desc>Created with Sketch.</desc>
    <g id="ic_music_on" stroke="none" stroke-width="1" fill="none" fill-rule="evenodd">
        <path d="M492.140306,3.99721893 C487.848412,0.504683231 482.199253,-0.708513381 476.696824,0.39439263 L175.111098,71.2787579 C166.710724,73.1536982 160.731419,80.6166955 160.731419,89.2193624 L175.111098,379.248244 C159.740982,369.910307 126.43295,364.945865 105.707137,364.945865 C55.1581631,364.945865 14,397.922755 14,438.472933 C14,479.02311 55.1581631,512 105.707137,512 C156.256111,512 226.659357,474.616153 226.659357,434.065976 L226.659357,209.845184 L443.31299,131.502776 L452.188164,314.562017 C436.818047,305.224079 409.014521,295.642978 388.288708,295.642978 C337.703052,295.642978 296.581571,328.619868 296.581571,369.170045 C296.581571,409.720223 337.703052,442.697113 388.288708,442.697113 C438.874365,442.697113 499,408.138745 499,367.588567 L499,18.3349971 C499,12.74694 496.505566,7.48975464 492.140306,3.99721893 Z" id="Path" fill="#FFFFFF" fill-rule="nonzero"></path>
    </g>
</svg>