<?xml version="1.0" encoding="UTF-8"?>
<svg width="512px" height="512px" viewBox="0 0 512 512" version="1.1" xmlns="http://www.w3.org/2000/svg" xmlns:xlink="http://www.w3.org/1999/xlink">
    <!-- Generator: Sketch 59 (86127) - https://sketch.com -->
    <title>ic_notifications_on</title>
    <desc>Created with Sketch.</desc>
    <g id="ic_notifications_on" stroke="none" stroke-width="1" fill="none" fill-rule="evenodd">
        <path d="M205.66506,461.105368 L307.351807,461.105368 C307.351807,489.213697 284.588454,512 256.508434,512 C228.709214,512 206.120859,489.667144 205.671872,461.947004 L205.66506,461.105368 L307.351807,461.105368 L205.66506,461.105368 Z M419.207229,336.922465 C445.602448,336.922465 467,358.34159 467,384.763419 C467,411.185249 445.602448,432.604374 419.207229,432.604374 L92.7927711,432.604374 C66.3975525,432.604374 45,411.185249 45,384.763419 C45,358.34159 66.3975525,336.922465 92.7927711,336.922465 L419.207229,336.922465 Z M256.508434,0 C283.893987,0 306.222602,21.673152 307.310301,48.8191613 C402.321318,69.3002766 445.074308,152.893247 435.570572,299.594823 L435.266585,304.059642 L78.5804593,304.059642 C67.9454314,155.023699 110.318065,70.0032224 205.69836,48.9982118 C206.695451,21.7691955 229.062269,0 256.508434,0 Z" id="Shape" fill="#FFFFFF"></path>
    </g>
</svg>