<?xml version="1.0" encoding="UTF-8"?>
<svg width="512px" height="512px" viewBox="0 0 512 512" version="1.1" xmlns="http://www.w3.org/2000/svg" xmlns:xlink="http://www.w3.org/1999/xlink">
    <!-- Generator: Sketch 59 (86127) - https://sketch.com -->
    <title>ic_notifications_off</title>
    <desc>Created with Sketch.</desc>
    <g id="ic_notifications_off" stroke="none" stroke-width="1" fill="none" fill-rule="evenodd">
        <path d="M308.804943,461.105368 C308.804943,489.213697 286.061967,512 258.007083,512 C230.232749,512 207.664615,489.667144 207.216029,461.947004 L207.209224,461.105368 L308.804943,461.105368 Z M129.334717,43.8679656 L468.442138,383.279221 C491.852621,406.710678 491.852621,444.700577 468.442138,468.132034 C445.031656,491.563492 407.075765,491.563492 383.665283,468.132034 L44.5578616,128.720779 C21.1473795,105.289322 21.1473795,67.2994231 44.5578616,43.8679656 C67.9683438,20.4365081 105.924235,20.4365081 129.334717,43.8679656 Z M213.246754,336.921872 L308.843102,432.604374 L94.4379755,432.604374 C68.0663853,432.604374 46.6879874,411.185249 46.6879874,384.763419 C46.6879874,358.34159 68.0663853,336.921872 94.4379755,336.921872 L213.246754,336.921872 Z M82.0261888,205.581872 L180.412173,304.057872 L80.2383863,304.059642 C77.6211623,267.349825 78.2170965,234.523902 82.0261888,205.581872 Z M258.007083,0 C285.368121,0 307.676749,21.673152 308.763474,48.8191613 C403.689439,69.3002766 446.404158,152.893247 436.90893,299.594823 L436.605214,304.059642 L430.615081,304.059642 L182.946987,56.1693983 C190.621946,53.2670461 198.720448,50.8766506 207.242494,48.9982118 C208.238693,21.7691955 230.585488,0 258.007083,0 Z" id="Shape" fill="#FFFFFF"></path>
    </g>
</svg>