<?xml version="1.0" encoding="UTF-8"?>
<svg width="512px" height="512px" viewBox="0 0 512 512" version="1.1" xmlns="http://www.w3.org/2000/svg" xmlns:xlink="http://www.w3.org/1999/xlink">
    <!-- Generator: Sketch 59 (86127) - https://sketch.com -->
    <title>ic_plus</title>
    <desc>Created with Sketch.</desc>
    <g id="ic_plus" stroke="none" stroke-width="1" fill="none" fill-rule="evenodd">
        <path d="M256,0 C300.18278,0 336,35.81722 336,80 L336,175.998 L432,176 C476.18278,176 512,211.81722 512,256 C512,300.18278 476.18278,336 432,336 L336,336 L336,432 C336,476.18278 300.18278,512 256,512 C211.81722,512 176,476.18278 176,432 L176,336 L80,336 C35.81722,336 0,300.18278 0,256 C0,211.81722 35.81722,176 80,176 L176,176 L176,80 C176,35.81722 211.81722,0 256,0 Z" id="Path" fill="#FFFFFF"></path>
    </g>
</svg>