<?xml version="1.0" encoding="UTF-8"?>
<svg width="512px" height="512px" viewBox="0 0 512 512" version="1.1" xmlns="http://www.w3.org/2000/svg" xmlns:xlink="http://www.w3.org/1999/xlink">
    <!-- Generator: Sketch 59 (86127) - https://sketch.com -->
    <title>ic_profile</title>
    <desc>Created with Sketch.</desc>
    <g id="ic_profile" stroke="none" stroke-width="1" fill="none" fill-rule="evenodd">
        <path d="M249.843501,0 C327.119418,0 389.763926,62.5628297 389.763926,139.737991 C389.763926,188.953065 364.288339,232.225756 325.788661,257.1208 L355.06366,257.117904 C416.884394,257.117904 467,307.168168 467,368.908297 L467,443.80786 C467,481.469339 436.42948,512 398.718833,512 L113.281167,512 C75.5705198,512 45,481.469339 45,443.80786 L45,368.908297 C45,307.168168 95.1156063,257.117904 156.93634,257.117904 L173.898341,257.1208 C135.398664,232.225756 109.923077,188.953065 109.923077,139.737991 C109.923077,62.5628297 172.567585,0 249.843501,0 Z" id="Path" fill="#FFFFFF"></path>
    </g>
</svg>