<?xml version="1.0" encoding="UTF-8"?>
<svg width="512px" height="512px" viewBox="0 0 512 512" version="1.1" xmlns="http://www.w3.org/2000/svg" xmlns:xlink="http://www.w3.org/1999/xlink">
    <!-- Generator: Sketch 59 (86127) - https://sketch.com -->
    <title>ic_restart</title>
    <desc>Created with Sketch.</desc>
    <g id="ic_restart" stroke="none" stroke-width="1" fill="none" fill-rule="evenodd">
        <path d="M394.874633,418.112014 C407.069474,436.583882 401.980939,461.444162 383.509054,473.638978 C351.239769,494.94266 323.242732,507.120066 299.517942,510.171197 C174.071074,526.65071 66.186768,429.554688 64.0416265,307.716769 L64.009079,304.017229 L64.009079,288.011486 L16.0113487,288.011486 C9.61165133,288.011486 3.8519237,284.170107 1.29204476,278.087925 C-1.1902621,272.190051 -0.061940803,265.690162 4.38524072,261.215235 L4.81187831,260.801723 L100.807339,164.767265 C106.760391,158.49835 116.701726,158.367747 122.820956,164.375458 L123.20628,164.767265 L219.20174,260.801723 C224.001513,265.283331 225.281453,272.005743 222.721574,278.087925 C220.236985,283.99122 214.738007,287.783584 208.565223,288.001558 L208.00227,288.011486 L160.004539,288.011486 L160.004539,304.017229 C160.004539,373.482153 223.361543,428.541908 295.358139,413.49651 C302.733167,411.983573 310.93775,408.686481 319.971888,403.605233 L321.154958,402.932344 C343.211754,390.248923 371.000139,393.695806 389.289697,411.383752 C391.391167,413.416097 393.263956,415.672276 394.874633,418.112014 Z M510.707955,233.912075 C513.190262,239.809949 512.061941,246.309838 507.614759,250.784765 L507.188122,251.198277 L411.192661,347.232735 C405.239609,353.50165 395.298274,353.632253 389.179044,347.624542 L388.79372,347.232735 L292.79826,251.198277 C287.998487,246.716669 286.718547,239.994257 289.278426,233.912075 C291.763015,228.00878 297.261993,224.216416 303.434777,223.998442 L303.99773,223.988514 L351.995461,223.988514 L351.995461,207.982771 C351.995461,138.517847 288.638457,83.4580916 216.641861,98.5034899 C209.257356,100.016357 201.047894,103.313213 192.013473,108.394058 L190.830392,109.066895 C168.778015,121.746843 140.995864,118.300328 122.710303,100.616248 C120.608833,98.5839033 118.736044,96.3277241 117.125367,93.8879864 C104.930526,75.4161181 110.019061,50.555838 128.490946,38.3610219 C160.760231,17.0573404 188.757268,4.87993405 212.482058,1.82880283 C337.928926,-14.6507101 445.813232,82.4453122 447.958373,204.283231 L447.990921,207.982771 L447.990921,223.988514 L495.988651,223.988514 C502.388349,223.988514 508.148076,227.829893 510.707955,233.912075 Z" id="loop" fill="#FFFFFF" fill-rule="nonzero"></path>
    </g>
</svg>