<?xml version="1.0" encoding="UTF-8"?>
<svg width="512px" height="512px" viewBox="0 0 512 512" version="1.1" xmlns="http://www.w3.org/2000/svg" xmlns:xlink="http://www.w3.org/1999/xlink">
    <!-- Generator: Sketch 59 (86127) - https://sketch.com -->
    <title>ic_refresh</title>
    <desc>Created with Sketch.</desc>
    <g id="ic_refresh" stroke="none" stroke-width="1" fill="none" fill-rule="evenodd">
        <path d="M418.112006,117.125373 C436.583858,104.93054 461.444119,110.01907 473.638959,128.490918 C494.942652,160.760214 507.120065,188.757261 510.171197,212.482058 C526.81717,339.196066 427.581564,447.990921 304.017229,447.990921 L304.017229,447.990921 L288.011486,447.990921 L288.011486,495.988651 C288.011486,502.388349 284.170107,508.148076 278.087925,510.707955 C272.005743,513.267834 265.283331,511.987895 260.801723,507.188122 L260.801723,507.188122 L164.767265,411.192661 C158.364968,405.112949 158.364968,394.873433 164.767265,388.79372 L164.767265,388.79372 L260.801723,292.79826 C265.283331,287.998487 272.005743,286.718547 278.087925,289.278426 C284.170107,291.838305 288.011486,297.598033 288.011486,303.99773 L288.011486,303.99773 L288.011486,351.995461 L304.017229,351.995461 C373.482153,351.995461 428.541908,288.638457 413.49651,216.641861 C411.917792,208.946173 408.396398,200.347224 402.932328,190.845015 C390.248939,168.788219 393.695816,140.99985 411.383752,122.710303 C413.416094,120.608836 415.672271,118.736048 418.112006,117.125373 Z M233.912075,1.29204476 C239.994257,-1.26783419 246.716669,0.0121052822 251.198277,4.81187831 L251.198277,4.81187831 L347.232735,100.807339 C353.635032,106.887051 353.635032,117.126567 347.232735,123.20628 L347.232735,123.20628 L251.198277,219.20174 C246.716669,224.001513 239.994257,225.281453 233.912075,222.721574 C227.829893,220.161695 223.988514,214.401967 223.988514,208.00227 L223.988514,208.00227 L223.988514,160.004539 L207.982771,160.004539 C138.517847,160.004539 83.4580916,223.361543 98.5034899,295.358139 C100.082132,303.063702 103.603262,311.667516 109.066879,321.169581 C121.746859,343.221958 118.300339,371.004125 100.616248,389.289697 C98.5839057,391.391164 96.3277292,393.263952 93.8879945,394.874627 C75.4161418,407.06946 50.555881,401.98093 38.3610408,383.509082 C17.0573476,351.239786 4.87993495,323.242739 1.82880283,299.517942 C-14.8171698,172.803934 84.4184362,64.009079 207.982771,64.009079 L207.982771,64.009079 L223.988514,64.009079 L223.988514,16.0113487 C223.988514,9.61165133 227.829893,3.8519237 233.912075,1.29204476 Z" id="loop" fill="#FFFFFF" fill-rule="nonzero"></path>
    </g>
</svg>