<?xml version="1.0" encoding="UTF-8"?>
<svg width="512px" height="512px" viewBox="0 0 512 512" version="1.1" xmlns="http://www.w3.org/2000/svg" xmlns:xlink="http://www.w3.org/1999/xlink">
    <!-- Generator: Sketch 59 (86127) - https://sketch.com -->
    <title>ic_social_snapchat</title>
    <desc>Created with Sketch.</desc>
    <g id="ic_social_snapchat" stroke="none" stroke-width="1" fill="none" fill-rule="evenodd">
        <path d="M501.963481,374.432 C433.512286,363.168 402.662846,293.056 401.414788,290.08 C401.318783,289.888 401.25478,289.696 401.126774,289.504 C397.638611,282.4 396.806572,276.544 398.726662,272.096 C402.470837,263.328 416.807506,258.784 426.279948,255.776 C429.032077,254.912 431.624198,254.08 433.768298,253.248 C443.112734,249.568 449.769045,245.568 454.185251,241.056 C459.433496,235.648 460.457543,230.464 460.39354,227.104 C460.233533,218.912 453.96124,211.616 443.944773,208.064 C440.584616,206.688 436.712435,205.952 432.808253,205.952 C430.152129,205.952 426.183944,206.304 422.439769,208.064 C414.439395,211.808 407.271061,213.856 401.094773,214.144 C397.83062,213.984 395.526513,213.28 394.022442,212.608 C394.214451,209.408 394.40646,206.112 394.630471,202.72 L394.726475,201.248 C396.934578,166.592 399.654705,123.488 388.198171,97.888 C380.357805,80.352 369.829313,65.28 356.868708,53.056 C346.020202,42.816 333.411613,34.496 319.394959,28.352 C295.041822,17.6 272.320762,16 260.92823,16 L260.896229,16 C260.448208,16 260.032188,16 259.64817,16 C256.480022,16.032 251.327782,16.096 250.84776,16.096 C239.487229,16.096 216.734167,17.696 192.317027,28.448 C178.332375,34.592 165.787789,42.88 154.971284,53.12 C142.074682,65.344 131.578192,80.384 123.769828,97.856 C112.313293,123.424 115.03342,166.528 117.209522,201.152 L117.209522,201.216 C117.433532,204.928 117.689544,208.8 117.913555,212.576 C116.249477,213.312 113.52935,214.144 109.529163,214.144 C103.064861,214.144 95.3845029,212.096 86.7120981,208.032 C84.1519786,206.848 81.2398427,206.24 78.0396933,206.24 C72.8874528,206.24 67.4151974,207.744 62.7109778,210.528 C56.7587,214.016 52.9185207,218.912 51.8624715,224.384 C51.1904401,227.968 51.2224416,235.104 59.158812,242.336 C63.5430167,246.304 69.9433154,249.984 78.2317023,253.248 C80.4078039,254.112 82.9999249,254.912 85.7200518,255.776 C95.192494,258.784 109.561165,263.328 113.305339,272.096 C115.193428,276.544 114.361389,282.4 110.873226,289.504 C110.777221,289.696 110.681217,289.888 110.617214,290.08 C109.721172,292.128 101.560791,310.528 84.82401,329.952 C75.3195664,340.992 64.8550779,350.24 53.7185581,357.408 C40.1179233,366.176 25.4292376,371.872 10.0365191,374.4 C3.98823683,375.392 -0.331964827,380.768 0.0200516038,386.88 C0.116056085,388.64 0.532075504,390.4 1.26810986,392.096 L1.26810986,392.128 C3.73222488,397.856 9.39648927,402.688 18.6129195,406.944 C29.8774453,412.16 46.710231,416.544 68.6952572,419.968 C69.8153094,422.08 70.9673632,427.36 71.7674006,430.976 C72.5994394,434.816 73.4634797,438.784 74.711538,442.976 C76.0556007,447.52 79.511762,452.96 88.4401788,452.96 C91.8323371,452.96 95.7045179,452.192 100.216728,451.328 C106.809036,450.048 115.833457,448.288 127.065982,448.288 C133.306273,448.288 139.770575,448.832 146.266878,449.92 C158.811464,452 169.627968,459.616 182.140552,468.448 C200.445407,481.376 221.182375,496 252.863854,496 C253.727894,496 254.591934,495.968 255.455975,495.904 C256.480022,495.968 257.792084,496 259.136146,496 C290.817625,496 311.554593,481.376 329.859448,468.48 L329.891449,468.448 C342.404033,459.648 353.220538,452.032 365.765124,449.952 C372.261427,448.864 378.725728,448.32 384.96602,448.32 C395.718522,448.32 404.230919,449.696 411.815273,451.168 C416.775505,452.128 420.615684,452.608 423.591823,452.608 L423.879836,452.608 L424.16785,452.608 C430.696154,452.608 435.496378,449.024 437.320464,442.784 C438.53652,438.656 439.400561,434.816 440.264601,430.88 C441.000635,427.488 442.216692,422.048 443.304743,419.936 C465.289769,416.48 482.122555,412.128 493.387081,406.912 C502.571509,402.656 508.235774,397.824 510.699889,392.128 C511.435923,390.432 511.883944,388.672 511.979948,386.848 C512.331965,380.8 508.011763,375.392 501.963481,374.432 Z" id="Path" fill="#FFFFFF" fill-rule="nonzero"></path>
    </g>
</svg>