<?xml version="1.0" encoding="UTF-8"?>
<svg width="512px" height="512px" viewBox="0 0 512 512" version="1.1" xmlns="http://www.w3.org/2000/svg" xmlns:xlink="http://www.w3.org/1999/xlink">
    <!-- Generator: Sketch 59 (86127) - https://sketch.com -->
    <title>ic_smiley</title>
    <desc>Created with Sketch.</desc>
    <g id="ic_smiley" stroke="none" stroke-width="1" fill="none" fill-rule="evenodd">
        <path d="M311.3125,1 C326.586625,1 338.96875,13.3646991 338.96875,28.6173285 L338.972917,54.6416064 C428.378328,88.1766002 492,174.335002 492,275.33213 C492,405.487901 386.339201,511 256,511 C125.660799,511 20,405.487901 20,275.33213 C20,174.334308 83.6225471,88.1754152 173.028927,54.6409145 L173.03125,28.6173285 C173.03125,13.3646991 185.413375,1 200.6875,1 C215.961625,1 228.34375,13.3646991 228.34375,28.6173285 L228.343118,41.2653852 C237.414948,40.2079389 246.643893,39.6642599 256,39.6642599 C265.356742,39.6642599 274.586305,40.2080127 283.658729,41.2656005 L283.65625,28.6173285 C283.65625,13.3646991 296.038375,1 311.3125,1 Z M256.460938,96.7400722 C246.893906,96.7400722 237.50278,97.4921549 228.343615,98.940344 L227.639702,184.908627 C227.639702,200.161256 215.257577,212.525955 199.983452,212.525955 C184.709327,212.525955 172.327202,200.161256 172.327202,184.908627 L173.029808,117.383935 C116.550536,147.282339 78.078125,206.590556 78.078125,274.871841 C78.078125,373.251301 157.942831,453.00361 256.460938,453.00361 C354.979044,453.00361 434.84375,373.251301 434.84375,274.871841 C434.84375,206.220056 395.952697,146.638979 338.971094,116.899841 L338.264702,184.908627 C338.264702,200.161256 325.882577,212.525955 310.608452,212.525955 C295.334327,212.525955 282.952202,200.161256 282.952202,184.908627 L283.658251,98.7973401 C274.790557,97.4426762 265.707914,96.7400722 256.460938,96.7400722 Z M171.1875,321.361011 L342.65625,321.361011 C342.65625,368.644162 304.271663,406.974729 256.921875,406.974729 C210.045585,406.974729 171.956088,369.40694 171.198986,322.77679 L171.1875,321.361011 L342.65625,321.361011 L171.1875,321.361011 Z" id="Shape" fill="#FFFFFF"></path>
    </g>
</svg>