<?xml version="1.0" encoding="UTF-8"?>
<svg width="512px" height="512px" viewBox="0 0 512 512" version="1.1" xmlns="http://www.w3.org/2000/svg" xmlns:xlink="http://www.w3.org/1999/xlink">
    <!-- Generator: Sketch 59 (86127) - https://sketch.com -->
    <title>ic_sound_on</title>
    <desc>Created with Sketch.</desc>
    <g id="ic_sound_on" stroke="none" stroke-width="1" fill="none" fill-rule="evenodd">
        <path d="M271.547314,68.9797341 C275.534734,73.8459132 277.713481,79.9413493 277.713481,86.2306965 L277.713481,425.770118 C277.713481,440.808766 265.513293,453 250.463598,453 C244.168151,453 238.066897,450.82183 233.196629,446.835629 L114.720127,349.864908 L56.3790679,349.865754 C25.2417685,349.865754 0,324.642512 0,293.528067 L0,218.41115 C0,187.296704 25.2417685,162.073462 56.3790679,162.073462 L114.757713,162.072616 L233.199965,65.1624553 C244.844179,55.6350118 262.012873,57.3440658 271.547314,68.9797341 Z M452.849879,92.9375 C465.837778,92.9375 477.604941,100.588971 482.867054,112.455848 C502.289018,156.255368 512,204.436752 512,257 C512,309.648145 502.257623,358.314523 482.77287,402.999134 C477.554826,414.965733 465.735582,422.703125 452.674063,422.703125 L442.733212,422.703125 C431.869662,422.703125 423.063014,413.901879 423.063014,403.044993 C423.063014,400.499016 423.557879,397.977282 424.520081,395.61989 C441.928574,352.970737 450.632821,306.764107 450.632821,257 C450.632821,207.399685 441.985778,161.701155 424.691691,119.904409 C420.571542,109.946477 425.308849,98.535942 435.272855,94.4182278 C437.638455,93.4406225 440.173339,92.9375 442.733212,92.9375 L452.849879,92.9375 Z M358.843362,142.15625 C372.254673,142.15625 384.317812,150.30803 389.313315,162.746609 C400.928947,191.669013 406.736763,223.08681 406.736763,257 C406.736763,290.913191 400.928947,322.330989 389.313314,351.253394 C384.317809,363.691971 372.254671,371.84375 358.843361,371.84375 L349.16019,371.84375 C338.106528,371.84375 329.145764,362.888483 329.145764,351.841601 C329.145764,349.485955 329.56213,347.148828 330.375619,344.93792 C340.371596,317.772721 345.369584,288.460081 345.369584,257 C345.369584,225.539919 340.371596,196.227279 330.375619,169.06208 C326.560543,158.694021 331.877887,147.198189 342.252291,143.385402 C344.464537,142.57236 346.803099,142.15625 349.16019,142.15625 L358.843362,142.15625 Z" id="Shape" fill="#FFFFFF"></path>
    </g>
</svg>