<?xml version="1.0" encoding="UTF-8"?>
<svg width="512px" height="512px" viewBox="0 0 512 512" version="1.1" xmlns="http://www.w3.org/2000/svg" xmlns:xlink="http://www.w3.org/1999/xlink">
    <!-- Generator: Sketch 59 (86127) - https://sketch.com -->
    <title>ic_sign_right</title>
    <desc>Created with Sketch.</desc>
    <g id="ic_sign_right" stroke="none" stroke-width="1" fill="none" fill-rule="evenodd">
        <path d="M203.208112,18.2628669 L390.856836,206.325457 C392.911716,207.922831 394.889688,209.667073 396.776611,211.558183 C408.799243,223.607494 414.872737,239.361327 415,255.153478 L415,255.999502 C415.087751,272.074855 409.013933,288.17734 396.776611,300.441817 C394.890166,302.332448 392.912717,304.076286 390.858396,305.673331 L203.208112,493.737133 C178.911537,518.087622 139.519006,518.087622 115.222431,493.737133 C91.168822,469.630149 90.9282859,430.694786 114.500823,406.291234 L115.222431,405.556211 L233.774573,255.153478 L115.222431,106.443789 C90.9258563,82.0932996 90.9258563,42.6133561 115.222431,18.2628669 C139.519006,-6.0876223 178.911537,-6.0876223 203.208112,18.2628669 Z" id="Path" fill="#FFFFFF"></path>
    </g>
</svg>