<?xml version="1.0" encoding="UTF-8"?>
<svg width="512px" height="512px" viewBox="0 0 512 512" version="1.1" xmlns="http://www.w3.org/2000/svg" xmlns:xlink="http://www.w3.org/1999/xlink">
    <!-- Generator: Sketch 59 (86127) - https://sketch.com -->
    <title>ic_social_instagram</title>
    <desc>Created with Sketch.</desc>
    <g id="ic_social_instagram" stroke="none" stroke-width="1" fill="none" fill-rule="evenodd">
        <path d="M160,0 L352,0 C439.46848,0 510.56537,70.2222048 511.978561,157.354506 L512,160 L512,352 C512,439.46848 441.777795,510.56537 354.645494,511.978561 L352,512 L160,512 C72.53152,512 1.4346304,441.777795 0.021439456,354.645494 L0,352 L0,160 C0,72.53152 70.2222048,1.4346304 157.354506,0.021439456 L160,0 L352,0 L160,0 Z M352,48 L160,48 C98.8576,48 49.005952,97.240224 48.0150333,158.150695 L48,160 L48,352 C48,413.1424 97.240224,462.994048 158.150695,463.984967 L160,464 L352,464 C413.1424,464 462.994048,414.759776 463.984967,353.849305 L464,352 L464,160 C464,98.8576 414.759776,49.005952 353.849305,48.0150333 L352,48 Z M256,128 C326.688,128 384,185.312 384,256 C384,326.688 326.688,384 256,384 C185.312,384 128,326.688 128,256 C128,185.312 185.312,128 256,128 Z M256,176 C211.904,176 176,211.872 176,256 C176,300.096 211.904,336 256,336 C300.096,336 336,300.096 336,256 C336,211.872 300.096,176 256,176 Z M393.6,101.344 C403.019769,101.344 410.656,108.980231 410.656,118.4 C410.656,127.819769 403.019769,135.456 393.6,135.456 C384.180231,135.456 376.544,127.819769 376.544,118.4 C376.544,108.980231 384.180231,101.344 393.6,101.344 Z" id="Shape" fill="#FFFFFF" fill-rule="nonzero"></path>
    </g>
</svg>