<?xml version="1.0" encoding="UTF-8"?>
<svg width="513px" height="512px" viewBox="0 0 513 512" version="1.1" xmlns="http://www.w3.org/2000/svg" xmlns:xlink="http://www.w3.org/1999/xlink">
    <!-- Generator: Sketch 59 (86127) - https://sketch.com -->
    <title>ic_sign_bottom</title>
    <desc>Created with Sketch.</desc>
    <g id="ic_sign_bottom" stroke="none" stroke-width="1" fill="none" fill-rule="evenodd" transform="translate(0.000000, 0.000000)">
        <path d="M493.737133,203.207799 L305.674543,390.85597 C304.077169,392.910844 302.332927,394.88881 300.441817,396.775728 C288.392506,408.798324 272.638673,414.8718 256.846522,415 L256.000498,415 C239.925145,415.086813 223.82266,409.013014 211.558183,396.775728 C209.667552,394.889288 207.923714,392.911845 206.326669,390.85753 L18.2628669,203.207799 C-6.0876223,178.911296 -6.0876223,139.518881 18.2628669,115.222378 C42.3698512,91.1688392 81.3052136,90.9283038 105.708766,114.500771 L106.443789,115.222378 L256.846522,233.77417 L405.556211,115.222378 C429.9067,90.9258742 469.386644,90.9258742 493.737133,115.222378 C518.087622,139.518881 518.087622,178.911296 493.737133,203.207799 Z" id="Path" fill="#FFFFFF"></path>
    </g>
</svg>