<?xml version="1.0" encoding="UTF-8"?>
<svg width="512px" height="512px" viewBox="0 0 512 512" version="1.1" xmlns="http://www.w3.org/2000/svg" xmlns:xlink="http://www.w3.org/1999/xlink">
    <!-- Generator: Sketch 59 (86127) - https://sketch.com -->
    <title>ic_sword</title>
    <desc>Created with Sketch.</desc>
    <g id="ic_sword" stroke="none" stroke-width="1" fill="none" fill-rule="evenodd">
        <path d="M154.427374,451.931497 C160.631299,458.135422 160.621226,468.204043 154.404877,474.420392 L131.143105,497.682165 C112.079633,516.745636 81.2025278,516.776525 62.1771593,497.751156 L14.2488437,449.822841 C-4.77652472,430.797472 -4.74563613,399.920367 14.3178353,380.856895 L37.5796075,357.595123 C43.7959569,351.378774 53.8645782,351.368701 60.0685027,357.572626 L154.427374,451.931497 Z M356.200598,407.151375 C363.580524,414.531301 363.568051,426.508998 356.172739,433.904311 L328.499251,461.577798 C305.820294,484.256756 269.088689,484.295005 246.456915,461.663231 L190.334252,405.540569 L168.909617,426.965204 L85.1710411,343.226629 L106.595677,321.801993 L48.6913425,263.897659 C26.0595684,241.265885 26.0978181,204.53428 48.7767755,181.855322 L76.4502631,154.181835 C83.8455753,146.786522 95.8232727,146.77405 103.203199,154.153976 L356.200598,407.151375 Z M495.894944,43.977066 L511.621921,147.419743 C513.210667,157.869565 509.735856,168.452203 502.261805,175.926255 L333.381732,344.806328 L274.14606,285.570239 L274.107561,285.609803 L226.390197,237.892439 L226.428256,237.852435 L167.193672,178.618268 L336.073745,9.73819541 C343.547797,2.26414383 354.130435,-1.21066655 364.580257,0.37807916 L468.022934,16.105056 C482.413127,18.2928786 493.707121,29.5868733 495.894944,43.977066 Z M431.054666,80.9453337 C418.032901,67.9235686 397.015633,67.7703713 383.805739,80.4857419 L383.337303,80.9453337 L226.428256,237.852435 L274.14606,285.570239 L431.054666,128.662697 C444.076431,115.640932 444.229629,94.623664 431.514258,81.4137695 L431.054666,80.9453337 Z" id="Shape" fill="#FFFFFF"></path>
    </g>
</svg>