<?xml version="1.0" encoding="UTF-8"?>
<svg width="512px" height="512px" viewBox="0 0 512 512" version="1.1" xmlns="http://www.w3.org/2000/svg" xmlns:xlink="http://www.w3.org/1999/xlink">
    <!-- Generator: Sketch 59 (86127) - https://sketch.com -->
    <title>ic_sign_left</title>
    <desc>Created with Sketch.</desc>
    <g id="ic_sign_left" stroke="none" stroke-width="1" fill="none" fill-rule="evenodd">
        <path d="M308.792201,493.737133 L121.14403,305.674543 C119.089156,304.077169 117.11119,302.332927 115.224272,300.441817 C103.201676,288.392506 97.1281996,272.638673 97,256.846522 L97,256.000498 C96.9131868,239.925145 102.986986,223.82266 115.224272,211.558183 C117.110712,209.667552 119.088155,207.923714 121.14247,206.326669 L308.792201,18.2628669 C333.088704,-6.0876223 372.481119,-6.0876223 396.777622,18.2628669 C420.831161,42.3698512 421.071696,81.3052136 397.499229,105.708766 L396.777622,106.443789 L278.22583,256.846522 L396.777622,405.556211 C421.074126,429.9067 421.074126,469.386644 396.777622,493.737133 C372.481119,518.087622 333.088704,518.087622 308.792201,493.737133 Z" id="Path" fill="#FFFFFF"></path>
    </g>
</svg>