<?xml version="1.0" encoding="UTF-8"?>
<svg width="512px" height="512px" viewBox="0 0 512 512" version="1.1" xmlns="http://www.w3.org/2000/svg" xmlns:xlink="http://www.w3.org/1999/xlink">
    <!-- Generator: Sketch 59 (86127) - https://sketch.com -->
    <title>ic_social_twitter</title>
    <desc>Created with Sketch.</desc>
    <g id="ic_social_twitter" stroke="none" stroke-width="1" fill="none" fill-rule="evenodd">
        <path d="M512,97.248 C492.96,105.6 472.672,111.136 451.52,113.824 C473.28,100.832 489.888,80.416 497.696,55.808 C477.408,67.904 455.008,76.448 431.136,81.216 C411.872,60.704 384.416,48 354.464,48 C296.352,48 249.568,95.168 249.568,152.992 C249.568,161.312 250.272,169.312 252,176.928 C164.736,172.672 87.52,130.848 35.648,67.136 C26.592,82.848 21.28,100.832 21.28,120.192 C21.28,156.544 40,188.768 67.904,207.424 C51.04,207.104 34.496,202.208 20.48,194.496 C20.48,194.816 20.48,195.232 20.48,195.648 C20.48,246.656 56.864,289.024 104.576,298.784 C96.032,301.12 86.72,302.24 77.056,302.24 C70.336,302.24 63.552,301.856 57.184,300.448 C70.784,342.016 109.376,372.576 155.264,373.568 C119.552,401.504 74.208,418.336 25.12,418.336 C16.512,418.336 8.256,417.952 0,416.896 C46.496,446.88 101.6,464 161.024,464 C354.176,464 459.776,304 459.776,165.312 C459.776,160.672 459.616,156.192 459.392,151.744 C480.224,136.96 497.728,118.496 512,97.248 Z" id="Path" fill="#FFFFFF" fill-rule="nonzero"></path>
    </g>
</svg>