<?xml version="1.0" encoding="UTF-8"?>
<svg width="512px" height="512px" viewBox="0 0 512 512" version="1.1" xmlns="http://www.w3.org/2000/svg" xmlns:xlink="http://www.w3.org/1999/xlink">
    <!-- Generator: Sketch 59 (86127) - https://sketch.com -->
    <title>ic_settings</title>
    <desc>Created with Sketch.</desc>
    <g id="ic_settings" stroke="none" stroke-width="1" fill="none" fill-rule="evenodd">
        <path d="M311.487479,27.5386965 L311.552048,28.0240552 L316.593296,68.0988038 C326.0497,71.1668841 335.388901,74.9805089 344.475883,79.5231009 L345.908554,80.2464077 L377.879513,55.4853198 C398.245852,49.6304195 412.258684,50.4051842 419.918009,57.809614 L420.15777,58.0456418 L453.956551,91.8454562 C465.263313,103.152564 466.440176,121.102235 456.755574,133.79987 L456.458776,134.183027 L431.756464,166.096942 C436.400335,175.166829 440.302456,184.507374 443.438965,193.9897 L443.903696,195.413096 L483.963406,200.440684 C500.03492,202.469898 511.998533,215.91819 512,231.821213 L511.996375,232.303865 L511.995471,279.835586 C512.249537,295.625898 500.435128,309.22579 484.460453,311.472236 L483.975106,311.536826 L443.901391,316.579753 C440.833045,326.036562 437.019181,335.376195 432.476382,344.463627 L431.753043,345.89637 L456.963984,378.456146 C466.34103,390.972207 465.233243,408.558966 454.298465,419.821467 L453.964101,420.160808 L420.164034,453.961908 C408.856842,465.269446 390.907692,466.447046 378.181326,456.733143 L377.797289,456.435447 L345.888053,431.736357 C336.818267,436.380716 327.475352,440.280805 317.992959,443.417533 L316.56957,443.882314 L311.543374,483.946202 C309.4972,500.001874 296.062229,511.979749 280.176055,511.998166 L279.693914,511.995055 L232.163646,511.99596 C216.373807,512.250634 202.774781,500.436382 200.529011,484.461303 L200.464442,483.975945 L195.423194,443.901196 C185.966791,440.833116 176.627589,437.019491 167.540607,432.476899 L166.107936,431.753592 L134.136978,456.51468 C121.590805,466.37532 103.629306,465.410081 92.1895732,454.307694 L91.8449232,453.968156 L58.0461422,420.168341 C46.7393804,408.861234 45.5625001,390.91158 55.2471022,378.213945 L55.5439003,377.830788 L80.2600264,345.903058 C75.6408882,336.842722 71.7348616,327.538014 68.6011617,318.081316 L68.1127939,316.586904 L28.0530846,311.559316 C11.9815708,309.530102 0.00441827293,296.068271 -2.4596074e-12,280.162296 L0.00353898126,279.679558 L0.0180053246,231.500598 C0.11332205,215.979243 11.835788,202.738656 27.5635667,200.526815 L28.0413842,200.463174 L67.4216477,195.511433 C67.7227937,195.182651 68.101294,194.953329 68.4162532,194.63836 C71.4473044,185.461636 75.1156065,176.406404 79.5221676,167.573674 L80.2634475,166.10363 L55.5043332,134.132637 C45.6444727,121.586456 46.6103656,103.624371 57.7128485,92.1838657 L58.0523893,91.8391922 L91.8524565,58.0380916 C103.159649,46.7305538 121.108798,45.5529544 133.805677,55.2373694 L134.188811,55.534162 L166.114624,80.2498288 C175.187981,75.6170811 184.50817,71.7248855 193.954384,68.5756112 L195.446921,68.0845316 L200.459303,28.0399838 C202.502741,11.981577 215.951215,-0.00985616049 231.840349,0.000935993921 L232.322576,0.00494498278 L279.852844,0.00403986391 C295.642683,-0.250634137 309.24171,11.5636178 311.487479,27.5386965 Z M255.051397,116.026928 C178.268343,116.026928 116.02338,178.273795 116.02338,255.059196 C116.02338,331.844597 178.268343,394.091464 255.051397,394.091464 C331.83445,394.091464 394.079413,331.844597 394.079413,255.059196 C394.079413,178.273795 331.83445,116.026928 255.051397,116.026928 Z M256.04816,176.036942 C300.239846,176.036942 336.064285,211.862476 336.064285,256.055513 C336.064285,300.24855 300.239846,336.074084 256.04816,336.074084 C211.856475,336.074084 176.032036,300.24855 176.032036,256.055513 C176.032036,211.862476 211.856475,176.036942 256.04816,176.036942 Z" id="Combined-Shape" fill="#FFFFFF" fill-rule="nonzero"></path>
    </g>
</svg>