<?xml version="1.0" encoding="UTF-8"?>
<svg width="512px" height="512px" viewBox="0 0 512 512" version="1.1" xmlns="http://www.w3.org/2000/svg" xmlns:xlink="http://www.w3.org/1999/xlink">
    <!-- Generator: Sketch 59 (86127) - https://sketch.com -->
    <title>ic_sound_off</title>
    <desc>Created with Sketch.</desc>
    <g id="ic_sound_off" stroke="none" stroke-width="1" fill="none" fill-rule="evenodd">
        <path d="M271.547314,68.9797341 C275.534734,73.8459132 277.713481,79.9413493 277.713481,86.2306965 L277.713481,425.770118 C277.713481,440.808766 265.513293,453 250.463598,453 C244.168151,453 238.066897,450.82183 233.196629,446.835629 L114.720127,349.864908 L56.3790679,349.865754 C25.2417685,349.865754 0,324.642512 0,293.528067 L0,218.41115 C0,187.296704 25.2417685,162.073462 56.3790679,162.073462 L114.757713,162.072616 L233.199965,65.1624553 C244.844179,55.6350118 262.012873,57.3440658 271.547314,68.9797341 Z M372.046788,169.593744 L415.684624,213.123258 L459.323715,169.593744 C471.374144,157.572919 490.911749,157.572919 502.962178,169.593744 C515.012607,181.61457 515.012607,201.10418 502.962178,213.125006 L459.322669,256.655641 L502.962178,300.187528 C515.012607,312.208354 515.012607,331.697963 502.962178,343.718789 C490.911749,355.739615 471.374144,355.739615 459.323715,343.718789 L415.684624,300.186484 L372.046788,343.718789 C359.996359,355.739615 340.458753,355.739615 328.408325,343.718789 C316.357896,331.697963 316.357896,312.208354 328.408325,300.187528 L372.045036,256.655641 L328.408325,213.125006 C316.357896,201.10418 316.357896,181.61457 328.408325,169.593744 C340.458753,157.572919 359.996359,157.572919 372.046788,169.593744 Z" id="Shape" fill="#FFFFFF"></path>
    </g>
</svg>