<?xml version="1.0" encoding="UTF-8"?>
<svg width="512px" height="512px" viewBox="0 0 512 512" version="1.1" xmlns="http://www.w3.org/2000/svg" xmlns:xlink="http://www.w3.org/1999/xlink">
    <!-- Generator: Sketch 59 (86127) - https://sketch.com -->
    <title>ic_share</title>
    <desc>Created with Sketch.</desc>
    <g id="ic_share" stroke="none" stroke-width="1" fill="none" fill-rule="evenodd">
        <path d="M349.472331,39 C355.391409,39 361.056296,41.4103685 365.16664,45.6778152 L505.883541,191.773102 C514.03882,200.240086 514.03882,213.656759 505.883541,222.123743 L365.16664,368.21903 C356.801791,376.903594 342.99416,377.149603 334.326433,368.768505 C330.067259,364.650176 327.661564,358.974285 327.661564,353.04371 L327.66085,306.759516 L327.070213,306.697598 C274.819146,301.287103 219.111494,307.692589 162.832046,336.326172 C113.405146,361.473349 68.0007968,408.337831 23.7342087,466.5075 L22.393589,468.275273 C18.4271482,473.523546 10.9653949,474.556431 5.72729661,470.582285 C2.96390119,468.485697 1.25055018,465.285817 1.03533992,461.819516 C-6.05141641,347.676136 23.0491751,256.440364 94.3064393,199.75 C171.555192,138.292969 253.594038,115.922816 327.661562,115.653629 L327.661564,60.8531355 C327.661564,48.783982 337.426577,39 349.472331,39 Z" id="Path" fill="#FFFFFF"></path>
    </g>
</svg>