<?xml version="1.0" encoding="UTF-8"?>
<svg width="512px" height="512px" viewBox="0 0 512 512" version="1.1" xmlns="http://www.w3.org/2000/svg" xmlns:xlink="http://www.w3.org/1999/xlink">
    <!-- Generator: Sketch 59 (86127) - https://sketch.com -->
    <title>ic_shop</title>
    <desc>Created with Sketch.</desc>
    <g id="ic_shop" stroke="none" stroke-width="1" fill="none" fill-rule="evenodd">
        <path d="M208.90625,356.997912 L208.90625,501 L120.976562,501 L120.976562,356.997912 L208.90625,356.997912 Z M409.601562,269.849133 C423.578125,281.233855 441.40625,288.064688 460.800781,288.064688 C467.452567,288.064688 473.920112,287.260549 480.112309,285.746737 L481.039062,285.514355 L481.039062,470.997449 L496.996094,470.997449 C505.28125,470.997449 512,477.715021 512,485.998724 C512,494.177571 505.450268,500.829684 497.309957,500.996781 L496.996094,501 L238.910156,501 L238.910156,342.000542 C238.910156,333.821696 232.360424,327.169583 224.220113,327.002486 L223.90625,326.999267 L105.972656,326.999267 C97.7923754,326.999267 91.1429037,333.54785 90.9758733,341.686734 L90.972656,342.000542 L90.972656,501 L15.003906,501 C6.71875,501 0,494.282428 0,485.998724 C0,477.819878 6.54973161,471.167765 14.6900432,471.000668 L15.003906,470.997449 L30.964844,470.997449 L30.964844,285.514355 C37.4375,287.178125 44.21875,288.064688 51.203125,288.064688 C70.59375,288.064688 88.421875,281.233855 102.402344,269.849133 C116.382812,281.233855 134.210938,288.064688 153.601562,288.064688 C172.992188,288.064688 190.820312,281.233855 204.800781,269.849133 C218.78125,281.233855 236.609375,288.064688 256,288.064688 C275.394531,288.064688 293.21875,281.233855 307.199219,269.849133 C321.179688,281.233855 339.007812,288.064688 358.402344,288.064688 C377.792969,288.064688 395.621094,281.233855 409.601562,269.849133 Z M408.027344,326.999267 L284.003906,326.999267 C275.823625,326.999267 269.174154,333.54785 269.007123,341.686734 L269.003906,342.000542 L269.003906,434.999856 C269.003906,443.178703 275.54983,449.827008 283.690045,449.994009 L284.003906,449.997226 L408.027344,449.997226 C416.207625,449.997226 422.857096,443.45245 423.024127,435.313662 L423.027344,434.999856 L423.027344,342.000542 C423.027344,333.821696 416.48142,327.169583 408.341205,327.002486 L408.027344,326.999267 Z M393.023438,356.997912 L393.023438,419.99858 L299.007812,419.99858 L299.007812,356.997912 L393.023438,356.997912 Z M512,200.997927 L512,206.871897 C512,235.101321 489.03125,258.066044 460.800781,258.066044 C432.570312,258.066044 409.601562,235.101321 409.601562,206.871897 C409.601562,235.101321 386.632812,258.066044 358.402344,258.066044 C330.167969,258.066044 307.203125,235.101321 307.203125,206.871897 C307.203125,235.101321 284.234375,258.066044 256,258.066044 C227.769531,258.066044 204.800781,235.101321 204.800781,206.871897 C204.800781,235.101321 181.832031,258.066044 153.601562,258.066044 C125.367188,258.066044 102.402344,235.101321 102.402344,206.871897 C102.402344,235.101321 79.433594,258.066044 51.199219,258.066044 C23.2510547,258.066044 0.459901172,235.558319 0.00687291797,207.717183 L0,206.871897 L0,200.997927 L512,200.997927 Z M29.96875,118.000765 L481.941406,118.000765 C498.250203,130.248577 509.425456,148.975298 511.60601,170.324239 L511.671875,170.999283 L0.238281,170.999283 C2.22904459,149.595565 13.2551513,130.77347 29.4554463,118.389687 L29.96875,118.000765 L481.941406,118.000765 L29.96875,118.000765 Z M125.933594,11 L385.976562,11 C426.926211,11 460.31837,43.9768787 460.982118,84.7603394 L460.992188,85.9985655 L460.992188,88.0021201 L50.921875,88.0021201 L50.921875,85.9985655 C50.921875,45.0599642 83.9007081,11.6736994 124.695036,11.010068 L125.933594,11 L385.976562,11 L125.933594,11 Z" id="Shape" fill="#FFFFFF" fill-rule="nonzero"></path>
    </g>
</svg>