<?xml version="1.0" encoding="UTF-8"?>
<svg width="512px" height="512px" viewBox="0 0 512 512" version="1.1" xmlns="http://www.w3.org/2000/svg" xmlns:xlink="http://www.w3.org/1999/xlink">
    <!-- Generator: Sketch 59 (86127) - https://sketch.com -->
    <title>ic_shield</title>
    <desc>Created with Sketch.</desc>
    <g id="ic_shield" stroke="none" stroke-width="1" fill="none" fill-rule="evenodd">
        <path d="M155.846577,0 L356.154423,0 C365.262423,0 372.672946,7.30020153 372.844053,16.3749455 L372.847077,16.6959584 C372.847077,43.5773615 410.30683,66.3237329 454.953255,66.7759722 L456.308346,66.7828337 C465.416346,66.7828337 472.825893,74.0830352 473,83.1568136 L473,83.4777921 L473,217.337459 C473,350.854126 387.919055,468.923832 261.281441,511.141727 C257.714156,512.326724 254.037893,512.244724 250.718559,511.141727 C125.347321,469.346011 40.7057746,353.206955 39.0254808,221.338235 L39,217.337459 L39,83.4787921 C39,74.363059 46.3046167,66.9568605 55.3719088,66.7858559 L55.6926538,66.7828337 C100.480186,66.7828337 138.388794,44.3052762 139.142488,17.509262 L139.153923,16.6959584 C139.153923,7.5802253 146.45854,0.174026879 155.525832,0 L155.846577,0 L356.154423,0 L155.846577,0 Z M311.053464,66.7818337 L200.955534,66.7818337 C195.670454,66.7818337 190.695371,69.2918782 187.549817,73.5310854 L187.328266,73.8368161 C171.879443,95.6821017 147.269501,113.260042 117.981294,123.40165 L117.092346,123.706692 C110.43553,125.972286 105.921034,132.153996 105.7724,139.159733 L105.768616,139.516652 L105.768616,217.331459 C105.768616,312.939221 162.062331,399.939004 249.174868,438.966907 C253.583984,440.941902 258.601978,440.858902 262.825132,438.966907 C349.067534,400.330273 405.102448,314.674439 406.214522,220.19707 L406.231384,217.331459 L406.231384,139.515652 C406.231384,132.487787 401.826869,126.221871 395.252787,123.829961 L394.916653,123.711692 C365.534393,113.714697 340.785117,96.2552388 325.151678,74.4974553 L324.680732,73.8368161 C321.624136,69.5147338 316.700878,66.9051297 311.43049,66.7860903 L311.053464,66.7818337 Z M299.966623,102.999743 C304.288621,102.999743 308.350324,105.104379 310.849466,108.645447 C323.311637,126.302775 343.238497,140.476652 366.940417,148.55749 C372.338722,150.396445 375.976449,155.485181 375.976449,161.204506 L375.976449,223.476097 C375.976449,299.985583 331.02065,369.607391 261.451103,400.838415 C258.07846,402.352472 254.071051,402.418892 250.549897,400.838415 C180.981148,369.606591 136.02455,299.985583 136.02455,223.476097 L136.02455,161.205307 C136.02455,155.48198 139.66148,150.397245 145.067769,148.553489 C168.769689,140.477452 188.696548,126.303575 201.15872,108.645447 C203.65866,105.105179 207.720363,102.999743 212.041562,102.999743 L299.966623,102.999743 Z" id="Shape" fill="#FFFFFF" fill-rule="nonzero"></path>
    </g>
</svg>