<?xml version="1.0" encoding="UTF-8"?>
<svg width="512px" height="512px" viewBox="0 0 512 512" version="1.1" xmlns="http://www.w3.org/2000/svg" xmlns:xlink="http://www.w3.org/1999/xlink">
    <!-- Generator: Sketch 59 (86127) - https://sketch.com -->
    <title>ic_social_youtube</title>
    <desc>Created with Sketch.</desc>
    <g id="ic_social_youtube" stroke="none" stroke-width="1" fill="none" fill-rule="evenodd">
        <path d="M490.24,113.92 C476.352,89.216 461.28,84.672 430.592,82.944 C399.936,80.864 322.848,80 256.064,80 C189.152,80 112.032,80.864 81.408,82.912 C50.784,84.672 35.68,89.184 21.664,113.92 C7.36,138.592 0,181.088 0,255.904 C0,255.968 0,256 0,256 C0,256.064 0,256.096 0,256.096 L0,256.16 C0,330.656 7.36,373.472 21.664,397.888 C35.68,422.592 50.752,427.072 81.376,429.152 C112.032,430.944 189.152,432 256.064,432 C322.848,432 399.936,430.944 430.624,429.184 C461.312,427.104 476.384,422.624 490.272,397.92 C504.704,373.504 512,330.688 512,256.192 C512,256.192 512,256.096 512,256.032 C512,256.032 512,255.968 512,255.936 C512,181.088 504.704,138.592 490.24,113.92 Z M192,352 L192,160 L352,256 L192,352 Z" id="Shape" fill="#FFFFFF" fill-rule="nonzero"></path>
    </g>
</svg>