<?xml version="1.0" encoding="UTF-8"?>
<svg width="513px" height="512px" viewBox="0 0 513 512" version="1.1" xmlns="http://www.w3.org/2000/svg" xmlns:xlink="http://www.w3.org/1999/xlink">
    <!-- Generator: Sketch 59 (86127) - https://sketch.com -->
    <title>ic_sign_top</title>
    <desc>Created with Sketch.</desc>
    <g id="ic_sign_top" stroke="none" stroke-width="1" fill="none" fill-rule="evenodd" transform="translate(0.000000, 0.000000)">
        <path d="M18.2628669,308.792201 L206.325457,121.14403 C207.922831,119.089156 209.667073,117.11119 211.558183,115.224272 C223.607494,103.201676 239.361327,97.1281996 255.153478,97 L255.999502,97 C272.074855,96.9131868 288.17734,102.986986 300.441817,115.224272 C302.332448,117.110712 304.076286,119.088155 305.673331,121.14247 L493.737133,308.792201 C518.087622,333.088704 518.087622,372.481119 493.737133,396.777622 C469.630149,420.831161 430.694786,421.071696 406.291234,397.499229 L405.556211,396.777622 L255.153478,278.22583 L106.443789,396.777622 C82.0932996,421.074126 42.6133561,421.074126 18.2628669,396.777622 C-6.0876223,372.481119 -6.0876223,333.088704 18.2628669,308.792201 Z" id="Path" fill="#FFFFFF"></path>
    </g>
</svg>