<?xml version="1.0" encoding="UTF-8"?>
<svg width="512px" height="512px" viewBox="0 0 512 512" version="1.1" xmlns="http://www.w3.org/2000/svg" xmlns:xlink="http://www.w3.org/1999/xlink">
    <!-- Generator: Sketch 59 (86127) - https://sketch.com -->
    <title>ic_twitch</title>
    <desc>Created with Sketch.</desc>
    <g id="ic_twitch" stroke="none" stroke-width="1" fill="none" fill-rule="evenodd">
        <path d="M496,0 L496,311.68 L368,448 L272,448 L208,512 L144,512 L144,448 L16,448 L16,96 L48,0 L496,0 Z M464,32 L80,32 L80,384 L192,384 L192,434.144 L260.928,384 L374.4,384 L464,288 L464,32 Z M272,128 L272,256 L240,256 L240,128 L272,128 Z M368,128 L368,256 L336,256 L336,128 L368,128 Z" id="Shape" fill="#FFFFFF" fill-rule="nonzero"></path>
    </g>
</svg>