<?xml version="1.0" encoding="UTF-8"?>
<svg width="512px" height="512px" viewBox="0 0 512 512" version="1.1" xmlns="http://www.w3.org/2000/svg" xmlns:xlink="http://www.w3.org/1999/xlink">
    <!-- Generator: Sketch 59 (86127) - https://sketch.com -->
    <title>ic_timer</title>
    <desc>Created with Sketch.</desc>
    <g id="ic_timer" stroke="none" stroke-width="1" fill="none" fill-rule="evenodd">
        <path d="M289.010128,0 C311.728284,0 330.144989,18.4316341 330.144989,41.168207 L330.144989,67.194085 C330.144989,75.5569624 323.371029,82.336414 315.014925,82.336414 L282.863539,82.336414 L282.86463,115.893014 C371.718487,136.477153 437.946695,216.180164 437.946695,311.36414 C437.946695,422.172266 348.19172,512 237.473347,512 C126.754975,512 37,422.172266 37,311.36414 C37,216.179825 103.228679,136.476586 192.083013,115.892794 L192.083155,82.336414 L159.93177,82.336414 C151.575666,82.336414 144.801706,75.5569624 144.801706,67.194085 L144.801706,41.168207 C144.801706,18.4316341 163.21841,0 185.936567,0 L289.010128,0 Z M237.946162,171.297597 C160.391075,171.297597 97.5202558,234.219382 97.5202558,311.837338 C97.5202558,389.455294 160.391075,452.377079 237.946162,452.377079 C315.501248,452.377079 378.372068,389.455294 378.372068,311.837338 C378.372068,234.219382 315.501248,171.297597 237.946162,171.297597 Z M237.473347,198.743068 C299.621868,198.743068 350.003198,249.16524 350.003198,311.36414 C350.003198,373.563041 299.621868,423.985213 237.473347,423.985213 C175.324827,423.985213 124.943497,373.563041 124.943497,311.36414 C124.943497,249.16524 175.324827,198.743068 237.473347,198.743068 Z M239.364605,222.402957 C232.15182,222.402957 226.286247,228.175736 226.129035,235.35661 L226.125799,235.652495 L226.125799,298.114603 C226.125799,305.43212 232.053015,311.36414 239.364605,311.36414 C243.662209,311.36414 247.481532,309.314717 249.899563,306.139846 C250.250971,305.871708 250.59204,305.583611 250.921231,305.275555 L251.246406,304.960846 L295.378011,260.793466 C300.548086,255.6192 300.548086,247.230056 295.378011,242.05579 C290.287475,236.961128 282.082745,236.882748 276.896388,241.820652 L276.655512,242.05579 L252.603411,266.126433 L252.603411,235.652495 C252.603411,228.334978 246.676196,222.402957 239.364605,222.402957 Z M400.703308,80.6895766 L468.906697,148.948254 C477.031101,157.079244 477.031101,170.262184 468.906697,178.393174 L450.184137,197.130911 L447.662154,193.83672 C429.761132,170.52571 415.583657,153.607996 405.129729,143.083576 L404.766568,142.719039 C393.796482,131.74006 376.394186,117.309485 352.559678,99.4273141 L371.282238,80.6895766 C379.406642,72.5585865 392.578904,72.5585865 400.703308,80.6895766 Z" id="Shape" fill="#FFFFFF"></path>
    </g>
</svg>