<?xml version="1.0" encoding="UTF-8"?>
<svg width="512px" height="512px" viewBox="0 0 512 512" version="1.1" xmlns="http://www.w3.org/2000/svg" xmlns:xlink="http://www.w3.org/1999/xlink">
    <!-- Generator: Sketch 59 (86127) - https://sketch.com -->
    <title>ic_video</title>
    <desc>Created with Sketch.</desc>
    <g id="ic_video" stroke="none" stroke-width="1" fill="none" fill-rule="evenodd">
        <path d="M506.68701,86.4375687 C503.402017,84.5348957 499.348025,84.5138551 496.042031,86.416528 L362.666292,162.766917 L362.666292,117.067698 C362.666292,99.3905735 348.30932,85.0058047 330.666354,85.0058047 L55.274892,85.0058047 C17.3009662,85.0058047 0,173.645918 0,256.002902 C0,338.359887 17.3009662,427 55.274892,427 L330.666354,427 C348.30932,427 362.666292,412.615231 362.666292,394.938107 L362.666292,349.238888 L496.042031,425.589277 C497.685028,426.530093 499.519024,427 501.333021,427 C503.189017,427 505.024014,426.530093 506.68801,425.568236 C509.973004,423.644522 512,420.138755 512,416.31337 L512,95.6944384 C512,91.8880905 509.972004,88.3612823 506.68701,86.4375687 Z" id="Path" fill="#FFFFFF" fill-rule="nonzero"></path>
    </g>
</svg>