<?xml version="1.0" encoding="UTF-8"?>
<svg width="512px" height="512px" viewBox="0 0 512 512" version="1.1" xmlns="http://www.w3.org/2000/svg" xmlns:xlink="http://www.w3.org/1999/xlink">
    <!-- Generator: Sketch 59 (86127) - https://sketch.com -->
    <title>ic_bag_of_money</title>
    <desc>Created with Sketch.</desc>
    <g id="ic_bag_of_money" stroke="none" stroke-width="1" fill="none" fill-rule="evenodd">
        <g id="bag_of_money" transform="translate(31.000000, 0.000000)" fill-rule="nonzero">
            <path d="M277.854316,1.5320078 L231.146542,24.8833996 C229.052632,25.7826433 226.955727,26.3814737 224.560405,26.3814737 C222.165084,26.3814737 220.068179,25.7816452 217.974269,24.8833996 L171.268491,1.5320078 C160.191127,-3.55705263 149.713591,4.82557505 149.713591,15.004694 L149.713591,75.8817934 C149.713591,112.107041 175.461302,142.345981 209.592639,149.233528 C214.382285,150.130776 219.473341,150.730604 224.562402,150.730604 C229.651462,150.730604 234.742519,150.130776 239.532164,149.233528 C273.663501,142.345981 299.411212,112.107041 299.411212,75.8817934 L299.411212,15.004694 C299.411212,4.82557505 288.932678,-3.55705263 277.854316,1.5320078 Z" id="Path" fill="#A66342"></path>
            <path d="M419.167314,376.275088 C419.167314,269.091431 331.74506,180.671127 224.561404,180.671127 C170.971072,180.671127 122.169388,203.523493 87.138807,238.852491 C51.809809,273.881076 29.9554932,322.68276 29.9554932,376.275088 C11.3927485,390.345606 0.0159688109,412.500335 0.0159688109,436.154136 C0.0159688109,477.470441 33.5484756,511.002947 74.8647797,511.002947 L374.259025,511.002947 C415.575329,511.002947 449.107836,477.470441 449.107836,436.154136 C449.107836,412.500335 437.730058,390.345606 419.167314,376.275088 Z" id="Path" fill="#A66342"></path>
            <path d="M179.652117,195.639891 C163.147353,195.639891 149.712593,182.205131 149.712593,165.700366 C149.712593,149.195602 163.147353,135.760842 179.652117,135.760842 L269.47069,135.760842 C285.975454,135.760842 299.410214,149.195602 299.410214,165.700366 C299.410214,182.205131 285.975454,195.639891 269.47069,195.639891 L179.652117,195.639891 Z" id="Path" fill="#5C5F66"></path>
            <path d="M258,367.518868 C258,381.248113 249.295741,393.451887 236.458753,398.2455 L236.241165,398.2455 L236.241165,411.103774 C236.241165,417.204934 231.454946,422 225.361747,422 C219.268548,422 214.482329,417.204934 214.482329,411.103774 L214.482329,398.2455 C207.300463,395.84833 200.338361,391.271915 194.465651,384.29833 C190.763022,379.504717 191.198924,372.749057 195.987319,368.826415 C200.555949,364.903774 207.299737,365.556821 211.217778,370.133962 C215.570996,375.582075 220.793117,378.415094 225.361747,378.415094 C226.668727,378.415094 227.755219,378.19717 229.059298,377.760594 C240.373893,373.620028 237.548145,355.169811 225.361747,355.169811 C207.300463,355.169811 192.723494,340.568142 192.723494,322.481132 C192.723494,309.404934 200.123673,296.983236 214.482329,291.970972 L214.482329,278.896226 C214.482329,272.793613 219.268548,268 225.361747,268 C231.454946,268 236.241165,272.793613 236.241165,278.896226 L236.241165,291.970972 C241.898462,293.933019 247.338171,296.766038 252.342703,301.559651 C256.475431,305.700217 256.693745,312.673802 252.560291,317.033019 C248.426838,321.392236 241.463285,321.391509 237.112243,317.250943 C233.412516,313.5455 229.276887,311.584906 225.361747,311.584906 C223.837178,311.584906 222.533098,311.80283 221.229019,312.455877 C210.349601,317.033019 213.61125,333.377358 225.361747,333.377358 C243.423031,333.377358 258,349.430406 258,367.518868 Z" id="Path" fill="#FEDB41"></path>
        </g>
    </g>
</svg>