<?xml version="1.0" encoding="UTF-8"?>
<svg width="512px" height="512px" viewBox="0 0 512 512" version="1.1" xmlns="http://www.w3.org/2000/svg" xmlns:xlink="http://www.w3.org/1999/xlink">
    <!-- Generator: Sketch 59 (86127) - https://sketch.com -->
    <title>ic_bomb</title>
    <desc>Created with Sketch.</desc>
    <g id="ic_bomb" stroke="none" stroke-width="1" fill="none" fill-rule="evenodd">
        <g id="bomb_v2" transform="translate(78.000000, 0.000000)" fill-rule="nonzero">
            <path d="M175.5,149 C167.214844,149 160.5,142.285156 160.5,134 L160.5,104 C160.5,79.1875 180.683594,59 205.5,59 L265.496094,59 C273.78125,59 280.496094,65.71875 280.496094,74 C280.496094,82.285156 273.78125,89 265.496094,89 L205.5,89 C197.226562,89 190.5,95.730469 190.5,104 L190.5,134 C190.5,142.285156 183.78125,149 175.5,149 L175.5,149 Z" id="Path" fill="#BF6015"></path>
            <path d="M175.5,512 C79.003906,512 0.5,433.496094 0.5,337 C0.5,301.460938 11.097656,267.246094 31.144531,238.050781 C50.714844,209.558594 77.9375,187.667969 109.871094,174.738281 C111.660156,174.015625 113.570312,173.644531 115.5,173.644531 L235.5,173.644531 C237.429688,173.644531 239.339844,174.015625 241.128906,174.738281 C273.058594,187.667969 300.28125,209.558594 319.851562,238.050781 C339.902344,267.246094 350.496094,301.460938 350.496094,337 C350.496094,433.496094 271.992188,512 175.5,512 Z" id="Path" fill="#5A5A6B"></path>
            <path d="M340.496094,89 L310.496094,89 C302.214844,89 295.496094,82.285156 295.496094,74 C295.496094,65.71875 302.214844,59 310.496094,59 L340.496094,59 C348.78125,59 355.496094,65.71875 355.496094,74 C355.496094,82.285156 348.78125,89 340.496094,89 Z" id="Path" fill="#FAE114"></path>
            <path d="M287.984375,50.003906 C285.4375,50.003906 282.859375,49.355469 280.496094,47.992188 C273.324219,43.851562 270.863281,34.675781 275.007812,27.503906 L286.554688,7.503906 C290.695312,0.328125 299.871094,-2.128906 307.042969,2.011719 C314.21875,6.15625 316.679688,15.328125 312.535156,22.503906 L300.988281,42.503906 C298.207031,47.3125 293.167969,50.003906 287.984375,50.003906 Z" id="Path" fill="#FAE114"></path>
            <path d="M299.558594,148.003906 C294.375,148.003906 289.332031,145.3125 286.554688,140.503906 L275.007812,120.503906 C270.863281,113.328125 273.320312,104.15625 280.496094,100.011719 C287.671875,95.871094 296.84375,98.328125 300.988281,105.503906 L312.535156,125.503906 C316.675781,132.675781 314.21875,141.851562 307.042969,145.992188 C304.683594,147.355469 302.101562,148.003906 299.558594,148.003906 L299.558594,148.003906 Z" id="Path" fill="#FAE114"></path>
            <path d="M250.5,134 C250.5,125.71875 243.78125,119 235.5,119 L115.5,119 C107.214844,119 100.5,125.71875 100.5,134 L100.5,178.886719 L250.5,178.886719 L250.5,134 Z" id="Path" fill="#464655"></path>
        </g>
    </g>
</svg>