<?xml version="1.0" encoding="UTF-8"?>
<svg width="512px" height="512px" viewBox="0 0 512 512" version="1.1" xmlns="http://www.w3.org/2000/svg" xmlns:xlink="http://www.w3.org/1999/xlink">
    <!-- Generator: Sketch 59 (86127) - https://sketch.com -->
    <title>ic_coins_pack_v3</title>
    <desc>Created with Sketch.</desc>
    <g id="ic_coins_pack_v3" stroke="none" stroke-width="1" fill="none" fill-rule="evenodd">
        <g id="ic_coins_pack_02" transform="translate(0.000000, 112.000000)">
            <g id="coin" transform="translate(83.562386, 140.003646)">
                <path d="M58.8235215,83.9288874 C91.3108554,83.9288874 117.647043,70.1454621 117.647043,53.1427453 L117.647043,30.5197077 L0,30.5197077 L0,53.1427453 C0,70.1454621 26.3361877,83.9288874 58.8235215,83.9288874 Z" id="Oval" fill="#FFB600"></path>
                <ellipse id="Oval" fill="#FFCD00" cx="58.8235215" cy="30.7861421" rx="58.8235215" ry="30.7861421"></ellipse>
                <ellipse id="Oval" fill="#FFDE55" cx="58.8235215" cy="30.7861421" rx="43.4304505" ry="15.7595727"></ellipse>
            </g>
            <g id="coin" transform="translate(92.358426, 109.217504)">
                <path d="M58.8235215,83.9288874 C91.3108554,83.9288874 117.647043,70.1454621 117.647043,53.1427453 L117.647043,30.5197077 L0,30.5197077 L0,53.1427453 C0,70.1454621 26.3361877,83.9288874 58.8235215,83.9288874 Z" id="Oval" fill="#FFB600"></path>
                <ellipse id="Oval" fill="#FFCD00" cx="58.8235215" cy="30.7861421" rx="58.8235215" ry="30.7861421"></ellipse>
                <ellipse id="Oval" fill="#FFDE55" cx="58.8235215" cy="30.7861421" rx="43.4304505" ry="15.7595727"></ellipse>
            </g>
            <g id="coin" transform="translate(98.955457, 67.436311)">
                <path d="M58.8235215,83.9288874 C91.3108554,83.9288874 117.647043,70.1454621 117.647043,53.1427453 L117.647043,30.5197077 L0,30.5197077 L0,53.1427453 C0,70.1454621 26.3361877,83.9288874 58.8235215,83.9288874 Z" id="Oval" fill="#FFB600"></path>
                <ellipse id="Oval" fill="#FFCD00" cx="58.8235215" cy="30.7861421" rx="58.8235215" ry="30.7861421"></ellipse>
                <ellipse id="Oval" fill="#FFDE55" cx="58.8235215" cy="30.7861421" rx="43.4304505" ry="15.7595727"></ellipse>
            </g>
            <g id="coin" transform="translate(69.268820, 33.718156)">
                <path d="M58.8235215,83.9288874 C91.3108554,83.9288874 117.647043,70.1454621 117.647043,53.1427453 L117.647043,30.5197077 L0,30.5197077 L0,53.1427453 C0,70.1454621 26.3361877,83.9288874 58.8235215,83.9288874 Z" id="Oval" fill="#FFB600"></path>
                <ellipse id="Oval" fill="#FFCD00" cx="58.8235215" cy="30.7861421" rx="58.8235215" ry="30.7861421"></ellipse>
                <ellipse id="Oval" fill="#FFDE55" cx="58.8235215" cy="30.7861421" rx="43.4304505" ry="15.7595727"></ellipse>
            </g>
            <g id="coin" transform="translate(192.779890, 121.312060)">
                <path d="M58.8235215,83.9288874 C91.3108554,83.9288874 117.647043,70.1454621 117.647043,53.1427453 L117.647043,30.5197077 L0,30.5197077 L0,53.1427453 C0,70.1454621 26.3361877,83.9288874 58.8235215,83.9288874 Z" id="Oval" fill="#FFB600"></path>
                <ellipse id="Oval" fill="#FFCD00" cx="58.8235215" cy="30.7861421" rx="58.8235215" ry="30.7861421"></ellipse>
                <ellipse id="Oval" fill="#FFDE55" cx="58.8235215" cy="30.7861421" rx="43.4304505" ry="15.7595727"></ellipse>
            </g>
            <g id="coin" transform="translate(186.915863, 79.164365)">
                <path d="M58.8235215,83.9288874 C91.3108554,83.9288874 117.647043,70.1454621 117.647043,53.1427453 L117.647043,30.5197077 L0,30.5197077 L0,53.1427453 C0,70.1454621 26.3361877,83.9288874 58.8235215,83.9288874 Z" id="Oval" fill="#FFB600"></path>
                <ellipse id="Oval" fill="#FFCD00" cx="58.8235215" cy="30.7861421" rx="58.8235215" ry="30.7861421"></ellipse>
                <ellipse id="Oval" fill="#FFDE55" cx="58.8235215" cy="30.7861421" rx="43.4304505" ry="15.7595727"></ellipse>
            </g>
            <g id="coin" transform="translate(186.915863, 41.781193)">
                <path d="M58.8235215,83.9288874 C91.3108554,83.9288874 117.647043,70.1454621 117.647043,53.1427453 L117.647043,30.5197077 L0,30.5197077 L0,53.1427453 C0,70.1454621 26.3361877,83.9288874 58.8235215,83.9288874 Z" id="Oval" fill="#FFB600"></path>
                <ellipse id="Oval" fill="#FFCD00" cx="58.8235215" cy="30.7861421" rx="58.8235215" ry="30.7861421"></ellipse>
                <ellipse id="Oval" fill="#FFDE55" cx="58.8235215" cy="30.7861421" rx="43.4304505" ry="15.7595727"></ellipse>
            </g>
            <g id="coin" transform="translate(186.915863, 41.781193)">
                <path d="M58.8235215,83.9288874 C91.3108554,83.9288874 117.647043,70.1454621 117.647043,53.1427453 L117.647043,30.5197077 L0,30.5197077 L0,53.1427453 C0,70.1454621 26.3361877,83.9288874 58.8235215,83.9288874 Z" id="Oval" fill="#FFB600"></path>
                <ellipse id="Oval" fill="#FFCD00" cx="58.8235215" cy="30.7861421" rx="58.8235215" ry="30.7861421"></ellipse>
                <ellipse id="Oval" fill="#FFDE55" cx="58.8235215" cy="30.7861421" rx="43.4304505" ry="15.7595727"></ellipse>
            </g>
            <g id="coin" transform="translate(151.365199, 0.000000)">
                <path d="M58.8235215,83.9288874 C91.3108554,83.9288874 117.647043,70.1454621 117.647043,53.1427453 L117.647043,30.5197077 L0,30.5197077 L0,53.1427453 C0,70.1454621 26.3361877,83.9288874 58.8235215,83.9288874 Z" id="Oval" fill="#FFB600"></path>
                <ellipse id="Oval" fill="#FFCD00" cx="58.8235215" cy="30.7861421" rx="58.8235215" ry="30.7861421"></ellipse>
                <ellipse id="Oval" fill="#FFDE55" cx="58.8235215" cy="30.7861421" rx="43.4304505" ry="15.7595727"></ellipse>
            </g>
            <g id="coin" transform="translate(318.123468, 125.710080)">
                <path d="M58.8235215,83.9288874 C91.3108554,83.9288874 117.647043,70.1454621 117.647043,53.1427453 L117.647043,30.5197077 L0,30.5197077 L0,53.1427453 C0,70.1454621 26.3361877,83.9288874 58.8235215,83.9288874 Z" id="Oval" fill="#FFB600"></path>
                <ellipse id="Oval" fill="#FFCD00" cx="58.8235215" cy="30.7861421" rx="58.8235215" ry="30.7861421"></ellipse>
                <ellipse id="Oval" fill="#FFDE55" cx="58.8235215" cy="30.7861421" rx="43.4304505" ry="15.7595727"></ellipse>
            </g>
            <g id="coin" transform="translate(297.599374, 90.892420)">
                <path d="M58.8235215,83.9288874 C91.3108554,83.9288874 117.647043,70.1454621 117.647043,53.1427453 L117.647043,30.5197077 L0,30.5197077 L0,53.1427453 C0,70.1454621 26.3361877,83.9288874 58.8235215,83.9288874 Z" id="Oval" fill="#FFB600"></path>
                <ellipse id="Oval" fill="#FFCD00" cx="58.8235215" cy="30.7861421" rx="58.8235215" ry="30.7861421"></ellipse>
                <ellipse id="Oval" fill="#FFDE55" cx="58.8235215" cy="30.7861421" rx="43.4304505" ry="15.7595727"></ellipse>
            </g>
            <g id="coin" transform="translate(297.599374, 90.892420)">
                <path d="M58.8235215,83.9288874 C91.3108554,83.9288874 117.647043,70.1454621 117.647043,53.1427453 L117.647043,30.5197077 L0,30.5197077 L0,53.1427453 C0,70.1454621 26.3361877,83.9288874 58.8235215,83.9288874 Z" id="Oval" fill="#FFB600"></path>
                <ellipse id="Oval" fill="#FFCD00" cx="58.8235215" cy="30.7861421" rx="58.8235215" ry="30.7861421"></ellipse>
                <ellipse id="Oval" fill="#FFCD00" cx="58.8235215" cy="30.7861421" rx="58.8235215" ry="30.7861421"></ellipse>
                <ellipse id="Oval" fill="#FFDE55" cx="58.8235215" cy="30.7861421" rx="43.4304505" ry="15.7595727"></ellipse>
            </g>
            <g id="coin" transform="translate(297.599374, 90.892420)">
                <path d="M58.8235215,83.9288874 C91.3108554,83.9288874 117.647043,70.1454621 117.647043,53.1427453 L117.647043,30.5197077 L0,30.5197077 L0,53.1427453 C0,70.1454621 26.3361877,83.9288874 58.8235215,83.9288874 Z" id="Oval" fill="#FFB600"></path>
                <ellipse id="Oval" fill="#FFCD00" cx="58.8235215" cy="30.7861421" rx="58.8235215" ry="30.7861421"></ellipse>
                <ellipse id="Oval" fill="#FFCD00" cx="58.8235215" cy="30.7861421" rx="58.8235215" ry="30.7861421"></ellipse>
                <ellipse id="Oval" fill="#FFDE55" cx="58.8235215" cy="30.7861421" rx="43.4304505" ry="15.7595727"></ellipse>
            </g>
            <g id="coin" transform="translate(297.599374, 48.744725)">
                <path d="M58.8235215,83.9288874 C91.3108554,83.9288874 117.647043,70.1454621 117.647043,53.1427453 L117.647043,30.5197077 L0,30.5197077 L0,53.1427453 C0,70.1454621 26.3361877,83.9288874 58.8235215,83.9288874 Z" id="Oval" fill="#FFB600"></path>
                <ellipse id="Oval" fill="#FFCD00" cx="58.8235215" cy="30.7861421" rx="58.8235215" ry="30.7861421"></ellipse>
                <ellipse id="Oval" fill="#FFCD00" cx="58.8235215" cy="30.7861421" rx="58.8235215" ry="30.7861421"></ellipse>
                <ellipse id="Oval" fill="#FFDE55" cx="58.8235215" cy="30.7861421" rx="43.4304505" ry="15.7595727"></ellipse>
            </g>
            <g id="coin" transform="translate(285.871320, 0.000000)">
                <path d="M58.8235215,83.9288874 C91.3108554,83.9288874 117.647043,70.1454621 117.647043,53.1427453 L117.647043,30.5197077 L0,30.5197077 L0,53.1427453 C0,70.1454621 26.3361877,83.9288874 58.8235215,83.9288874 Z" id="Oval" fill="#FFB600"></path>
                <ellipse id="Oval" fill="#FFCD00" cx="58.8235215" cy="30.7861421" rx="58.8235215" ry="30.7861421"></ellipse>
                <ellipse id="Oval" fill="#FFCD00" cx="58.8235215" cy="30.7861421" rx="58.8235215" ry="30.7861421"></ellipse>
                <ellipse id="Oval" fill="#FFDE55" cx="58.8235215" cy="30.7861421" rx="43.4304505" ry="15.7595727"></ellipse>
            </g>
            <g id="coin" transform="translate(168.224276, 174.821307)">
                <path d="M58.8235215,83.9288874 C91.3108554,83.9288874 117.647043,70.1454621 117.647043,53.1427453 L117.647043,30.5197077 L0,30.5197077 L0,53.1427453 C0,70.1454621 26.3361877,83.9288874 58.8235215,83.9288874 Z" id="Oval" fill="#FFB600"></path>
                <ellipse id="Oval" fill="#FFCD00" cx="58.8235215" cy="30.7861421" rx="58.8235215" ry="30.7861421"></ellipse>
                <ellipse id="Oval" fill="#FFDE55" cx="58.8235215" cy="30.7861421" rx="43.4304505" ry="15.7595727"></ellipse>
            </g>
            <g id="coin" transform="translate(142.569158, 145.867673)">
                <path d="M58.8235215,83.9288874 C91.3108554,83.9288874 117.647043,70.1454621 117.647043,53.1427453 L117.647043,30.5197077 L0,30.5197077 L0,53.1427453 C0,70.1454621 26.3361877,83.9288874 58.8235215,83.9288874 Z" id="Oval" fill="#FFB600"></path>
                <ellipse id="Oval" fill="#FFCD00" cx="58.8235215" cy="30.7861421" rx="58.8235215" ry="30.7861421"></ellipse>
                <ellipse id="Oval" fill="#FFDE55" cx="58.8235215" cy="30.7861421" rx="43.4304505" ry="15.7595727"></ellipse>
            </g>
            <g id="coin" transform="translate(133.773117, 109.217504)">
                <path d="M58.8235215,83.9288874 C91.3108554,83.9288874 117.647043,70.1454621 117.647043,53.1427453 L117.647043,30.5197077 L0,30.5197077 L0,53.1427453 C0,70.1454621 26.3361877,83.9288874 58.8235215,83.9288874 Z" id="Oval" fill="#FFB600"></path>
                <ellipse id="Oval" fill="#FFCD00" cx="58.8235215" cy="30.7861421" rx="58.8235215" ry="30.7861421"></ellipse>
                <ellipse id="Oval" fill="#FFDE55" cx="58.8235215" cy="30.7861421" rx="43.4304505" ry="15.7595727"></ellipse>
            </g>
            <g id="coin" transform="translate(163.826256, 75.499348)">
                <path d="M58.8235215,83.9288874 C91.3108554,83.9288874 117.647043,70.1454621 117.647043,53.1427453 L117.647043,30.5197077 L0,30.5197077 L0,53.1427453 C0,70.1454621 26.3361877,83.9288874 58.8235215,83.9288874 Z" id="Oval" fill="#FFB600"></path>
                <ellipse id="Oval" fill="#FFCD00" cx="58.8235215" cy="30.7861421" rx="58.8235215" ry="30.7861421"></ellipse>
                <ellipse id="Oval" fill="#FFDE55" cx="58.8235215" cy="30.7861421" rx="43.4304505" ry="15.7595727"></ellipse>
            </g>
            <g id="coin" transform="translate(163.826256, 75.499348)">
                <path d="M58.8235215,83.9288874 C91.3108554,83.9288874 117.647043,70.1454621 117.647043,53.1427453 L117.647043,30.5197077 L0,30.5197077 L0,53.1427453 C0,70.1454621 26.3361877,83.9288874 58.8235215,83.9288874 Z" id="Oval" fill="#FFB600"></path>
                <ellipse id="Oval" fill="#FFCD00" cx="58.8235215" cy="30.7861421" rx="58.8235215" ry="30.7861421"></ellipse>
                <ellipse id="Oval" fill="#FFDE55" cx="58.8235215" cy="30.7861421" rx="43.4304505" ry="15.7595727"></ellipse>
            </g>
            <g id="coin" transform="translate(69.268820, 204.141442)">
                <path d="M58.8235215,83.9288874 C91.3108554,83.9288874 117.647043,70.1454621 117.647043,53.1427453 L117.647043,30.5197077 L0,30.5197077 L0,53.1427453 C0,70.1454621 26.3361877,83.9288874 58.8235215,83.9288874 Z" id="Oval" fill="#FFB600"></path>
                <ellipse id="Oval" fill="#FFCD00" cx="58.8235215" cy="30.7861421" rx="58.8235215" ry="30.7861421"></ellipse>
                <ellipse id="Oval" fill="#FFDE55" cx="58.8235215" cy="30.7861421" rx="43.4304505" ry="15.7595727"></ellipse>
            </g>
            <g id="coin" transform="translate(69.268820, 204.141442)">
                <path d="M58.8235215,83.9288874 C91.3108554,83.9288874 117.647043,70.1454621 117.647043,53.1427453 L117.647043,30.5197077 L0,30.5197077 L0,53.1427453 C0,70.1454621 26.3361877,83.9288874 58.8235215,83.9288874 Z" id="Oval" fill="#FFB600"></path>
                <ellipse id="Oval" fill="#FFCD00" cx="58.8235215" cy="30.7861421" rx="58.8235215" ry="30.7861421"></ellipse>
                <ellipse id="Oval" fill="#FFDE55" cx="58.8235215" cy="30.7861421" rx="43.4304505" ry="15.7595727"></ellipse>
            </g>
            <g id="coin" transform="translate(0.000000, 140.003646)">
                <path d="M58.8235215,83.9288874 C91.3108554,83.9288874 117.647043,70.1454621 117.647043,53.1427453 L117.647043,30.5197077 L0,30.5197077 L0,53.1427453 C0,70.1454621 26.3361877,83.9288874 58.8235215,83.9288874 Z" id="Oval" fill="#FFB600"></path>
                <ellipse id="Oval" fill="#FFCD00" cx="58.8235215" cy="30.7861421" rx="58.8235215" ry="30.7861421"></ellipse>
                <ellipse id="Oval" fill="#FFDE55" cx="58.8235215" cy="30.7861421" rx="43.4304505" ry="15.7595727"></ellipse>
            </g>
            <g id="coin" transform="translate(55.341755, 153.930711)">
                <path d="M58.8235215,83.9288874 C91.3108554,83.9288874 117.647043,70.1454621 117.647043,53.1427453 L117.647043,30.5197077 L0,30.5197077 L0,53.1427453 C0,70.1454621 26.3361877,83.9288874 58.8235215,83.9288874 Z" id="Oval" fill="#FFB600"></path>
                <ellipse id="Oval" fill="#FFCD00" cx="58.8235215" cy="30.7861421" rx="58.8235215" ry="30.7861421"></ellipse>
                <ellipse id="Oval" fill="#FFDE55" cx="58.8235215" cy="30.7861421" rx="43.4304505" ry="15.7595727"></ellipse>
            </g>
            <g id="coin" transform="translate(268.279238, 181.784839)">
                <path d="M58.8235215,83.9288874 C91.3108554,83.9288874 117.647043,70.1454621 117.647043,53.1427453 L117.647043,30.5197077 L0,30.5197077 L0,53.1427453 C0,70.1454621 26.3361877,83.9288874 58.8235215,83.9288874 Z" id="Oval" fill="#FFB600"></path>
                <ellipse id="Oval" fill="#FFCD00" cx="58.8235215" cy="30.7861421" rx="58.8235215" ry="30.7861421"></ellipse>
                <ellipse id="Oval" fill="#FFDE55" cx="58.8235215" cy="30.7861421" rx="43.4304505" ry="15.7595727"></ellipse>
            </g>
            <g id="coin" transform="translate(245.922635, 153.930711)">
                <path d="M58.8235215,83.9288874 C91.3108554,83.9288874 117.647043,70.1454621 117.647043,53.1427453 L117.647043,30.5197077 L0,30.5197077 L0,53.1427453 C0,70.1454621 26.3361877,83.9288874 58.8235215,83.9288874 Z" id="Oval" fill="#FFB600"></path>
                <ellipse id="Oval" fill="#FFCD00" cx="58.8235215" cy="30.7861421" rx="58.8235215" ry="30.7861421"></ellipse>
                <ellipse id="Oval" fill="#FFDE55" cx="58.8235215" cy="30.7861421" rx="43.4304505" ry="15.7595727"></ellipse>
            </g>
            <g id="coin" transform="translate(267.912737, 112.149518)">
                <path d="M58.8235215,83.9288874 C91.3108554,83.9288874 117.647043,70.1454621 117.647043,53.1427453 L117.647043,30.5197077 L0,30.5197077 L0,53.1427453 C0,70.1454621 26.3361877,83.9288874 58.8235215,83.9288874 Z" id="Oval" fill="#FFCD00"></path>
                <ellipse id="Oval" fill="#FFDE55" cx="58.8235215" cy="30.7861421" rx="58.8235215" ry="30.7861421"></ellipse>
                <ellipse id="Oval" fill="#FFEB99" cx="58.8235215" cy="30.7861421" rx="43.4304505" ry="15.7595727"></ellipse>
            </g>
            <g id="coin" transform="translate(393.256315, 193.146392)">
                <path d="M58.8235215,83.9288874 C91.3108554,83.9288874 117.647043,70.1454621 117.647043,53.1427453 L117.647043,30.5197077 L0,30.5197077 L0,53.1427453 C0,70.1454621 26.3361877,83.9288874 58.8235215,83.9288874 Z" id="Oval" fill="#FFCD00"></path>
                <ellipse id="Oval" fill="#FFDE55" cx="58.8235215" cy="30.7861421" rx="58.8235215" ry="30.7861421"></ellipse>
                <ellipse id="Oval" fill="#FFEB99" cx="58.8235215" cy="30.7861421" rx="43.4304505" ry="15.7595727"></ellipse>
            </g>
        </g>
    </g>
</svg>