<?xml version="1.0" encoding="UTF-8"?>
<svg width="512px" height="512px" viewBox="0 0 512 512" version="1.1" xmlns="http://www.w3.org/2000/svg" xmlns:xlink="http://www.w3.org/1999/xlink">
    <!-- Generator: Sketch 59 (86127) - https://sketch.com -->
    <title>ic_coin_v3</title>
    <desc>Created with Sketch.</desc>
    <g id="ic_coin_v3" stroke="none" stroke-width="1" fill="none" fill-rule="evenodd">
        <g id="coin_star">
            <path d="M257,0 C116.302,0 0,114.3 0,255 C0,395.7 116.302,512 257,512 C397.698,512 512,395.7 512,255 C512,114.3 397.698,0 257,0 Z" id="Path" fill="#FFD400" fill-rule="nonzero"></path>
            <path d="M257,60 C149.598,60 60,147.599 60,255 C60,362.401 149.598,452 257,452 C364.402,452 452,362.401 452,255 C452,147.599 364.402,60 257,60 Z" id="Path" fill="#FF9F00" fill-rule="nonzero"></path>
            <path d="M257,353.400391 L210.665491,365.479514 C192.495103,370.216423 173.925069,359.326437 169.18816,341.156048 C168.627705,339.006191 168.27932,336.806576 168.148002,334.58875 L165.31778,286.789359 L165.31778,286.789359 L139.511701,246.455277 C129.391674,230.637996 134.01021,209.611654 149.827491,199.491626 C151.698937,198.29426 153.683238,197.283208 155.751937,196.472971 L200.337272,179.010446 L200.337272,179.010446 L230.722746,142.003489 C242.638614,127.490962 264.06306,125.385955 278.575587,137.301822 C280.292659,138.711666 281.867409,140.286417 283.277254,142.003489 L313.662728,179.010446 L313.662728,179.010446 L358.248063,196.472971 C375.732502,203.321017 384.355001,223.046393 377.506955,240.530831 C376.696718,242.59953 375.685666,244.583831 374.488299,246.455277 L348.68222,286.789359 L348.68222,286.789359 L345.851998,334.58875 C344.742108,353.333602 328.646659,367.629562 309.901807,366.519672 C307.683981,366.388353 305.484366,366.039969 303.334509,365.479514 L257,353.400391 L257,353.400391 Z" id="Star" fill="#FFD400"></path>
        </g>
    </g>
</svg>