<?xml version="1.0" encoding="UTF-8"?>
<svg width="512px" height="512px" viewBox="0 0 512 512" version="1.1" xmlns="http://www.w3.org/2000/svg" xmlns:xlink="http://www.w3.org/1999/xlink">
    <!-- Generator: Sketch 59 (86127) - https://sketch.com -->
    <title>ic_coin_v4</title>
    <desc>Created with Sketch.</desc>
    <g id="ic_coin_v4" stroke="none" stroke-width="1" fill="none" fill-rule="evenodd">
        <g id="coin_with_skull">
            <circle id="Oval" fill="#FFD400" cx="256" cy="256" r="256"></circle>
            <circle id="Oval" fill="#FF9F00" cx="256" cy="256" r="190"></circle>
            <path d="M256.002703,128 C285.916739,128 314.036979,139.7035 335.215031,160.95 C362.095097,187.9385 373.354743,226.118 365.581126,263.492 C368.585723,272.3105 368.804285,281.751 366.163625,290.927 C361.230808,308.156 346.665358,321.418 323.111011,322.9175 L323.111011,322.9175 L323.111011,352.4685 C323.111011,361.5575 317.886945,369.6725 309.631896,373.144 C305.146657,375.0325 299.478997,376.9755 293.339861,378.78 L293.339861,378.78 L293.339861,360.49 C293.339861,356.345 289.999705,352.9905 285.872429,352.9905 C281.745154,352.9905 278.305425,356.3445 278.305425,360.49 L278.305425,360.49 L278.305425,382.2515 C273.54686,383.11 268.678766,383.672 263.469636,384 L263.469636,384 L263.469636,360.49 C263.469636,356.345 260.12948,352.9905 256.002205,352.9905 C251.874929,352.9905 248.435201,356.3445 248.435201,360.49 L248.435201,360.49 L248.435201,384 C243.226071,383.6725 238.357977,383.1105 233.599412,382.2515 L233.599412,382.2515 L233.599412,360.49 C233.599412,356.345 230.259754,352.9905 226.13198,352.9905 C222.004704,352.9905 218.564976,356.3445 218.564976,360.49 L218.564976,360.49 L218.564976,378.779 C212.424844,376.975 206.857752,375.032 202.372513,373.1435 C194.117464,369.672 188.793826,361.557 188.793826,352.468 L188.793826,352.468 L188.793826,322.9545 C165.672618,321.364 151.002618,308.353 145.942847,291.3375 C143.200623,282.036 143.361432,272.4635 146.424279,263.492 C138.628756,226.1115 149.920764,187.9355 176.790872,160.95 C197.968426,139.7035 226.088666,128 256.002703,128 Z M261.283027,295.19 C258.366053,292.2605 253.640348,292.2605 250.723374,295.19 L250.723374,295.19 L235.788013,310.1895 C231.116076,314.8975 234.422378,322.9915 241.067839,322.9915 L241.067839,322.9915 L270.938064,322.9915 C277.583525,322.9915 280.889827,314.8975 276.218388,310.1895 L276.218388,310.1895 Z M211.197117,217.896 C190.603057,217.896 173.75939,234.819 173.75939,255.4945 C173.75939,276.17 190.603057,293.093 211.197117,293.093 C231.791177,293.093 248.634843,276.17 248.634843,255.4945 C248.634843,234.819 231.791177,217.896 211.197117,217.896 Z M300.808288,217.896 C280.214228,217.896 263.370562,234.819 263.370562,255.4945 C263.370562,276.17 280.214228,293.093 300.808288,293.093 C321.402349,293.093 338.246015,276.17 338.246015,255.4945 C338.246015,234.819 321.402349,217.896 300.808288,217.896 Z M300.808288,232.9955 C313.162235,232.9955 323.111509,243.088 323.111509,255.4945 C323.111509,267.901 313.161737,277.9935 300.808288,277.9935 C288.454839,277.9935 278.405495,267.901 278.405495,255.4945 C278.405495,243.088 288.454839,232.9955 300.808288,232.9955 Z M211.197117,232.9955 C223.551064,232.9955 233.500337,243.088 233.500337,255.4945 C233.500337,267.901 223.550566,277.9935 211.197117,277.9935 C198.843668,277.9935 188.794324,267.901 188.794324,255.4945 C188.794324,243.088 198.843668,232.9955 211.197117,232.9955 Z" id="Combined-Shape" fill="#FFD400" fill-rule="nonzero"></path>
        </g>
    </g>
</svg>