<?xml version="1.0" encoding="UTF-8"?>
<svg width="512px" height="512px" viewBox="0 0 512 512" version="1.1" xmlns="http://www.w3.org/2000/svg" xmlns:xlink="http://www.w3.org/1999/xlink">
    <!-- Generator: Sketch 59 (86127) - https://sketch.com -->
    <title>ic_coin_v2</title>
    <desc>Created with Sketch.</desc>
    <g id="ic_coin_v2" stroke="none" stroke-width="1" fill="none" fill-rule="evenodd">
        <g id="coin_dolar_sign" fill-rule="nonzero">
            <path d="M257,0 C116.302,0 0,114.3 0,255 C0,395.7 116.302,512 257,512 C397.698,512 512,395.7 512,255 C512,114.3 397.698,0 257,0 Z" id="Path" fill="#FFD400"></path>
            <path d="M257,60 C149.598,60 60,147.599 60,255 C60,362.401 149.598,452 257,452 C364.402,452 452,362.401 452,255 C452,147.599 364.402,60 257,60 Z" id="Path" fill="#FF9F00"></path>
            <path d="M287,240 L272,240 L272,180 L287,180 C295.401,180 302,186.599 302,195 C302,214.799 332,214.799 332,195 C332,170.099 311.902,150 287,150 L272,150 L272,135 C272,125.099 264.5,120 257,120 C249.5,120 242,125.099 242,135 L242,150 L225,150 C200.098,150 180,170.099 180,195 L180,225 C180,249.901 200.098,270 225,270 L242,270 L242,332 L225,332 C216.599,332 210,325.401 210,317 C210,297.201 180,297.201 180,317 C180,341.901 200.098,362 225,362 L242,362 L242,377 C242,386.901 249.5,392 257,392 C264.5,392 272,386.901 272,377 L272,362 L287,362 C311.902,362 332,341.901 332,317 L332,285 C332,260.099 311.902,240 287,240 Z M242,240 L225,240 C216.599,240 210,233.401 210,225 L210,195 C210,186.599 216.599,180 225,180 L242,180 L242,240 Z M302,317 C302,325.401 295.401,332 287,332 L272,332 L272,270 L287,270 C295.401,270 302,276.599 302,285 L302,317 Z" id="Shape" fill="#FFD400"></path>
        </g>
    </g>
</svg>