<?xml version="1.0" encoding="UTF-8"?>
<svg width="512px" height="512px" viewBox="0 0 512 512" version="1.1" xmlns="http://www.w3.org/2000/svg" xmlns:xlink="http://www.w3.org/1999/xlink">
    <!-- Generator: Sketch 59 (86127) - https://sketch.com -->
    <title>ic_coins_pack_v1</title>
    <desc>Created with Sketch.</desc>
    <g id="ic_coins_pack_v1" stroke="none" stroke-width="1" fill="none" fill-rule="evenodd">
        <g id="ic_coins_pack" transform="translate(0.000000, 52.000000)">
            <g id="coin" transform="translate(0.000000, 96.122030)">
                <path d="M134.15292,191.408216 C208.243532,191.408216 268.30584,159.973737 268.30584,121.197342 L268.30584,69.6032439 L0,69.6032439 L0,121.197342 C0,159.973737 60.0623082,191.408216 134.15292,191.408216 Z" id="Oval" fill="#FFB600"></path>
                <ellipse id="Oval" fill="#FFCD00" cx="134.15292" cy="70.210874" rx="134.15292" ry="70.210874"></ellipse>
                <ellipse id="Oval" fill="#FFDE55" cx="134.15292" cy="70.210874" rx="99.047483" ry="35.9412808"></ellipse>
            </g>
            <g id="coin" transform="translate(243.230528, 120.361498)">
                <path d="M134.15292,191.408216 C208.243532,191.408216 268.30584,159.973737 268.30584,121.197342 L268.30584,69.6032439 L0,69.6032439 L0,121.197342 C0,159.973737 60.0623082,191.408216 134.15292,191.408216 Z" id="Oval" fill="#FFB600"></path>
                <ellipse id="Oval" fill="#FFCD00" cx="134.15292" cy="70.210874" rx="134.15292" ry="70.210874"></ellipse>
                <ellipse id="Oval" fill="#FFDE55" cx="134.15292" cy="70.210874" rx="99.047483" ry="35.9412808"></ellipse>
            </g>
            <g id="coin" transform="translate(39.284656, 215.647685)">
                <path d="M134.15292,191.408216 C208.243532,191.408216 268.30584,159.973737 268.30584,121.197342 L268.30584,69.6032439 L0,69.6032439 L0,121.197342 C0,159.973737 60.0623082,191.408216 134.15292,191.408216 Z" id="Oval" fill="#FFB600"></path>
                <ellipse id="Oval" fill="#FFCD00" cx="134.15292" cy="70.210874" rx="134.15292" ry="70.210874"></ellipse>
                <ellipse id="Oval" fill="#FFDE55" cx="134.15292" cy="70.210874" rx="99.047483" ry="35.9412808"></ellipse>
            </g>
            <g id="coin" transform="translate(84.420218, 0.000000)">
                <path d="M134.15292,191.408216 C208.243532,191.408216 268.30584,159.973737 268.30584,121.197342 L268.30584,69.6032439 L0,69.6032439 L0,121.197342 C0,159.973737 60.0623082,191.408216 134.15292,191.408216 Z" id="Oval" fill="#FFB600"></path>
                <ellipse id="Oval" fill="#FFCD00" cx="134.15292" cy="70.210874" rx="134.15292" ry="70.210874"></ellipse>
                <ellipse id="Oval" fill="#FFDE55" cx="134.15292" cy="70.210874" rx="99.047483" ry="35.9412808"></ellipse>
            </g>
        </g>
    </g>
</svg>