<?xml version="1.0" encoding="UTF-8"?>
<svg width="512px" height="512px" viewBox="0 0 512 512" version="1.1" xmlns="http://www.w3.org/2000/svg" xmlns:xlink="http://www.w3.org/1999/xlink">
    <!-- Generator: Sketch 59 (86127) - https://sketch.com -->
    <title>ic_chest_brown</title>
    <desc>Created with Sketch.</desc>
    <g id="ic_chest_brown" stroke="none" stroke-width="1" fill="none" fill-rule="evenodd">
        <g id="chest_v2" transform="translate(0.000000, 60.000000)" fill-rule="nonzero">
            <path d="M452,10.532 L422,61.516 L422,301 L452,331 L512,271 L512,105 C512,63.274 487.345,27.453 452,10.532 Z" id="Path" fill="#8F5040"></path>
            <path d="M60,10.532 C24.655,27.453 0,63.274 0,105 L0,271 L60,331 L90,331 L90,61.516 L60,10.532 Z" id="Path" fill="#8F5040"></path>
            <path d="M452,211 L452,331 C452,331 398.301,384.699 392,391 L120,391 C120,391 66.301,337.301 60,331 L60,211 L103.801,181 L414.5,181 L452,211 Z" id="Path" fill="#C2886C"></path>
            <path d="M452,10.499 L452,151 L423.199,181 L99.901,181 L60,151 L60,10.499 C75.901,2.999 95.099,0 105,0 L407,0 C416.3,0 436.099,2.999 452,10.499 Z" id="Path" fill="#C2886C"></path>
            <path d="M316,181 L196,181 C187.599,181 181,187.599 181,196 L181,226 C181,267.4 214.6,301 256,301 C297.4,301 331,267.4 331,226 L331,196 C331,187.599 324.401,181 316,181 Z" id="Path" fill="#E4FEFF"></path>
            <path d="M271,196 L271,226 C271,234.401 264.401,241 256,241 C247.599,241 241,234.401 241,226 L241,196 C241,187.599 247.599,181 256,181 C264.401,181 271,187.599 271,196 Z" id="Path" fill="#65372C"></path>
            <path d="M512,376 L512,271 L497,271 C439.109,271 392,318.109 392,376 L392,391 L497,391 C505.291,391 512,384.291 512,376 Z" id="Path" fill="#65372C"></path>
            <path d="M15,271 L0,271 L0,376 C0,384.291 6.709,391 15,391 L120,391 L120,376 C120,318.109 72.891,271 15,271 Z" id="Path" fill="#65372C"></path>
            <rect id="Rectangle" fill="#8F5040" x="60" y="151" width="392" height="60"></rect>
        </g>
    </g>
</svg>