<?xml version="1.0" encoding="UTF-8"?>
<svg width="512px" height="512px" viewBox="0 0 512 512" version="1.1" xmlns="http://www.w3.org/2000/svg" xmlns:xlink="http://www.w3.org/1999/xlink">
    <!-- Generator: Sketch 59 (86127) - https://sketch.com -->
    <title>ic_coins_pack_v2</title>
    <desc>Created with Sketch.</desc>
    <g id="ic_coins_pack_v2" stroke="none" stroke-width="1" fill="none" fill-rule="evenodd">
        <g id="ic_coins_pack_01" transform="translate(0.000000, 76.000000)">
            <g id="coin" transform="translate(0.000000, 141.802369)">
                <path d="M105.367038,150.336771 C163.559646,150.336771 210.734076,125.64735 210.734076,95.1914052 L210.734076,54.6681179 L0,54.6681179 L0,95.1914052 C0,125.64735 47.1744298,150.336771 105.367038,150.336771 Z" id="Oval" fill="#FFB600"></path>
                <ellipse id="Oval" fill="#FFCD00" cx="105.367038" cy="55.1453658" rx="105.367038" ry="55.1453658"></ellipse>
                <ellipse id="Oval" fill="#FFDE55" cx="105.367038" cy="55.1453658" rx="77.7943553" ry="28.2291753"></ellipse>
            </g>
            <g id="coin" transform="translate(300.017049, 103.069315)">
                <path d="M105.367038,150.336771 C163.559646,150.336771 210.734076,125.64735 210.734076,95.1914052 L210.734076,54.6681179 L0,54.6681179 L0,95.1914052 C0,125.64735 47.1744298,150.336771 105.367038,150.336771 Z" id="Oval" fill="#FFB600"></path>
                <ellipse id="Oval" fill="#FFCD00" cx="105.367038" cy="55.1453658" rx="105.367038" ry="55.1453658"></ellipse>
                <ellipse id="Oval" fill="#FFDE55" cx="105.367038" cy="55.1453658" rx="77.7943553" ry="28.2291753"></ellipse>
            </g>
            <g id="coin" transform="translate(51.862904, 84.031034)">
                <path d="M105.367038,150.336771 C163.559646,150.336771 210.734076,125.64735 210.734076,95.1914052 L210.734076,54.6681179 L0,54.6681179 L0,95.1914052 C0,125.64735 47.1744298,150.336771 105.367038,150.336771 Z" id="Oval" fill="#FFB600"></path>
                <ellipse id="Oval" fill="#FFCD00" cx="105.367038" cy="55.1453658" rx="105.367038" ry="55.1453658"></ellipse>
                <ellipse id="Oval" fill="#FFDE55" cx="105.367038" cy="55.1453658" rx="77.7943553" ry="28.2291753"></ellipse>
            </g>
            <g id="coin" transform="translate(194.321765, 158.871173)">
                <path d="M105.367038,150.336771 C163.559646,150.336771 210.734076,125.64735 210.734076,95.1914052 L210.734076,54.6681179 L0,54.6681179 L0,95.1914052 C0,125.64735 47.1744298,150.336771 105.367038,150.336771 Z" id="Oval" fill="#FFB600"></path>
                <ellipse id="Oval" fill="#FFCD00" cx="105.367038" cy="55.1453658" rx="105.367038" ry="55.1453658"></ellipse>
                <ellipse id="Oval" fill="#FFDE55" cx="105.367038" cy="55.1453658" rx="77.7943553" ry="28.2291753"></ellipse>
            </g>
            <g id="coin" transform="translate(231.741835, 75.496632)">
                <path d="M105.367038,150.336771 C163.559646,150.336771 210.734076,125.64735 210.734076,95.1914052 L210.734076,54.6681179 L0,54.6681179 L0,95.1914052 C0,125.64735 47.1744298,150.336771 105.367038,150.336771 Z" id="Oval" fill="#FFB600"></path>
                <ellipse id="Oval" fill="#FFCD00" cx="105.367038" cy="55.1453658" rx="105.367038" ry="55.1453658"></ellipse>
                <ellipse id="Oval" fill="#FFDE55" cx="105.367038" cy="55.1453658" rx="77.7943553" ry="28.2291753"></ellipse>
            </g>
            <g id="coin" transform="translate(42.672009, 208.764599)">
                <path d="M105.367038,150.336771 C163.559646,150.336771 210.734076,125.64735 210.734076,95.1914052 L210.734076,54.6681179 L0,54.6681179 L0,95.1914052 C0,125.64735 47.1744298,150.336771 105.367038,150.336771 Z" id="Oval" fill="#FFCD00"></path>
                <ellipse id="Oval" fill="#FFDE55" cx="105.367038" cy="55.1453658" rx="105.367038" ry="55.1453658"></ellipse>
                <ellipse id="Oval" fill="#FFEB99" cx="105.367038" cy="55.1453658" rx="77.7943553" ry="28.2291753"></ellipse>
            </g>
            <g id="coin" transform="translate(7.221417, 0.000000)">
                <path d="M105.367038,150.336771 C163.559646,150.336771 210.734076,125.64735 210.734076,95.1914052 L210.734076,54.6681179 L0,54.6681179 L0,95.1914052 C0,125.64735 47.1744298,150.336771 105.367038,150.336771 Z" id="Oval" fill="#FFCD00"></path>
                <ellipse id="Oval" fill="#FFDE55" cx="105.367038" cy="55.1453658" rx="105.367038" ry="55.1453658"></ellipse>
                <ellipse id="Oval" fill="#FFEB99" cx="105.367038" cy="55.1453658" rx="77.7943553" ry="28.2291753"></ellipse>
            </g>
        </g>
    </g>
</svg>