<?xml version="1.0" encoding="UTF-8"?>
<svg width="512px" height="512px" viewBox="0 0 512 512" version="1.1" xmlns="http://www.w3.org/2000/svg" xmlns:xlink="http://www.w3.org/1999/xlink">
    <!-- Generator: Sketch 59 (86127) - https://sketch.com -->
    <title>ic_coin_v6</title>
    <desc>Created with Sketch.</desc>
    <g id="ic_coin_v6" stroke="none" stroke-width="1" fill="none" fill-rule="evenodd">
        <g id="coin">
            <circle id="Oval" fill="#FFD400" cx="256" cy="256" r="256"></circle>
            <circle id="Oval" fill="#FF9F00" cx="256" cy="256" r="190"></circle>
            <path d="M361.006099,242.029749 C349.897372,235.583116 328.130375,228.899698 293.636061,242.274171 C321.083396,219.413065 326.023153,197.705327 326.023153,185.056482 C326.023153,173.782513 322.396593,163.180704 315.807705,155.21407 C308.768361,146.689849 298.9881,142 288.276387,142 C272.609646,142 261.989551,149.806231 256.248133,155.626533 C256.156515,155.527236 256.057261,155.435578 255.958008,155.336281 C250.163147,149.554171 239.63467,142 224.227514,142 C213.508166,142 203.73554,146.689849 196.696196,155.21407 C190.107308,163.188342 186.480748,173.782513 186.480748,185.056482 C186.480748,197.77407 191.473949,219.649849 219.310662,242.648442 C184.266638,228.777487 162.201881,235.529648 150.993901,242.029749 C141.267085,247.666734 133.937616,256.122211 130.356865,265.845628 C126.539433,276.210653 127.379268,287.049246 132.731307,296.360201 C140.564677,309.994372 152.620127,315.325829 160.506942,317.403417 C158.35391,325.293668 156.918556,338.438995 164.751926,352.073166 C169.538985,360.406432 177.028787,366.135075 186.412034,368.64804 C189.786644,369.556985 193.306316,370 196.879433,370 C204.934214,370 213.256215,367.731457 220.784191,363.37005 C233.45043,356.022111 253.316345,336.773869 255.958008,287.889447 C255.973278,287.622111 255.988548,287.347136 256.003817,287.079799 C258.462244,336.56 278.480856,355.98392 291.215809,363.37005 C298.743785,367.731457 307.065786,370 315.120567,370 C318.693684,370 322.213356,369.556985 325.587966,368.64804 C334.971213,366.135075 342.461015,360.406432 347.248074,352.073166 C355.081444,338.438995 353.64609,325.293668 351.493058,317.403417 C359.379873,315.325829 371.435323,309.994372 379.268693,296.360201 C384.620732,287.049246 385.460567,276.210653 381.643135,265.845628 C378.062384,256.122211 370.732915,247.666734 361.006099,242.029749 Z" id="Path" fill="#FFD400" fill-rule="nonzero"></path>
        </g>
    </g>
</svg>