<?xml version="1.0" encoding="UTF-8"?>
<svg width="512px" height="512px" viewBox="0 0 512 512" version="1.1" xmlns="http://www.w3.org/2000/svg" xmlns:xlink="http://www.w3.org/1999/xlink">
    <!-- Generator: Sketch 59 (86127) - https://sketch.com -->
    <title>ic_chest_golden_open</title>
    <desc>Created with Sketch.</desc>
    <g id="ic_chest_golden_open" stroke="none" stroke-width="1" fill="none" fill-rule="evenodd">
        <g id="chest" fill-rule="nonzero">
            <path d="M485.052632,44.9122807 L485.052632,255.500975 C485.052632,263.883602 478.335064,270.471735 469.78312,270.471735 L41.2188293,270.471735 C32.6668849,270.471735 25.9493177,263.883602 25.9493177,255.500975 L25.9493177,44.9122807 C25.9493177,20.0598207 46.4094452,0 71.7578524,0 L439.244097,0 C464.592504,0 485.052632,20.0598207 485.052632,44.9122807 Z" id="Path" fill="#FFC634"></path>
            <path d="M460.101365,65.565669 L460.101365,241.962841 L50.9005848,241.962841 L50.9005848,65.565669 C50.9005848,44.7482947 69.1367854,27.9454191 91.7299309,27.9454191 L419.272018,27.9454191 C441.865164,27.9454191 460.101365,44.7482947 460.101365,65.565669 Z" id="Path" fill="#936853"></path>
            <path d="M270.471735,45.9103314 L270.471735,75.8518519 C270.471735,84.2364756 263.885598,90.8226121 255.500975,90.8226121 C247.116351,90.8226121 240.530214,84.2364756 240.530214,75.8518519 L240.530214,45.9103314 C240.530214,37.5257076 247.116351,30.9395712 255.500975,30.9395712 C263.885598,30.9395712 270.471735,37.5257076 270.471735,45.9103314 Z" id="Path" fill="#FFF55F"></path>
            <path d="M154.094035,116.3777 L124.152515,86.4361793 C118.304936,80.5886004 118.304936,71.1141053 124.152515,65.2665263 C130.000094,59.4189474 139.474589,59.4189474 145.322168,65.2665263 L175.263688,95.2080468 C181.111267,101.055626 181.111267,110.530121 175.263688,116.3777 C169.415111,122.226277 159.941614,122.226277 154.094035,116.3777 Z" id="Path" fill="#FFF55F"></path>
            <path d="M334.741209,116.3777 C328.89363,110.530121 328.89363,101.055626 334.741209,95.2080468 L365.68078,65.2665263 C371.528359,59.4189474 381.002854,59.4189474 386.850433,65.2665263 C392.698012,71.1141053 392.698012,80.5886004 386.850433,86.4361793 L355.910862,116.3777 C350.062285,122.226277 340.588788,122.226277 334.741209,116.3777 Z" id="Path" fill="#FFF55F"></path>
            <path d="M510.003899,286.440546 L510.003899,393.730994 L495.033138,422.175439 L420.179337,497.02924 L391.734893,512 L118.269006,512 L89.8245614,497.02924 L14.9707602,422.175439 L0,393.730994 L0,286.440546 C0,261.588086 20.0598207,241.528265 44.9122807,241.528265 L465.091618,241.528265 C489.944078,241.528265 510.003899,261.588086 510.003899,286.440546 Z" id="Path" fill="#FFC634"></path>
            <polygon id="Path" fill="#FFC634" points="450.120858 241.528265 450.120858 301.411306 420.179337 331.352827 89.8245614 331.352827 59.8830409 301.411306 59.8830409 241.528265"></polygon>
            <rect id="Rectangle" fill="#C2886C" x="59.8830409" y="301.411306" width="390.237817" height="210.588694"></rect>
            <path d="M14.9707602,392.233918 C9.84477193,392.233918 4.93236647,393.032359 0,393.746963 L0,467.087719 C0,491.892273 20.1077271,512 44.9122807,512 L118.253037,512 C118.967641,507.067634 119.766082,502.155228 119.766082,497.02924 C119.766082,439.251088 72.7489123,392.233918 14.9707602,392.233918 Z" id="Path" fill="#FCB90A"></path>
            <path d="M496.031189,392.233918 C438.253037,392.233918 391.235867,439.251088 391.235867,497.02924 C391.235867,502.155228 392.034308,507.067634 392.748912,512 L466.089669,512 C490.894222,512 511.001949,491.892273 511.001949,467.087719 L511.001949,393.746963 C506.069583,393.032359 501.157177,392.233918 496.031189,392.233918 Z" id="Path" fill="#FCB90A"></path>
            <path d="M180.647173,241.527267 L180.647173,311.88984 C180.647173,351.113232 208.792203,387.741692 247.716179,391.933505 C250.411914,392.23292 252.80524,392.23292 255.500975,392.23292 C296.520858,392.23292 330.354776,357.700366 330.354776,316.381068 L330.354776,241.527267 L180.647173,241.527267 L180.647173,241.527267 Z" id="Path" fill="#E6EEFF"></path>
            <path d="M255.500975,301.411306 C247.116351,301.411306 240.230799,308.296858 240.230799,316.382066 C240.230799,324.764694 247.116351,331.652242 255.500975,331.652242 C263.586183,331.652242 270.471735,324.764694 270.471735,316.382066 C270.471735,308.296858 263.586183,301.411306 255.500975,301.411306 Z" id="Path" fill="#65372C"></path>
            <path d="M424.582502,241.528265 L86.4194473,241.528265 C80.5825022,241.528265 75.8518519,236.797615 75.8518519,230.96067 C75.8518519,201.825479 99.5546381,178.122692 128.689829,178.122692 C133.965371,178.122692 139.191377,178.923518 144.205481,180.475634 C152.703589,162.219011 171.202385,149.942438 192.095402,149.942438 C197.370944,149.942438 202.59695,150.743264 207.611054,152.295379 C216.109162,134.038757 234.607958,121.762183 255.500975,121.762183 C276.393992,121.762183 294.892787,134.038757 303.390895,152.295379 C308.404999,150.743264 313.631006,149.942438 318.906547,149.942438 C339.799564,149.942438 358.29836,162.219011 366.796468,180.475634 C371.810572,178.923518 377.036579,178.122692 382.31212,178.122692 C411.447311,178.122692 435.150097,201.825479 435.150097,230.96067 C435.150097,236.797615 430.419447,241.528265 424.582502,241.528265 Z" id="Path" fill="#FFF55F"></path>
        </g>
    </g>
</svg>