<?xml version="1.0" encoding="UTF-8"?>
<svg width="512px" height="512px" viewBox="0 0 512 512" version="1.1" xmlns="http://www.w3.org/2000/svg" xmlns:xlink="http://www.w3.org/1999/xlink">
    <!-- Generator: Sketch 59 (86127) - https://sketch.com -->
    <title>ic_cup</title>
    <desc>Created with Sketch.</desc>
    <g id="ic_cup" stroke="none" stroke-width="1" fill="none" fill-rule="evenodd">
        <g id="leaderboards_v2" transform="translate(0.000000, 36.000000)" fill-rule="nonzero">
            <path d="M89.6950213,246.704007 C63.8433669,238.000851 41.4292248,221.403135 24.8744776,198.707741 C10.8002083,179.422516 2.08924016,156.645091 0.343139921,134.582512 C-1.63342914,109.605861 4.95643741,86.7698411 19.4057081,68.543214 C34.218261,49.8556472 53.7378618,39.5274853 75.8512218,38.6681072 C127.644376,36.6329429 176.464863,87.5901571 181.855508,93.4065839 L146.331943,126.352014 L146.363193,126.383264 C136.531127,115.863695 86.4723538,67.7424301 57.3784998,98.6370716 C41.9643827,115.000411 46.1440846,145.660677 64.0152425,170.152952 C74.4801239,184.496753 89.0934571,195.379604 105.159921,200.785874 C123.7928,207.06324 143.886622,206.239018 164.878884,198.336647 L181.945351,243.680559 C143.61709,260.840776 102.866944,251.141523 89.6950213,246.704007 Z" id="Path" fill="#EF780F"></path>
            <path d="M422.305586,246.704007 C448.153334,238.000851 470.567477,221.403135 487.12613,198.707741 C501.196492,179.422516 509.911367,156.645091 511.657467,134.582512 C513.634037,109.605861 507.040263,86.7698411 492.590993,68.543214 C477.782346,49.8556472 458.262746,39.5274853 436.149386,38.6681072 C384.356231,36.6329429 335.535744,87.5901571 330.141194,93.4065839 L365.664758,126.352014 L365.637415,126.383264 C375.465575,115.863695 425.524348,67.7424301 454.622108,98.6370716 C470.032319,115.000411 465.856523,145.660677 447.985365,170.152952 C437.520483,184.496753 422.90715,195.379604 406.840687,200.785874 C388.207807,207.06324 368.113985,206.239018 347.121723,198.336647 L330.055256,243.680559 C368.379611,260.840776 409.133663,251.141523 422.305586,246.704007 L422.305586,246.704007 Z" id="Path" fill="#EF780F"></path>
            <path d="M300.328587,314.247217 L211.668114,314.247217 C211.668114,314.247217 224.988474,373.157584 185.49224,411.146001 C175.351577,420.896035 182.175821,438.013285 196.246184,438.013285 L315.754423,438.013285 C329.82088,438.013285 336.645123,420.896035 326.508368,411.146001 C287.012134,373.157584 300.328587,314.247217 300.328587,314.247217 L300.328587,314.247217 Z" id="Path" fill="#FCB90A"></path>
            <path d="M157.38667,244.946187 L354.610031,244.946187 C354.610031,244.946187 346.656878,336.36839 256.000304,336.36839 C165.34373,336.36839 157.38667,244.946187 157.38667,244.946187 Z" id="Path" fill="#FFC634"></path>
            <path d="M370.438213,38.4298254 L141.562395,38.4298254 C141.562395,38.4298254 -11.0748699,290.657289 256.000304,290.657289 C523.075477,290.657289 370.438213,38.4298254 370.438213,38.4298254 Z" id="Path" fill="#FFEA4F"></path>
            <path d="M370.500713,67.7463361 L141.495988,67.7463361 C122.78889,67.7463361 107.624773,52.5783129 107.624773,33.8712151 C107.624773,15.1641162 122.78889,3.55271368e-14 141.495988,3.55271368e-14 L370.500713,3.55271368e-14 C389.207811,3.55271368e-14 404.371928,15.1641162 404.371928,33.8712151 C404.371928,52.5783129 389.207811,67.7463361 370.500713,67.7463361 Z" id="Path" fill="#FCB90A"></path>
        </g>
    </g>
</svg>