<?xml version="1.0" encoding="UTF-8"?>
<svg width="512px" height="512px" viewBox="0 0 512 512" version="1.1" xmlns="http://www.w3.org/2000/svg" xmlns:xlink="http://www.w3.org/1999/xlink">
    <!-- Generator: Sketch 59 (86127) - https://sketch.com -->
    <title>ic_diamond_v1_red</title>
    <desc>Created with Sketch.</desc>
    <g id="ic_diamond_v1_red" stroke="none" stroke-width="1" fill="none" fill-rule="evenodd">
        <g id="diamond_v2" transform="translate(25.000000, 0.000000)" fill-rule="nonzero">
            <path d="M0,384 C0,388.850347 1.36874667,393.48736 3.82122667,397.457067 L91.8033067,410.333867 L230.4,256 L97.1076267,140.818773 L3.82122667,114.542933 C1.36874667,118.514347 0,123.15136 0,128 C0,220.63616 0,291.36384 0,384 Z" id="Path" fill="#DD0404"></path>
            <path d="M460.8,384 L460.8,128 C460.8,123.149653 459.431253,118.51264 456.978773,114.542933 L381.422933,129.747627 L230.4,256 L366.3104,372.816213 L456.977067,397.45536 C459.431253,393.489067 460.8,388.852053 460.8,384 Z" id="Path" fill="#DD0404"></path>
            <path d="M455.34208,395.605333 C452.78208,399.699627 449.19808,402.771627 444.588373,405.333333 C370.863787,442.195627 314.028373,470.355627 239.788373,507.733333 C238.25408,508.24192 236.207787,509.267627 234.156373,509.779627 C232.62208,510.291627 230.572373,510.291627 228.524373,510.291627 C226.476373,510.291627 224.426667,510.291627 222.892373,509.779627 C220.842667,509.267627 218.794667,508.24192 217.260373,507.733333 C143.020373,470.355627 86.18496,442.195627 12.4603733,405.333333 C7.85066667,402.771627 4.26666667,399.699627 1.70666667,395.605333 L228.52608,254.293333 L455.34208,395.605333 Z" id="Path" fill="#CA0000"></path>
            <path d="M457.216,397.312 C454.656,401.406293 451.072,404.478293 446.462293,407.04 C372.737707,443.902293 315.902293,472.062293 241.662293,509.44 C240.128,509.948587 238.081707,510.974293 236.030293,511.486293 C234.496,511.998293 232.446293,511.998293 230.398293,511.998293 L230.398293,256 L457.216,397.312 Z" id="Path" fill="#9E0000"></path>
            <path d="M457.216,114.689707 L230.4,256 L3.584,114.688 C6.144,110.590293 9.728,107.52 14.3377067,104.96 C88.0622933,68.0942933 144.897707,39.9342933 219.137707,2.56 C222.718293,1.02229333 226.304,0 230.4,0 C234.496,0 238.081707,1.02229333 241.662293,2.56 C315.902293,39.9342933 372.737707,68.0942933 446.462293,104.96 C451.072,107.52 454.656,110.590293 457.216,114.689707 Z" id="Path" fill="#9E0000"></path>
            <path d="M457.216,114.689707 L230.4,256 L230.4,0 C234.497707,0 238.081707,1.02229333 241.662293,2.56 C315.902293,39.9342933 372.737707,68.0942933 446.462293,104.96 C451.072,107.52 454.656,110.590293 457.216,114.689707 Z" id="Path" fill="#CA0000"></path>
            <path d="M344.062293,156.16 L241.662293,104.96 C238.081707,103.422293 234.496,102.4 230.4,102.4 C226.304,102.4 222.718293,103.422293 219.137707,104.96 L116.737707,156.16 C108.032,160.768 102.4,169.472 102.4,179.2 L102.4,332.8 C102.4,342.528 108.032,351.232 116.737707,355.84 L219.137707,407.04 C222.718293,408.574293 226.304,409.6 230.4,409.6 C234.496,409.6 238.081707,408.574293 241.662293,407.04 L344.062293,355.84 C352.768,351.232 358.4,342.528 358.4,332.8 L358.4,179.2 C358.4,169.472 352.768,160.769707 344.062293,156.16 Z" id="Path" fill="#FF7676"></path>
            <path d="M358.4,179.2 L358.4,332.8 C358.4,342.528 352.768,351.232 344.062293,355.84 L241.662293,407.04 C238.081707,408.574293 234.496,409.6 230.4,409.6 L230.4,102.4 C234.497707,102.4 238.081707,103.422293 241.662293,104.96 L344.062293,156.16 C352.768,160.769707 358.4,169.472 358.4,179.2 Z" id="Path" fill="#FF1E1E"></path>
        </g>
    </g>
</svg>