<?xml version="1.0" encoding="UTF-8"?>
<svg width="512px" height="512px" viewBox="0 0 512 512" version="1.1" xmlns="http://www.w3.org/2000/svg" xmlns:xlink="http://www.w3.org/1999/xlink">
    <!-- Generator: Sketch 59 (86127) - https://sketch.com -->
    <title>ic_diamonds_pack_v1</title>
    <desc>Created with Sketch.</desc>
    <defs>
        <path d="M314.687822,12.5204978 L336.153833,28.7476252 C339.591635,31.3464147 340.994098,35.8450986 339.642146,39.9370923 L324.61583,85.4149647 L338.487092,76.5039928 C343.786123,73.0997219 350.52671,72.8809413 356.035341,75.9344257 L473.304773,140.937933 C478.848028,144.01061 482.239435,149.895046 482.122266,156.231808 L481.251121,201.969345 C481.112102,209.294254 476.326323,215.718345 469.347568,217.947829 L344.987229,257.676903 C335.983193,260.553399 326.352118,255.586046 323.475622,246.58201 C323.35657,246.209351 323.25033,245.83272 323.15709,245.45278 L317.482382,222.331513 L247.408148,282.642115 C238.642389,290.18638 225.420502,289.196163 217.876237,280.430403 C217.563995,280.067606 217.264284,279.69421 216.977633,279.310873 L178.342979,227.644167 L178.507671,240.809464 C178.612037,249.149119 171.936016,255.99435 163.596362,256.098716 C163.2512,256.103035 162.905992,256.095519 162.561346,256.07618 L48.6637985,249.685146 C42.2217609,249.323669 36.7209883,244.909337 34.9730749,238.698434 L23.957402,199.556181 C22.4519017,194.20665 24.006198,188.462515 28.0038124,184.602064 L113.106248,102.419597 C117.128989,98.5348813 122.969164,97.1912551 128.285088,98.9274608 L139.281253,102.518278 L153.473754,81.7009771 C157.814382,75.3335536 165.301475,71.8646696 172.965435,72.6701843 L225.655339,78.2071774 L227.084308,53.3075323 C227.296413,49.6087168 229.522896,46.3252785 232.880668,44.7595235 L304.361954,11.4272528 C307.740831,9.85165659 311.713788,10.272291 314.687822,12.5204978 Z" id="path-1"></path>
        <filter x="-6.0%" y="-8.5%" width="112.0%" height="119.8%" filterUnits="objectBoundingBox" id="filter-2">
            <feMorphology radius="1" operator="dilate" in="SourceAlpha" result="shadowSpreadOuter1"></feMorphology>
            <feOffset dx="0" dy="4" in="shadowSpreadOuter1" result="shadowOffsetOuter1"></feOffset>
            <feGaussianBlur stdDeviation="7.5" in="shadowOffsetOuter1" result="shadowBlurOuter1"></feGaussianBlur>
            <feColorMatrix values="0 0 0 0 0.980392157   0 0 0 0 0.203921569   0 0 0 0 0.850980392  0 0 0 1 0" type="matrix" in="shadowBlurOuter1"></feColorMatrix>
        </filter>
        <path d="M42.6990665,2.27373675e-12 L176.779549,2.27373675e-12 C183.117452,2.27612521e-12 188.936474,3.50245689 191.903412,9.10301926 L213.318197,49.5268095 C216.747795,56.0007169 215.676518,63.9395451 210.653638,69.2728636 L121.146671,164.311783 C114.666116,171.192867 103.834369,171.51756 96.9532853,165.037005 C96.6684912,164.768788 96.3929772,164.490885 96.1272288,164.203786 L8.30358141,69.3242812 C3.33628189,63.9579029 2.32708032,56.0284654 5.79180702,49.5889196 L27.6271536,9.00571458 C30.6113672,3.45925101 36.4007501,2.28199916e-12 42.6990665,2.27373675e-12 Z" id="path-3"></path>
        <path d="M25.1170979,2.27373675e-12 L103.98797,2.27373675e-12 C107.716148,2.25528833e-12 111.139103,2.06026876 112.88436,5.35471721 L125.481292,29.1334174 C127.498703,32.9415982 126.86854,37.6114971 123.913904,40.7487433 L71.2627476,96.6539903 C67.4506567,100.701686 61.0790404,100.892682 57.0313443,97.0805913 C56.8638184,96.9228165 56.7017513,96.7593443 56.5454287,96.5904625 L4.88445965,40.778989 C1.96251876,37.6222958 1.36887077,32.9579208 3.4069453,29.1699527 L16.2512668,5.29747917 C18.0066866,2.03485353 21.4122059,2.27264098e-12 25.1170979,2.27373675e-12 Z" id="path-5"></path>
        <path d="M37.6756469,2.27373675e-12 L155.981955,2.27373675e-12 C161.574222,2.28159126e-12 166.708654,3.09040314 169.32654,8.03207582 L188.221938,43.7001261 C191.248054,49.4123973 190.30281,56.4172457 185.870857,61.123115 L106.894121,144.980985 C101.175985,151.05253 91.6185606,151.339023 85.5470164,145.620887 C85.2957275,145.384225 85.0526269,145.139016 84.818143,144.885694 L7.32668948,61.1684834 C2.94377814,56.4334437 2.05330616,49.4368812 5.11041796,43.7549291 L24.3769002,7.94621875 C27.0100299,3.0522803 32.1183089,2.27298126e-12 37.6756469,2.27373675e-12 Z" id="path-7"></path>
        <path d="M52.2435637,2.27373675e-12 L216.294977,2.27373675e-12 C224.049588,2.27231226e-12 231.169333,4.28535902 234.799468,11.1378118 L261.001088,60.5975081 C265.197302,68.5185242 263.886564,78.231914 257.740921,84.7573861 L148.226515,201.0403 C140.297366,209.459508 127.044404,209.856779 118.625196,201.92763 C118.276742,201.599458 117.939643,201.259436 117.614492,200.908162 L10.1596761,84.820297 C4.08203902,78.2543753 2.84725121,68.5524753 7.08644623,60.6735017 L33.8026349,11.0187567 C37.4539081,4.23249535 44.5373884,2.27870507e-12 52.2435637,2.27373675e-12 Z" id="path-9"></path>
    </defs>
    <g id="ic_diamonds_pack_v1" stroke="none" stroke-width="1" fill="none" fill-rule="evenodd">
        <g id="diamonds_pack" transform="translate(0.000000, 94.000000)">
            <g id="Path">
                <use fill="black" fill-opacity="1" filter="url(#filter-2)" xlink:href="#path-1"></use>
                <use fill="#FF73E5" fill-rule="evenodd" xlink:href="#path-1"></use>
            </g>
            <g id="dimonds">
                <g id="diamond" transform="translate(371.750008, 186.403720) rotate(29.000000) translate(-371.750008, -186.403720) translate(261.750008, 97.403720)">
                    <mask id="mask-4" fill="white">
                        <use xlink:href="#path-3"></use>
                    </mask>
                    <use id="Path" fill="#FF73E5" xlink:href="#path-3"></use>
                    <polygon id="Path" fill="#FF73E5" mask="url(#mask-4)" points="4.8316906e-13 60.3535801 108.579116 177.656073 53.2134551 60.3535801"></polygon>
                    <polygon id="Path-2" fill="#FA34D9" mask="url(#mask-4)" points="53.2134551 60.3535801 108.579116 177.656073 157.887495 60.3535801"></polygon>
                    <polygon id="Path-3" fill="#BC0BAB" mask="url(#mask-4)" points="157.887495 60.3535801 219.053754 60.3535801 108.579116 177.656073"></polygon>
                    <polygon id="Path-4" fill="#E83ACF" mask="url(#mask-4)" points="219.053754 60.3535801 187.081023 7.83405182e-12 138.01087 7.58149099e-12 157.887495 60.3535801"></polygon>
                    <polygon id="Path-5" fill="#FD98E8" mask="url(#mask-4)" points="157.887495 60.3535801 53.2134551 60.3535801 72.846957 -3.55271368e-14 138.01087 1.04019357e-11"></polygon>
                    <polygon id="Path-6" fill="#FCC8F1" mask="url(#mask-4)" points="53.2134551 60.3535801 -9.9475983e-14 60.3535801 32.4725791 2.12097007e-12 72.846957 1.36356821e-11"></polygon>
                </g>
                <g id="diamond" transform="translate(290.761158, 75.696749) rotate(-25.000000) translate(-290.761158, -75.696749) translate(226.261158, 23.196749)">
                    <mask id="mask-6" fill="white">
                        <use xlink:href="#path-5"></use>
                    </mask>
                    <use id="Path" fill="#FF73E5" xlink:href="#path-5"></use>
                    <polygon id="Path" fill="#FF73E5" mask="url(#mask-6)" points="4.8316906e-13 35.5021059 63.8700681 104.503572 31.3020324 35.5021059"></polygon>
                    <polygon id="Path-2" fill="#FA34D9" mask="url(#mask-6)" points="31.3020324 35.5021059 63.8700681 104.503572 92.8749973 35.5021059"></polygon>
                    <polygon id="Path-3" fill="#BC0BAB" mask="url(#mask-6)" points="92.8749973 35.5021059 128.85515 35.5021059 63.8700681 104.503572"></polygon>
                    <polygon id="Path-4" fill="#E83ACF" mask="url(#mask-6)" points="128.85515 35.5021059 110.047661 7.73005618e-12 81.1828646 7.58149099e-12 92.8749973 35.5021059"></polygon>
                    <polygon id="Path-5" fill="#FD98E8" mask="url(#mask-6)" points="92.8749973 35.5021059 31.3020324 35.5021059 42.8511512 -3.55271368e-14 81.1828646 6.10415688e-12"></polygon>
                    <polygon id="Path-6" fill="#FCC8F1" mask="url(#mask-6)" points="31.3020324 35.5021059 -9.9475983e-14 35.5021059 19.1015171 2.12097007e-12 42.8511512 8.89433011e-12"></polygon>
                </g>
                <g id="diamond" transform="translate(125.208863, 199.860079) rotate(-44.000000) translate(-125.208863, -199.860079) translate(28.208863, 121.360079)">
                    <mask id="mask-8" fill="white">
                        <use xlink:href="#path-7"></use>
                    </mask>
                    <use id="Path" fill="#FF73E5" xlink:href="#path-7"></use>
                    <polygon id="Path" fill="#FF73E5" mask="url(#mask-8)" points="4.8316906e-13 53.2531589 95.8051022 156.755358 46.9530486 53.2531589"></polygon>
                    <polygon id="Path-2" fill="#FA34D9" mask="url(#mask-8)" points="46.9530486 53.2531589 95.8051022 156.755358 139.312496 53.2531589"></polygon>
                    <polygon id="Path-3" fill="#BC0BAB" mask="url(#mask-8)" points="139.312496 53.2531589 193.282724 53.2531589 95.8051022 156.755358"></polygon>
                    <polygon id="Path-4" fill="#E83ACF" mask="url(#mask-8)" points="193.282724 53.2531589 165.071491 7.80433878e-12 121.774297 7.58149099e-12 139.312496 53.2531589"></polygon>
                    <polygon id="Path-5" fill="#FD98E8" mask="url(#mask-8)" points="139.312496 53.2531589 46.9530486 53.2531589 64.2767268 -3.55271368e-14 121.774297 9.17399889e-12"></polygon>
                    <polygon id="Path-6" fill="#FCC8F1" mask="url(#mask-8)" points="46.9530486 53.2531589 -9.9475983e-14 53.2531589 28.6522757 2.12097007e-12 64.2767268 1.22810101e-11"></polygon>
                </g>
                <g id="diamond" transform="translate(243.377659, 189.671210) rotate(6.000000) translate(-243.377659, -189.671210) translate(108.877659, 80.671210)">
                    <mask id="mask-10" fill="white">
                        <use xlink:href="#path-9"></use>
                    </mask>
                    <use id="Path" fill="#FF73E5" xlink:href="#path-9"></use>
                    <polygon id="Path" fill="#FF73E5" mask="url(#mask-10)" points="4.8316906e-13 73.8443803 132.849742 217.36743 65.1082274 73.8443803"></polygon>
                    <polygon id="Path-2" fill="#FA34D9" mask="url(#mask-10)" points="65.1082274 73.8443803 132.849742 217.36743 193.179994 73.8443803"></polygon>
                    <polygon id="Path-3" fill="#BC0BAB" mask="url(#mask-10)" points="193.179994 73.8443803 268.018711 73.8443803 132.849742 217.36743"></polygon>
                    <polygon id="Path-4" fill="#E83ACF" mask="url(#mask-10)" points="268.018711 73.8443803 228.899135 7.89050659e-12 168.860358 7.58149099e-12 193.179994 73.8443803"></polygon>
                    <polygon id="Path-5" fill="#FD98E8" mask="url(#mask-10)" points="193.179994 73.8443803 65.1082274 73.8443803 89.1303945 -3.55271368e-14 168.860358 1.27350156e-11"></polygon>
                    <polygon id="Path-6" fill="#FCC8F1" mask="url(#mask-10)" points="65.1082274 73.8443803 -9.9475983e-14 73.8443803 39.7311556 2.12097007e-12 89.1303945 1.6209559e-11"></polygon>
                </g>
            </g>
        </g>
    </g>
</svg>