<?xml version="1.0" encoding="UTF-8"?>
<svg width="512px" height="512px" viewBox="0 0 512 512" version="1.1" xmlns="http://www.w3.org/2000/svg" xmlns:xlink="http://www.w3.org/1999/xlink">
    <!-- Generator: Sketch 59 (86127) - https://sketch.com -->
    <title>ic_diamond_v2_blue</title>
    <desc>Created with Sketch.</desc>
    <defs>
        <path d="M99.7933697,2.27373675e-12 L413.157202,2.27373675e-12 C427.96972,2.31153891e-12 441.569547,8.18570531 448.503672,21.2749608 L498.552859,115.750709 C506.568283,130.881087 504.064569,149.43518 492.325432,161.899851 L283.135804,384.018385 C267.989891,400.100388 242.674662,400.859238 226.59266,385.713324 C225.927058,385.086465 225.283146,384.43697 224.662056,383.765981 L19.4065688,162.020021 C7.79733235,149.478084 5.4386947,130.945939 13.5362196,115.895868 L64.5683144,21.0475469 C71.5428167,8.08472744 85.0733707,2.26933535e-12 99.7933697,2.27373675e-12 Z" id="path-1"></path>
    </defs>
    <g id="ic_diamond_v2_blue" stroke="none" stroke-width="1" fill="none" fill-rule="evenodd">
        <g id="diamond" transform="translate(0.000000, 48.000000)">
            <mask id="mask-2" fill="white">
                <use xlink:href="#path-1"></use>
            </mask>
            <use id="Path" fill="#38D8FF" xlink:href="#path-1"></use>
            <polygon id="Path" fill="#89FBFF" mask="url(#mask-2)" points="4.8316906e-13 141.054305 253.763764 415.205756 124.366887 141.054305"></polygon>
            <polygon id="Path-2" fill="#38D8FF" mask="url(#mask-2)" points="124.366887 141.054305 253.763764 415.205756 369.003974 141.054305"></polygon>
            <polygon id="Path-3" fill="#0F8FFF" mask="url(#mask-2)" points="369.003974 141.054305 511.957616 141.054305 253.763764 415.205756"></polygon>
            <polygon id="Path-4" fill="#2EBDFD" mask="url(#mask-2)" points="511.957616 141.054305 437.233113 8.17175908e-12 322.549669 7.58149099e-12 369.003974 141.054305"></polygon>
            <polygon id="Path-5" fill="#24F3FB" mask="url(#mask-2)" points="369.003974 141.054305 124.366887 141.054305 170.25298 -3.55271368e-14 322.549669 2.43582049e-11"></polygon>
            <polygon id="Path-6" fill="#CDFDFF" mask="url(#mask-2)" points="124.366887 141.054305 -9.9475983e-14 141.054305 75.8927152 2.12097007e-12 170.25298 2.90323762e-11"></polygon>
        </g>
    </g>
</svg>