<?xml version="1.0" encoding="UTF-8"?>
<svg width="512px" height="512px" viewBox="0 0 512 512" version="1.1" xmlns="http://www.w3.org/2000/svg" xmlns:xlink="http://www.w3.org/1999/xlink">
    <!-- Generator: Sketch 59 (86127) - https://sketch.com -->
    <title>ic_dinamite</title>
    <desc>Created with Sketch.</desc>
    <g id="ic_dinamite" stroke="none" stroke-width="1" fill="none" fill-rule="evenodd">
        <g id="bomb" transform="translate(116.000000, 0.000000)">
            <path d="M141.091614,98.8805237 C147.80219,98.8805237 153.242187,104.32052 153.242187,111.031097 L153.242187,153.767594 C153.242187,160.47817 147.80219,165.918167 141.091614,165.918167 C134.381038,165.918167 128.941041,160.47817 128.941041,153.767594 L128.941041,111.031097 C128.941041,104.32052 134.381038,98.8805237 141.091614,98.8805237 Z" id="Rectangle" fill="#BF6015"></path>
            <rect id="Rectangle" fill="#C1001F" x="179.219273" y="133.237316" width="99.7184943" height="378.762684" rx="31.00491"></rect>
            <rect id="Rectangle" fill="#C1001F" x="0.731548282" y="133.237316" width="99.7184943" height="378.762684" rx="31.00491"></rect>
            <rect id="Rectangle" fill="#FD003A" x="77.824838" y="133.237316" width="125.695581" height="378.762684" rx="36.0327332"></rect>
            <rect id="Rectangle" fill="#0D70B2" x="0.83797054" y="258.932897" width="278.206219" height="125.695581"></rect>
            <path d="M214.604255,336.596845 C209.077002,365.748164 184.702115,390.123051 155.553309,395.65198 C150.525486,396.656707 145.498501,397.159489 140.724583,397.159489 C120.619993,397.159489 101.773198,389.369715 87.4497676,375.045447 C69.3537938,356.951149 61.8170867,332.325709 66.84491,306.943581 C72.3721637,277.793938 96.7470507,253.417375 125.895856,247.890121 C130.923679,246.883718 135.950664,246.382612 140.724583,246.382612 C160.829172,246.382612 179.675967,254.172386 193.999398,268.496655 C212.094534,286.588439 219.632079,311.214717 214.604255,336.596845 Z" id="Path" fill="#C5C9F7" fill-rule="nonzero"></path>
            <path d="M202.794736,259.700478 C186.212137,242.864812 163.843352,233.818082 140.725421,233.818082 C134.946776,233.818082 129.417846,234.320026 123.639201,235.325591 C88.9572766,242.1098 61.0671031,270.004164 54.5334468,304.682736 C48.754802,333.580989 57.7973421,363.233414 78.6569427,383.839948 C95.2395417,400.67729 117.356936,409.72402 140.726259,409.72402 L140.97765,409.72402 C146.504903,409.72402 152.285224,409.220399 157.812478,408.216511 C192.494403,401.430625 220.384576,373.537938 226.918232,338.859365 C232.696877,309.959437 223.653499,280.306173 202.794736,259.700478 Z M202.291116,334.083771 C197.769427,358.458658 177.412609,378.8138 153.037722,383.338841 C148.767424,384.092177 144.994881,384.594959 140.724583,384.594959 C124.141984,384.594959 108.306854,378.312694 96.2442684,366.24927 C81.4188936,351.172504 75.1366285,330.565971 79.1580491,309.458331 C83.6797381,285.081768 104.036556,264.726625 128.411444,260.204098 C132.429512,259.449087 136.705676,258.94798 140.724583,258.94798 C157.559411,258.94798 173.142311,265.481637 185.204897,277.291993 C200.030272,292.367921 206.312537,312.974455 202.291116,334.083771 Z" id="Shape" fill="#E1E4FB" fill-rule="nonzero"></path>
            <path d="M153.935188,12.5888314 L153.935188,37.71873 C153.935188,54.2812177 128.80529,54.3490933 128.80529,37.71873 L128.80529,12.5888314 C128.806128,-3.9736563 153.935188,-4.04153191 153.935188,12.5888314 Z" id="Path" fill="#FFCC33" fill-rule="nonzero"></path>
            <path d="M200.513781,59.1674239 L175.383882,84.2973224 C163.702573,95.9786318 145.839555,78.307509 157.616393,66.5298331 L182.746291,41.3999345 C194.476203,29.6691849 212.243692,47.4366743 200.513781,59.1674239 Z" id="Path" fill="#FFCC33" fill-rule="nonzero"></path>
            <path d="M91.1116989,37.71873 C94.3269918,37.71873 97.5414468,38.9455188 99.9950245,41.3999345 L125.124923,66.5298331 C130.032917,71.4378265 130.032917,79.389329 125.124923,84.2973224 C120.21693,89.2053159 112.265427,89.2053159 107.357434,84.2973224 L82.2275352,59.1674239 C74.3036858,51.2427365 79.9960196,37.71873 91.1116989,37.71873 Z" id="Path" fill="#FFCC33" fill-rule="nonzero"></path>
            <path d="M165.855319,334.336 L140.725421,334.336 C133.688144,334.336 128.16089,328.806232 128.16089,321.77147 L128.16089,271.512511 C128.16089,263.219116 134.443155,258.94798 140.725421,258.94798 C147.007686,258.94798 153.289951,263.219116 153.289951,271.512511 L153.289951,309.206939 L165.854481,309.206939 C182.437918,309.206101 182.437918,334.336 165.855319,334.336 Z" id="Path" fill="#0D70B2" fill-rule="nonzero"></path>
        </g>
    </g>
</svg>