<?xml version="1.0" encoding="UTF-8"?>
<svg width="512px" height="512px" viewBox="0 0 512 512" version="1.1" xmlns="http://www.w3.org/2000/svg" xmlns:xlink="http://www.w3.org/1999/xlink">
    <!-- Generator: Sketch 59 (86127) - https://sketch.com -->
    <title>ic_diamonds_pack_v3</title>
    <desc>Created with Sketch.</desc>
    <defs>
        <path d="M128.719313,10.9594653 L247.265645,23.4191868 C252.869258,24.0081503 257.688633,27.6455688 259.791386,32.8729764 L261.31581,36.6639604 C262.118762,35.6926067 263.078548,34.8329658 264.17877,34.1261473 L292.350948,16.0274182 C296.20121,13.5538841 301.098902,13.3949187 305.101459,15.6135723 L390.309114,62.8449471 C392.014088,63.7900291 393.43889,65.1012027 394.508574,66.6484275 L403.706175,56.5332865 C405.517275,54.5416562 408.275901,53.7056769 410.887902,54.3569221 L466.492993,68.2208284 C469.121412,68.8761668 471.17249,70.930372 471.823824,73.5597861 L476.525026,92.5383956 C477.277928,95.5778375 476.01278,98.7594131 473.378256,100.451851 L448.914119,116.166822 L462.813505,122.067176 C467.5563,124.080373 470.798272,128.549718 471.239512,133.683175 L474.424301,170.735485 C474.670837,173.603718 474.021746,176.394048 472.669459,178.782192 L489.410703,178.781575 C492.66484,178.781575 495.652564,180.579879 497.175911,183.455436 L508.171135,204.210659 C509.93203,207.534627 509.381993,211.610745 506.803041,214.349088 L460.846515,263.145945 C457.519134,266.678974 451.957673,266.845684 448.424644,263.518303 C448.278419,263.38059 448.136959,263.237903 448.000513,263.090495 L420.210927,233.06791 L420.187447,248.56682 C420.180284,253.268795 417.18119,257.44476 412.727873,258.953596 L333.370447,285.840828 C327.624747,287.787538 321.388817,284.70785 319.442106,278.96215 C319.361536,278.724347 319.289142,278.483852 319.225054,278.241088 L311.015706,247.146008 L268.04566,281.593157 C260.874374,287.341931 250.400596,286.188758 244.651822,279.017473 C244.413892,278.720668 244.186208,278.415792 243.969172,278.103383 L215.971617,237.802959 L195.578026,279.097367 C192.229117,285.878431 184.017152,288.660741 177.236089,285.311832 C176.955435,285.173227 176.679615,285.025041 176.409117,284.867533 L120.992193,252.599226 L118.810262,264.628369 C118.160499,268.209821 114.730421,270.586424 111.14897,269.93666 C111.000741,269.909768 110.853477,269.877801 110.707439,269.840816 L62.4452164,257.618181 C59.7155083,256.926869 57.7265406,254.577672 57.4949286,251.771326 L56.0352671,234.085221 C55.9452847,232.994943 56.1286859,231.92211 56.5438224,230.951584 C55.8911969,230.764896 55.2535177,230.48278 54.6502025,230.10163 C54.5086897,230.012228 54.3702839,229.918 54.2352289,229.819113 L9.60270239,197.139138 C7.07828972,195.290761 6.00705215,192.04274 6.93652827,189.055228 L12.7942582,170.227373 C13.594828,167.65419 15.7439881,165.728632 18.38932,165.214432 L56.9358963,157.721747 L51.6421539,138.910806 C50.5482614,135.023851 51.677609,130.850178 54.5822649,128.045184 L101.846589,82.4014494 L91.8666723,69.055774 C87.9735512,63.8495305 87.8181328,56.7449909 91.4798559,51.3734783 L114.55671,17.5212152 C117.710599,12.8946623 123.1507,10.3741805 128.719313,10.9594653 Z M84.9574357,195.838739 L68.5361578,221.831298 L81.4441875,213.448344 L84.9574357,195.838739 Z M396.368312,92.1302101 L396.335599,93.8487956 L397.609893,94.3897049 L396.368312,92.1302101 Z" id="path-1"></path>
        <filter x="-5.2%" y="-9.1%" width="110.3%" height="118.9%" filterUnits="objectBoundingBox" id="filter-2">
            <feMorphology radius="0.5" operator="dilate" in="SourceAlpha" result="shadowSpreadOuter1"></feMorphology>
            <feOffset dx="0" dy="1" in="shadowSpreadOuter1" result="shadowOffsetOuter1"></feOffset>
            <feGaussianBlur stdDeviation="8" in="shadowOffsetOuter1" result="shadowBlurOuter1"></feGaussianBlur>
            <feColorMatrix values="0 0 0 0 0.980392157   0 0 0 0 0.203921569   0 0 0 0 0.850980392  0 0 0 1 0" type="matrix" in="shadowBlurOuter1"></feColorMatrix>
        </filter>
        <path d="M31.0250275,2.27373675e-12 L128.447547,2.27373675e-12 C133.052651,2.27644352e-12 137.280737,2.54487581 139.436506,6.61422945 L154.996431,35.9860473 C157.488368,40.6899711 156.709981,46.4583025 153.06037,50.3334774 L88.0248471,119.388502 C83.3160935,124.388279 75.4457746,124.6242 70.4459978,119.915447 C70.2390672,119.720561 70.0388794,119.518637 69.8457873,119.310032 L6.03336005,50.3708373 C2.4241335,46.4716412 1.69085033,40.7101331 4.20831149,36.0311764 L20.0738159,6.54352813 C22.2421375,2.51348253 26.4486877,2.27635377e-12 31.0250275,2.27373675e-12 Z" id="path-3"></path>
        <path d="M18.2500162,2.27373675e-12 L75.5573807,2.27373675e-12 C78.266265,2.27235096e-12 80.7533747,1.49698577 82.0214739,3.89072321 L91.1743713,21.1682631 C92.6402163,23.9352771 92.182342,27.3284132 90.0355115,29.6079279 L51.7793218,70.2285308 C49.0094668,73.169576 44.3798674,73.308353 41.4388222,70.538498 C41.3170983,70.4238593 41.1993408,70.3050808 41.0857572,70.1823717 L3.54903532,29.6299043 C1.42596088,27.3362595 0.994617844,23.9471371 2.47547735,21.1948096 L11.808127,3.84913419 C13.0836103,1.47851913 15.5580516,2.27600762e-12 18.2500162,2.27373675e-12 Z" id="path-5"></path>
        <path d="M27.3750243,2.27373675e-12 L113.336071,2.27373675e-12 C117.399398,2.28720119e-12 121.130062,2.24547865 123.032211,5.83608481 L136.761557,31.7523947 C138.960325,35.9029157 138.273513,40.9926198 135.053267,44.4118919 L77.6689828,105.342796 C73.5142002,109.754364 66.5698011,109.96253 62.1582333,105.807747 C61.9756475,105.635789 61.7990112,105.457621 61.6286359,105.273558 L5.32355298,44.4448565 C2.13894132,41.0043893 1.49192677,35.9207057 3.71321602,31.7922144 L17.7121905,5.77370129 C19.6254155,2.2177787 23.3370774,2.27803123e-12 27.3750243,2.27373675e-12 Z" id="path-7"></path>
        <path d="M37.9600337,2.27373675e-12 L157.159352,2.27373675e-12 C162.793831,2.26737265e-12 167.967019,3.1137304 170.604666,8.09270427 L189.642692,44.0299873 C192.69165,49.7853765 191.739271,56.8430995 187.273864,61.58449 L107.700989,146.075344 C101.939691,152.192718 92.3101242,152.481374 86.1927502,146.720076 C85.9395645,146.481627 85.6946289,146.234568 85.4583751,145.979333 L7.38199347,61.630201 C2.96599863,56.8594198 2.06880512,49.8100452 5.14899288,44.085204 L24.5609041,8.00619912 C27.2139095,3.0753198 32.3607473,2.28542347e-12 37.9600337,2.27373675e-12 Z" id="path-9"></path>
        <path d="M34.1640303,2.27373675e-12 L141.443417,2.27373675e-12 C146.514448,2.28523972e-12 151.170317,2.80235736 153.544199,7.28343384 L170.678423,39.6269886 C173.422485,44.8068388 172.565344,51.1587895 168.546478,55.426041 L96.9308905,131.46781 C91.7457218,136.973446 83.0791118,137.233237 77.5734752,132.048068 C77.3456081,131.833465 77.125166,131.611111 76.9125376,131.3814 L6.64379412,55.4671809 C2.66939877,51.1734778 1.8619246,44.8290407 4.63409359,39.6766836 L22.1048137,7.20557921 C24.4925185,2.76778782 29.1246725,2.27821518e-12 34.1640303,2.27373675e-12 Z" id="path-11"></path>
        <path d="M34.7121163,2.27373675e-12 L143.712562,2.27373675e-12 C148.864947,2.31214082e-12 153.59551,2.84731496 156.007475,7.40028037 L173.41658,40.2627157 C176.204664,45.5256651 175.333772,51.9795188 171.250432,56.3152289 L98.4859315,133.576919 C93.2175783,139.170881 84.4119318,139.43484 78.8179695,134.166486 C78.5864467,133.94844 78.3624682,133.722519 78.1464285,133.489123 L6.75037905,56.3570287 C2.71222335,51.9944427 1.89179505,45.5482232 4.70843734,40.313208 L22.4594364,7.32117674 C24.8854466,2.81219083 29.5919133,2.28178275e-12 34.7121163,2.27373675e-12 Z" id="path-13"></path>
        <path d="M21.9234419,2.27373675e-12 L90.7658288,2.27373675e-12 C94.0199667,2.26780991e-12 97.0076904,1.79830419 98.5310368,4.67386129 L109.526261,25.4290836 C111.287156,28.7530516 110.737119,32.8291698 108.158167,35.567513 L62.2016409,84.3643698 C58.87426,87.8973987 53.312799,88.0641092 49.7797702,84.7367282 C49.6335453,84.5990147 49.4920852,84.456328 49.3556391,84.3089197 L4.2633973,35.5939129 C1.71298317,32.8385954 1.19481793,28.7672988 2.9737499,25.4609734 L14.1849072,4.6239011 C15.7171242,1.77612053 18.6896294,2.2743308e-12 21.9234419,2.27373675e-12 Z" id="path-15"></path>
        <path d="M18.2695349,2.27373675e-12 L75.6381907,2.27373675e-12 C78.3499722,2.27057407e-12 80.839742,1.49858682 82.1091974,3.89488441 L91.271884,21.190903 C92.7392968,23.9608764 92.2809327,27.3576415 90.1318062,29.6395941 L51.8347008,70.3036415 C49.0618833,73.2478322 44.4273325,73.3867577 41.4831418,70.6139402 C41.3612877,70.4991789 41.2434043,70.3802734 41.1296992,70.2574331 L3.55283108,29.6615941 C1.42748597,27.3654962 0.995681606,23.972749 2.47812492,21.2174779 L11.820756,3.85325091 C13.0976035,1.48010044 15.5746912,2.27423179e-12 18.2695349,2.27373675e-12 Z" id="path-17"></path>
        <path d="M23.7503954,2.27373675e-12 L98.3296479,2.27373675e-12 C101.854964,2.28019459e-12 105.091665,1.94816287 106.741957,5.06334973 L118.653449,27.5481739 C120.561086,31.1491393 119.965213,35.5649339 117.171348,38.5314724 L67.385111,91.394734 C63.7804483,95.2221819 57.7555323,95.402785 53.9280844,91.7981223 C53.7696741,91.6489326 53.6164256,91.4943554 53.468609,91.334663 L4.61868041,38.5600723 C1.85573177,35.575145 1.29438609,31.1645738 3.22156239,27.5827212 L15.3669828,5.00922619 C17.0268845,1.92413057 20.2470986,2.2743803e-12 23.7503954,2.27373675e-12 Z" id="path-19"></path>
        <path d="M16.4425814,2.27373675e-12 L68.0743716,2.27373675e-12 C70.514975,2.28039385e-12 72.7557678,1.34872814 73.8982776,3.50539597 L82.1446956,19.0718127 C83.4653671,21.5647887 83.0528394,24.6218773 81.1186256,26.6756347 L46.6512307,63.2732774 C44.155695,65.923049 39.9845993,66.0480819 37.3348276,63.5525462 C37.225159,63.449261 37.1190639,63.342246 37.0167293,63.2316898 L3.19754797,26.6954346 C1.28473738,24.6289465 0.896113446,21.5754741 2.23031242,19.0957301 L10.6386804,3.46792582 C11.7878431,1.33209039 14.0172221,2.27418229e-12 16.4425814,2.27373675e-12 Z" id="path-21"></path>
        <path d="M27.4043024,2.27373675e-12 L113.457286,2.27373675e-12 C117.524958,2.27654225e-12 121.259613,2.24788023 123.163796,5.84232661 L136.907826,31.7863545 C139.108945,35.9413146 138.421399,41.0364622 135.197709,44.4593912 L77.7520512,105.455462 C73.592825,109.871748 66.6409988,110.080137 62.2247127,105.92091 C62.0419316,105.748768 61.8651064,105.57041 61.6945489,105.38615 L5.32924662,44.4923911 C2.14122896,41.0482442 1.49352241,35.9591236 3.71718737,31.8262168 L17.731134,5.77987637 C19.6464052,2.22015066 23.3620368,2.27447931e-12 27.4043024,2.27373675e-12 Z" id="path-23"></path>
        <path d="M41.5187868,2.27373675e-12 L171.893041,2.27373675e-12 C178.055753,2.27231565e-12 183.713927,3.40564262 186.598853,8.85139529 L207.421695,48.1577987 C210.756492,54.4527555 209.714828,62.1721401 204.830789,67.358036 L117.797957,159.769908 C111.496537,166.460785 100.964198,166.776503 94.2733206,160.475083 C93.9963987,160.21428 93.7285004,159.944059 93.4700977,159.664896 L8.07405536,67.4080323 C3.24406101,62.1899904 2.26275559,54.479737 5.63171096,48.2181919 L26.8634889,8.75678029 C29.7652135,3.36363103 35.3945673,2.27130904e-12 41.5187868,2.27373675e-12 Z" id="path-25"></path>
    </defs>
    <g id="ic_diamonds_pack_v3" stroke="none" stroke-width="1" fill="none" fill-rule="evenodd">
        <g id="gems_pack_03" transform="translate(0.000000, 95.000000)">
            <g id="Shape">
                <use fill="black" fill-opacity="1" filter="url(#filter-2)" xlink:href="#path-1"></use>
                <use fill="#FF73E5" fill-rule="evenodd" xlink:href="#path-1"></use>
            </g>
            <g id="diamods_pack_03">
                <g id="diamond" transform="translate(316.423310, 96.207391) rotate(29.000000) translate(-316.423310, -96.207391) translate(236.423310, 31.207391)">
                    <mask id="mask-4" fill="white">
                        <use xlink:href="#path-3"></use>
                    </mask>
                    <use id="Path" fill="#FF73E5" xlink:href="#path-3"></use>
                    <polygon id="Path" fill="#FF73E5" mask="url(#mask-4)" points="4.8316906e-13 43.8527499 78.8932951 129.084427 38.6647541 43.8527499"></polygon>
                    <polygon id="Path-2" fill="#FA34D9" mask="url(#mask-4)" points="38.6647541 43.8527499 78.8932951 129.084427 114.720632 43.8527499"></polygon>
                    <polygon id="Path-3" fill="#BC0BAB" mask="url(#mask-4)" points="114.720632 43.8527499 159.163872 43.8527499 78.8932951 129.084427"></polygon>
                    <polygon id="Path-4" fill="#E83ACF" mask="url(#mask-4)" points="159.163872 43.8527499 135.932571 7.76500101e-12 100.278329 7.58149099e-12 114.720632 43.8527499"></polygon>
                    <polygon id="Path-5" fill="#FD98E8" mask="url(#mask-4)" points="114.720632 43.8527499 38.6647541 43.8527499 52.9304042 -3.55271368e-14 100.278329 7.54830544e-12"></polygon>
                    <polygon id="Path-6" fill="#FCC8F1" mask="url(#mask-4)" points="38.6647541 43.8527499 -9.9475983e-14 43.8527499 23.5944891 2.12097007e-12 52.9304042 1.04875291e-11"></polygon>
                </g>
                <g id="diamond" transform="translate(429.590857, 98.183410) rotate(14.000000) translate(-429.590857, -98.183410) translate(382.590857, 60.183410)">
                    <mask id="mask-6" fill="white">
                        <use xlink:href="#path-5"></use>
                    </mask>
                    <use id="Path" fill="#FF73E5" xlink:href="#path-5"></use>
                    <polygon id="Path" fill="#FF73E5" mask="url(#mask-6)" points="4.8316906e-13 25.7957352 46.4078207 75.9320161 22.743973 25.7957352"></polygon>
                    <polygon id="Path-2" fill="#FA34D9" mask="url(#mask-6)" points="22.743973 25.7957352 46.4078207 75.9320161 67.4827246 25.7957352"></polygon>
                    <polygon id="Path-3" fill="#BC0BAB" mask="url(#mask-6)" points="67.4827246 25.7957352 93.625807 25.7957352 46.4078207 75.9320161"></polygon>
                    <polygon id="Path-4" fill="#E83ACF" mask="url(#mask-6)" points="93.625807 25.7957352 79.9603361 7.68943806e-12 58.9872523 7.58149099e-12 67.4827246 25.7957352"></polygon>
                    <polygon id="Path-5" fill="#FD98E8" mask="url(#mask-6)" points="67.4827246 25.7957352 22.743973 25.7957352 31.1355319 -3.55271368e-14 58.9872523 4.42555085e-12"></polygon>
                    <polygon id="Path-6" fill="#FCC8F1" mask="url(#mask-6)" points="22.743973 25.7957352 -9.9475983e-14 25.7957352 13.8791113 2.12097007e-12 31.1355319 7.04247536e-12"></polygon>
                </g>
                <g id="diamond" transform="translate(125.199303, 139.090428) rotate(-44.000000) translate(-125.199303, -139.090428) translate(54.699303, 82.090428)">
                    <mask id="mask-8" fill="white">
                        <use xlink:href="#path-7"></use>
                    </mask>
                    <use id="Path" fill="#FF73E5" xlink:href="#path-7"></use>
                    <polygon id="Path" fill="#FF73E5" mask="url(#mask-8)" points="4.8316906e-13 38.6936028 69.611731 113.898024 34.1159595 38.6936028"></polygon>
                    <polygon id="Path-2" fill="#FA34D9" mask="url(#mask-8)" points="34.1159595 38.6936028 69.611731 113.898024 101.224087 38.6936028"></polygon>
                    <polygon id="Path-3" fill="#BC0BAB" mask="url(#mask-8)" points="101.224087 38.6936028 140.43871 38.6936028 69.611731 113.898024"></polygon>
                    <polygon id="Path-4" fill="#E83ACF" mask="url(#mask-8)" points="140.43871 38.6936028 119.940504 7.7434116e-12 88.4808784 7.58149099e-12 101.224087 38.6936028"></polygon>
                    <polygon id="Path-5" fill="#FD98E8" mask="url(#mask-8)" points="101.224087 38.6936028 34.1159595 38.6936028 46.7032978 -3.55271368e-14 88.4808784 6.65608984e-12"></polygon>
                    <polygon id="Path-6" fill="#FCC8F1" mask="url(#mask-8)" points="34.1159595 38.6936028 -9.9475983e-14 38.6936028 20.8186669 2.12097007e-12 46.7032978 9.50322801e-12"></polygon>
                </g>
                <g id="diamond" transform="translate(179.675365, 95.750316) rotate(6.000000) translate(-179.675365, -95.750316) translate(82.175365, 16.750316)">
                    <mask id="mask-10" fill="white">
                        <use xlink:href="#path-9"></use>
                    </mask>
                    <use id="Path" fill="#FF73E5" xlink:href="#path-9"></use>
                    <polygon id="Path" fill="#FF73E5" mask="url(#mask-10)" points="4.8316906e-13 53.6551293 96.528267 157.938594 47.3074639 53.6551293"></polygon>
                    <polygon id="Path-2" fill="#FA34D9" mask="url(#mask-10)" points="47.3074639 53.6551293 96.528267 157.938594 140.364067 53.6551293"></polygon>
                    <polygon id="Path-3" fill="#BC0BAB" mask="url(#mask-10)" points="140.364067 53.6551293 194.741679 53.6551293 96.528267 157.938594"></polygon>
                    <polygon id="Path-4" fill="#E83ACF" mask="url(#mask-10)" points="194.741679 53.6551293 166.317499 7.8060209e-12 122.693485 7.58149099e-12 140.364067 53.6551293"></polygon>
                    <polygon id="Path-5" fill="#FD98E8" mask="url(#mask-10)" points="140.364067 53.6551293 47.3074639 53.6551293 64.7619063 -3.55271368e-14 122.693485 9.24351508e-12"></polygon>
                    <polygon id="Path-6" fill="#FCC8F1" mask="url(#mask-10)" points="47.3074639 53.6551293 -9.9475983e-14 53.6551293 28.8685514 2.12097007e-12 64.7619063 1.23577011e-11"></polygon>
                </g>
                <g id="diamond" transform="translate(169.504483, 224.361006) rotate(-17.000000) translate(-169.504483, -224.361006) translate(81.504483, 152.861006)">
                    <mask id="mask-12" fill="white">
                        <use xlink:href="#path-11"></use>
                    </mask>
                    <use id="Path" fill="#FF73E5" xlink:href="#path-11"></use>
                    <polygon id="Path" fill="#FF73E5" mask="url(#mask-12)" points="4.8316906e-13 48.2896163 86.8754403 142.144734 42.5767175 48.2896163"></polygon>
                    <polygon id="Path-2" fill="#FA34D9" mask="url(#mask-12)" points="42.5767175 48.2896163 86.8754403 142.144734 126.32766 48.2896163"></polygon>
                    <polygon id="Path-3" fill="#BC0BAB" mask="url(#mask-12)" points="126.32766 48.2896163 175.267511 48.2896163 86.8754403 142.144734"></polygon>
                    <polygon id="Path-4" fill="#E83ACF" mask="url(#mask-12)" points="175.267511 48.2896163 149.685749 7.78356791e-12 110.424136 7.58149099e-12 126.32766 48.2896163"></polygon>
                    <polygon id="Path-5" fill="#FD98E8" mask="url(#mask-12)" points="126.32766 48.2896163 42.5767175 48.2896163 58.2857156 -3.55271368e-14 110.424136 8.31561085e-12"></polygon>
                    <polygon id="Path-6" fill="#FCC8F1" mask="url(#mask-12)" points="42.5767175 48.2896163 -9.9475983e-14 48.2896163 25.9816963 2.12097007e-12 58.2857156 1.1334028e-11"></polygon>
                </g>
                <g id="diamond" transform="translate(384.582571, 167.621242) rotate(23.000000) translate(-384.582571, -167.621242) translate(295.082571, 95.121242)">
                    <mask id="mask-14" fill="white">
                        <use xlink:href="#path-13"></use>
                    </mask>
                    <use id="Path" fill="#FF73E5" xlink:href="#path-13"></use>
                    <polygon id="Path" fill="#FF73E5" mask="url(#mask-14)" points="4.8316906e-13 49.0643161 88.2691639 144.425131 43.2597664 49.0643161"></polygon>
                    <polygon id="Path-2" fill="#FA34D9" mask="url(#mask-14)" points="43.2597664 49.0643161 88.2691639 144.425131 128.354307 49.0643161"></polygon>
                    <polygon id="Path-3" fill="#BC0BAB" mask="url(#mask-14)" points="128.354307 49.0643161 178.079289 49.0643161 88.2691639 144.425131"></polygon>
                    <polygon id="Path-4" fill="#E83ACF" mask="url(#mask-14)" points="178.079289 49.0643161 152.087125 7.78680979e-12 112.195646 7.58149099e-12 128.354307 49.0643161"></polygon>
                    <polygon id="Path-5" fill="#FD98E8" mask="url(#mask-14)" points="128.354307 49.0643161 43.2597664 49.0643161 59.2207806 -3.55271368e-14 112.195646 8.44958633e-12"></polygon>
                    <polygon id="Path-6" fill="#FCC8F1" mask="url(#mask-14)" points="43.2597664 49.0643161 -9.9475983e-14 49.0643161 26.3985149 2.12097007e-12 59.2207806 1.1481831e-11"></polygon>
                </g>
                <g id="diamond" transform="translate(398.644874, 178.781575)">
                    <mask id="mask-16" fill="white">
                        <use xlink:href="#path-15"></use>
                    </mask>
                    <use id="Path" fill="#FF73E5" xlink:href="#path-15"></use>
                    <polygon id="Path" fill="#FF73E5" mask="url(#mask-16)" points="4.8316906e-13 30.9879891 55.7489456 91.2158722 27.3219577 30.9879891"></polygon>
                    <polygon id="Path-2" fill="#FA34D9" mask="url(#mask-16)" points="27.3219577 30.9879891 55.7489456 91.2158722 81.0658784 30.9879891"></polygon>
                    <polygon id="Path-3" fill="#BC0BAB" mask="url(#mask-16)" points="81.0658784 30.9879891 112.47113 30.9879891 55.7489456 91.2158722"></polygon>
                    <polygon id="Path-4" fill="#E83ACF" mask="url(#mask-16)" points="112.47113 30.9879891 96.0550262 7.71116602e-12 70.8604083 7.58149099e-12 81.0658784 30.9879891"></polygon>
                    <polygon id="Path-5" fill="#FD98E8" mask="url(#mask-16)" points="81.0658784 30.9879891 27.3219577 30.9879891 37.4025983 -3.55271368e-14 70.8604083 5.3234919e-12"></polygon>
                    <polygon id="Path-6" fill="#FCC8F1" mask="url(#mask-16)" points="27.3219577 30.9879891 -9.9475983e-14 30.9879891 16.6727463 2.12097007e-12 37.4025983 8.03309279e-12"></polygon>
                </g>
                <g id="diamond" transform="translate(53.938072, 197.525047) rotate(-11.000000) translate(-53.938072, -197.525047) translate(6.938072, 159.025047)">
                    <mask id="mask-18" fill="white">
                        <use xlink:href="#path-17"></use>
                    </mask>
                    <use id="Path" fill="#FF73E5" xlink:href="#path-17"></use>
                    <polygon id="Path" fill="#FF73E5" mask="url(#mask-18)" points="4.8316906e-13 25.8233242 46.4574547 76.0132268 22.7682981 25.8233242"></polygon>
                    <polygon id="Path-2" fill="#FA34D9" mask="url(#mask-18)" points="22.7682981 25.8233242 46.4574547 76.0132268 67.5548986 25.8233242"></polygon>
                    <polygon id="Path-3" fill="#BC0BAB" mask="url(#mask-18)" points="67.5548986 25.8233242 93.7259416 25.8233242 46.4574547 76.0132268"></polygon>
                    <polygon id="Path-4" fill="#E83ACF" mask="url(#mask-18)" points="93.7259416 25.8233242 80.0458551 7.68955351e-12 59.0503403 7.58149099e-12 67.5548986 25.8233242"></polygon>
                    <polygon id="Path-5" fill="#FD98E8" mask="url(#mask-18)" points="67.5548986 25.8233242 22.7682981 25.8233242 31.1688319 -3.55271368e-14 59.0503403 4.43032206e-12"></polygon>
                    <polygon id="Path-6" fill="#FCC8F1" mask="url(#mask-18)" points="22.7682981 25.8233242 -9.9475983e-14 25.8233242 13.8939552 2.12097007e-12 31.1688319 7.047739e-12"></polygon>
                </g>
                <g id="diamond" transform="translate(255.006313, 98.983446) rotate(-8.000000) translate(-255.006313, -98.983446) translate(194.006313, 49.483446)">
                    <mask id="mask-20" fill="white">
                        <use xlink:href="#path-19"></use>
                    </mask>
                    <use id="Path" fill="#FF73E5" xlink:href="#path-19"></use>
                    <polygon id="Path" fill="#FF73E5" mask="url(#mask-20)" points="4.8316906e-13 33.5703215 60.3946911 98.8171949 29.5987875 33.5703215"></polygon>
                    <polygon id="Path-2" fill="#FA34D9" mask="url(#mask-20)" points="29.5987875 33.5703215 60.3946911 98.8171949 87.8213682 33.5703215"></polygon>
                    <polygon id="Path-3" fill="#BC0BAB" mask="url(#mask-20)" points="87.8213682 33.5703215 121.843724 33.5703215 60.3946911 98.8171949"></polygon>
                    <polygon id="Path-4" fill="#E83ACF" mask="url(#mask-20)" points="121.843724 33.5703215 104.059612 7.72197227e-12 76.7654423 7.58149099e-12 87.8213682 33.5703215"></polygon>
                    <polygon id="Path-5" fill="#FD98E8" mask="url(#mask-20)" points="87.8213682 33.5703215 29.5987875 33.5703215 40.5194815 -3.55271368e-14 76.7654423 5.77007681e-12"></polygon>
                    <polygon id="Path-6" fill="#FCC8F1" mask="url(#mask-20)" points="29.5987875 33.5703215 -9.9475983e-14 33.5703215 18.0621418 2.12097007e-12 40.5194815 8.52576968e-12"></polygon>
                </g>
                <g id="diamond" transform="translate(99.657697, 242.757990) rotate(-33.000000) translate(-99.657697, -242.757990) translate(57.157697, 208.257990)">
                    <mask id="mask-22" fill="white">
                        <use xlink:href="#path-21"></use>
                    </mask>
                    <use id="Path" fill="#FF73E5" xlink:href="#path-21"></use>
                    <polygon id="Path" fill="#FF73E5" mask="url(#mask-22)" points="4.8316906e-13 23.2409918 41.8117092 68.4119042 20.4914683 23.2409918"></polygon>
                    <polygon id="Path-2" fill="#FA34D9" mask="url(#mask-22)" points="20.4914683 23.2409918 41.8117092 68.4119042 60.7994088 23.2409918"></polygon>
                    <polygon id="Path-3" fill="#BC0BAB" mask="url(#mask-22)" points="60.7994088 23.2409918 84.3533474 23.2409918 41.8117092 68.4119042"></polygon>
                    <polygon id="Path-4" fill="#E83ACF" mask="url(#mask-22)" points="84.3533474 23.2409918 72.0412696 7.67874726e-12 53.1453062 7.58149099e-12 60.7994088 23.2409918"></polygon>
                    <polygon id="Path-5" fill="#FD98E8" mask="url(#mask-22)" points="60.7994088 23.2409918 20.4914683 23.2409918 28.0519487 -3.55271368e-14 53.1453062 3.98373714e-12"></polygon>
                    <polygon id="Path-6" fill="#FCC8F1" mask="url(#mask-22)" points="20.4914683 23.2409918 -9.9475983e-14 23.2409918 12.5045597 2.12097007e-12 28.0519487 6.55506211e-12"></polygon>
                </g>
                <g id="diamond" transform="translate(349.480991, 240.094036) rotate(28.000000) translate(-349.480991, -240.094036) translate(278.980991, 182.594036)">
                    <mask id="mask-24" fill="white">
                        <use xlink:href="#path-23"></use>
                    </mask>
                    <use id="Path" fill="#FF73E5" xlink:href="#path-23"></use>
                    <polygon id="Path" fill="#FF73E5" mask="url(#mask-24)" points="4.8316906e-13 38.7349864 69.686182 114.01984 34.1524472 38.7349864"></polygon>
                    <polygon id="Path-2" fill="#FA34D9" mask="url(#mask-24)" points="34.1524472 38.7349864 69.686182 114.01984 101.332348 38.7349864"></polygon>
                    <polygon id="Path-3" fill="#BC0BAB" mask="url(#mask-24)" points="101.332348 38.7349864 140.588912 38.7349864 69.686182 114.01984"></polygon>
                    <polygon id="Path-4" fill="#E83ACF" mask="url(#mask-24)" points="140.588912 38.7349864 120.068783 7.74358478e-12 88.5755104 7.58149099e-12 101.332348 38.7349864"></polygon>
                    <polygon id="Path-5" fill="#FD98E8" mask="url(#mask-24)" points="101.332348 38.7349864 34.1524472 38.7349864 46.7532478 -3.55271368e-14 88.5755104 6.66324665e-12"></polygon>
                    <polygon id="Path-6" fill="#FCC8F1" mask="url(#mask-24)" points="34.1524472 38.7349864 -9.9475983e-14 38.7349864 20.8409328 2.12097007e-12 46.7532478 9.51112347e-12"></polygon>
                </g>
                <g id="diamond" transform="translate(267.054854, 207.463935) rotate(8.000000) translate(-267.054854, -207.463935) translate(160.554854, 120.963935)">
                    <mask id="mask-26" fill="white">
                        <use xlink:href="#path-25"></use>
                    </mask>
                    <use id="Path" fill="#FF73E5" xlink:href="#path-25"></use>
                    <polygon id="Path" fill="#FF73E5" mask="url(#mask-26)" points="4.8316906e-13 58.6852976 105.577792 172.745337 51.7425386 58.6852976"></polygon>
                    <polygon id="Path-2" fill="#FA34D9" mask="url(#mask-26)" points="51.7425386 58.6852976 105.577792 172.745337 153.523198 58.6852976"></polygon>
                    <polygon id="Path-3" fill="#BC0BAB" mask="url(#mask-26)" points="153.523198 58.6852976 212.998711 58.6852976 105.577792 172.745337"></polygon>
                    <polygon id="Path-4" fill="#E83ACF" mask="url(#mask-26)" points="212.998711 58.6852976 181.909765 7.82707058e-12 134.195999 7.58149099e-12 153.523198 58.6852976"></polygon>
                    <polygon id="Path-5" fill="#FD98E8" mask="url(#mask-26)" points="153.523198 58.6852976 51.7425386 58.6852976 70.833335 -3.55271368e-14 134.195999 1.01134253e-11"></polygon>
                    <polygon id="Path-6" fill="#FCC8F1" mask="url(#mask-26)" points="51.7425386 58.6852976 -9.9475983e-14 58.6852976 31.5749781 2.12097007e-12 70.833335 1.33173946e-11"></polygon>
                </g>
            </g>
        </g>
    </g>
</svg>