<?xml version="1.0" encoding="UTF-8"?>
<svg width="512px" height="512px" viewBox="0 0 512 512" version="1.1" xmlns="http://www.w3.org/2000/svg" xmlns:xlink="http://www.w3.org/1999/xlink">
    <!-- Generator: Sketch 59 (86127) - https://sketch.com -->
    <title>ic_diamonds_pack_v2</title>
    <desc>Created with Sketch.</desc>
    <defs>
        <path d="M289.591936,7.7148916 L301.367382,23.9750638 L303.05025,22.6266453 C307.142495,19.3460256 312.705896,18.5780965 317.533848,20.6274406 L420.312768,64.2545041 C425.171066,66.3167289 428.491989,70.8949166 428.943975,76.153389 L431.44032,105.205383 L488.860583,105.205479 C492.193969,105.205479 495.254453,107.047578 496.814898,109.993164 L508.07789,131.253841 C509.881668,134.658758 509.318236,138.834142 506.676479,141.639172 L459.600768,191.624385 C456.192355,195.243454 450.495455,195.414224 446.876386,192.005811 C446.7266,191.864744 446.581695,191.718583 446.441926,191.567584 L427.331851,170.922181 L427.303123,189.938311 C427.295786,194.754793 424.223654,199.032456 419.661885,200.578037 L338.371858,228.120056 C332.486233,230.114176 326.098438,226.959487 324.104319,221.073862 C324.021786,220.830267 323.94763,220.583915 323.881981,220.335239 L313.681099,181.693664 L260.940678,237.694289 C254.485798,244.54811 243.696964,244.871517 236.843143,238.416637 C236.559477,238.149483 236.285054,237.872681 236.020359,237.58672 L174.624393,171.25728 L173.044752,174.455527 L164.565154,221.197705 C163.899567,224.866376 160.385957,227.300857 156.717286,226.63527 C156.565447,226.607723 156.414597,226.574977 156.265002,226.537092 L106.827444,214.016797 C104.031259,213.30865 101.993854,210.902242 101.756601,208.027553 L100.261392,189.910737 C100.057044,187.434731 101.229115,185.046562 103.312728,183.693448 L126.439504,168.673901 L60.3006207,130.16209 C55.1213987,127.146304 52.4302947,121.173165 53.6028051,115.295706 L60.9921818,78.2548762 C62.0020801,73.1925453 65.7107793,69.0939451 70.6473027,67.5846985 L175.73752,35.4553947 C180.705071,33.936662 186.105215,35.2874387 189.7727,38.9661151 L190.039723,39.2337549 L196.894892,20.6866251 C198.138852,17.3205133 201.131077,14.9096243 204.684766,14.4101859 L280.33678,3.77798862 C283.912805,3.27541111 287.473798,4.79016491 289.591936,7.7148916 Z M83.7913139,147.428424 L96.3853035,163.029239 C98.4022425,165.527724 98.6052598,169.032873 96.8902633,171.74751 L66.3292886,220.121937 C64.1165886,223.624381 59.4835492,224.669925 55.9811055,222.457225 C55.8361464,222.365646 55.69437,222.269124 55.5560259,222.167828 L9.83655815,188.691994 C7.25066816,186.798603 6.15334261,183.471483 7.10545438,180.411215 L13.1058383,161.124843 C13.9259044,158.488995 16.1274033,156.516544 18.8371573,155.989821 L76.5232263,144.776785 C79.2500117,144.246752 82.0464645,145.26699 83.7913139,147.428424 Z" id="path-1"></path>
        <filter x="-5.2%" y="-10.4%" width="110.4%" height="121.7%" filterUnits="objectBoundingBox" id="filter-2">
            <feMorphology radius="0.5" operator="dilate" in="SourceAlpha" result="shadowSpreadOuter1"></feMorphology>
            <feOffset dx="0" dy="1" in="shadowSpreadOuter1" result="shadowOffsetOuter1"></feOffset>
            <feGaussianBlur stdDeviation="8" in="shadowOffsetOuter1" result="shadowBlurOuter1"></feGaussianBlur>
            <feColorMatrix values="0 0 0 0 0.980392157   0 0 0 0 0.203921569   0 0 0 0 0.850980392  0 0 0 1 0" type="matrix" in="shadowBlurOuter1"></feColorMatrix>
        </filter>
        <path d="M34.996031,2.27373675e-12 L144.888005,2.27373675e-12 C150.082532,2.28521703e-12 154.851786,2.87060351 157.283479,7.46080818 L174.834975,40.5920294 C177.645864,45.8980251 176.767849,52.4046657 172.65111,56.7758381 L99.2914601,134.669461 C93.9800164,140.309177 85.1023474,140.575294 79.4626314,135.263851 C79.229215,135.044021 79.0034045,134.816252 78.7855978,134.580947 L6.80559124,56.8179798 C2.73440696,52.4197117 1.90726828,45.9207677 4.74694823,40.6429347 L22.6431349,7.38105755 C25.0889878,2.83519209 29.8339492,2.28534315e-12 34.996031,2.27373675e-12 Z" id="path-3"></path>
        <path d="M35.5574647,2.27373675e-12 L147.212412,2.27373675e-12 C152.490273,2.27276723e-12 157.33604,2.91665597 159.806744,7.58050029 L177.639814,41.2432385 C180.495797,46.6343571 179.603697,53.2453823 175.420914,57.6866804 L100.884371,136.829934 C95.4877172,142.560126 86.4676257,142.830513 80.7374329,137.433859 C80.5002719,137.210502 80.2708388,136.97908 80.0495379,136.74 L6.91477185,57.7294982 C2.77827445,53.2606696 1.93786616,46.6574645 4.82310248,41.2949604 L23.0063938,7.49947023 C25.4914849,2.88067646 30.3125687,2.28180565e-12 35.5574647,2.27373675e-12 Z" id="path-5"></path>
        <path d="M22.4573461,2.27373675e-12 L92.97626,2.27373675e-12 C96.3096462,2.28378256e-12 99.3701303,1.84209851 100.930575,4.78768439 L112.193567,26.0483611 C113.997346,29.4532782 113.433914,33.6286625 110.792156,36.4336929 L63.716445,86.4189055 C60.3080319,90.0379746 54.611132,90.208745 50.9920629,86.800332 C50.842277,86.6592647 50.6973719,86.5131031 50.5576029,86.362105 L4.36722432,36.4607357 C1.75469965,33.6383177 1.22391547,29.4678723 3.04616999,26.0810276 L14.530354,4.73650752 C16.0998852,1.8193746 19.1447802,2.27612162e-12 22.4573461,2.27373675e-12 Z" id="path-7"></path>
        <path d="M18.7144551,2.27373675e-12 L77.4802167,2.27373675e-12 C80.2580385,2.26967376e-12 82.8084419,1.53508209 84.1088125,3.989737 L93.4946392,21.7069676 C94.997788,24.5443985 94.5282613,28.0238854 92.3267969,30.3614107 L53.0970375,72.0157546 C50.2566933,75.0316455 45.5092767,75.1739542 42.4933858,72.33361 C42.3685642,72.2160539 42.2478099,72.0942526 42.1313357,71.9684208 L3.6393536,30.3839464 C1.46224971,28.0319314 1.01992956,24.5565603 2.53847499,21.7341897 L12.1086283,3.9470896 C13.416571,1.5161455 15.9539835,2.27690838e-12 18.7144551,2.27373675e-12 Z" id="path-9"></path>
        <path d="M24.3287916,2.27373675e-12 L100.724282,2.27373675e-12 C104.33545,2.27307339e-12 107.650975,1.99560671 109.341456,5.18665809 L121.543031,28.2190579 C123.497124,31.907718 122.88674,36.431051 120.024836,39.469834 L69.0261487,93.620481 C65.3337012,97.5411391 59.1620597,97.7261405 55.2414015,94.033693 C55.0791334,93.8808701 54.9221528,93.7225284 54.7707365,93.5589471 L4.73115968,39.4991303 C1.90092462,36.4415108 1.32590843,31.9235284 3.30001749,28.2544466 L15.7412168,5.13121648 C17.4415423,1.97098915 20.7401786,2.27794869e-12 24.3287916,2.27373675e-12 Z" id="path-11"></path>
        <path d="M16.8430096,2.27373675e-12 L69.732195,2.27373675e-12 C72.2322347,2.28393565e-12 74.5275977,1.38157388 75.6979313,3.5907633 L84.1451753,19.5362708 C85.4980092,22.0899586 85.0754352,25.2214969 83.0941172,27.3252697 L47.7873337,64.8141791 C45.2310239,67.5284809 40.958349,67.6565588 38.2440472,65.100249 C38.1317077,64.9944485 38.0230289,64.8848274 37.9182022,64.7715787 L3.27541824,27.3455518 C1.31602474,25.2287382 0.917936604,22.1009043 2.28462749,19.5607707 L10.8977655,3.55238064 C12.0749139,1.36453095 14.3585852,2.27596949e-12 16.8430096,2.27373675e-12 Z" id="path-13"></path>
        <path d="M28.0716826,2.27373675e-12 L116.220325,2.27373675e-12 C120.387058,2.27652405e-12 124.212663,2.30262313 126.163219,5.98460549 L140.241959,32.5604514 C142.496682,36.8165977 141.792392,42.0358281 138.490195,45.5421161 L79.6455562,108.023632 C75.3850399,112.547468 68.263915,112.760931 63.7400786,108.500415 C63.5528462,108.324081 63.3717148,108.141379 63.1970036,107.952631 L5.45903041,45.5759196 C2.19337457,42.0478971 1.52989434,36.8348404 3.80771248,32.6012845 L18.1629424,5.9206344 C20.1248565,2.27421825 23.9309753,2.2780501e-12 28.0716826,2.27373675e-12 Z" id="path-15"></path>
        <path d="M42.5298988,2.27373675e-12 L176.079173,2.27373675e-12 C182.391966,2.2938934e-12 188.187935,3.48858065 191.143117,9.06695439 L212.47306,49.3305913 C215.88907,55.77885 214.822038,63.6862257 209.819058,68.9984143 L120.666705,163.660803 C114.211825,170.514625 103.422992,170.838031 96.5691701,164.383152 C96.2855043,164.115997 96.0110818,163.839196 95.7463863,163.553234 L8.2706838,69.0496282 C3.32306401,63.7045107 2.31786075,55.8064886 5.7688607,49.3924553 L27.5176987,8.97003521 C30.4900893,3.44554594 36.2565355,2.27488915e-12 42.5298988,2.27373675e-12 Z" id="path-17"></path>
    </defs>
    <g id="ic_diamonds_pack_v2" stroke="none" stroke-width="1" fill="none" fill-rule="evenodd">
        <g id="gems_pack_02" transform="translate(0.000000, 123.000000)">
            <g id="Shape">
                <use fill="black" fill-opacity="1" filter="url(#filter-2)" xlink:href="#path-1"></use>
                <use fill="#FF73E5" fill-rule="evenodd" xlink:href="#path-1"></use>
            </g>
            <g id="diamods_pack_02">
                <g id="diamond" transform="translate(144.590994, 121.313341) rotate(-17.000000) translate(-144.590994, -121.313341) translate(54.590994, 48.313341)">
                    <mask id="mask-4" fill="white">
                        <use xlink:href="#path-3"></use>
                    </mask>
                    <use id="Path" fill="#FF73E5" xlink:href="#path-3"></use>
                    <polygon id="Path" fill="#FF73E5" mask="url(#mask-4)" points="4.8316906e-13 49.4656192 88.9911283 145.606402 43.6135934 49.4656192"></polygon>
                    <polygon id="Path-2" fill="#FA34D9" mask="url(#mask-4)" points="43.6135934 49.4656192 88.9911283 145.606402 129.404133 49.4656192"></polygon>
                    <polygon id="Path-3" fill="#BC0BAB" mask="url(#mask-4)" points="129.404133 49.4656192 179.535821 49.4656192 88.9911283 145.606402"></polygon>
                    <polygon id="Path-4" fill="#E83ACF" mask="url(#mask-4)" points="179.535821 49.4656192 153.331064 7.78848911e-12 113.113309 7.58149099e-12 129.404133 49.4656192"></polygon>
                    <polygon id="Path-5" fill="#FD98E8" mask="url(#mask-4)" points="129.404133 49.4656192 43.6135934 49.4656192 59.7051547 -3.55271368e-14 113.113309 8.51898712e-12"></polygon>
                    <polygon id="Path-6" fill="#FCC8F1" mask="url(#mask-4)" points="43.6135934 49.4656192 -9.9475983e-14 49.4656192 26.6144316 2.12097007e-12 59.7051547 1.15583947e-11"></polygon>
                </g>
                <g id="diamond" transform="translate(340.115120, 110.603290) rotate(23.000000) translate(-340.115120, -110.603290) translate(248.615120, 36.603290)">
                    <mask id="mask-6" fill="white">
                        <use xlink:href="#path-5"></use>
                    </mask>
                    <use id="Path" fill="#FF73E5" xlink:href="#path-5"></use>
                    <polygon id="Path" fill="#FF73E5" mask="url(#mask-6)" points="4.8316906e-13 50.2591852 90.4187935 147.942334 44.3132767 50.2591852"></polygon>
                    <polygon id="Path-2" fill="#FA34D9" mask="url(#mask-6)" points="44.3132767 50.2591852 90.4187935 147.942334 131.480135 50.2591852"></polygon>
                    <polygon id="Path-3" fill="#BC0BAB" mask="url(#mask-6)" points="131.480135 50.2591852 182.416075 50.2591852 90.4187935 147.942334"></polygon>
                    <polygon id="Path-4" fill="#E83ACF" mask="url(#mask-6)" points="182.416075 50.2591852 155.790921 7.79180994e-12 114.927961 7.58149099e-12 131.480135 50.2591852"></polygon>
                    <polygon id="Path-5" fill="#FD98E8" mask="url(#mask-6)" points="131.480135 50.2591852 44.3132767 50.2591852 60.6629914 -3.55271368e-14 114.927961 8.65622532e-12"></polygon>
                    <polygon id="Path-6" fill="#FCC8F1" mask="url(#mask-6)" points="44.3132767 50.2591852 -9.9475983e-14 50.2591852 27.0414011 2.12097007e-12 60.6629914 1.17097972e-11"></polygon>
                </g>
                <g id="diamond" transform="translate(395.884323, 105.205479)">
                    <mask id="mask-8" fill="white">
                        <use xlink:href="#path-7"></use>
                    </mask>
                    <use id="Path" fill="#FF73E5" xlink:href="#path-7"></use>
                    <polygon id="Path" fill="#FF73E5" mask="url(#mask-8)" points="4.8316906e-13 31.7426433 57.1066064 93.4372633 27.9873327 31.7426433"></polygon>
                    <polygon id="Path-2" fill="#FA34D9" mask="url(#mask-8)" points="27.9873327 31.7426433 57.1066064 93.4372633 83.0400855 31.7426433"></polygon>
                    <polygon id="Path-3" fill="#BC0BAB" mask="url(#mask-8)" points="83.0400855 31.7426433 115.210153 31.7426433 57.1066064 93.4372633"></polygon>
                    <polygon id="Path-4" fill="#E83ACF" mask="url(#mask-8)" points="115.210153 31.7426433 98.3942658 7.71432401e-12 72.5860803 7.58149099e-12 83.0400855 31.7426433"></polygon>
                    <polygon id="Path-5" fill="#FD98E8" mask="url(#mask-8)" points="83.0400855 31.7426433 27.9873327 31.7426433 38.3134682 -3.55271368e-14 72.5860803 5.45400073e-12"></polygon>
                    <polygon id="Path-6" fill="#FCC8F1" mask="url(#mask-8)" points="27.9873327 31.7426433 -9.9475983e-14 31.7426433 17.0787797 2.12097007e-12 38.3134682 8.17707143e-12"></polygon>
                </g>
                <g id="diamond" transform="translate(55.517009, 188.589931) rotate(-11.000000) translate(-55.517009, -188.589931) translate(7.017009, 149.589931)">
                    <mask id="mask-10" fill="white">
                        <use xlink:href="#path-9"></use>
                    </mask>
                    <use id="Path" fill="#FF73E5" xlink:href="#path-9"></use>
                    <polygon id="Path" fill="#FF73E5" mask="url(#mask-10)" points="4.8316906e-13 26.4522028 47.5888387 77.8643861 23.3227772 26.4522028"></polygon>
                    <polygon id="Path-2" fill="#FA34D9" mask="url(#mask-10)" points="23.3227772 26.4522028 47.5888387 77.8643861 69.2000712 26.4522028"></polygon>
                    <polygon id="Path-3" fill="#BC0BAB" mask="url(#mask-10)" points="69.2000712 26.4522028 96.0084607 26.4522028 47.5888387 77.8643861"></polygon>
                    <polygon id="Path-4" fill="#E83ACF" mask="url(#mask-10)" points="96.0084607 26.4522028 81.9952215 7.69218517e-12 60.4884003 7.58149099e-12 69.2000712 26.4522028"></polygon>
                    <polygon id="Path-5" fill="#FD98E8" mask="url(#mask-10)" points="69.2000712 26.4522028 23.3227772 26.4522028 31.9278902 -3.55271368e-14 60.4884003 4.53907942e-12"></polygon>
                    <polygon id="Path-6" fill="#FCC8F1" mask="url(#mask-10)" points="23.3227772 26.4522028 -9.9475983e-14 26.4522028 14.2323164 2.12097007e-12 31.9278902 7.1677212e-12"></polygon>
                </g>
                <g id="diamond" transform="translate(249.582323, 59.601452) rotate(-8.000000) translate(-249.582323, -59.601452) translate(187.082323, 8.601452)">
                    <mask id="mask-12" fill="white">
                        <use xlink:href="#path-11"></use>
                    </mask>
                    <use id="Path" fill="#FF73E5" xlink:href="#path-11"></use>
                    <polygon id="Path" fill="#FF73E5" mask="url(#mask-12)" points="4.8316906e-13 34.3878636 61.8654903 101.223702 30.3196104 34.3878636"></polygon>
                    <polygon id="Path-2" fill="#FA34D9" mask="url(#mask-12)" points="30.3196104 34.3878636 61.8654903 101.223702 89.9600926 34.3878636"></polygon>
                    <polygon id="Path-3" fill="#BC0BAB" mask="url(#mask-12)" points="89.9600926 34.3878636 124.810999 34.3878636 61.8654903 101.223702"></polygon>
                    <polygon id="Path-4" fill="#E83ACF" mask="url(#mask-12)" points="124.810999 34.3878636 106.593788 7.72539343e-12 78.6349204 7.58149099e-12 89.9600926 34.3878636"></polygon>
                    <polygon id="Path-5" fill="#FD98E8" mask="url(#mask-12)" points="89.9600926 34.3878636 30.3196104 34.3878636 41.5062573 -3.55271368e-14 78.6349204 5.91146139e-12"></polygon>
                    <polygon id="Path-6" fill="#FCC8F1" mask="url(#mask-12)" points="30.3196104 34.3878636 -9.9475983e-14 34.3878636 18.5020113 2.12097007e-12 41.5062573 8.68174654e-12"></polygon>
                </g>
                <g id="diamond" transform="translate(145.003847, 198.947815) rotate(-33.000000) translate(-145.003847, -198.947815) translate(101.503847, 163.447815)">
                    <mask id="mask-14" fill="white">
                        <use xlink:href="#path-13"></use>
                    </mask>
                    <use id="Path" fill="#FF73E5" xlink:href="#path-13"></use>
                    <polygon id="Path" fill="#FF73E5" mask="url(#mask-14)" points="4.8316906e-13 23.8069825 42.8299548 70.0779475 20.9904995 23.8069825"></polygon>
                    <polygon id="Path-2" fill="#FA34D9" mask="url(#mask-14)" points="20.9904995 23.8069825 42.8299548 70.0779475 62.2800641 23.8069825"></polygon>
                    <polygon id="Path-3" fill="#BC0BAB" mask="url(#mask-14)" points="62.2800641 23.8069825 86.4076146 23.8069825 42.8299548 70.0779475"></polygon>
                    <polygon id="Path-4" fill="#E83ACF" mask="url(#mask-14)" points="86.4076146 23.8069825 73.7956993 7.68111576e-12 54.4395603 7.58149099e-12 62.2800641 23.8069825"></polygon>
                    <polygon id="Path-5" fill="#FD98E8" mask="url(#mask-14)" points="62.2800641 23.8069825 20.9904995 23.8069825 28.7351012 -3.55271368e-14 54.4395603 4.08161876e-12"></polygon>
                    <polygon id="Path-6" fill="#FCC8F1" mask="url(#mask-14)" points="20.9904995 23.8069825 -9.9475983e-14 23.8069825 12.8090847 2.12097007e-12 28.7351012 6.66304609e-12"></polygon>
                </g>
                <g id="diamond" transform="translate(355.312643, 181.038649) rotate(28.000000) translate(-355.312643, -181.038649) translate(282.812643, 122.538649)">
                    <mask id="mask-16" fill="white">
                        <use xlink:href="#path-15"></use>
                    </mask>
                    <use id="Path" fill="#FF73E5" xlink:href="#path-15"></use>
                    <polygon id="Path" fill="#FF73E5" mask="url(#mask-16)" points="4.8316906e-13 39.6783041 71.383258 116.796579 34.9841658 39.6783041"></polygon>
                    <polygon id="Path-2" fill="#FA34D9" mask="url(#mask-16)" points="34.9841658 39.6783041 71.383258 116.796579 103.800107 39.6783041"></polygon>
                    <polygon id="Path-3" fill="#BC0BAB" mask="url(#mask-16)" points="103.800107 39.6783041 144.012691 39.6783041 71.383258 116.796579"></polygon>
                    <polygon id="Path-4" fill="#E83ACF" mask="url(#mask-16)" points="144.012691 39.6783041 122.992832 7.74753227e-12 90.7326004 7.58149099e-12 103.800107 39.6783041"></polygon>
                    <polygon id="Path-5" fill="#FD98E8" mask="url(#mask-16)" points="103.800107 39.6783041 34.9841658 39.6783041 47.8918353 -3.55271368e-14 90.7326004 6.8263827e-12"></polygon>
                    <polygon id="Path-6" fill="#FCC8F1" mask="url(#mask-16)" points="34.9841658 39.6783041 -9.9475983e-14 39.6783041 21.3484746 2.12097007e-12 47.8918353 9.69109677e-12"></polygon>
                </g>
                <g id="diamond" transform="translate(140.273973, 74.033486)">
                    <mask id="mask-18" fill="white">
                        <use xlink:href="#path-17"></use>
                    </mask>
                    <use id="Path" fill="#FF73E5" xlink:href="#path-17"></use>
                    <polygon id="Path" fill="#FF73E5" mask="url(#mask-18)" points="4.8316906e-13 60.1144677 108.148941 176.952225 53.0026309 60.1144677"></polygon>
                    <polygon id="Path-2" fill="#FA34D9" mask="url(#mask-18)" points="53.0026309 60.1144677 108.148941 176.952225 157.261967 60.1144677"></polygon>
                    <polygon id="Path-3" fill="#BC0BAB" mask="url(#mask-18)" points="157.261967 60.1144677 218.185894 60.1144677 108.148941 176.952225"></polygon>
                    <polygon id="Path-4" fill="#E83ACF" mask="url(#mask-18)" points="218.185894 60.1144677 186.339835 7.83305121e-12 137.46409 7.58149099e-12 157.261967 60.1144677"></polygon>
                    <polygon id="Path-5" fill="#FD98E8" mask="url(#mask-18)" points="157.261967 60.1144677 53.0026309 60.1144677 72.5583477 -3.55271368e-14 137.46409 1.03605839e-11"></polygon>
                    <polygon id="Path-6" fill="#FCC8F1" mask="url(#mask-18)" points="53.0026309 60.1144677 -9.9475983e-14 60.1144677 32.3439273 2.12097007e-12 72.5583477 1.35900625e-11"></polygon>
                </g>
            </g>
        </g>
    </g>
</svg>