<?xml version="1.0" encoding="UTF-8"?>
<svg width="512px" height="512px" viewBox="0 0 512 512" version="1.1" xmlns="http://www.w3.org/2000/svg" xmlns:xlink="http://www.w3.org/1999/xlink">
    <!-- Generator: Sketch 59 (86127) - https://sketch.com -->
    <title>ic_elixir_red</title>
    <desc>Created with Sketch.</desc>
    <g id="ic_elixir_red" stroke="none" stroke-width="1" fill="none" fill-rule="evenodd">
        <g id="elexir">
            <path d="M383.220799,38.1797323 L481.117549,38.1797323 C492.471594,38.1797323 501.675866,47.3840045 501.675866,58.7380497 L501.675866,119.434034 L501.675866,119.434034 L362.662482,119.434034 L362.662482,58.7380497 C362.662482,47.3840045 371.866754,38.1797323 383.220799,38.1797323 Z" id="Rectangle" fill="#FF8A3C" transform="translate(432.169174, 78.806883) rotate(45.000000) translate(-432.169174, -78.806883) "></path>
            <rect id="Rectangle" fill="#8DB9C4" transform="translate(370.049713, 140.995917) rotate(45.000000) translate(-370.049713, -140.995917) " x="247.678776" y="92.0475423" width="244.741874" height="97.8967495" rx="48.9483748"></rect>
            <path d="M275.483431,111.938947 L400.085651,236.541167 L378.501861,258.127079 C384.456653,276.754521 387.671128,296.606903 387.671128,317.210066 C387.671128,424.262492 300.88799,511.04563 193.835564,511.04563 C86.7831381,511.04563 0,424.262492 0,317.210066 C0,210.15764 86.7831381,123.374502 193.835564,123.374502 C214.985016,123.374502 235.343346,126.7617 254.397669,133.023211 L275.483431,111.938947 Z" id="Path" fill="#A8EBFA"></path>
            <path d="M193.835564,448.391711 C266.285186,448.391711 325.017208,389.659688 325.017208,317.210066 L256,247.226562 L193.835564,186.028422 C121.385942,186.028422 62.6539197,244.760445 62.6539197,317.210066 C62.6539197,389.659688 121.385942,448.391711 193.835564,448.391711 Z" id="Oval" fill="#DD0404"></path>
            <circle id="Oval" fill="#9E0000" cx="170.340344" cy="287.767972" r="11.7476099"></circle>
            <circle id="Oval" fill="#9E0000" cx="260.894837" cy="322.521318" r="18.1108987"></circle>
            <circle id="Oval" fill="#9E0000" cx="189.919694" cy="354.337762" r="13.7055449"></circle>
            <circle id="Oval" fill="#9E0000" cx="133.139579" cy="338.674282" r="6.85277247"></circle>
        </g>
    </g>
</svg>