<?xml version="1.0" encoding="UTF-8"?>
<svg width="512px" height="512px" viewBox="0 0 512 512" version="1.1" xmlns="http://www.w3.org/2000/svg" xmlns:xlink="http://www.w3.org/1999/xlink">
    <!-- Generator: Sketch 59 (86127) - https://sketch.com -->
    <title>ic_gift_green</title>
    <desc>Created with Sketch.</desc>
    <g id="ic_gift_green" stroke="none" stroke-width="1" fill="none" fill-rule="evenodd">
        <g id="gift_box_v2">
            <path d="M96.9141628,158.618595 C35.2415137,158.618595 8.52651283e-14,79.3251891 8.52651283e-14,79.3251891 L44.0518922,79.3251891 L44.0518922,35.2732969 L220.259461,185.04973 L96.9141628,158.618595 Z" id="Shape" fill="#FDB876" fill-rule="nonzero"></path>
            <path d="M290.742488,185.04973 L466.950057,35.2732969 L466.950057,79.3251891 L511.001949,79.3251891 C511.001949,79.3251891 475.760436,158.618595 414.087787,158.618595 L290.742488,185.04973 Z" id="Shape" fill="#FDB876" fill-rule="nonzero"></path>
            <path d="M264.425888,158.618595 L255.500975,105.756324 C255.500975,105.756324 238.576238,5.45016588 155.247678,0.243232228 C150.501276,0.006674096 145.783307,1.10224386 141.626833,3.40615809 C127.213054,11.1945326 93.9186341,32.7270975 81.1435854,70.9905711 C77.6881286,81.1912131 79.1006015,92.4130662 84.9761,101.439239 C99.0110329,122.918942 131.010327,162.988543 175.176754,164.230806 L264.425888,158.618595 Z" id="Shape" fill="#FFE584" fill-rule="nonzero"></path>
            <path d="M213.827885,128.575205 C175.846343,105.500823 163.20345,59.0260772 159.732161,41.8546496 C159.42809,40.3258734 159.954554,38.7502247 161.116556,37.7112999 C162.27856,36.6723751 163.903081,36.3248689 165.388424,36.7974924 C206.339063,48.3302777 224.003872,97.5891036 228.100698,111.130655 L213.827885,128.575205 Z" id="Shape" fill="#FDB876" fill-rule="nonzero"></path>
            <path d="M246.576061,158.618595 L255.500975,105.703462 C255.500975,105.703462 272.425712,5.31801021 355.754271,0.0317831459 C360.501853,-0.205875227 365.220901,0.892997638 369.375116,3.20351938 C383.788895,11.0447562 417.083315,32.6301834 429.858364,70.8936569 C433.310602,81.1062961 431.898613,92.3372907 426.025849,101.377566 C411.753036,123.262546 378.863894,164.398203 333.516876,164.266365 L246.576061,158.618595 Z" id="Shape" fill="#FFE584" fill-rule="nonzero"></path>
            <path d="M282.901252,111.130655 C286.998078,97.5891036 304.662886,48.3302777 345.613525,36.7974924 C347.098868,36.3248689 348.72339,36.6723751 349.885393,37.7112999 C351.047396,38.7502247 351.573859,40.3258734 351.269788,41.8546496 C347.798499,59.0260772 335.155606,105.500823 297.174065,128.575205 L282.901252,111.130655 Z" id="Shape" fill="#FDB876" fill-rule="nonzero"></path>
            <path d="M246.690596,105.756324 L264.311353,105.756324 C283.774704,105.756324 299.552867,121.534488 299.552867,140.997838 L299.552867,158.618595 L211.449082,158.618595 L211.449082,140.997838 C211.449082,121.534488 227.227246,105.756324 246.690596,105.756324 Z" id="Shape" fill="#FFDA4F" fill-rule="nonzero"></path>
            <path d="M449.3293,237.912001 L449.3293,493.412976 C449.3293,503.144651 441.440219,511.033732 431.708543,511.033732 L79.2934059,511.033732 C69.5617306,511.033732 61.6726491,503.144651 61.6726491,493.412976 L61.6726491,237.912001 L449.3293,237.912001 Z" id="Shape" fill="#B0DD04" fill-rule="nonzero"></path>
            <circle id="Oval" fill="#E6FF82" cx="96" cy="318" r="26"></circle>
            <circle id="Oval" fill="#E6FF82" cx="171" cy="415" r="41"></circle>
            <circle id="Oval" fill="#E6FF82" cx="364" cy="318" r="56"></circle>
            <circle id="Oval" fill="#E6FF82" cx="409" cy="433" r="23"></circle>
            <circle id="Oval" fill="#E6FF82" cx="324" cy="480" r="16"></circle>
            <polygon id="Rectangle-path" fill="#FFE584" fill-rule="nonzero" points="220.259461 237.912001 290.742488 237.912001 290.742488 511.033732 220.259461 511.033732"></polygon>
            <path d="M61.6726491,158.618595 L449.3293,158.618595 C459.060976,158.618595 466.950057,166.507677 466.950057,176.239352 L466.950057,237.912001 C466.950057,242.777838 463.005516,246.722379 458.139679,246.722379 L52.8622706,246.722379 C47.996433,246.722379 44.0518922,242.777838 44.0518922,237.912001 L44.0518922,176.239352 C44.0518922,166.507677 51.9409738,158.618595 61.6726491,158.618595 Z" id="Shape" fill="#7CCA02" fill-rule="nonzero"></path>
            <polygon id="Rectangle-path" fill="#FFE584" fill-rule="nonzero" points="202.638704 158.618595 308.363245 158.618595 308.363245 246.722379 202.638704 246.722379"></polygon>
        </g>
    </g>
</svg>