<?xml version="1.0" encoding="UTF-8"?>
<svg width="512px" height="512px" viewBox="0 0 512 512" version="1.1" xmlns="http://www.w3.org/2000/svg" xmlns:xlink="http://www.w3.org/1999/xlink">
    <!-- Generator: Sketch 59 (86127) - https://sketch.com -->
    <title>ic_gold_v3</title>
    <desc>Created with Sketch.</desc>
    <g id="ic_gold_v3" stroke="none" stroke-width="1" fill="none" fill-rule="evenodd">
        <path d="M291.979264,170 C296.768173,170 301.024263,173.003277 302.640206,177.471354 L302.7722,177.857883 L322.177056,238.22152 C323.56122,242.527735 322.262644,247.335015 318.653193,250.370881 C316.681024,252.026997 314.172923,252.894626 311.603769,252.99097 L311.121453,253 L355.06644,253 C359.855349,253 364.10865,256.003277 365.724437,260.471354 L365.856425,260.857883 L385.26128,321.22152 C386.645444,325.527735 385.34982,330.335015 381.737418,333.370881 C379.768027,335.026997 377.260089,335.894626 374.690945,335.99097 L374.208629,336 L418.153616,336 C422.942525,336 427.195825,339.003277 428.811613,343.471354 L428.943601,343.857883 L448.348456,404.22152 C449.73262,408.527735 448.436996,413.335015 444.824594,416.370881 C442.855203,418.026997 440.347265,418.894626 437.77812,418.99097 L437.295805,419 L481.440123,419 C489.876562,419 497.19847,424.810709 499.104222,433.018333 L511.68484,487.200101 C513.192988,493.695338 509.143259,500.181764 502.639517,501.687939 C501.744109,501.895303 500.827941,502 499.908774,502 L12.0885352,502 C5.41222158,502 0,496.594856 0,489.927273 C0,488.688532 0.190897401,487.45717 0.565988568,486.276427 L17.9248377,431.632822 C20.3144501,424.110605 27.3066151,419 35.2086577,419 L73.6561993,419 C70.9203366,419 68.2169378,418.130504 66.1244593,416.370881 C62.624945,413.429885 61.2996724,408.82646 62.4786716,404.626626 L62.6005971,404.22152 L82.0054523,343.857883 C83.4688092,339.307359 87.6297331,336.177679 92.3863199,336.007319 L92.7954371,336 L136.743375,336 C134.007513,336 131.307065,335.130504 129.214587,333.370881 C125.715073,330.429885 124.389799,325.82646 125.568799,321.626626 L125.690724,321.22152 L145.095579,260.857883 C146.558937,256.307359 150.719861,253.177679 155.476447,253.007319 L155.885564,253 L199.830551,253 C197.094688,253 194.394241,252.130504 192.298811,250.370881 C188.802156,247.429885 187.474203,242.82646 188.653032,238.626626 L188.774949,238.22152 L208.179804,177.857883 C209.643161,173.307359 213.806875,170.177679 218.563616,170.007319 L218.97274,170 L291.979264,170 Z M165.160411,419 L102.16233,419 C110.59877,419 117.920677,424.810709 119.826429,433.018333 L131.485487,483.228418 L147.876591,431.632822 C150.266204,424.110605 157.258369,419 165.160411,419 Z M414.486451,419 L354.510503,419 C362.946943,419 370.26885,424.810709 372.174602,433.018333 L382.556808,477.732309 L397.202631,431.632822 C399.592243,424.110605 406.584408,419 414.486451,419 Z M287.556831,419 L232.114084,419 C240.550523,419 247.872431,424.810709 249.778183,433.018333 L258.245867,469.488145 L270.273011,431.632822 C272.662623,424.110605 279.654788,419 287.556831,419 Z M218.969789,336 L165.804913,336 C170.593822,336 174.847122,339.003277 176.46291,343.471354 L176.594897,343.857883 L192.387351,392.982919 L208.179804,343.857883 C209.643161,339.307359 213.804085,336.177679 218.560672,336.007319 L218.969789,336 Z M345.144141,336 L291.979264,336 C296.768173,336 301.021474,339.003277 302.637261,343.471354 L302.769249,343.857883 L318.561703,392.982919 L334.354156,343.857883 C335.817513,339.307359 339.978437,336.177679 344.735024,336.007319 L345.144141,336 Z M282.056965,253 L228.892089,253 C233.680997,253 237.934298,256.003277 239.550085,260.471354 L239.682073,260.857883 L255.474527,309.982919 L271.26698,260.857883 C272.730337,256.307359 276.891261,253.177679 281.647848,253.007319 L282.056965,253 Z M101.008683,153.711096 L106.499761,163.758993 C111.98168,173.779411 120.220589,182.01832 130.241007,187.500239 L140.288904,192.995898 C150.570365,198.619789 150.570365,213.384792 140.288904,219.008683 L130.241007,224.504342 C120.220589,229.981682 111.98168,238.22517 106.499761,248.245588 L101.008683,258.288904 C95.3847908,268.570365 80.615208,268.570365 74.9913172,258.288904 L69.5002389,248.245588 C64.0183184,238.22517 55.7794096,229.981682 45.7589929,224.504342 L35.7110961,219.008683 C25.4296346,213.384792 25.4296346,198.619789 35.7110961,192.995898 L45.7589929,187.500239 C55.7794096,182.01832 64.0183184,173.779411 69.5002389,163.758993 L74.9913172,153.711096 C80.615208,143.429635 95.3847908,143.429635 101.008683,153.711096 Z M427.008683,153.711096 L432.499761,163.758993 C437.98168,173.779411 446.220589,182.01832 456.241007,187.500239 L466.288904,192.995898 C476.570365,198.619789 476.570365,213.384792 466.288904,219.008683 L456.241007,224.504342 C446.220589,229.981682 437.98168,238.22517 432.499761,248.245588 L427.008683,258.288904 C421.384791,268.570365 406.615208,268.570365 400.991317,258.288904 L395.500239,248.245588 C390.018318,238.22517 381.77941,229.981682 371.758993,224.504342 L361.711096,219.008683 C351.429635,213.384792 351.429635,198.619789 361.711096,192.995898 L371.758993,187.500239 C381.77941,182.01832 390.018318,173.779411 395.500239,163.758993 L400.991317,153.711096 C406.615208,143.429635 421.384791,143.429635 427.008683,153.711096 Z M179.008683,17.7110961 L184.499761,27.7589929 C189.98168,37.7794108 198.220589,46.0183196 208.241007,51.5002389 L218.288904,56.9958978 C228.570365,62.6197886 228.570365,77.384792 218.288904,83.0086828 L208.241007,88.5043417 C198.220589,93.9816816 189.98168,102.22517 184.499761,112.245588 L179.008683,122.288904 C173.384791,132.570365 158.615208,132.570365 152.991317,122.288904 L147.500239,112.245588 C142.018318,102.22517 133.77941,93.9816816 123.758993,88.5043417 L113.711096,83.0086828 C103.429635,77.384792 103.429635,62.6197886 113.711096,56.9958978 L123.758993,51.5002389 C133.77941,46.0183196 142.018318,37.7794108 147.500239,27.7589929 L152.991317,17.7110961 C158.615208,7.42963465 173.384791,7.42963465 179.008683,17.7110961 Z M349.008683,17.7110961 L354.499761,27.7589929 C359.98168,37.7794108 368.220589,46.0183196 378.241007,51.5002389 L388.288904,56.9958978 C398.570365,62.6197886 398.570365,77.384792 388.288904,83.0086828 L378.241007,88.5043417 C368.220589,93.9816816 359.98168,102.22517 354.499761,112.245588 L349.008683,122.288904 C343.384791,132.570365 328.615208,132.570365 322.991317,122.288904 L317.500239,112.245588 C312.018318,102.22517 303.77941,93.9816816 293.758993,88.5043417 L283.711096,83.0086828 C273.429635,77.384792 273.429635,62.6197886 283.711096,56.9958978 L293.758993,51.5002389 C303.77941,46.0183196 312.018318,37.7794108 317.500239,27.7589929 L322.991317,17.7110961 C328.615208,7.42963465 343.384791,7.42963465 349.008683,17.7110961 Z" id="Combined-Shape" fill="#FFCD00" fill-rule="nonzero"></path>
    </g>
</svg>