<?xml version="1.0" encoding="UTF-8"?>
<svg width="512px" height="512px" viewBox="0 0 512 512" version="1.1" xmlns="http://www.w3.org/2000/svg" xmlns:xlink="http://www.w3.org/1999/xlink">
    <!-- Generator: Sketch 59 (86127) - https://sketch.com -->
    <title>ic_gold_v1</title>
    <desc>Created with Sketch.</desc>
    <g id="ic_gold_v1" stroke="none" stroke-width="1" fill="none" fill-rule="evenodd">
        <path d="M211.604619,187.5067 L297.993071,187.5067 C311.363062,185.627553 323.385496,193.339137 328.349035,205.763295 L376.464894,326.188845 C380.753566,336.922316 372.854354,348.595904 361.304327,348.595904 L422.119664,348.595904 C435.467885,348.595904 447.469637,356.729071 452.425558,369.13362 L500.554478,489.592941 C504.84315,500.326411 496.943938,512 485.393912,512 L272.384035,512 C264.314594,512 258.027165,506.30143 256.433442,499.206204 C254.839869,506.301425 248.552228,512 240.482407,512 L27.472531,512 C15.9225044,512 8.02329204,500.325322 12.3130531,489.590762 L60.4485044,369.148871 C65.4098673,356.735607 77.4235929,348.595904 90.7826991,348.595904 L148.29554,348.595904 C136.745513,348.595904 128.846301,336.921226 133.136062,326.186667 L181.271513,205.744776 C186.232876,193.331511 198.245513,185.627553 211.604619,187.5067 Z M335.694204,348.595904 L177.208159,348.595904 C190.556381,348.595904 202.558133,356.729071 207.514053,369.13362 L255.642973,489.592941 C255.980789,490.438408 256.242983,491.289708 256.43373,492.140677 C256.623973,491.289032 256.886392,490.436976 257.224558,489.590762 L305.360009,369.148871 C310.321372,356.735607 322.335097,348.595904 335.694204,348.595904 Z M450.850159,115.15762 L456.827174,126.103413 C462.794219,137.019273 471.762234,145.994425 482.669415,151.966218 L493.606506,157.952978 C504.797831,164.079429 504.797831,180.163858 493.606506,186.29031 L482.669415,192.27707 C471.762234,198.243874 462.794219,207.224015 456.827174,218.139874 L450.850159,229.080678 C444.728578,240.280909 428.651952,240.280909 422.530372,229.080678 L416.553357,218.139874 C410.586311,207.224015 401.618295,198.243874 390.711116,192.27707 L379.774025,186.29031 C368.5827,180.163858 368.5827,164.079429 379.774025,157.952978 L390.711116,151.966218 C401.618295,145.994425 410.586311,137.019273 416.553357,126.103413 L422.530372,115.15762 C428.651952,103.957389 444.728578,103.957389 450.850159,115.15762 Z M89.4696282,115.15762 L95.4466426,126.103413 C101.413688,137.019273 110.381703,145.994425 121.288884,151.966218 L132.225975,157.952978 C143.4173,164.079429 143.4173,180.163858 132.225975,186.29031 L121.288884,192.27707 C110.381703,198.243874 101.413688,207.224015 95.4466426,218.139874 L89.4696282,229.080678 C83.3480466,240.280909 67.2714211,240.280909 61.1498408,229.080678 L55.1728265,218.139874 C49.2057802,207.224015 40.2377644,198.243874 29.3305851,192.27707 L18.3934939,186.29031 C7.20216869,180.163858 7.20216869,164.079429 18.3934939,157.952978 L29.3305851,151.966218 C40.2377644,145.994425 49.2057802,137.019273 55.1728265,126.103413 L61.1498408,115.15762 C67.2714211,103.957389 83.3480466,103.957389 89.4696282,115.15762 Z M270.159894,8.40017273 L276.136908,19.3459667 C282.103953,30.2618262 291.071969,39.2369779 301.979149,45.2087709 L312.916241,51.1955312 C324.107566,57.3219825 324.107566,73.4064117 312.916241,79.532863 L301.979149,85.5196232 C291.071969,91.4864276 282.103953,100.466568 276.136908,111.382428 L270.159894,122.323232 C264.038312,133.523462 247.961687,133.523462 241.840106,122.323232 L235.863092,111.382428 C229.896046,100.466568 220.92803,91.4864276 210.020851,85.5196232 L199.083759,79.532863 C187.892434,73.4064117 187.892434,57.3219825 199.083759,51.1955312 L210.020851,45.2087709 C220.92803,39.2369779 229.896046,30.2618262 235.863092,19.3459667 L241.840106,8.40017273 C247.961687,-2.80005758 264.038312,-2.80005758 270.159894,8.40017273 Z" id="Combined-Shape" fill="#FFCD00" fill-rule="nonzero"></path>
    </g>
</svg>