<?xml version="1.0" encoding="UTF-8"?>
<svg width="512px" height="512px" viewBox="0 0 512 512" version="1.1" xmlns="http://www.w3.org/2000/svg" xmlns:xlink="http://www.w3.org/1999/xlink">
    <!-- Generator: Sketch 59 (86127) - https://sketch.com -->
    <title>ic_gold_v2</title>
    <desc>Created with Sketch.</desc>
    <g id="ic_gold_v2" stroke="none" stroke-width="1" fill="none" fill-rule="evenodd">
        <g id="gold" transform="translate(0.000000, 8.000000)" fill="#FFCD00" fill-rule="nonzero">
            <path d="M511.281787,478.414062 L485.598139,398.414062 C483.605948,392.210938 477.836404,388 471.316859,388 L413.152674,388 C416.773776,388 420.348002,386.847656 423.117539,384.515625 C427.898799,380.492188 429.613646,374.121094 427.781611,368.414062 L402.097963,288.414062 C400.105772,282.210938 394.336229,278 387.816683,278 L329.652499,278 C333.2736,278 336.847826,276.847656 339.62127,274.515625 C344.398624,270.492188 346.117377,264.121094 344.285342,258.414062 L318.601694,178.414062 C316.609502,172.210938 310.836053,168 304.316508,168 L207.687398,168 C201.167854,168 195.394404,172.210938 193.402212,178.414062 L167.718564,258.414062 C165.88653,264.121094 167.605283,270.492188 172.382636,274.515625 C175.15608,276.847656 178.730307,278 182.351407,278 L124.187223,278 C117.667678,278 111.898135,282.210938 109.905943,288.414062 L84.2222948,368.414062 C82.3902599,374.121094 84.1051076,380.492188 88.8863676,384.515625 C91.6559044,386.847656 95.2301309,388 98.8512316,388 L40.6831412,388 C34.1635955,388 28.3940524,392.210938 26.4018612,398.414062 L0.71821321,478.414062 C-1.11382164,484.121094 0.601024963,490.492188 5.38228502,494.515625 C8.15182284,496.847656 11.7299554,498 15.351056,498 L496.65285,498 C500.273952,498 503.848177,496.847656 506.617715,494.515625 C511.398975,490.492188 513.113822,484.121094 511.281787,478.414062 Z M291.183668,278 C284.664122,278 278.894579,282.210938 276.902388,288.414062 L256,353.519531 L235.097612,288.414062 C233.105421,282.210938 227.335878,278 220.816332,278 L291.183668,278 Z M193.402212,398.414062 L172.499824,463.519531 L151.597436,398.414062 C149.605245,392.210938 143.835702,388 137.316156,388 L207.683492,388 C201.163947,388 195.394404,392.210938 193.402212,398.414062 L193.402212,398.414062 Z M360.402564,398.414062 L339.500176,463.519531 L318.597788,398.414062 C316.605596,392.210938 310.836053,388 304.316508,388 L374.683844,388 C368.164298,388 362.394755,392.210938 360.402564,398.414062 L360.402564,398.414062 Z" id="Shape"></path>
            <path d="M107.008683,143.711096 L112.499761,153.758993 C117.98168,163.779411 126.220589,172.01832 136.241007,177.500239 L146.288904,182.995898 C156.570365,188.619789 156.570365,203.384792 146.288904,209.008683 L136.241007,214.504342 C126.220589,219.981682 117.98168,228.22517 112.499761,238.245588 L107.008683,248.288904 C101.384791,258.570365 86.615208,258.570365 80.9913172,248.288904 L75.5002389,238.245588 C70.0183184,228.22517 61.7794096,219.981682 51.7589929,214.504342 L41.7110961,209.008683 C31.4296346,203.384792 31.4296346,188.619789 41.7110961,182.995898 L51.7589929,177.500239 C61.7794096,172.01832 70.0183184,163.779411 75.5002389,153.758993 L80.9913172,143.711096 C86.615208,133.429635 101.384791,133.429635 107.008683,143.711096 Z" id="Path"></path>
            <path d="M185.008683,7.71109606 L190.499761,17.7589929 C195.98168,27.7794108 204.220589,36.0183196 214.241007,41.5002389 L224.288904,46.9958978 C234.570365,52.6197886 234.570365,67.384792 224.288904,73.0086828 L214.241007,78.5043417 C204.220589,83.9816816 195.98168,92.2251698 190.499761,102.245588 L185.008683,112.288904 C179.384791,122.570365 164.615208,122.570365 158.991317,112.288904 L153.500239,102.245588 C148.018318,92.2251698 139.77941,83.9816816 129.758993,78.5043417 L119.711096,73.0086828 C109.429635,67.384792 109.429635,52.6197886 119.711096,46.9958978 L129.758993,41.5002389 C139.77941,36.0183196 148.018318,27.7794108 153.500239,17.7589929 L158.991317,7.71109606 C164.615208,-2.57036535 179.384791,-2.57036535 185.008683,7.71109606 Z" id="Path"></path>
            <path d="M355.008683,7.71109606 L360.499761,17.7589929 C365.98168,27.7794108 374.220589,36.0183196 384.241007,41.5002389 L394.288904,46.9958978 C404.570365,52.6197886 404.570365,67.384792 394.288904,73.0086828 L384.241007,78.5043417 C374.220589,83.9816816 365.98168,92.2251698 360.499761,102.245588 L355.008683,112.288904 C349.384791,122.570365 334.615208,122.570365 328.991317,112.288904 L323.500239,102.245588 C318.018318,92.2251698 309.77941,83.9816816 299.758993,78.5043417 L289.711096,73.0086828 C279.429635,67.384792 279.429635,52.6197886 289.711096,46.9958978 L299.758993,41.5002389 C309.77941,36.0183196 318.018318,27.7794108 323.500239,17.7589929 L328.991317,7.71109606 C334.615208,-2.57036535 349.384791,-2.57036535 355.008683,7.71109606 Z" id="Path"></path>
            <path d="M433.008683,143.711096 L438.499761,153.758993 C443.98168,163.779411 452.220589,172.01832 462.241007,177.500239 L472.288904,182.995898 C482.570365,188.619789 482.570365,203.384792 472.288904,209.008683 L462.241007,214.504342 C452.220589,219.981682 443.98168,228.22517 438.499761,238.245588 L433.008683,248.288904 C427.384791,258.570365 412.615208,258.570365 406.991317,248.288904 L401.500239,238.245588 C396.018318,228.22517 387.77941,219.981682 377.758993,214.504342 L367.711096,209.008683 C357.429635,203.384792 357.429635,188.619789 367.711096,182.995898 L377.758993,177.500239 C387.77941,172.01832 396.018318,163.779411 401.500239,153.758993 L406.991317,143.711096 C412.615208,133.429635 427.384791,133.429635 433.008683,143.711096 Z" id="Path"></path>
        </g>
    </g>
</svg>