<?xml version="1.0" encoding="UTF-8"?>
<svg width="512px" height="512px" viewBox="0 0 512 512" version="1.1" xmlns="http://www.w3.org/2000/svg" xmlns:xlink="http://www.w3.org/1999/xlink">
    <!-- Generator: Sketch 59 (86127) - https://sketch.com -->
    <title>ic_level_pink</title>
    <desc>Created with Sketch.</desc>
    <g id="ic_level_pink" stroke="none" stroke-width="1" fill="none" fill-rule="evenodd">
        <g id="level_holder" transform="translate(25.000000, 0.000000)">
            <path d="M43.2676056,1.42108547e-14 L418.253521,1.42108547e-14 C442.14956,9.82122361e-15 461.521127,19.3715669 461.521127,43.2676056 L461.521127,303.803207 C461.521127,316.894957 455.593501,329.282719 445.398791,337.496233 L257.905834,488.552626 C242.060394,501.318732 219.460733,501.318732 203.615293,488.552626 L16.1223355,337.496233 C5.92762618,329.282719 -2.68184325e-14,316.894957 0,303.803207 L0,43.2676056 C-2.92642074e-15,19.3715669 19.3715669,2.57059132e-14 43.2676056,1.42108547e-14 Z" id="Rectangle" fill="#BC0BAB"></path>
            <path d="M389.408451,28.8450704 C409.321816,28.8450704 425.464789,44.9880428 425.464789,64.9014085 L425.464789,290.465114 C425.464789,301.374905 420.5251,311.698041 412.029509,318.542636 L249.775988,449.264514 C236.571455,459.902936 217.738404,459.902936 204.533871,449.264514 L42.28035,318.542636 C33.7847589,311.698041 28.8450704,301.374905 28.8450704,290.465114 L28.8450704,64.9014085 C28.8450704,44.9880428 44.9880428,28.8450704 64.9014085,28.8450704 L389.408451,28.8450704 Z M360.56338,57.6901408 L100.957746,57.6901408 C81.2656405,57.6901408 65.2606067,73.4763735 64.9073704,93.0841134 L64.9014085,93.7464789 L64.9014085,275.756438 C64.9014085,286.348975 69.5581871,296.391327 77.6101057,303.232764 L78.2203458,303.739828 L208.023163,409.208774 C221.066749,419.807106 239.667928,419.970157 252.882517,409.697928 L253.497964,409.208774 L383.300781,303.739828 C391.521668,297.060094 396.378956,287.113176 396.611007,276.549805 L396.619718,275.756438 L396.619718,93.7464789 C396.619718,74.0543729 380.833486,58.049339 361.225746,57.6961028 L360.56338,57.6901408 Z" id="Shape" fill="#FFC300"></path>
        </g>
    </g>
</svg>