<?xml version="1.0" encoding="UTF-8"?>
<svg width="512px" height="512px" viewBox="0 0 512 512" version="1.1" xmlns="http://www.w3.org/2000/svg" xmlns:xlink="http://www.w3.org/1999/xlink">
    <!-- Generator: Sketch 59 (86127) - https://sketch.com -->
    <title>ic_medal</title>
    <desc>Created with Sketch.</desc>
    <g id="ic_medal" stroke="none" stroke-width="1" fill="none" fill-rule="evenodd">
        <g id="achievement" transform="translate(37.000000, 0.000000)">
            <path d="M136.579569,150.469428 C130.771979,150.469428 125.555116,146.917884 123.425931,141.514675 L75.2745205,19.3213812 C72.4118552,12.0568275 75.9802907,3.84709432 83.2448445,0.984428976 C84.8955405,0.333956765 86.6539231,0 88.4281586,0 L183.258695,0 C189.066285,0 194.283148,3.55154384 196.412333,8.95475293 L218.490554,64.9836055 L240.569915,8.95475293 C242.658927,3.65349118 247.7202,0.134679712 253.395469,0.00378161564 L253.723553,0 L348.55409,0 C350.328325,0 352.086708,0.333956765 353.737404,0.984428976 C360.89964,3.80677509 364.469141,11.8266281 361.824866,19.0138833 L361.707728,19.3213812 L313.556318,141.514675 C311.467306,146.815937 306.406033,150.334748 300.730763,150.465646 L300.402679,150.469428 L136.579569,150.469428 Z" id="Path" fill="#DD0404"></path>
            <circle id="Oval" stroke="#979797" stroke-width="1.00986193" fill="#FF9F00" cx="218.130178" cy="293.869822" r="217.625247"></circle>
            <circle id="Oval" fill="#FFD400" cx="218" cy="294" r="180"></circle>
            <path d="M218.130178,362.035503 L154.297047,395.594565 C149.854058,397.930383 144.358748,396.222183 142.02293,391.779193 C141.092795,390.009971 140.771829,387.983469 141.10972,386.013411 L153.300763,314.934176 L153.300763,314.934176 L101.658676,264.595582 C98.0642216,261.091855 97.9906726,255.337643 101.4944,251.743188 C102.889602,250.311858 104.717737,249.380377 106.695787,249.092949 L178.063396,238.722629 L178.063396,238.722629 L209.979961,174.052604 C212.201456,169.551364 217.65131,167.703265 222.15255,169.92476 C223.944967,170.809371 225.395783,172.260187 226.280394,174.052604 L258.196959,238.722629 L258.196959,238.722629 L329.564568,249.092949 C334.531982,249.814757 337.973726,254.426782 337.251918,259.394195 C336.964491,261.372245 336.03301,263.20038 334.601679,264.595582 L282.959592,314.934176 L282.959592,314.934176 L295.150635,386.013411 C295.999171,390.960753 292.676432,395.65924 287.72909,396.507776 C285.759032,396.845667 283.732529,396.5247 281.963308,395.594565 L218.130178,362.035503 L218.130178,362.035503 Z" id="Star" fill="#FF9F00"></path>
        </g>
    </g>
</svg>