<?xml version="1.0" encoding="UTF-8"?>
<svg width="512px" height="512px" viewBox="0 0 512 512" version="1.1" xmlns="http://www.w3.org/2000/svg" xmlns:xlink="http://www.w3.org/1999/xlink">
    <!-- Generator: Sketch 59 (86127) - https://sketch.com -->
    <title>ic_medal_second_place</title>
    <desc>Created with Sketch.</desc>
    <g id="ic_medal_second_place" stroke="none" stroke-width="1" fill="none" fill-rule="evenodd">
        <g id="leaderboard_second" transform="translate(0.000000, 16.000000)" fill-rule="nonzero">
            <path d="M6.717,354.157 C-5.143,366.03 -1.296,380.353 18.256,381.315 L73.942,388.374 C93.233,390.795 89.386,391.612 91.688,409.961 L97.574,460.719 C98.565,480.322 112.872,484.143 124.703,472.271 L164.275,432.686 L204.779,392.109 C201.253,390.796 197.64,388.813 194.376,386.012 L165.644,313.464 L77.904,282.893 L6.717,354.157 Z" id="Path" fill="#7CADE0"></path>
            <path d="M307.206,392.108 L347.739,432.685 L387.282,472.27 C399.142,484.143 413.45,480.321 414.44,460.718 L420.297,409.96 C422.599,391.611 418.753,390.795 438.072,388.373 L493.729,381.314 C513.311,380.351 517.128,366.028 505.297,354.156 L433.642,282.424 L337.889,292.138 L307.206,392.108 Z" id="Path" fill="#7CADE0"></path>
            <path d="M271.072,4.688 L297.735,17.29 L335.5,19.711 C340.862,20.061 352.547,23.999 359.803,34.18 L377.578,57.779 L409.865,77.528 C414.469,80.328 423.007,89.255 424.697,101.682 L429.505,130.853 L448.97,163.408 C451.738,168.046 455.148,179.919 450.893,191.675 L441.627,219.796 L443.783,257.66 C444.104,263.057 441.627,275.163 432.418,283.622 L411.204,304.158 L395.556,338.726 C393.341,343.627 385.532,353.224 373.468,356.374 L345.144,364.688 L315.305,387.996 C311.051,391.321 299.715,396.164 287.535,393.334 L258.628,387.5 L221.417,394.209 C216.114,395.172 203.817,394.18 194.375,386.012 L171.471,367.343 L135.396,355.937 C130.267,354.333 119.864,347.711 115.26,336.072 L103.633,308.885 L76.97,281.96 C73.182,278.109 67.004,267.404 68.345,254.948 L70.647,225.456 L59.516,189.196 C57.913,184.033 57.418,171.664 64.353,161.25 L80.059,136.221 L86.994,98.911 C87.985,93.602 93.288,82.429 104.245,76.449 L129.742,61.572 L153.17,31.788 C156.492,27.558 166.37,20.12 178.842,19.945 L208.302,18.661 L242.862,3.2 C247.761,1.012 259.941,-0.971 271.072,4.688 L271.072,4.688 Z" id="Path" fill="#E6E2E6"></path>
            <path d="M255.716,349.84 C339.609,349.84 407.622,281.755 407.622,197.742 C407.622,113.759 339.61,45.673 255.716,45.673 C171.793,45.673 103.781,113.758 103.781,197.742 C103.781,281.754 171.793,349.84 255.716,349.84 Z" id="Path" fill="#AB9FAA"></path>
            <path d="M291.8,276.42 L218.76,276.42 C213.626641,276.42 210.033344,271.433383 207.98,261.46 C206.953328,256.033306 206.44,251.926681 206.44,249.14 C206.44,246.353319 206.879996,244.520004 207.76,243.64 L209.711497,241.620214 C241.263987,208.843114 257.04,186.489926 257.04,174.56 C257.04,170.453313 255.976677,167.373344 253.85,165.32 C251.723323,163.266656 248.350023,162.24 243.73,162.24 C239.109977,162.24 234.490023,163.119991 229.87,164.88 C225.249977,166.640009 221.620013,168.546656 218.98,170.6 C213.259971,163.706632 209.300011,156.446705 207.1,148.82 C206.366663,146.326654 206,144.016677 206,141.89 C206,139.763323 206.366663,137.746676 207.1,135.84 C208.273339,132.026648 213.736618,128.43335 223.49,125.06 C233.243382,121.68665 243.546612,120 254.4,120 C287.253498,120 303.68,134.593187 303.68,163.78 C303.68,176.686731 299.280044,189.7766 290.48,203.05 C281.679956,216.3234 271.413392,227.799952 259.68,237.48 L304.12,235.72 L304.295695,237.641952 C304.911901,244.610676 305.22,250.71664 305.22,255.96 C305.22,261.680029 304.046678,266.51998 301.7,270.48 C299.353322,274.44002 296.053355,276.42 291.8,276.42 Z" id="2" fill="#E6E2E6"></path>
        </g>
    </g>
</svg>