<?xml version="1.0" encoding="UTF-8"?>
<svg width="512px" height="512px" viewBox="0 0 512 512" version="1.1" xmlns="http://www.w3.org/2000/svg" xmlns:xlink="http://www.w3.org/1999/xlink">
    <!-- Generator: Sketch 59 (86127) - https://sketch.com -->
    <title>ic_medal_third_place</title>
    <desc>Created with Sketch.</desc>
    <g id="ic_medal_third_place" stroke="none" stroke-width="1" fill="none" fill-rule="evenodd">
        <g id="leaderboard_third" transform="translate(0.000000, 16.000000)" fill-rule="nonzero">
            <path d="M6.717,354.157 C-5.143,366.03 -1.296,380.353 18.256,381.315 L73.942,388.374 C93.233,390.795 89.386,391.612 91.688,409.961 L97.574,460.719 C98.565,480.322 112.872,484.143 124.703,472.271 L164.275,432.686 L204.779,392.109 C201.253,390.796 197.64,388.813 194.376,386.012 L165.644,313.464 L77.904,282.893 L6.717,354.157 Z" id="Path" fill="#97DA7B"></path>
            <path d="M307.206,392.108 L347.739,432.685 L387.282,472.27 C399.142,484.143 413.45,480.321 414.44,460.718 L420.297,409.96 C422.599,391.611 418.753,390.795 438.072,388.373 L493.729,381.314 C513.311,380.351 517.128,366.028 505.297,354.156 L433.642,282.424 L337.889,292.138 L307.206,392.108 Z" id="Path" fill="#97DA7B"></path>
            <path d="M271.072,4.688 L297.735,17.29 L335.5,19.711 C340.862,20.061 352.547,23.999 359.803,34.18 L377.578,57.779 L409.865,77.528 C414.469,80.328 423.007,89.255 424.697,101.682 L429.505,130.853 L448.97,163.408 C451.738,168.046 455.148,179.919 450.893,191.675 L441.627,219.796 L443.783,257.66 C444.104,263.057 441.627,275.163 432.418,283.622 L411.204,304.158 L395.556,338.726 C393.341,343.627 385.532,353.224 373.468,356.374 L345.144,364.688 L315.305,387.996 C311.051,391.321 299.715,396.164 287.535,393.334 L258.628,387.5 L221.417,394.209 C216.114,395.172 203.817,394.18 194.375,386.012 L171.471,367.343 L135.396,355.937 C130.267,354.333 119.864,347.711 115.26,336.072 L103.633,308.885 L76.97,281.96 C73.182,278.109 67.004,267.404 68.345,254.948 L70.647,225.456 L59.516,189.196 C57.913,184.033 57.418,171.664 64.353,161.25 L80.059,136.221 L86.994,98.911 C87.985,93.602 93.288,82.429 104.245,76.449 L129.742,61.572 L153.17,31.788 C156.492,27.558 166.37,20.12 178.842,19.945 L208.302,18.661 L242.862,3.2 C247.761,1.012 259.941,-0.971 271.072,4.688 L271.072,4.688 Z" id="Path" fill="#FFA799"></path>
            <path d="M255.716,349.84 C339.609,349.84 407.622,281.755 407.622,197.742 C407.622,113.759 339.61,45.673 255.716,45.673 C171.793,45.673 103.781,113.758 103.781,197.742 C103.781,281.754 171.793,349.84 255.716,349.84 Z" id="Path" fill="#FF646F"></path>
            <path d="M204,260.68 C204,256.573313 205.026656,251.916693 207.08,246.71 C209.044068,241.729685 210.941013,237.688765 212.770887,234.587128 L213.02,234.17 C214.926676,231.016651 216.026665,229.44 216.32,229.44 C224.826709,234.573359 233.773286,237.14 243.16,237.14 C249.026696,237.14 253.756649,235.966678 257.35,233.62 C260.943351,231.273322 262.74,228.010021 262.74,223.83 C262.74,219.649979 261.090017,216.973339 257.79,215.8 C254.489983,214.626661 249.246703,213.820002 242.06,213.38 L234.14,213.38 C232.379991,213.38 230.730008,211.216688 229.19,206.89 C227.649992,202.563312 226.88,198.346687 226.88,194.24 C226.88,187.346632 228.933313,183.826667 233.04,183.68 L239.42,183.46 C243.38002,183.46 247.523312,182.323345 251.85,180.05 C256.176688,177.776655 258.34,174.880018 258.34,171.36 C258.34,165.199969 252.840055,162.12 241.84,162.12 C233.626626,162.12 225.706705,163.733317 218.08,166.96 C211.479967,155.079941 208.18,145.803367 208.18,139.13 C208.18,132.456633 212.83662,127.43335 222.15,124.06 C231.46338,120.68665 243.15993,119 257.24,119 C271.32007,119 282.31996,121.933304 290.24,127.8 C298.16004,133.666696 302.12,141.659949 302.12,151.78 C302.12,169.526755 294.49341,183.166619 279.24,192.7 C297.720092,200.180037 306.96,212.866577 306.96,230.76 C306.96,244.693403 302.046716,255.949957 292.22,264.53 C282.393284,273.110043 268.313425,277.4 249.98,277.4 C238.393275,277.4 227.833381,275.750017 218.3,272.45 C208.766619,269.149984 204,265.226689 204,260.68 Z" id="3" fill="#FFA799"></path>
        </g>
    </g>
</svg>