<?xml version="1.0" encoding="UTF-8"?>
<svg width="512px" height="512px" viewBox="0 0 512 512" version="1.1" xmlns="http://www.w3.org/2000/svg" xmlns:xlink="http://www.w3.org/1999/xlink">
    <!-- Generator: Sketch 59 (86127) - https://sketch.com -->
    <title>ic_missions_red</title>
    <desc>Created with Sketch.</desc>
    <g id="ic_missions_red" stroke="none" stroke-width="1" fill="none" fill-rule="evenodd">
        <g id="ic_missions" transform="translate(0.000000, 30.000000)" fill-rule="nonzero">
            <circle id="Oval" fill="#DD0404" cx="302.808644" cy="209.024754" r="209.024754"></circle>
            <circle id="Oval" fill="#FAF0FA" cx="302.808644" cy="209.024754" r="144.378971"></circle>
            <circle id="Oval" fill="#DD0404" cx="302.808644" cy="209.024754" r="79.7341925"></circle>
            <g id="arrow" transform="translate(177.978521, 292.505162) rotate(145.000000) translate(-177.978521, -292.505162) translate(16.978521, 212.505162)">
                <path d="M176.702365,94.8226012 L15.0884086,94.8226012 C6.7555835,94.8226012 1.84741111e-13,88.0670177 1.84741111e-13,79.7341925 C1.84741111e-13,71.4013674 6.7555835,64.6457839 15.0884086,64.6457839 L176.702365,64.6457839 C185.035191,64.6457839 191.790774,71.4013674 191.790774,79.7341925 C191.790774,88.0670177 185.035191,94.8226012 176.702365,94.8226012 Z" id="Path" fill="#000000"></path>
                <path d="M305.992927,159.468385 L225.186452,159.468385 C220.437627,159.468385 215.965422,157.232283 213.115725,153.433022 L164.631639,88.7872377 C160.608063,83.4228055 160.608063,76.0455796 164.631639,70.6811473 L213.115725,6.03536346 C215.965422,2.23610216 220.437627,0 225.186452,0 L305.992927,0 C311.708417,0 316.932024,3.22891945 319.489006,8.3408723 C322.044982,13.4528251 321.492747,19.569666 318.063654,24.1414538 L276.369352,79.7341925 L318.063654,135.326931 C321.492747,139.898719 322.044982,146.01556 319.489006,151.127513 C316.932024,156.239466 311.708417,159.468385 305.992927,159.468385 Z" id="Path" fill="#FFC634"></path>
            </g>
        </g>
    </g>
</svg>