<?xml version="1.0" encoding="UTF-8"?>
<svg width="512px" height="512px" viewBox="0 0 512 512" version="1.1" xmlns="http://www.w3.org/2000/svg" xmlns:xlink="http://www.w3.org/1999/xlink">
    <!-- Generator: Sketch 59 (86127) - https://sketch.com -->
    <title>ic_mail_pink</title>
    <desc>Created with Sketch.</desc>
    <g id="ic_mail_pink" stroke="none" stroke-width="1" fill="none" fill-rule="evenodd">
        <g id="inbox" transform="translate(2.000000, 0.000000)" fill-rule="nonzero">
            <path d="M448.803,512.000125 L58.315,512.000125 C26.108,512.000125 0.001,485.892125 0.001,453.686125 L0.001,210.528125 C0.001,177.725125 16.246,147.051125 43.38,128.619125 L215.517,11.6841254 C238.446,-3.89187464 268.56,-3.89487464 291.492,11.6761254 L463.722,128.621125 C490.866,147.052125 507.118,177.732125 507.118,210.541125 L507.118,453.685125 C507.118,485.892125 481.01,512.000125 448.803,512.000125 Z" id="Path" fill="#BC0BAB"></path>
            <path d="M442.986,429.910125 L64.132,429.910125 L64.132,135.371125 C64.132,104.547125 89.12,79.5601254 119.943,79.5601254 L387.173,79.5601254 C417.997,79.5601254 442.986,104.548125 442.986,135.371125 L442.986,429.910125 L442.986,429.910125 Z" id="Path" fill="#FFFFFF"></path>
            <path d="M15.039,158.086125 C5.356,173.595125 -1.70530257e-13,191.709125 -1.70530257e-13,210.528125 L-1.70530257e-13,453.686125 C-1.70530257e-13,485.892125 26.108,512.000125 58.315,512.000125 L448.803,512.000125 C481.01,512.000125 507.117,485.892125 507.117,453.686125 L507.117,210.541125 C507.117,191.715125 501.758,173.598125 492.07,158.086125 L253.559,350.483125 L15.039,158.086125 Z" id="Path" fill="#E83ACF"></path>
            <path d="M13.699,491.152125 L13.699,491.152125 C24.396,503.894125 40.435,512.000125 58.374,512.000125 L448.862,512.000125 C466.703,512.000125 482.661,503.980125 493.359,491.359125 L493.421,491.152125 L284.524,299.344125 C267.012,283.264125 240.106,283.264125 222.594,299.344125 L13.699,491.152125 Z" id="Path" fill="#FA34D9"></path>
        </g>
    </g>
</svg>