<?xml version="1.0" encoding="UTF-8"?>
<svg width="512px" height="512px" viewBox="0 0 512 512" version="1.1" xmlns="http://www.w3.org/2000/svg" xmlns:xlink="http://www.w3.org/1999/xlink">
    <!-- Generator: Sketch 59 (86127) - https://sketch.com -->
    <title>ic_meat</title>
    <desc>Created with Sketch.</desc>
    <g id="ic_meat" stroke="none" stroke-width="1" fill="none" fill-rule="evenodd">
        <g id="meat" transform="translate(0.000000, 68.000000)" fill-rule="nonzero">
            <path d="M510.908382,150.454166 C509.489279,128.555531 491.134503,110.664692 469.212475,109.760208 C449.009747,108.925901 431.699805,121.830384 425.847954,139.896661 C423.660818,146.641301 417.434698,151.249488 410.34308,151.249488 L344.966862,151.249488 L344.966862,225.713425 L410.34308,225.713425 C417.434698,225.713425 423.660818,230.321613 425.847954,237.07015 C431.699805,255.132528 449.009747,268.037012 469.208577,267.206603 C491.134503,266.30212 509.489279,248.407382 510.908382,226.512645 C511.582846,216.111086 508.608187,206.430775 503.1423,198.621808 C498.888889,192.543835 498.888889,184.419078 503.1423,178.341105 C508.608187,170.532139 511.582846,160.851827 510.908382,150.454166 Z" id="Path" fill="#A8EBFA"></path>
            <path d="M121.805068,0.134478246 C121.805068,0.134478246 409.781676,-11.771955 409.781676,188.481456 C409.781676,388.73097 121.805068,376.828435 121.805068,376.828435 L121.805068,0.134478246 Z" id="Path" fill="#8F5040"></path>
            <path d="M243.610137,188.481456 C243.610137,84.4580647 189.076023,0.134478246 121.805068,0.134478246 C54.5341131,0.134478246 8.52651283e-14,84.4580647 8.52651283e-14,188.481456 C8.52651283e-14,292.50095 54.5341131,376.828435 121.805068,376.828435 C189.076023,376.828435 243.610137,292.50095 243.610137,188.481456 Z" id="Path" fill="#F5AA86"></path>
            <path d="M121.805068,345.982431 C92.510721,345.982431 71.4970763,320.251437 61.5789476,304.914205 C42.0467834,274.711476 30.8460039,232.274829 30.8460039,188.481456 C30.8460039,144.688084 42.0467834,102.247539 61.5789476,72.0487078 C71.4970763,56.7114763 92.510721,30.9804821 121.805068,30.9804821 C151.099415,30.9804821 172.113061,56.7114763 182.031189,72.0487078 C201.563353,102.247539 212.764133,144.688084 212.764133,188.481456 C212.764133,232.274829 201.563353,274.715374 182.031189,304.914205 C172.113061,320.251437 151.099415,345.982431 121.805068,345.982431 Z" id="Path" fill="#DE9978"></path>
            <path d="M121.805068,315.140325 C106.140351,315.140325 91.5711501,294.489254 87.4775833,288.161768 C71.0916182,262.820638 61.6920078,226.489254 61.6920078,188.481456 C61.6920078,150.473659 71.0916182,114.142276 87.4775833,88.8011442 C91.5711501,82.4736595 106.140351,61.826486 121.805068,61.826486 C137.469785,61.826486 152.038987,82.4736595 156.132554,88.8011442 C172.518519,114.142276 181.918129,150.473659 181.918129,188.481456 C181.918129,226.489254 172.518519,262.824537 156.132554,288.161768 C152.038987,294.489254 137.469785,315.140325 121.805068,315.140325 Z" id="Path" fill="#C2876B"></path>
            <path d="M152.68616,188.481456 C152.68616,150.754361 138.8577,120.173464 121.805068,120.173464 C104.748538,120.173464 90.9239761,150.754361 90.9239761,188.481456 C90.9239761,226.204654 104.748538,256.789449 121.805068,256.789449 C138.8577,256.789449 152.68616,226.204654 152.68616,188.481456 L152.68616,188.481456 Z" id="Path" fill="#FFFFFF"></path>
        </g>
    </g>
</svg>