<?xml version="1.0" encoding="UTF-8"?>
<svg width="512px" height="512px" viewBox="0 0 512 512" version="1.1" xmlns="http://www.w3.org/2000/svg" xmlns:xlink="http://www.w3.org/1999/xlink">
    <!-- Generator: Sketch 59 (86127) - https://sketch.com -->
    <title>ic_map</title>
    <desc>Created with Sketch.</desc>
    <g id="ic_map" stroke="none" stroke-width="1" fill="none" fill-rule="evenodd">
        <g id="map" transform="translate(7.000000, 0.000000)">
            <path d="M88.9085636,84.8957027 C202.96362,38.2403151 285.680183,14.9126214 337.058252,14.9126214 C351.11331,14.9126214 377.415534,72.9339806 377.415534,72.9339806 C377.415534,72.9339806 396.062136,27.423301 410.341748,18.3980583 C415.184075,15.3375284 438.61583,22.3891794 480.637014,39.5530113 C489.984538,43.3710709 496.093204,52.4647912 496.093204,62.5620077 L496.093204,454.721083 C496.093205,468.447772 484.965524,479.575453 471.238835,479.575453 C466.411659,479.575453 461.688946,478.16977 457.647457,475.530075 C440.677209,464.44597 421.81673,457.228501 401.066019,453.87767 C344.03301,444.667961 272.207517,471.231451 262.345631,469.161165 C241.848544,464.858252 236.500689,431.683495 233.108738,431.683495 C230.036888,431.683495 220.135922,476.549515 199.339806,487.005825 C187.398041,493.010158 153.654972,499.836602 98.1105992,507.485157 C84.5122301,509.357673 71.970598,499.851993 70.0980794,486.253625 C69.9325065,485.051222 69.8552339,483.838306 69.8668817,482.624613 L73.4654144,107.661317 C73.5614368,97.6560616 79.647704,88.6839521 88.9085636,84.8957027 Z" id="Rectangle" fill="#FF9F00"></path>
            <rect id="Rectangle" fill="#FFD400" x="0" y="0" width="158.073786" height="509.017476" rx="79.0368932"></rect>
            <circle id="Oval" fill="#FF9F00" cx="79.5339806" cy="425.506796" r="45.7320388"></circle>
            <path d="M400.195688,308.650914 C407.432505,315.887731 407.432505,327.620931 400.195688,334.857748 L387.092573,347.961301 L400.195688,361.064582 C407.432505,368.301399 407.432505,380.034599 400.195688,387.271416 C392.958871,394.508233 381.225671,394.508233 373.988854,387.271416 L360.885573,374.168301 L347.78202,387.271416 C340.545202,394.508233 328.812003,394.508233 321.575186,387.271416 C314.338368,380.034599 314.338368,368.301399 321.575186,361.064582 L334.678573,347.961301 L321.575186,334.857748 C314.338368,327.620931 314.338368,315.887731 321.575186,308.650914 C328.812003,301.414097 340.545202,301.414097 347.78202,308.650914 L360.885573,321.754301 L373.988854,308.650914 C381.225671,301.414097 392.958871,301.414097 400.195688,308.650914 Z" id="Combined-Shape" fill="#FF641B"></path>
            <path d="M195.6,94.0796797 C274.87767,100.185783 318.823301,115.557282 327.436893,140.194175 C340.357282,177.149515 245.252547,208.310325 232.745631,254.508738 C224.407687,285.30768 244.01157,315.270139 291.557282,344.396117" id="Path-7" stroke="#FF641B" stroke-width="25.8485437" stroke-linejoin="bevel" stroke-dasharray="31.8135929107666,14.91262149810791"></path>
        </g>
    </g>
</svg>