<?xml version="1.0" encoding="UTF-8"?>
<svg width="512px" height="512px" viewBox="0 0 512 512" version="1.1" xmlns="http://www.w3.org/2000/svg" xmlns:xlink="http://www.w3.org/1999/xlink">
    <!-- Generator: Sketch 59 (86127) - https://sketch.com -->
    <title>ic_news_purple</title>
    <desc>Created with Sketch.</desc>
    <g id="ic_news_purple" stroke="none" stroke-width="1" fill="none" fill-rule="evenodd">
        <g id="news_icon" fill-rule="nonzero">
            <path d="M372.704182,83.0634293 C356.759503,67.11875 330.909344,67.11875 314.964665,83.0634293 L296.014249,102.014872 L408.97327,214.973893 L427.924713,196.02245 C443.869392,180.077771 443.869392,154.227613 427.924713,138.282933 L372.704182,83.0634293 Z" id="Path" fill="#A752E1"></path>
            <path d="M325.486284,421.790565 C325.618755,421.879905 325.358949,421.688902 325.486284,421.790565 L223.765659,353.244977 L169.857507,407.15621 L259.194743,496.493446 C268.525158,505.765328 281.08004,510.987115 294.412285,510.987115 C308.202527,510.987115 320.707091,505.378187 329.764351,496.320927 C338.82161,487.263667 344.430539,474.759104 344.430539,460.969888 C344.430539,445.687559 337.285368,431.28323 325.486284,421.790565 Z" id="Path" fill="#E8B0FF"></path>
            <path d="M272.542391,238.446778 L124.874144,238.446778 L9.6805881,353.640334 C3.48221855,359.838703 -2.84217094e-14,368.245935 -2.84217094e-14,377.011555 C-2.84217094e-14,385.777175 3.48221855,394.184407 9.6805881,400.382777 C14.1106355,404.812824 106.175318,496.877507 110.606393,501.308581 C116.804762,507.506951 125.211994,510.989169 133.977614,510.989169 C142.743234,510.989169 151.150466,507.506951 157.348836,501.308581 L272.542391,386.115025 L272.542391,238.446778 L272.542391,238.446778 Z" id="Path" fill="#8933C5"></path>
            <path d="M194.951867,57.8129805 C194.951867,163.233527 206.503467,156.816428 124.873117,238.446778 L272.540338,386.113998 C354.170687,304.483648 347.753588,316.035249 453.175162,316.035249 L194.951867,57.8129805 Z" id="Path" fill="#A752E1"></path>
            <path d="M500.556337,268.655101 L242.333042,10.4318057 C229.249306,-2.65192963 208.036629,-2.65192963 194.951867,10.4318057 C181.868131,23.515541 181.868131,44.7292452 194.951867,57.8129805 C199.344946,62.2060595 446.620458,309.481572 453.175162,316.036276 C466.258897,329.120011 487.472601,329.120011 500.556337,316.036276 C513.640072,302.951513 513.640072,281.738836 500.556337,268.655101 Z" id="Path" fill="#E8B0FF"></path>
        </g>
    </g>
</svg>