<?xml version="1.0" encoding="UTF-8"?>
<svg width="512px" height="512px" viewBox="0 0 512 512" version="1.1" xmlns="http://www.w3.org/2000/svg" xmlns:xlink="http://www.w3.org/1999/xlink">
    <!-- Generator: Sketch 59 (86127) - https://sketch.com -->
    <title>ic_promo_blue</title>
    <desc>Created with Sketch.</desc>
    <g id="ic_promo_blue" stroke="none" stroke-width="1" fill="none" fill-rule="evenodd">
        <path d="M256,457.107143 L222.18853,490.939442 C216.239516,496.89212 206.591289,496.895091 200.63861,490.946077 C199.220953,489.529292 198.096718,487.846756 197.330293,485.994831 L179.039628,441.798773 L179.039628,441.798773 L134.854843,460.116652 C127.08068,463.339621 118.165743,459.650149 114.942774,451.875985 C114.175209,450.024533 113.78043,448.039846 113.781047,446.035592 L113.795776,398.204224 L113.795776,398.204224 L65.964408,398.218953 C57.5486408,398.221544 50.7242127,391.401318 50.7216214,382.98555 C50.7210042,380.981297 51.115783,378.99661 51.8833478,377.145157 L70.2012269,332.960372 L70.2012269,332.960372 L26.0051691,314.669707 C18.2290224,311.451526 14.5340607,302.538863 17.7522412,294.762716 C18.5186657,292.910791 19.6429007,291.228255 21.0605583,289.81147 L54.8928571,256 L54.8928571,256 L21.0605583,222.18853 C15.1078799,216.239516 15.104909,206.591289 21.0539227,200.63861 C22.4707076,199.220953 24.1532441,198.096718 26.0051691,197.330293 L70.2012269,179.039628 L70.2012269,179.039628 L51.8833478,134.854843 C48.660379,127.08068 52.3498512,118.165743 60.1240146,114.942774 C61.9754673,114.175209 63.9601544,113.78043 65.964408,113.781047 L113.795776,113.795776 L113.795776,113.795776 L113.781047,65.964408 C113.778456,57.5486408 120.598682,50.7242127 129.01445,50.7216214 C131.018703,50.7210042 133.00339,51.115783 134.854843,51.8833478 L179.039628,70.2012269 L179.039628,70.2012269 L197.330293,26.0051691 C200.548474,18.2290224 209.461137,14.5340607 217.237284,17.7522412 C219.089209,18.5186657 220.771745,19.6429007 222.18853,21.0605583 L256,54.8928571 L256,54.8928571 L289.81147,21.0605583 C295.760484,15.1078799 305.408711,15.104909 311.36139,21.0539227 C312.779047,22.4707076 313.903282,24.1532441 314.669707,26.0051691 L332.960372,70.2012269 L332.960372,70.2012269 L377.145157,51.8833478 C384.91932,48.660379 393.834257,52.3498512 397.057226,60.1240146 C397.824791,61.9754673 398.21957,63.9601544 398.218953,65.964408 L398.204224,113.795776 L398.204224,113.795776 L446.035592,113.781047 C454.451359,113.778456 461.275787,120.598682 461.278379,129.01445 C461.278996,131.018703 460.884217,133.00339 460.116652,134.854843 L441.798773,179.039628 L441.798773,179.039628 L485.994831,197.330293 C493.770978,200.548474 497.465939,209.461137 494.247759,217.237284 C493.481334,219.089209 492.357099,220.771745 490.939442,222.18853 L457.107143,256 L457.107143,256 L490.939442,289.81147 C496.89212,295.760484 496.895091,305.408711 490.946077,311.36139 C489.529292,312.779047 487.846756,313.903282 485.994831,314.669707 L441.798773,332.960372 L441.798773,332.960372 L460.116652,377.145157 C463.339621,384.91932 459.650149,393.834257 451.875985,397.057226 C450.024533,397.824791 448.039846,398.21957 446.035592,398.218953 L398.204224,398.204224 L398.204224,398.204224 L398.218953,446.035592 C398.221544,454.451359 391.401318,461.275787 382.98555,461.278379 C380.981297,461.278996 378.99661,460.884217 377.145157,460.116652 L332.960372,441.798773 L332.960372,441.798773 L314.669707,485.994831 C311.451526,493.770978 302.538863,497.465939 294.762716,494.247759 C292.910791,493.481334 291.228255,492.357099 289.81147,490.939442 L256,457.107143 L256,457.107143 Z" id="ic_promo" fill="#0F8FFF"></path>
    </g>
</svg>