<?xml version="1.0" encoding="UTF-8"?>
<svg width="512px" height="512px" viewBox="0 0 512 512" version="1.1" xmlns="http://www.w3.org/2000/svg" xmlns:xlink="http://www.w3.org/1999/xlink">
    <!-- Generator: Sketch 59 (86127) - https://sketch.com -->
    <title>ic_poison_yellow</title>
    <desc>Created with Sketch.</desc>
    <g id="ic_poison_yellow" stroke="none" stroke-width="1" fill="none" fill-rule="evenodd">
        <g id="elexir_v2" fill-rule="nonzero">
            <path d="M497.367103,71.3877991 L440.330065,14.3464056 C421.197167,-4.78213522 390.181917,-4.78213522 371.049019,14.3464056 L300.351852,85.0435731 L426.669934,211.361655 L497.367103,140.664488 C516.5,121.535948 516.5,90.51634 497.367103,71.3877991 L497.367103,71.3877991 Z" id="Path" fill="#FF8A3C"></path>
            <path d="M26.1601305,485.553377 C-8.7200435,450.673203 -8.7200435,394.115469 26.1601305,359.235295 L308.521787,76.8779952 L434.839869,203.196079 L152.482571,485.553377 C117.59804,520.433551 61.0446627,520.433551 26.1601305,485.553377 Z" id="Path" fill="#A8EBFA"></path>
            <path d="M26.1601305,359.235295 C-8.7200435,394.115469 -8.7200435,450.673203 26.1601305,485.553377 C61.0446627,520.433551 117.59804,520.433551 152.482571,485.553377 L310.799805,327.333984 C244.368432,275.608494 218.836914,166.576172 218.836914,166.576172 L26.1601305,359.235295 Z" id="Path" fill="#FFC634"></path>
            <path d="M383.85512,250.233116 L261.48475,127.858387 C238.927016,105.300653 238.927016,68.7298476 261.48475,46.1721137 C284.038126,23.6187368 320.608932,23.6187368 343.166667,46.1721137 L465.541395,168.546841 C488.094772,191.104575 488.094772,227.675381 465.541395,250.233116 C442.98366,272.79085 406.412854,272.79085 383.85512,250.233116 Z" id="Path" fill="#8DB9C4"></path>
            <path d="M310.799805,327.333984 C310.799805,327.333984 271.05464,286.111456 276.45769,233.841303 C281.869455,181.566794 259.368505,126.044581 218.836914,166.576172 C178.305323,207.107763 207.362305,318.114258 310.799805,327.333984 Z" id="Path" fill="#FFF5AF"></path>
            <path d="M143.123094,357.779956 C143.123094,365.169794 137.129936,371.165577 129.739165,371.165577 C122.34501,371.165577 116.351852,365.169794 116.351852,357.779956 C116.351852,350.386736 122.34501,344.394335 129.739165,344.394335 C137.129936,344.394335 143.123094,350.386736 143.123094,357.779956 Z" id="Path" fill="#EF780F"></path>
            <path d="M229.210239,356.856209 C229.210239,371.327974 217.475122,383.069717 202.996732,383.069717 C188.518341,383.069717 176.783224,371.327974 176.783224,356.856209 C176.783224,342.377819 188.518341,330.642701 202.996732,330.642701 C217.475122,330.642701 229.210239,342.377819 229.210239,356.856209 Z" id="Path" fill="#EF780F"></path>
            <path d="M126.282134,441.945534 C126.282134,451.466232 118.565358,459.183006 109.044662,459.183006 C99.5283217,459.183006 91.8115469,451.466232 91.8115469,441.945534 C91.8115469,432.424837 99.5283217,424.708061 109.044662,424.708061 C118.565358,424.708061 126.282134,432.424837 126.282134,441.945534 Z" id="Path" fill="#EF780F"></path>
            <path d="M91.8115469,381.100218 C91.8115469,394.038355 81.3235206,404.525054 68.3837487,404.525054 C55.4498985,404.525054 44.9618737,394.038355 44.9618737,381.100218 C44.9618737,368.162082 55.4498985,357.675381 68.3837487,357.675381 C81.3235206,357.675381 91.8115469,368.162082 91.8115469,381.100218 Z" id="Path" fill="#EF780F"></path>
        </g>
    </g>
</svg>