<?xml version="1.0" encoding="UTF-8"?>
<svg width="512px" height="512px" viewBox="0 0 512 512" version="1.1" xmlns="http://www.w3.org/2000/svg" xmlns:xlink="http://www.w3.org/1999/xlink">
    <!-- Generator: Sketch 59 (86127) - https://sketch.com -->
    <title>ic_shop_blue</title>
    <desc>Created with Sketch.</desc>
    <g id="ic_shop_blue" stroke="none" stroke-width="1" fill="none" fill-rule="evenodd">
        <g id="shop" transform="translate(0.000000, 12.000000)">
            <path d="M481.042969,468 L481.042969,127 C481.042969,118.714844 474.328125,112 466.042969,112 L46.042969,112 C37.761719,112 31.042969,118.714844 31.042969,127 L31.042969,468 L481.042969,468 Z" id="Path" fill="#F5F0EB" fill-rule="nonzero"></path>
            <path d="M51.277344,247.066406 C23.050781,247.066406 0.0898438,224.101562 0.0898438,195.875 L0.0898438,168.484375 C0.0898438,161.773438 5.527344,156.332031 12.238281,156.332031 L90.320312,156.332031 C97.03125,156.332031 102.472656,161.773438 102.472656,168.484375 L102.472656,195.875 C102.46875,224.101562 79.507812,247.066406 51.277344,247.066406 Z" id="Path" fill="#0F8FFF" fill-rule="nonzero"></path>
            <path d="M153.660156,247.066406 C125.433594,247.066406 102.46875,224.101562 102.46875,195.875 L102.46875,181.445312 C102.46875,174.734375 107.910156,169.292969 114.621094,169.292969 L192.699219,169.292969 C199.410156,169.292969 204.851562,174.734375 204.851562,181.445312 L204.851562,195.875 C204.851562,224.101562 181.886719,247.066406 153.660156,247.066406 Z" id="Path" fill="#38D8FF" fill-rule="nonzero"></path>
            <path d="M256.042969,247.066406 C227.816406,247.066406 204.851562,224.101562 204.851562,195.875 L204.851562,181.445312 C204.851562,174.734375 210.292969,169.292969 217.003906,169.292969 L295.085938,169.292969 C301.796875,169.292969 307.234375,174.734375 307.234375,181.445312 L307.234375,195.875 C307.234375,224.101562 284.269531,247.066406 256.042969,247.066406 L256.042969,247.066406 Z" id="Path" fill="#0F8FFF" fill-rule="nonzero"></path>
            <path d="M358.425781,247.066406 C330.199219,247.066406 307.234375,224.101562 307.234375,195.875 L307.234375,181.445312 C307.234375,174.734375 312.675781,169.292969 319.386719,169.292969 L397.464844,169.292969 C404.175781,169.292969 409.617188,174.734375 409.617188,181.445312 L409.617188,195.875 C409.617188,224.101562 386.652344,247.066406 358.425781,247.066406 L358.425781,247.066406 Z" id="Path" fill="#38D8FF" fill-rule="nonzero"></path>
            <path d="M460.808594,247.066406 C432.582031,247.066406 409.617188,224.101562 409.617188,195.875 L409.617188,168.445312 C409.617188,161.734375 415.058594,156.292969 421.769531,156.292969 L499.847656,156.292969 C506.558594,156.292969 512,161.734375 512,168.445312 L512,195.875 C512,224.101562 489.035156,247.066406 460.808594,247.066406 L460.808594,247.066406 Z" id="Path" fill="#0F8FFF" fill-rule="nonzero"></path>
            <path d="M446,122 L66,122 C57.714844,122 51,115.285156 51,107 L51,75 C51,33.644531 84.644531,0 126,0 L386,0 C427.355469,0 461,33.644531 461,75 L461,107 C461,115.285156 454.285156,122 446,122 Z" id="Path" fill="#89FBFF" fill-rule="nonzero"></path>
            <path d="M82.542969,460 L82.542969,295 C82.542969,286.714844 89.257812,280 97.542969,280 L188.457031,280 C196.738281,280 203.457031,286.714844 203.457031,295 L203.457031,460 L82.542969,460 Z" id="Path" fill="#7CE3FF" fill-rule="nonzero"></path>
            <polygon id="Path" fill="#FDBF00" points="306 295 430 295 430 388 306 388"></polygon>
            <path d="M430,403 L306,403 C297.714844,403 291,396.285156 291,388 L291,295 C291,286.714844 297.714844,280 306,280 L430,280 C438.285156,280 445,286.714844 445,295 L445,388 C445,396.285156 438.285156,403 430,403 Z" id="Path" fill="#7CE3FF" fill-rule="nonzero"></path>
            <path d="M497,490 L15.0898438,490 C6.804688,490 0.0898438,483.285156 0.0898438,475 C0.0898438,466.714844 6.804688,460 15.0898438,460 L497,460 C505.285156,460 512,466.714844 512,475 C512,483.285156 505.285156,490 497,490 Z" id="Path" fill="#0F8FFF" fill-rule="nonzero"></path>
            <path d="M511.992188,166.726562 C511.84375,125.496094 478.265625,92 437,92 L75,92 C33.644531,92 0,125.644531 0,167 L0,182 L512,182 L512,166.726562 L511.992188,166.726562 Z" id="Path" fill="#38D8FF" fill-rule="nonzero"></path>
        </g>
    </g>
</svg>