<?xml version="1.0" encoding="UTF-8"?>
<svg width="512px" height="512px" viewBox="0 0 512 512" version="1.1" xmlns="http://www.w3.org/2000/svg" xmlns:xlink="http://www.w3.org/1999/xlink">
    <!-- Generator: Sketch 59 (86127) - https://sketch.com -->
    <title>ic_star_v2</title>
    <desc>Created with Sketch.</desc>
    <g id="ic_star_v2" stroke="none" stroke-width="1" fill="none" fill-rule="evenodd">
        <path d="M311.503713,32.9006765 L334.932314,75.7717028 C358.321837,118.525486 393.474514,153.678163 436.228297,177.067686 L479.099323,200.51583 C522.966892,224.511098 522.966892,287.508446 479.099323,311.503713 L436.228297,334.951858 C393.474514,358.321842 358.321837,393.494058 334.932314,436.247841 L311.503713,479.099323 C287.508441,522.966892 224.491554,522.966892 200.496287,479.099323 L177.067686,436.247841 C153.678158,393.494058 118.525481,358.321842 75.7717028,334.951858 L32.9006765,311.503713 C-10.9668922,287.508446 -10.9668922,224.511098 32.9006765,200.51583 L75.7717028,177.067686 C118.525481,153.678163 153.678158,118.525486 177.067686,75.7717028 L200.496287,32.9006765 C224.491554,-10.9668922 287.508441,-10.9668922 311.503713,32.9006765 Z" id="blink" fill="#FFCD00" fill-rule="nonzero"></path>
    </g>
</svg>