<?xml version="1.0" encoding="UTF-8"?>
<svg width="512px" height="512px" viewBox="0 0 512 512" version="1.1" xmlns="http://www.w3.org/2000/svg" xmlns:xlink="http://www.w3.org/1999/xlink">
    <!-- Generator: Sketch 59 (86127) - https://sketch.com -->
    <title>ic_settings</title>
    <desc>Created with Sketch.</desc>
    <g id="ic_settings" stroke="none" stroke-width="1" fill="none" fill-rule="evenodd">
        <g id="settings">
            <path d="M279.799886,0.00795313488 C295.746005,-0.249233627 309.457279,11.8046957 311.492703,28.0214654 L311.492703,28.0214654 L316.532935,68.0869131 C326.485038,71.3157218 336.307303,75.3704268 345.842285,80.2316977 L345.842285,80.2316977 L377.806801,55.4763565 C398.383375,49.5611989 412.473288,50.4144415 420.076538,58.0360844 L420.076538,58.0360844 L453.868508,91.8280542 C465.287178,103.246724 466.372354,121.441256 456.370228,134.155799 L456.370228,134.155799 L431.672895,166.062307 C436.547977,175.583478 440.605445,185.402981 443.817679,195.371658 L443.817679,195.371658 L483.869316,200.398078 C500.099897,202.447314 512.140015,216.144777 511.896636,232.253864 L511.896636,232.253864 L511.895732,279.774554 C512.152312,295.720662 500.097861,309.432395 483.881014,311.468436 L483.881014,311.468436 L443.815374,316.510193 C440.586187,326.462419 436.531108,336.284839 431.669474,345.820006 L431.669474,345.820006 L456.875335,378.372225 C466.34519,391.011777 465.119483,408.823782 453.876057,420.067208 L453.876057,420.067208 L420.082801,453.860464 C408.663696,465.279568 390.469141,466.365454 377.724594,456.333428 L377.724594,456.333428 L345.821788,431.640071 C336.300432,436.515515 326.478012,440.570594 316.509214,443.783209 L316.509214,443.783209 L311.484031,483.837799 C309.417604,500.051884 295.733484,512.106344 279.640989,511.880141 L279.640989,511.880141 L232.120299,511.881046 C216.174181,512.138233 202.462907,500.084304 200.427483,483.867534 L200.427483,483.867534 L195.387251,443.802086 C185.435148,440.573278 175.612882,436.518573 166.0779,431.657302 L166.0779,431.657302 L134.113385,456.412643 C121.443037,466.370573 103.248523,465.28538 91.8298528,453.866709 L91.8298528,453.866709 L58.037883,420.07474 C46.619213,408.65607 45.5340193,390.461556 55.5361454,377.747012 L55.5361454,377.747012 L80.2472907,345.826692 C75.3860198,336.29171 71.314741,326.486019 68.1025061,316.517342 L68.1025061,316.517342 L28.0508696,311.490921 C11.8202887,309.441686 -0.233640642,295.730412 0.00697649582,279.618562 L0.00697649582,279.618562 L0.0214399239,231.450784 C0.117700043,215.776287 12.074797,202.428325 28.0391715,200.420563 L28.0391715,200.420563 L67.4114991,195.469972 C67.7125844,195.141265 68.0910084,194.911997 68.4059043,194.597101 C71.6047024,184.912807 75.5133809,175.363848 80.250711,166.068994 L80.250711,166.068994 L55.4965862,134.10542 C45.5391382,121.435452 46.6250243,103.240896 58.0441289,91.8217917 L58.0441289,91.8217917 L91.8373847,58.0285359 C103.256489,46.6094313 121.451044,45.5235453 134.165208,55.5251874 L134.165208,55.5251874 L166.084587,80.2351181 C175.633565,75.3596733 185.455985,71.3045945 195.410973,68.0726443 L195.410973,68.0726443 L200.422345,28.0373903 C202.486008,11.8205419 216.18393,-0.247719757 232.279197,0.00885804368 L232.279197,0.00885804368 Z M255.003437,116.003914 C178.235857,116.003914 116.003437,178.236334 116.003437,255.003914 C116.003437,331.771494 178.235857,394.003914 255.003437,394.003914 C331.771017,394.003914 394.003437,331.771494 394.003437,255.003914 C394.003437,178.236334 331.771017,116.003914 255.003437,116.003914 Z" id="Shape" fill="#C5E1E6" fill-rule="nonzero"></path>
            <circle id="Oval" fill="#8DB9C4" cx="256" cy="256" r="80"></circle>
        </g>
    </g>
</svg>