<?xml version="1.0" encoding="UTF-8"?>
<svg width="512px" height="512px" viewBox="0 0 512 512" version="1.1" xmlns="http://www.w3.org/2000/svg" xmlns:xlink="http://www.w3.org/1999/xlink">
    <!-- Generator: Sketch 59 (86127) - https://sketch.com -->
    <title>ic_skull</title>
    <desc>Created with Sketch.</desc>
    <g id="ic_skull" stroke="none" stroke-width="1" fill="none" fill-rule="evenodd">
        <g id="skull" transform="translate(31.000000, 0.000000)" fill-rule="nonzero">
            <path d="M445.11,271 C460.73,196.25 438.11,119.88 384.11,65.9 C341.58,23.41 285.09,-1.13686838e-13 225,-1.13686838e-13 C164.92,-1.13686838e-13 108.43,23.41 65.89,65.9 C23.41,108.38 3.12638804e-13,164.9 3.12638804e-13,225 C3.12638804e-13,240.01 1.64,255.47 4.9,271 C-1.26,288.94 -1.58,308.09 3.93,326.69 C13.51,358.77 40.29,382.32 76.5,388.49 C79.9,388.49 81.98,388.86 83.85,389.17 C85.9,389.5 87.86,389.78 90,389.93 L90,447.96 C90,466.14 100.7,482.37 117.28,489.31 C126.433,493.15 137.513,497.258 150.087,500.908 C152.526,501.616 154.97,499.781 154.97,497.241 L154.97,437 C154.97,429.69 160.36,427.1 164.97,427.1 C169.58,427.1 174.97,429.69 174.97,437 L174.97,503.816 C174.97,505.646 176.267,507.229 178.067,507.563 C188.448,509.491 199.455,510.907 210.916,511.568 C213.113,511.695 214.971,509.958 214.971,507.757 L214.971,437 C214.971,429.106 221.257,427 224.971,427 C228.685,427 234.971,429.106 234.971,437 L234.971,507.77 C234.971,509.971 236.83,511.706 239.027,511.58 C249.79,510.963 260.153,509.678 269.971,507.92 C271.414,507.664 273.074,505.393 274.69,502.352 L274.69,437 C274.69,429.106 280.976,427 284.69,427 C288.404,427 294.69,429.106 294.69,437 L294.69,498.616 C296.74,500.285 298.627,501.281 299.971,500.89 C312.531,497.25 323.591,493.14 332.731,489.31 C349.311,482.37 360.001,466.14 360.001,447.96 L360.001,389.85 C362.081,389.72 364.021,389.46 366.041,389.14 C369.001,388.68 373.661,389.24 378.341,387.7 C411.241,381.08 437.171,357.55 446.281,325.87 C451.59,307.51 451.15,288.63 445.11,271 Z" id="Path" fill="#C5E1E6"></path>
            <path d="M255.003,390 C241.597637,383.828 231.592105,380.742 224.986404,380.742 C218.258772,380.742 208.264304,383.828 195.003,390 C188.939,390 183.46,386.353 181.146,380.742 C178.832,375.131 180.121,368.686 184.398,364.394 L214.398,334.394 C220.257,328.535 229.75,328.535 235.609,334.394 L265.609,364.394 C269.886,368.686 271.175,375.131 268.861,380.742 C266.547,386.353 261.068,390 255.003,390 Z" id="Path" fill="#000000"></path>
            <path d="M315.003,158 C273.603,158 240.003,196.528 240.003,244 C240.003,291.472 273.603,330 315.003,330 C356.403,330 390.003,291.472 390.003,244 C390.003,196.528 356.403,158 315.003,158 Z" id="Path" fill="#000000"></path>
            <path d="M135.003,158 C93.603,158 60.003,196.528 60.003,244 C60.003,291.472 93.603,330 135.003,330 C176.403,330 210.003,291.472 210.003,244 C210.003,196.528 176.403,158 135.003,158 Z" id="Path" fill="#000000"></path>
        </g>
    </g>
</svg>