<?xml version="1.0" encoding="UTF-8"?>
<svg width="512px" height="512px" viewBox="0 0 512 512" version="1.1" xmlns="http://www.w3.org/2000/svg" xmlns:xlink="http://www.w3.org/1999/xlink">
    <!-- Generator: Sketch 59 (86127) - https://sketch.com -->
    <title>ic_shield</title>
    <desc>Created with Sketch.</desc>
    <defs>
        <path d="M216.107277,83.8408621 C227.078335,83.8408621 237.494049,109.830675 281.570567,129.519559 C325.647084,149.208442 357.842216,145.23042 362.576749,149.208442 C371.023885,156.305848 350.616023,360.942562 345.849213,366.495768 C341.082404,372.048974 226.777132,436.152753 216.107277,436.152753 C205.437422,436.152753 90.0308761,370.179538 86.351894,366.495768 C82.672912,362.811998 61.6317166,159.44263 68.5795602,149.208442 C72.1148738,144.000918 107.340648,149.208442 151.374136,129.519559 C195.407625,109.830675 205.136219,83.8408621 216.107277,83.8408621 Z" id="path-1"></path>
    </defs>
    <g id="ic_shield" stroke="none" stroke-width="1" fill="none" fill-rule="evenodd">
        <g id="shield" transform="translate(40.000000, 0.000000)">
            <path d="M215.892329,2.27373675e-13 C231.796813,2.27373675e-13 246.896228,37.6966126 310.792914,66.2541175 C374.6896,94.8116224 421.362123,89.0417479 428.225663,94.8116224 C440.471277,105.105969 410.886481,401.918835 403.97615,409.973416 C397.065818,418.027997 231.360165,511.006554 215.892329,511.006554 C200.424493,511.006554 33.1223487,415.316496 27.7890154,409.973416 C22.455682,404.630336 -8.04724193,109.655677 2.02488282,94.8116224 C7.14994339,87.2584317 58.215916,94.8116224 122.050224,66.2541175 C185.884532,37.6966126 199.987846,2.27373675e-13 215.892329,2.27373675e-13 Z" id="Path-8" fill="#C5E1E6"></path>
            <mask id="mask-2" fill="white">
                <use xlink:href="#path-1"></use>
            </mask>
            <use id="Path-8" fill="#EF7D5E" xlink:href="#path-1"></use>
            <path d="M113.777778,129.746589 L147.711501,129.746589 L147.711501,274.463938 C147.711501,283.834477 140.115178,291.430799 130.744639,291.430799 C121.3741,291.430799 113.777778,283.834477 113.777778,274.463938 L113.777778,129.746589 Z" id="Rectangle" fill="#D3644F" mask="url(#mask-2)"></path>
            <path d="M283.446394,129.746589 L317.380117,129.746589 L317.380117,274.463938 C317.380117,283.834477 309.783794,291.430799 300.413255,291.430799 C291.042716,291.430799 283.446394,283.834477 283.446394,274.463938 L283.446394,129.746589 Z" id="Rectangle" fill="#D3644F" mask="url(#mask-2)"></path>
            <path d="M215.578947,174.658869 C224.949486,174.658869 232.545809,182.255192 232.545809,191.625731 L232.545809,375.267057 C232.545809,384.637595 224.949486,392.233918 215.578947,392.233918 C206.208408,392.233918 198.612086,384.637595 198.612086,375.267057 L198.612086,191.625731 C198.612086,182.255192 206.208408,174.658869 215.578947,174.658869 Z" id="Rectangle" fill="#D3644F" mask="url(#mask-2)"></path>
            <path d="M283.446394,355.306043 C292.816933,355.306043 300.413255,362.902366 300.413255,372.272904 L300.413255,413.192982 C300.413255,422.563521 292.816933,430.159844 283.446394,430.159844 C274.075855,430.159844 266.479532,422.563521 266.479532,413.192982 L266.479532,372.272904 C266.479532,362.902366 274.075855,355.306043 283.446394,355.306043 Z" id="Rectangle" fill="#D3644F" mask="url(#mask-2)"></path>
            <path d="M147.711501,355.306043 C157.08204,355.306043 164.678363,362.902366 164.678363,372.272904 L164.678363,413.192982 C164.678363,422.563521 157.08204,430.159844 147.711501,430.159844 C138.340962,430.159844 130.744639,422.563521 130.744639,413.192982 L130.744639,372.272904 C130.744639,362.902366 138.340962,355.306043 147.711501,355.306043 Z" id="Rectangle" fill="#D3644F" mask="url(#mask-2)"></path>
        </g>
    </g>
</svg>