<?xml version="1.0" encoding="UTF-8"?>
<svg width="512px" height="512px" viewBox="0 0 512 512" version="1.1" xmlns="http://www.w3.org/2000/svg" xmlns:xlink="http://www.w3.org/1999/xlink">
    <!-- Generator: Sketch 59 (86127) - https://sketch.com -->
    <title>ic_star</title>
    <desc>Created with Sketch.</desc>
    <g id="ic_star" stroke="none" stroke-width="1" fill="none" fill-rule="evenodd">
        <path d="M256,423.880952 L175.308611,444.916705 C143.664941,453.166016 111.32529,434.201141 103.075979,402.557472 C102.099949,398.813503 101.493238,394.98288 101.264548,391.120544 L96.3357263,307.878067 L96.3357263,307.878067 L51.3945265,237.636401 C33.7705335,210.09066 41.8136993,173.473356 69.35944,155.849363 C72.6185567,153.764153 76.074211,152.003409 79.6768419,150.592384 L157.322052,120.181456 L157.322052,120.181456 L210.238252,55.7339668 C230.989695,30.4604515 268.300296,26.7945875 293.573811,47.5460304 C296.564086,50.0012692 299.306509,52.743692 301.761748,55.7339668 L354.677948,120.181456 L354.677948,120.181456 L432.323158,150.592384 C462.772248,162.518233 477.788302,196.869909 465.862452,227.318999 C464.451427,230.92163 462.690683,234.377284 460.605474,237.636401 L415.664274,307.878067 L415.664274,307.878067 L410.735452,391.120544 C408.802582,423.764639 380.772413,448.661006 348.128317,446.728136 C344.265981,446.499446 340.435359,445.892735 336.691389,444.916705 L256,423.880952 L256,423.880952 Z" id="Star" fill="#FFD400"></path>
    </g>
</svg>