<?xml version="1.0" encoding="UTF-8"?>
<svg width="512px" height="512px" viewBox="0 0 512 512" version="1.1" xmlns="http://www.w3.org/2000/svg" xmlns:xlink="http://www.w3.org/1999/xlink">
    <!-- Generator: Sketch 59 (86127) - https://sketch.com -->
    <title>ic_sword</title>
    <desc>Created with Sketch.</desc>
    <g id="ic_sword" stroke="none" stroke-width="1" fill="none" fill-rule="evenodd">
        <g id="sword" transform="translate(0.000000, 2.000000)">
            <path d="M106.160384,213.958903 L293.789082,401.587602 C301.16449,408.963009 301.16449,420.920906 293.789082,428.296313 L275.092984,446.992411 C257.392007,464.693388 228.693054,464.693388 210.992077,446.992411 L60.755574,296.755909 C43.0545971,279.054932 43.0545971,250.355978 60.755574,232.655001 L79.4516721,213.958903 C86.8270792,206.583496 98.7849767,206.583496 106.160384,213.958903 Z" id="Rectangle" fill="#FFD400"></path>
            <path d="M397.601928,4.63274837 C406.331848,-1.92073381 493.457867,-1.92073381 503.160468,7.21093504 C512.86019,16.3454833 512.86019,99.9931015 505.104492,112.135312 C499.934026,120.23012 416.469303,203.694843 254.710321,362.529483 L147.207757,255.026919 L184.383257,217.531047 C321.174686,79.6183171 392.247577,8.65221744 397.601928,4.63274837 Z" id="Rectangle" fill="#C5E1E6"></path>
            <path d="M434.158059,74.253956 C440.427155,80.523052 440.427155,90.6872649 434.158059,96.9563609 L211.808036,319.306385 L189.105631,296.60398 L411.455655,74.253956 C417.724751,67.98486 427.888963,67.98486 434.158059,74.253956 Z" id="Rectangle" fill="#8DB9C4"></path>
            <polygon id="Rectangle" fill="#008ADF" points="104.028821 340.093168 168.129729 404.194076 135.593007 436.730798 71.4920994 372.62989"></polygon>
            <path d="M54.6742356,356.321779 L151.493315,453.140859 C156.6561,458.303644 156.6561,466.674172 151.493315,471.836957 L128.79091,494.539362 C111.089933,512.240339 82.3909794,512.240339 64.6900025,494.539362 L13.2757327,443.125092 C-4.42524423,425.424115 -4.42524423,396.725161 13.2757327,379.024184 L35.9781375,356.321779 C41.1409224,351.158994 49.5114507,351.158994 54.6742356,356.321779 Z" id="Rectangle" fill="#FFD400"></path>
        </g>
    </g>
</svg>