<?xml version="1.0" encoding="UTF-8"?>
<svg width="512px" height="512px" viewBox="0 0 512 512" version="1.1" xmlns="http://www.w3.org/2000/svg" xmlns:xlink="http://www.w3.org/1999/xlink">
    <!-- Generator: Sketch 59 (86127) - https://sketch.com -->
    <title>ic_visor_blue</title>
    <desc>Created with Sketch.</desc>
    <g id="ic_visor_blue" stroke="none" stroke-width="1" fill="none" fill-rule="evenodd">
        <g id="ic_characters" transform="translate(60.000000, 0.000000)" fill-rule="nonzero">
            <rect id="Rectangle" fill="#0F8FFF" x="59.996" y="211.006" width="270.007" height="271.007"></rect>
            <path d="M390.009,256.007 L390.009,467.013 C390.009,474.213 384.91,480.213 378.008,481.713 L330.008,491.313 L300.008,497.314 L258.006,511.714 C248.706,513.514 240.007,506.615 240.007,497.014 L240.007,326.809 L319.808,300.108 C325.808,298.308 330.009,292.608 330.009,286.009 L330.009,226.007 C330.009,221.506 327.909,217.007 324.309,214.307 C320.709,211.308 315.91,210.407 311.409,211.606 L195.003,240.408 L78.6,211.606 C74.099,210.407 69.3,211.308 65.7,214.307 C62.1,217.008 60,221.507 60,226.007 L60,286.009 C60,292.608 64.2,298.308 70.201,300.108 L150.002,326.809 L150.002,497.014 C150.002,506.614 141.303,513.514 132.003,511.714 L90.001,497.314 L60.001,491.313 L12.001,481.713 C5.1,480.213 0,474.213 0,467.013 L0,256.007 C0,160.004 68.701,79.001 163.504,63.401 L226.503,63.401 C321.308,79.001 390.009,160.004 390.009,256.007 Z" id="Path" fill="#38D8FF"></path>
            <path d="M239.103,101.202 L209.103,9.3 C207.005,3.301 201.003,1.42108547e-14 195.003,1.42108547e-14 C189.003,1.42108547e-14 183.002,3.301 180.904,9.3 L150.903,101.202 C149.702,104.203 149.702,107.803 150.903,110.802 L180.904,200.804 C182.704,206.804 188.404,211.005 195.003,211.005 C201.602,211.005 207.302,206.805 209.102,200.804 L239.103,110.802 C240.304,107.803 240.304,104.203 239.103,101.202 Z" id="Path" fill="#DD0404"></path>
            <path d="M75,362.01 C66.709,362.01 60,368.719 60,377.01 L60,491.309 L90.001,497.309 L90.001,377.01 C90,368.719 83.291,362.01 75,362.01 Z" id="Path" fill="#0F8FFF"></path>
            <path d="M315.007,362.01 C306.716,362.01 300.007,368.719 300.007,377.01 L300.007,497.31 L330.008,491.31 L330.008,377.01 C330.007,368.719 323.298,362.01 315.007,362.01 Z" id="Path" fill="#0F8FFF"></path>
        </g>
    </g>
</svg>