<?xml version="1.0" encoding="UTF-8"?>
<svg width="512px" height="512px" viewBox="0 0 512 512" version="1.1" xmlns="http://www.w3.org/2000/svg" xmlns:xlink="http://www.w3.org/1999/xlink">
    <!-- Generator: Sketch 59 (86127) - https://sketch.com -->
    <title>ic_wood</title>
    <desc>Created with Sketch.</desc>
    <g id="ic_wood" stroke="none" stroke-width="1" fill="none" fill-rule="evenodd">
        <g id="wood" transform="translate(256.000000, 255.500000) scale(-1, 1) translate(-256.000000, -255.500000) translate(0.000000, 30.000000)" fill-rule="nonzero">
            <path d="M187.976562,0.78125 L218.296875,0.78125 C230.894531,0.78125 242.222656,8.507812 246.769531,20.257812 C254.543482,40.3565766 259.561882,62.0074979 260.514383,76.59892 L397.15625,76.597656 L397.15625,450.503906 L114.84375,450.503906 C51.417969,450.503906 0,366.800781 0,263.550781 C0,161.329414 50.3947514,78.2735958 112.944618,76.6227016 L114.84375,76.597656 L145.759055,76.59892 C146.711556,62.0074979 151.729956,40.3565766 159.503906,20.257812 C163.999112,8.64133473 175.122324,0.957373237 187.547596,0.78125 L187.976562,0.78125 L218.296875,0.78125 L187.976562,0.78125 Z" id="Path" fill="#8F5040"></path>
            <path d="M361.695312,199.089844 L209.917969,199.089844 C197.707031,199.089844 187.808594,189.195312 187.808594,176.984375 C187.808594,164.773438 197.707031,154.878906 209.917969,154.878906 L361.695312,154.878906 L361.695312,199.089844 Z" id="Path" fill="#65372C"></path>
            <path d="M174,263.210938 L22.109375,263.210938 C9.898437,263.210938 -7.95807864e-13,253.316406 -7.95807864e-13,241.105469 C-7.95807864e-13,228.894532 9.898437,219 22.109375,219 L170.841797,219 C172.001727,228.744025 172.760028,236.112515 173.116699,241.105469 C173.47337,246.098423 173.767804,253.466913 174,263.210938 Z" id="Path" fill="#65372C" transform="translate(87.000000, 241.105469) scale(-1, 1) translate(-87.000000, -241.105469) "></path>
            <path d="M119.953125,328.007812 L7.011719,328.007812 C10.589844,343.863281 15.449219,358.710938 21.386719,372.222656 L119.953125,372.222656 C132.160156,372.222656 142.058594,362.324219 142.058594,350.113281 C142.058594,337.90625 132.160156,328.007812 119.953125,328.007812 L119.953125,328.007812 Z" id="Path" fill="#65372C"></path>
            <path d="M204.273438,372.222656 L228.78125,372.222656 C240.988281,372.222656 250.886719,362.324219 250.886719,350.113281 C250.886719,337.90625 240.992188,328.007812 228.78125,328.007812 L204.273438,328.007812 C192.066406,328.007812 182.167969,337.90625 182.167969,350.113281 C182.167969,362.324219 192.066406,372.222656 204.273438,372.222656 L204.273438,372.222656 Z" id="Path" fill="#65372C"></path>
            <path d="M70.386719,199.214844 L94.894531,199.214844 C107.101562,199.214844 117,189.316407 117,177.105469 C117,164.898438 107.105469,155 94.894531,155 L70.386719,155 C58.179687,155 48.28125,164.898438 48.28125,177.105469 C48.28125,189.316407 58.179687,199.214844 70.386719,199.214844 L70.386719,199.214844 Z" id="Path" fill="#65372C"></path>
            <path d="M512,263.550781 C512,160.296875 460.582031,76.597656 397.15625,76.597656 C333.730469,76.597656 282.316406,160.296875 282.316406,263.550781 C282.316406,366.800781 333.730469,450.503906 397.15625,450.503906 C460.582031,450.503906 512,366.800781 512,263.550781 Z" id="Path" fill="#EFD4BF"></path>
            <path d="M445.898438,263.550781 C445.898438,207.5 424.078125,162.0625 397.15625,162.0625 C370.238281,162.0625 348.417969,207.5 348.417969,263.550781 C348.417969,319.601562 370.238281,365.039062 397.15625,365.039062 C424.078125,365.039062 445.898438,319.601562 445.898438,263.550781 L445.898438,263.550781 Z" id="Path" fill="#C2886C"></path>
        </g>
    </g>
</svg>