# 3ds Max Wavefront OBJ Exporter v0.97b - (c)2007 guruware
# File Created: 14.12.2017 14:19:45

mtllib floorlp.mtl

#
# object Group18461
#

v  -3.0139 -0.0457 -1.5379
v  -3.0139 -0.0457 -0.8494
v  -2.5070 -0.0014 -0.9350
v  -2.5203 -0.0457 -1.5379
v  -2.0004 -0.0067 -0.8636
v  -2.0103 -0.0457 -1.5379
v  -2.4490 0.0457 -0.4728
v  -1.8797 -0.0075 -0.5103
v  -3.0139 -0.0457 -0.3973
v  -2.3843 0.0256 -0.1466
v  -1.6217 -0.0176 -0.2215
v  -3.0139 -0.0457 -0.0068
v  -2.3401 -0.0271 0.1170
v  -1.6072 -0.0132 -0.0463
v  -3.0139 -0.0457 0.0924
v  -1.8734 -0.0040 0.5031
v  -2.3766 0.0229 0.5734
v  -3.0139 -0.0457 0.5648
v  -2.4238 -0.0120 1.1590
v  -1.8018 -0.0220 1.1740
v  -3.0139 -0.0457 1.0108
v  -2.4046 -0.0457 1.5379
v  -1.8158 -0.0457 1.5379
v  -3.0139 -0.0457 1.5379
v  -0.9274 -0.0457 1.5379
v  -0.9064 -0.0129 0.9130
v  -0.8402 -0.0212 0.3567
v  -0.8400 -0.0185 0.1311
v  -0.8531 -0.0072 -0.2541
v  -1.1004 -0.0026 -0.7851
v  -1.1610 0.0004 -1.0258
v  -1.2218 -0.0457 -1.5379
v  -0.4332 -0.0389 -1.1939
v  -0.3754 -0.0457 -1.5379
v  -0.3964 -0.0389 -0.9356
v  -0.2316 -0.0218 -0.5102
v  -0.2021 -0.0253 -0.2648
v  -0.2169 -0.0056 0.3641
v  -0.4671 -0.0145 0.8876
v  -0.1861 -0.0457 1.5379
v  0.5919 -0.0457 1.5379
v  0.2480 -0.0190 0.7295
v  0.0782 -0.0200 -1.2072
v  0.2081 -0.0457 -1.5379
v  0.0910 -0.0306 -0.9645
v  0.2496 -0.0233 -0.5110
v  0.2396 -0.0169 -0.2292
v  0.0282 -0.0118 0.2992
v  0.8115 -0.0184 -1.4274
v  0.8390 -0.0457 -1.5379
v  0.8453 -0.0113 -1.1754
v  1.0387 -0.0383 -0.5642
v  1.1026 -0.0304 -0.2061
v  1.1444 -0.0036 0.2277
v  1.9105 0.0153 0.5692
v  0.9585 -0.0111 0.4273
v  1.3331 -0.0457 1.5379
v  2.0166 -0.0457 1.5379
v  1.7056 -0.0053 0.0791
v  1.6147 -0.0262 -0.4008
v  1.6079 -0.0314 -0.7149
v  1.3133 -0.0276 -1.2837
v  1.2807 -0.0187 -1.4162
v  1.3856 -0.0457 -1.5379
v  2.1480 -0.0386 -1.3123
v  2.1375 -0.0457 -1.5379
v  2.2268 -0.0343 -1.1401
v  2.3863 0.0325 -0.8949
v  2.4489 0.0181 -0.1789
v  2.4305 -0.0013 0.2302
v  2.5063 0.0420 0.6859
v  2.5055 -0.0457 1.5379
v  3.0139 -0.0457 0.9014
v  3.0139 -0.0457 1.5379
v  3.0139 -0.0457 0.1582
v  3.0139 -0.0457 -0.2285
v  3.0139 -0.0457 -0.8073
v  3.0139 -0.0457 -0.9890
v  3.0139 -0.0457 -1.2095
v  3.0139 -0.0457 -1.5379
# 80 vertices

vn -0.0413 0.9909 -0.1283
vn -0.1204 0.9848 -0.1255
vn -0.0207 0.9897 -0.1420
vn -0.0101 0.9905 -0.1372
vn 0.0414 0.9918 -0.1213
vn -0.0007 0.9880 -0.1543
vn -0.0202 0.9992 -0.0356
vn 0.0872 0.9961 -0.0111
vn -0.1909 0.9815 0.0125
vn 0.0039 0.9797 0.2006
vn 0.0404 0.9946 0.0959
vn -0.1210 0.9489 0.2916
vn -0.0045 0.9984 0.0566
vn 0.0291 0.9980 0.0554
vn -0.0567 0.9928 0.1058
vn 0.0294 0.9993 -0.0220
vn 0.0152 0.9986 -0.0505
vn -0.0177 0.9955 -0.0928
vn 0.0359 0.9876 0.1527
vn 0.0291 0.9940 0.1056
vn 0.0183 0.9908 0.1339
vn 0.0220 0.9776 0.2095
vn 0.0120 0.9896 0.1432
vn 0.0258 0.9656 0.2589
vn 0.0057 0.9935 0.1141
vn -0.0000 0.9984 0.0570
vn -0.0055 0.9999 -0.0137
vn 0.0074 1.0000 -0.0042
vn 0.0355 0.9992 0.0175
vn 0.0418 0.9991 0.0031
vn 0.0324 0.9971 -0.0692
vn 0.0076 0.9893 -0.1458
vn 0.0204 0.9987 -0.0478
vn -0.0042 0.9944 -0.1055
vn 0.0331 0.9993 -0.0178
vn 0.0233 0.9993 -0.0280
vn 0.0094 0.9999 -0.0082
vn -0.0025 0.9999 -0.0101
vn 0.0000 0.9986 0.0536
vn 0.0127 0.9960 0.0881
vn 0.0050 0.9975 0.0711
vn 0.0095 0.9979 0.0634
vn -0.0460 0.9981 -0.0405
vn -0.0482 0.9821 -0.1823
vn -0.0282 0.9995 0.0120
vn 0.0032 0.9998 -0.0179
vn 0.0053 0.9985 -0.0552
vn 0.0062 0.9999 -0.0112
vn -0.0094 0.9846 -0.1746
vn -0.0064 0.9255 -0.3786
vn 0.0111 0.9995 0.0308
vn 0.0101 0.9999 -0.0048
vn -0.0115 0.9966 -0.0820
vn -0.0269 0.9978 -0.0610
vn -0.0472 0.9988 0.0106
vn -0.0194 0.9983 0.0553
vn -0.0309 0.9948 0.0975
vn -0.0680 0.9848 0.1599
vn -0.0508 0.9963 -0.0699
vn -0.0848 0.9959 -0.0316
vn -0.0729 0.9968 -0.0318
vn 0.0189 0.9998 0.0027
vn 0.0344 0.9791 -0.2006
vn 0.0351 0.9711 -0.2359
vn -0.0041 0.9965 -0.0840
vn 0.0040 0.9866 -0.1631
vn -0.0513 0.9907 -0.1259
vn -0.0159 0.9879 -0.1546
vn -0.0194 0.9994 0.0304
vn 0.0021 0.9978 -0.0658
vn 0.0042 0.9996 0.0284
vn -0.0266 0.9760 0.2163
vn 0.0492 0.9926 0.1109
vn 0.0318 0.9717 0.2341
vn 0.0565 0.9981 -0.0245
vn 0.0703 0.9966 0.0429
vn 0.0780 0.9803 -0.1816
vn -0.0124 0.9670 -0.2544
vn -0.0654 0.9917 -0.1103
vn -0.0321 0.9864 -0.1610
# 80 vertex normals

vt 0.9984 0.9928 0.0000
vt 0.7772 0.9965 0.0000
vt 0.8055 0.9151 0.0000
vt 0.9929 0.9172 0.0000
vt 0.7819 0.8311 0.0000
vt 0.9929 0.8328 0.0000
vt 0.6525 0.9054 0.0000
vt 0.6649 0.8111 0.0000
vt 0.6275 1.0000 0.0000
vt 0.5444 0.8947 0.0000
vt 0.5692 0.7684 0.0000
vt 0.4981 0.9944 0.0000
vt 0.4571 0.8874 0.0000
vt 0.5112 0.7660 0.0000
vt 0.4652 0.9948 0.0000
vt 0.3292 0.8101 0.0000
vt 0.3060 0.8934 0.0000
vt 0.3088 0.9925 0.0000
vt 0.1120 0.9013 0.0000
vt 0.1070 0.7982 0.0000
vt 0.1611 0.9957 0.0000
vt 0.0036 0.8981 0.0000
vt 0.0000 0.8005 0.0000
vt 0.0125 0.9913 0.0000
vt 0.0018 0.6533 0.0000
vt 0.1935 0.6498 0.0000
vt 0.3777 0.6389 0.0000
vt 0.4525 0.6388 0.0000
vt 0.5800 0.6410 0.0000
vt 0.7559 0.6820 0.0000
vt 0.8356 0.6920 0.0000
vt 0.9875 0.7021 0.0000
vt 0.8913 0.5714 0.0000
vt 1.0000 0.5618 0.0000
vt 0.8057 0.5653 0.0000
vt 0.6648 0.5380 0.0000
vt 0.5835 0.5331 0.0000
vt 0.3753 0.5356 0.0000
vt 0.2019 0.5770 0.0000
vt 0.0053 0.5305 0.0000
vt 0.0107 0.4016 0.0000
vt 0.2542 0.4585 0.0000
vt 0.8957 0.4867 0.0000
vt 0.9947 0.4652 0.0000
vt 0.8153 0.4846 0.0000
vt 0.6651 0.4583 0.0000
vt 0.5718 0.4599 0.0000
vt 0.3968 0.4950 0.0000
vt 0.9686 0.3652 0.0000
vt 0.9945 0.3606 0.0000
vt 0.8851 0.3596 0.0000
vt 0.6827 0.3275 0.0000
vt 0.5641 0.3169 0.0000
vt 0.4204 0.3100 0.0000
vt 0.3073 0.1831 0.0000
vt 0.3543 0.3408 0.0000
vt 0.0000 0.2787 0.0000
vt 0.0053 0.1655 0.0000
vt 0.4697 0.2170 0.0000
vt 0.6286 0.2321 0.0000
vt 0.7326 0.2332 0.0000
vt 0.9210 0.2820 0.0000
vt 0.9649 0.2874 0.0000
vt 0.9911 0.2700 0.0000
vt 0.9305 0.1437 0.0000
vt 1.0000 0.1455 0.0000
vt 0.8734 0.1307 0.0000
vt 0.7922 0.1042 0.0000
vt 0.5551 0.0939 0.0000
vt 0.4196 0.0969 0.0000
vt 0.2687 0.0844 0.0000
vt 0.0053 0.0845 0.0000
vt 0.1973 0.0050 0.0000
vt 0.0089 0.0000 0.0000
vt 0.4435 0.0080 0.0000
vt 0.5715 0.0086 0.0000
vt 0.7632 0.0077 0.0000
vt 0.8234 0.0010 0.0000
vt 0.8964 0.0070 0.0000
vt 0.9911 0.0000 0.0000
# 80 texture coords

g Group18461
usemtl default
s off
f 1/1/1 2/2/2 3/3/3 4/4/4 
f 3/3/3 5/5/5 6/6/6 4/4/4 
f 7/7/7 8/8/8 5/5/5 3/3/3 
f 2/2/2 9/9/9 7/7/7 3/3/3 
f 10/10/10 11/11/11 8/8/8 7/7/7 
f 9/9/9 12/12/12 10/10/10 7/7/7 
f 10/10/10 13/13/13 14/14/14 11/11/11 
f 13/13/13 10/10/10 12/12/12 15/15/15 
f 16/16/16 14/14/14 13/13/13 17/17/17 
f 13/13/13 15/15/15 18/18/18 17/17/17 
f 17/17/17 19/19/19 20/20/20 16/16/16 
f 17/17/17 18/18/18 21/21/21 19/19/19 
f 20/20/20 19/19/19 22/22/22 23/23/23 
f 19/19/19 21/21/21 24/24/24 22/22/22 
f 25/25/25 26/26/26 20/20/20 23/23/23 
f 26/26/26 27/27/27 16/16/16 20/20/20 
f 14/14/14 16/16/16 27/27/27 28/28/28 
f 14/14/14 28/28/28 29/29/29 11/11/11 
f 11/11/11 29/29/29 30/30/30 8/8/8 
f 31/31/31 5/5/5 8/8/8 30/30/30 
f 6/6/6 5/5/5 31/31/31 32/32/32 
f 33/33/33 34/34/34 32/32/32 31/31/31 
f 31/31/31 30/30/30 35/35/35 33/33/33 
f 35/35/35 30/30/30 29/29/29 36/36/36 
f 29/29/29 28/28/28 37/37/37 36/36/36 
f 38/38/38 37/37/37 28/28/28 27/27/27 
f 39/39/39 38/38/38 27/27/27 26/26/26 
f 25/25/25 40/40/40 39/39/39 26/26/26 
f 40/40/40 41/41/41 42/42/42 39/39/39 
f 43/43/43 44/44/44 34/34/34 33/33/33 
f 43/43/43 33/33/33 35/35/35 45/45/45 
f 36/36/36 46/46/46 45/45/45 35/35/35 
f 46/46/46 36/36/36 37/37/37 47/47/47 
f 48/48/48 47/47/47 37/37/37 38/38/38 
f 38/38/38 39/39/39 42/42/42 48/48/48 
f 44/44/44 43/43/43 49/49/49 50/50/50 
f 43/43/43 45/45/45 51/51/51 49/49/49 
f 46/46/46 52/52/52 51/51/51 45/45/45 
f 47/47/47 53/53/53 52/52/52 46/46/46 
f 47/47/47 48/48/48 54/54/54 53/53/53 
f 55/55/55 56/56/56 57/57/57 58/58/58 
f 56/56/56 55/55/55 59/59/59 54/54/54 
f 59/59/59 60/60/60 53/53/53 54/54/54 
f 60/60/60 61/61/61 52/52/52 53/53/53 
f 52/52/52 61/61/61 62/62/62 51/51/51 
f 63/63/63 49/49/49 51/51/51 62/62/62 
f 63/63/63 64/64/64 50/50/50 49/49/49 
f 64/64/64 63/63/63 65/65/65 66/66/66 
f 62/62/62 67/67/67 65/65/65 63/63/63 
f 67/67/67 62/62/62 61/61/61 68/68/68 
f 60/60/60 69/69/69 68/68/68 61/61/61 
f 69/69/69 60/60/60 59/59/59 70/70/70 
f 70/70/70 59/59/59 55/55/55 71/71/71 
f 71/71/71 55/55/55 58/58/58 72/72/72 
f 73/73/73 71/71/71 72/72/72 74/74/74 
f 71/71/71 73/73/73 75/75/75 70/70/70 
f 75/75/75 76/76/76 69/69/69 70/70/70 
f 77/77/77 68/68/68 69/69/69 76/76/76 
f 78/78/78 67/67/67 68/68/68 77/77/77 
f 79/79/79 65/65/65 67/67/67 78/78/78 
f 65/65/65 79/79/79 80/80/80 66/66/66 
f 56/56/56 54/54/54 48/48/48 42/42/42 
f 56/56/56 42/42/42 41/41/41 57/57/57 
# 63 polygons

