# 3ds Max Wavefront OBJ Exporter v0.97b - (c)2007 guruware
# File Created: 28.11.2017 09:50:29

mtllib LaternGlassLP.mtl

#
# object Object007
#

v  0.0349 0.9701 1.6361
v  0.0361 0.9668 1.6305
v  0.0127 0.9668 1.6305
v  0.0138 0.9701 1.6361
v  -0.0080 0.9668 1.6397
v  -0.0050 0.9700 1.6440
v  -0.0218 0.9668 1.6560
v  -0.0174 0.9698 1.6582
v  -0.0251 0.9668 1.6658
v  -0.0205 0.9698 1.6668
v  -0.0238 0.9668 1.6861
v  -0.0192 0.9698 1.6844
v  -0.0123 0.9668 1.7037
v  -0.0088 0.9699 1.6998
v  0.0071 0.9668 1.7148
v  0.0088 0.9701 1.7095
v  0.0303 0.9668 1.7172
v  0.0297 0.9702 1.7116
v  0.0521 0.9668 1.7102
v  0.0495 0.9700 1.7055
v  0.0680 0.9668 1.6955
v  0.0639 0.9699 1.6926
v  0.0746 0.9668 1.6760
v  0.0699 0.9698 1.6757
v  0.0706 0.9668 1.6560
v  0.0662 0.9698 1.6582
v  0.0568 0.9668 1.6397
v  0.0537 0.9700 1.6440
v  0.0383 0.9477 1.6201
v  0.0105 0.9477 1.6201
v  -0.0141 0.9437 1.6314
v  -0.0304 0.9389 1.6517
v  -0.0343 0.9374 1.6639
v  -0.0328 0.9380 1.6892
v  -0.0192 0.9424 1.7111
v  0.0038 0.9470 1.7250
v  0.0314 0.9482 1.7279
v  0.0574 0.9449 1.7192
v  0.0761 0.9399 1.7009
v  0.0839 0.9371 1.6766
v  0.0792 0.9389 1.6517
v  0.0629 0.9437 1.6314
v  0.0382 0.9110 1.6158
v  0.0106 0.9110 1.6158
v  -0.0150 0.9064 1.6269
v  -0.0317 0.9011 1.6494
v  -0.0356 0.8995 1.6630
v  -0.0340 0.9002 1.6910
v  -0.0202 0.9050 1.7154
v  0.0034 0.9101 1.7308
v  0.0315 0.9114 1.7341
v  0.0581 0.9078 1.7245
v  0.0773 0.9023 1.7040
v  0.0852 0.8992 1.6771
v  0.0805 0.9011 1.6494
v  0.0638 0.9064 1.6269
v  0.0366 0.8720 1.6178
v  0.0326 0.8529 1.6312
v  0.0162 0.8529 1.6312
v  0.0122 0.8720 1.6178
v  0.0015 0.8527 1.6401
v  -0.0094 0.8683 1.6296
v  -0.0082 0.8524 1.6562
v  -0.0237 0.8638 1.6508
v  -0.0106 0.8523 1.6659
v  -0.0271 0.8625 1.6635
v  -0.0096 0.8524 1.6859
v  -0.0258 0.8631 1.6898
v  -0.0015 0.8526 1.7032
v  -0.0138 0.8671 1.7127
v  0.0122 0.8528 1.7143
v  0.0063 0.8713 1.7272
v  0.0285 0.8529 1.7166
v  0.0305 0.8724 1.7303
v  0.0440 0.8527 1.7097
v  0.0533 0.8694 1.7212
v  0.0552 0.8525 1.6952
v  0.0698 0.8648 1.7020
v  0.0598 0.8523 1.6760
v  0.0766 0.8623 1.6768
v  0.0570 0.8524 1.6562
v  0.0725 0.8638 1.6508
v  0.0473 0.8527 1.6401
v  0.0582 0.8683 1.6296
# 84 vertices

vn 0.0890 0.9229 -0.3746
vn 0.1421 0.7800 -0.6094
vn -0.1603 0.7720 -0.6150
vn -0.0895 0.9228 -0.3748
vn -0.4541 0.7210 -0.5233
vn -0.2609 0.9156 -0.3060
vn -0.6565 0.6784 -0.3298
vn -0.3802 0.9045 -0.1931
vn -0.7420 0.6645 -0.0891
vn -0.4373 0.8981 -0.0468
vn -0.7126 0.6716 0.2029
vn -0.4160 0.9014 0.1205
vn -0.5110 0.7220 0.4665
vn -0.2985 0.9133 0.2773
vn -0.2184 0.7730 0.5957
vn -0.1330 0.9219 0.3640
vn 0.0850 0.7794 0.6207
vn 0.0449 0.9235 0.3811
vn 0.3835 0.7354 0.5586
vn 0.2199 0.9181 0.3299
vn 0.6356 0.6817 0.3624
vn 0.3677 0.9065 0.2074
vn 0.7515 0.6579 0.0491
vn 0.4388 0.8982 0.0256
vn 0.6762 0.6817 -0.2795
vn 0.3942 0.9040 -0.1654
vn 0.4424 0.7366 -0.5116
vn 0.2596 0.9160 -0.3058
vn 0.2277 0.3862 -0.8938
vn -0.2372 0.3954 -0.8874
vn -0.6417 0.3299 -0.6924
vn -0.8813 0.2440 -0.4047
vn -0.9718 0.2107 -0.1062
vn -0.9425 0.2208 0.2510
vn -0.7270 0.2998 0.6177
vn -0.3406 0.3991 0.8513
vn 0.1258 0.4307 0.8937
vn 0.5540 0.3613 0.7501
vn 0.8541 0.2601 0.4505
vn 0.9766 0.2073 0.0575
vn 0.9068 0.2336 -0.3510
vn 0.6391 0.3167 -0.7009
vn 0.2273 0.0457 -0.9728
vn -0.2361 0.0345 -0.9711
vn -0.6567 -0.0272 -0.7537
vn -0.9035 -0.0926 -0.4185
vn -0.9869 -0.1192 -0.1090
vn -0.9590 -0.1083 0.2620
vn -0.7554 -0.0442 0.6537
vn -0.3675 0.0283 0.9296
vn 0.1318 0.0472 0.9902
vn 0.5851 -0.0053 0.8110
vn 0.8785 -0.0815 0.4707
vn 0.9909 -0.1210 0.0582
vn 0.9261 -0.0963 -0.3648
vn 0.6592 -0.0157 -0.7518
vn 0.2092 -0.4057 -0.8897
vn 0.1626 -0.7374 -0.6556
vn -0.2082 -0.7162 -0.6661
vn -0.2333 -0.4044 -0.8843
vn -0.4439 -0.7757 -0.4485
vn -0.5646 -0.5064 -0.6518
vn -0.4559 -0.8625 -0.2198
vn -0.7118 -0.6051 -0.3566
vn -0.4419 -0.8955 -0.0526
vn -0.7673 -0.6341 -0.0956
vn -0.4341 -0.8948 0.1040
vn -0.7617 -0.6116 0.2141
vn -0.4218 -0.8355 0.3522
vn -0.6323 -0.5268 0.5680
vn -0.2425 -0.7535 0.6111
vn -0.3183 -0.4423 0.8385
vn 0.1179 -0.7139 0.6903
vn 0.1205 -0.4256 0.8969
vn 0.4079 -0.7547 0.5139
vn 0.4986 -0.4914 0.7141
vn 0.4723 -0.8440 0.2542
vn 0.7042 -0.5860 0.4008
vn 0.4368 -0.8985 0.0439
vn 0.7729 -0.6323 0.0535
vn 0.4370 -0.8852 -0.1595
vn 0.7447 -0.5936 -0.3051
vn 0.3982 -0.8146 -0.4218
vn 0.5727 -0.5000 -0.6496
# 84 vertex normals

vt 0.9630 0.7778 0.0000
vt 0.9630 0.7037 0.0000
vt 1.0408 0.7295 0.0000
vt 1.0369 0.8006 0.0000
vt 0.0370 0.7778 0.0000
vt 0.0370 0.7037 0.0000
vt 0.1111 0.7037 0.0000
vt 0.1111 0.7778 0.0000
vt 0.1852 0.7037 0.0000
vt 0.1852 0.7778 0.0000
vt 0.2222 0.7037 0.0000
vt 0.2222 0.7778 0.0000
vt 0.2963 0.7037 0.0000
vt 0.2963 0.7778 0.0000
vt 0.3704 0.7037 0.0000
vt 0.3704 0.7778 0.0000
vt 0.4444 0.7037 0.0000
vt 0.4444 0.7778 0.0000
vt 0.5185 0.7037 0.0000
vt 0.5185 0.7778 0.0000
vt 0.5926 0.7037 0.0000
vt 0.5926 0.7778 0.0000
vt 0.6667 0.7037 0.0000
vt 0.6667 0.7778 0.0000
vt 0.7407 0.7037 0.0000
vt 0.7407 0.7778 0.0000
vt 0.8148 0.7037 0.0000
vt 0.8148 0.7778 0.0000
vt 0.8889 0.7037 0.0000
vt 0.8889 0.7778 0.0000
vt 0.9630 0.6296 0.0000
vt 1.0433 0.6362 0.0000
vt 1.0365 0.7103 0.0000
vt 0.0370 0.6296 0.0000
vt 0.1111 0.6296 0.0000
vt 0.1852 0.6296 0.0000
vt 0.2222 0.6296 0.0000
vt 0.2963 0.6296 0.0000
vt 0.3704 0.6296 0.0000
vt 0.4444 0.6296 0.0000
vt 0.5185 0.6296 0.0000
vt 0.5926 0.6296 0.0000
vt 0.6667 0.6296 0.0000
vt 0.7407 0.6296 0.0000
vt 0.8148 0.6296 0.0000
vt 0.8889 0.6296 0.0000
vt 0.9630 0.5185 0.0000
vt 1.0357 0.5170 0.0000
vt 1.0359 0.6282 0.0000
vt 0.0370 0.5185 0.0000
vt 0.1111 0.5185 0.0000
vt 0.1852 0.5185 0.0000
vt 0.2222 0.5185 0.0000
vt 0.2963 0.5185 0.0000
vt 0.3704 0.5185 0.0000
vt 0.4444 0.5185 0.0000
vt 0.5185 0.5185 0.0000
vt 0.5926 0.5185 0.0000
vt 0.6667 0.5185 0.0000
vt 0.7407 0.5185 0.0000
vt 0.8148 0.5185 0.0000
vt 0.8889 0.5185 0.0000
vt 0.9630 0.4074 0.0000
vt 0.9630 0.2593 0.0000
vt 1.0247 0.2460 0.0000
vt 1.0366 0.3869 0.0000
vt 0.0370 0.4074 0.0000
vt 0.0370 0.2593 0.0000
vt 0.1111 0.2593 0.0000
vt 0.1111 0.4074 0.0000
vt 0.1852 0.2593 0.0000
vt 0.1852 0.4074 0.0000
vt 0.2222 0.2593 0.0000
vt 0.2222 0.4074 0.0000
vt 0.2963 0.2593 0.0000
vt 0.2963 0.4074 0.0000
vt 0.3704 0.2593 0.0000
vt 0.3704 0.4074 0.0000
vt 0.4444 0.2593 0.0000
vt 0.4444 0.4074 0.0000
vt 0.5185 0.2593 0.0000
vt 0.5185 0.4074 0.0000
vt 0.5926 0.2593 0.0000
vt 0.5926 0.4074 0.0000
vt 0.6667 0.2593 0.0000
vt 0.6667 0.4074 0.0000
vt 0.7407 0.2593 0.0000
vt 0.7407 0.4074 0.0000
vt 0.8148 0.2593 0.0000
vt 0.8148 0.4074 0.0000
vt 0.8889 0.2593 0.0000
vt 0.8889 0.4074 0.0000
vt 1.0316 0.4035 0.0000
vt 1.0359 0.5140 0.0000
# 94 texture coords

g Object007
usemtl wire_153228153
s 1
f 1/1/1 2/2/2 3/3/3 4/4/4 
f 4/5/4 3/6/3 5/7/5 6/8/6 
f 6/8/6 5/7/5 7/9/7 8/10/8 
f 8/10/8 7/9/7 9/11/9 10/12/10 
f 10/12/10 9/11/9 11/13/11 12/14/12 
f 12/14/12 11/13/11 13/15/13 14/16/14 
f 14/16/14 13/15/13 15/17/15 16/18/16 
f 16/18/16 15/17/15 17/19/17 18/20/18 
f 18/20/18 17/19/17 19/21/19 20/22/20 
f 20/22/20 19/21/19 21/23/21 22/24/22 
f 22/24/22 21/23/21 23/25/23 24/26/24 
f 24/26/24 23/25/23 25/27/25 26/28/26 
f 26/28/26 25/27/25 27/29/27 28/30/28 
f 28/30/28 27/29/27 2/2/2 1/1/1 
f 2/2/2 29/31/29 30/32/30 3/33/3 
f 3/6/3 30/34/30 31/35/31 5/7/5 
f 5/7/5 31/35/31 32/36/32 7/9/7 
f 7/9/7 32/36/32 33/37/33 9/11/9 
f 9/11/9 33/37/33 34/38/34 11/13/11 
f 11/13/11 34/38/34 35/39/35 13/15/13 
f 13/15/13 35/39/35 36/40/36 15/17/15 
f 15/17/15 36/40/36 37/41/37 17/19/17 
f 17/19/17 37/41/37 38/42/38 19/21/19 
f 19/21/19 38/42/38 39/43/39 21/23/21 
f 21/23/21 39/43/39 40/44/40 23/25/23 
f 23/25/23 40/44/40 41/45/41 25/27/25 
f 25/27/25 41/45/41 42/46/42 27/29/27 
f 27/29/27 42/46/42 29/31/29 2/2/2 
f 29/31/29 43/47/43 44/48/44 30/49/30 
f 30/34/30 44/50/44 45/51/45 31/35/31 
f 31/35/31 45/51/45 46/52/46 32/36/32 
f 32/36/32 46/52/46 47/53/47 33/37/33 
f 33/37/33 47/53/47 48/54/48 34/38/34 
f 34/38/34 48/54/48 49/55/49 35/39/35 
f 35/39/35 49/55/49 50/56/50 36/40/36 
f 36/40/36 50/56/50 51/57/51 37/41/37 
f 37/41/37 51/57/51 52/58/52 38/42/38 
f 38/42/38 52/58/52 53/59/53 39/43/39 
f 39/43/39 53/59/53 54/60/54 40/44/40 
f 40/44/40 54/60/54 55/61/55 41/45/41 
f 41/45/41 55/61/55 56/62/56 42/46/42 
f 42/46/42 56/62/56 43/47/43 29/31/29 
f 57/63/57 58/64/58 59/65/59 60/66/60 
f 60/67/60 59/68/59 61/69/61 62/70/62 
f 62/70/62 61/69/61 63/71/63 64/72/64 
f 64/72/64 63/71/63 65/73/65 66/74/66 
f 66/74/66 65/73/65 67/75/67 68/76/68 
f 68/76/68 67/75/67 69/77/69 70/78/70 
f 70/78/70 69/77/69 71/79/71 72/80/72 
f 72/80/72 71/79/71 73/81/73 74/82/74 
f 74/82/74 73/81/73 75/83/75 76/84/76 
f 76/84/76 75/83/75 77/85/77 78/86/78 
f 78/86/78 77/85/77 79/87/79 80/88/80 
f 80/88/80 79/87/79 81/89/81 82/90/82 
f 82/90/82 81/89/81 83/91/83 84/92/84 
f 84/92/84 83/91/83 58/64/58 57/63/57 
f 45/51/45 62/70/62 64/72/64 46/52/46 
f 46/52/46 64/72/64 66/74/66 47/53/47 
f 47/53/47 66/74/66 68/76/68 48/54/48 
f 48/54/48 68/76/68 70/78/70 49/55/49 
f 49/55/49 70/78/70 72/80/72 50/56/50 
f 50/56/50 72/80/72 74/82/74 51/57/51 
f 51/57/51 74/82/74 76/84/76 52/58/52 
f 52/58/52 76/84/76 78/86/78 53/59/53 
f 53/59/53 78/86/78 80/88/80 54/60/54 
f 54/60/54 80/88/80 82/90/82 55/61/55 
f 55/61/55 82/90/82 84/92/84 56/62/56 
f 56/62/56 84/92/84 57/63/57 43/47/43 
f 43/47/43 57/63/57 60/93/60 44/94/44 
f 44/50/44 60/67/60 62/70/62 45/51/45 
# 70 polygons

