# 3ds Max Wavefront OBJ Exporter v0.97b - (c)2007 guruware
# File Created: 14.12.2017 14:40:05

mtllib Wall2_LP.mtl

#
# object Group5392
#

v  -0.3411 2.9327 1.5996
v  0.0151 2.8619 1.5954
v  0.0151 3.3323 1.5954
v  -0.2349 3.3323 1.5496
v  -0.5919 3.3323 1.4492
v  -0.6673 2.9358 1.5170
v  -0.8441 3.3323 1.2235
v  -0.8890 2.9289 1.2818
v  -1.3170 2.9977 0.9451
v  -1.2824 3.3323 0.9146
v  -1.3494 3.3323 0.5298
v  -1.4587 2.9789 0.5466
v  -1.4008 2.9424 0.1273
v  -1.2770 3.3323 0.1186
v  -1.2696 2.9180 -0.3286
v  -1.1794 3.3323 -0.2983
v  -1.0943 3.3323 -0.6103
v  -1.2627 2.9358 -0.7147
v  -0.9499 3.3323 -1.0498
v  -1.0658 2.9001 -1.1519
v  -0.7019 3.3323 -1.3595
v  -0.7162 2.8611 -1.3787
v  -0.4879 3.3323 -1.5131
v  -0.5256 2.8459 -1.5933
v  -0.2405 3.3323 -1.5478
v  -0.1776 2.8242 -1.5773
v  0.0151 3.3323 -1.5394
v  0.0151 2.8178 -1.5394
v  -0.1885 2.4601 -1.4802
v  0.0151 2.4484 -1.5394
v  -0.4986 2.4570 -1.5433
v  0.0151 2.0866 -1.5394
v  -0.2081 2.1839 -1.4836
v  -0.4415 2.1936 -1.4055
v  0.0151 1.9688 -1.5394
v  -0.2318 1.9948 -1.5594
v  -0.4497 2.0325 -1.4455
v  0.0151 1.7986 -1.5394
v  -0.2555 1.7951 -1.5991
v  -0.4780 1.7981 -1.3968
v  -0.2838 1.5688 -1.5460
v  0.0151 1.5352 -1.5394
v  -0.5177 1.5803 -1.3897
v  0.0151 1.2990 -1.5394
v  -0.2764 1.3425 -1.5591
v  -0.5394 1.3568 -1.4071
v  -0.2894 1.1441 -1.5525
v  0.0151 1.1285 -1.5394
v  -0.5152 1.1532 -1.3689
v  0.0151 0.9968 -1.5394
v  -0.3052 1.0011 -1.5696
v  -0.5373 1.0080 -1.3600
v  0.0151 0.7850 -1.5394
v  -0.3014 0.8100 -1.6191
v  -0.5399 0.8656 -1.3973
v  -0.3126 0.4946 -1.6001
v  0.0151 0.4900 -1.5565
v  -0.6668 0.5578 -1.4326
v  0.0151 0.0357 -1.5394
v  -0.3208 0.0357 -1.5057
v  -0.6494 0.0357 -1.3931
v  -0.7190 2.4639 -1.2874
v  -0.9211 2.5161 -1.0598
v  -1.1035 2.5480 -0.6216
v  -1.1537 2.5401 -0.4048
v  -1.3244 2.5763 0.0374
v  -1.3081 2.6165 0.5085
v  -1.2169 2.7052 0.8960
v  -0.8918 2.6359 1.2087
v  -0.6907 2.6038 1.4618
v  -0.3715 2.6112 1.6091
v  0.0151 2.5732 1.5954
v  -0.6393 2.2504 -1.2298
v  -0.8403 2.2978 -1.0291
v  -0.6242 2.0654 -1.2087
v  -0.8046 2.1064 -1.0454
v  -0.6214 1.8521 -1.1858
v  -0.7702 1.9143 -1.0496
v  -0.6150 1.6315 -1.1553
v  -0.7565 1.6842 -0.9935
v  -0.6130 1.4090 -1.1656
v  -0.7554 1.4531 -1.0227
v  -0.6770 1.2131 -1.1487
v  -0.8082 1.2337 -1.0014
v  -0.6912 1.0077 -1.2356
v  -0.7447 0.8638 -1.1935
v  -0.8976 1.0651 -1.0180
v  -0.9598 0.8487 -1.0433
v  -1.0508 2.3194 -0.7176
v  -1.1980 2.3538 -0.3354
v  -1.2819 2.3462 0.0623
v  -1.2095 2.3814 0.5087
v  -1.1557 2.4563 0.9323
v  -0.7998 2.4876 1.1937
v  -0.6953 2.3396 1.3395
v  -0.3893 2.3589 1.5475
v  0.0151 2.3513 1.5954
v  -0.3929 2.2089 1.5325
v  0.0151 2.0858 1.5954
v  -0.7027 2.1370 1.2390
v  -0.9521 2.1806 1.0998
v  -1.0997 2.2685 0.8178
v  -1.1483 2.2129 0.4440
v  -1.2661 2.2239 0.0013
v  -1.1909 2.1982 -0.3685
v  -1.0421 2.1329 -0.7571
v  -0.8879 0.5820 -1.2490
v  -1.0176 0.5364 -0.9883
v  -0.8033 0.0357 -1.1666
v  -0.9794 0.0357 -0.9504
v  -0.9784 1.9474 -0.7778
v  -1.1962 2.0147 -0.4435
v  -1.4024 2.0552 -0.0502
v  -1.1787 2.0371 0.3604
v  -1.1119 2.0394 0.7321
v  -0.8688 1.8590 0.9933
v  -0.7129 1.9378 1.2124
v  -0.3394 1.8763 1.5615
v  0.0151 1.8465 1.5954
v  -0.3439 1.6565 1.5189
v  0.0151 1.6840 1.5954
v  -0.6711 1.7227 1.2705
v  -0.8907 1.7186 1.0222
v  -1.1234 1.8654 0.7352
v  -1.2903 1.8560 0.2830
v  -1.4159 1.8483 -0.1331
v  -1.1129 1.7844 -0.4614
v  -0.8976 1.7362 -0.8281
v  -0.9284 1.4758 -0.8260
v  -0.9730 1.2292 -0.7676
v  -1.1116 1.0460 -0.7726
v  -1.1924 0.8273 -0.7013
v  -1.2018 0.4928 -0.6855
v  -1.0530 0.0357 -0.5656
v  -1.1771 0.0357 -0.4038
v  -1.2436 0.5565 -0.3572
v  -1.2052 0.7850 -0.3378
v  -1.2024 1.0753 -0.3591
v  -1.1715 1.2929 -0.3956
v  -1.1950 1.5576 -0.3912
v  -1.5303 0.0357 -0.1907
v  -1.5479 0.5955 -0.1389
v  -1.3935 0.8080 -0.1218
v  -1.2941 1.1277 -0.1047
v  -1.3005 1.3140 -0.1436
v  -1.2984 1.5981 -0.1773
v  -1.5897 0.0357 0.2775
v  -1.4681 0.5985 0.2249
v  -1.3555 0.9303 0.2667
v  -1.2459 1.1336 0.2602
v  -1.2699 1.3657 0.1870
v  -1.3040 1.6435 0.2133
v  -1.1277 1.6580 0.8205
v  -1.1511 1.4534 0.7994
v  -1.0798 1.2399 0.8057
v  -1.2266 1.0044 0.7381
v  -1.3896 0.6464 0.7610
v  -1.3845 0.0357 0.7118
v  -1.1147 0.0357 1.0322
v  -1.1162 0.6429 1.0272
v  -0.9924 1.0396 1.0246
v  -0.8650 1.2702 1.0409
v  -0.8864 1.3882 1.0517
v  -0.8874 1.5280 1.0472
v  -0.6321 1.4722 1.3113
v  -0.6530 1.2844 1.2782
v  -0.6645 1.1874 1.2776
v  -0.7310 1.0457 1.3118
v  -0.7840 0.6192 1.3587
v  -0.7516 0.0357 1.3392
v  -0.3544 1.5008 1.5081
v  -0.3697 1.3357 1.4760
v  -0.3794 1.1958 1.4644
v  -0.4313 1.0567 1.5333
v  -0.4357 0.6051 1.4973
v  -0.4624 0.0357 1.5357
v  0.0151 1.5696 1.5954
v  0.0151 1.3678 1.6254
v  0.0151 1.1894 1.6146
v  0.0151 0.9988 1.5954
v  0.0151 0.5916 1.5954
v  0.0151 0.0357 1.5954
# 182 vertices

vn -0.1164 0.1102 0.9871
vn -0.0053 0.0404 0.9992
vn -0.1748 0.0000 0.9846
vn -0.1591 0.1153 0.9805
vn -0.4387 0.2396 0.8661
vn -0.5039 0.0858 0.8595
vn -0.6118 0.2109 0.7624
vn -0.6880 -0.0019 0.7257
vn -0.8195 -0.0805 0.5674
vn -0.8378 0.1549 0.5235
vn -0.9580 0.2837 0.0428
vn -0.9934 -0.0423 0.1068
vn -0.9839 0.0302 -0.1761
vn -0.9298 0.2969 -0.2176
vn -0.9854 -0.0043 -0.1699
vn -0.9365 0.3000 -0.1814
vn -0.8468 0.4635 -0.2609
vn -0.9653 -0.0035 -0.2610
vn -0.7907 0.3854 -0.4757
vn -0.7832 -0.0788 -0.6168
vn -0.6089 0.1350 -0.7817
vn -0.6580 -0.0651 -0.7502
vn -0.3936 0.1455 -0.9077
vn -0.3985 -0.0002 -0.9172
vn -0.0175 0.1031 -0.9945
vn 0.0834 -0.0533 -0.9951
vn 0.0711 0.0486 -0.9963
vn 0.1862 0.0000 -0.9825
vn -0.1049 -0.1829 -0.9775
vn -0.1937 -0.0760 -0.9781
vn -0.3212 -0.3443 -0.8822
vn -0.0744 0.0965 -0.9926
vn -0.2364 0.1981 -0.9512
vn -0.5068 -0.0805 -0.8583
vn 0.0780 0.0000 -0.9970
vn -0.2047 0.2154 -0.9548
vn -0.6166 0.0726 -0.7840
vn 0.1692 0.0364 -0.9849
vn -0.2680 0.0464 -0.9623
vn -0.7300 0.0150 -0.6833
vn -0.3143 -0.0353 -0.9487
vn 0.0831 -0.0354 -0.9959
vn -0.7694 0.1150 -0.6283
vn 0.0558 -0.0071 -0.9984
vn -0.2168 0.0113 -0.9762
vn -0.7539 0.0089 -0.6570
vn -0.2784 0.0330 -0.9599
vn 0.0418 0.0000 -0.9991
vn -0.6865 -0.0437 -0.7258
vn 0.1244 0.0583 -0.9905
vn -0.3177 0.2037 -0.9260
vn -0.6216 0.1438 -0.7700
vn 0.2054 0.0002 -0.9787
vn -0.1877 0.1119 -0.9758
vn -0.6288 0.2709 -0.7289
vn -0.1508 -0.0783 -0.9855
vn 0.1279 0.0102 -0.9917
vn -0.5849 0.0901 -0.8061
vn -0.0026 -0.1398 -0.9902
vn -0.2071 -0.2033 -0.9570
vn -0.6191 -0.1147 -0.7769
vn -0.7164 -0.3030 -0.6285
vn -0.7676 -0.3454 -0.5398
vn -0.9133 -0.2508 -0.3209
vn -0.9619 -0.0893 -0.2584
vn -0.9730 -0.1856 -0.1371
vn -0.9206 -0.3605 0.1501
vn -0.8125 -0.2760 0.5134
vn -0.6782 -0.2924 0.6742
vn -0.6181 -0.2271 0.7526
vn -0.1908 -0.0934 0.9772
vn 0.0344 0.0000 0.9994
vn -0.6766 -0.2934 -0.6754
vn -0.7521 -0.2390 -0.6142
vn -0.7160 -0.0888 -0.6924
vn -0.7275 -0.1195 -0.6756
vn -0.7649 -0.1080 -0.6351
vn -0.7284 -0.1598 -0.6663
vn -0.8161 -0.0053 -0.5779
vn -0.7445 -0.0509 -0.6657
vn -0.8313 0.1408 -0.5377
vn -0.7152 0.1013 -0.6916
vn -0.7367 0.2387 -0.6327
vn -0.7240 0.2709 -0.6343
vn -0.6775 0.1861 -0.7116
vn -0.6269 0.2660 -0.7323
vn -0.6701 0.3630 -0.6475
vn -0.7245 0.2289 -0.6502
vn -0.8997 -0.0324 -0.4353
vn -0.9537 0.0178 -0.3001
vn -0.9741 -0.2255 0.0159
vn -0.8918 -0.4143 0.1817
vn -0.8271 -0.2625 0.4969
vn -0.6899 -0.2667 0.6730
vn -0.7290 -0.2749 0.6269
vn -0.3132 -0.1805 0.9324
vn -0.0805 -0.0528 0.9954
vn -0.4056 -0.0670 0.9116
vn -0.1244 0.0166 0.9921
vn -0.6126 -0.1316 0.7794
vn -0.6880 -0.1938 0.6993
vn -0.9163 -0.2874 0.2790
vn -0.9659 -0.1652 0.1996
vn -0.9675 0.2448 0.0633
vn -0.9178 0.1645 -0.3612
vn -0.8454 -0.0693 -0.5296
vn -0.7357 0.0809 -0.6725
vn -0.8487 -0.0495 -0.5266
vn -0.7785 -0.1393 -0.6120
vn -0.8476 -0.1986 -0.4921
vn -0.8048 -0.2169 -0.5524
vn -0.8549 -0.0115 -0.5187
vn -0.9341 0.3559 0.0274
vn -0.9177 0.2452 0.3126
vn -0.9328 -0.0305 0.3591
vn -0.7528 -0.0364 0.6573
vn -0.6907 -0.0889 0.7177
vn -0.3719 -0.0706 0.9256
vn -0.1345 -0.0332 0.9904
vn -0.3932 -0.0834 0.9157
vn -0.2021 0.0000 0.9794
vn -0.6879 0.0378 0.7248
vn -0.6937 0.1860 0.6958
vn -0.8517 0.1794 0.4924
vn -0.9229 0.1489 0.3552
vn -0.9669 -0.1181 -0.2261
vn -0.8256 -0.0843 -0.5579
vn -0.8041 -0.0552 -0.5920
vn -0.7965 0.0699 -0.6006
vn -0.7807 0.3009 -0.5477
vn -0.8099 0.3532 -0.4683
vn -0.9424 0.1040 -0.3180
vn -0.9427 -0.0994 -0.3184
vn -0.8266 -0.4012 -0.3947
vn -0.7375 -0.1827 -0.6502
vn -0.8422 0.1248 -0.5246
vn -0.9134 0.0741 -0.4003
vn -0.9383 0.0927 -0.3332
vn -0.9025 0.0443 -0.4284
vn -0.8753 0.0530 -0.4807
vn -0.8263 0.0076 -0.5632
vn -0.8653 0.3475 -0.3612
vn -0.8613 0.3778 -0.3398
vn -0.9807 0.1497 -0.1256
vn -0.9816 -0.0454 -0.1853
vn -0.9360 -0.1538 -0.3165
vn -0.9582 0.1728 0.2279
vn -0.9435 0.2864 0.1668
vn -0.9049 0.4148 0.0953
vn -0.9455 0.2667 0.1868
vn -0.9775 -0.1034 0.1840
vn -0.9686 -0.1226 0.2165
vn -0.8225 0.1280 0.5542
vn -0.8827 -0.0985 0.4595
vn -0.8551 0.0807 0.5121
vn -0.8179 0.4241 0.3887
vn -0.8739 0.1923 0.4465
vn -0.8768 0.0322 0.4797
vn -0.6960 -0.0355 0.7172
vn -0.6944 0.1440 0.7050
vn -0.7070 0.2986 0.6411
vn -0.7182 0.0602 0.6933
vn -0.6953 -0.0911 0.7130
vn -0.6895 0.0357 0.7234
vn -0.6308 -0.0309 0.7753
vn -0.6407 -0.0021 0.7678
vn -0.6183 0.2921 0.7296
vn -0.6124 0.2899 0.7354
vn -0.5362 0.0702 0.8411
vn -0.5570 -0.0154 0.8303
vn -0.4201 -0.0662 0.9051
vn -0.4545 -0.0873 0.8865
vn -0.3878 0.2219 0.8946
vn -0.3484 0.2355 0.9073
vn -0.3125 0.0105 0.9499
vn -0.3457 0.0842 0.9346
vn -0.2237 0.0614 0.9727
vn -0.3081 0.0113 0.9513
vn -0.3464 -0.0783 0.9348
vn -0.2317 -0.0059 0.9728
vn -0.2064 0.0000 0.9785
vn -0.1598 0.0416 0.9863
# 182 vertex normals

vt 0.8399 0.0977 -0.3477
vt 0.8114 0.0263 -0.5697
vt 0.9361 0.0176 -0.5697
vt 0.9435 0.0709 -0.4138
vt 0.9528 0.1485 -0.1914
vt 0.8481 0.1644 -0.1445
vt 0.9636 0.2178 -0.0343
vt 0.8537 0.2263 -0.0063
vt 0.8844 0.3310 0.2603
vt 0.9712 0.3278 0.2388
vt 0.9765 0.4068 0.2806
vt 0.8796 0.4084 0.3487
vt 0.8653 0.4856 0.3126
vt 0.9784 0.4907 0.2355
vt 0.8553 0.5759 0.2309
vt 0.9740 0.5752 0.1747
vt 0.9730 0.6383 0.1217
vt 0.8581 0.6471 0.2266
vt 0.9688 0.7320 0.0316
vt 0.8503 0.7343 0.1039
vt 0.9670 0.8143 -0.1229
vt 0.8379 0.8117 -0.1141
vt 0.9612 0.8709 -0.2562
vt 0.8310 0.8640 -0.2328
vt 0.9545 0.9254 -0.4104
vt 0.8165 0.9309 -0.4495
vt 0.9455 0.9793 -0.5697
vt 0.8083 0.9698 -0.5697
vt 0.7149 0.9207 -0.4428
vt 0.7081 0.9633 -0.5697
vt 0.7294 0.8596 -0.2496
vt 0.6108 0.9560 -0.5697
vt 0.6407 0.9088 -0.4305
vt 0.6465 0.8549 -0.2851
vt 0.5793 0.9556 -0.5697
vt 0.5846 0.9043 -0.4158
vt 0.5980 0.8549 -0.2801
vt 0.5338 0.9571 -0.5697
vt 0.5308 0.9014 -0.4010
vt 0.5318 0.8419 -0.2625
vt 0.4693 0.8953 -0.3834
vt 0.4629 0.9584 -0.5697
vt 0.4696 0.8371 -0.2377
vt 0.3993 0.9606 -0.5697
vt 0.4068 0.9000 -0.3880
vt 0.4085 0.8388 -0.2242
vt 0.3510 0.8990 -0.3800
vt 0.3532 0.9626 -0.5697
vt 0.3513 0.8386 -0.2393
vt 0.3183 0.9656 -0.5697
vt 0.3091 0.8993 -0.3701
vt 0.3097 0.8358 -0.2255
vt 0.2616 0.9719 -0.5697
vt 0.2565 0.9063 -0.3725
vt 0.2685 0.8420 -0.2239
vt 0.1744 0.9100 -0.3655
vt 0.1815 0.9777 -0.5697
vt 0.1781 0.8309 -0.1448
vt 0.0604 0.9848 -0.5697
vt 0.0511 0.9140 -0.3605
vt 0.0400 0.8412 -0.1556
vt 0.7268 0.7952 -0.1122
vt 0.7397 0.7355 0.0136
vt 0.7434 0.6399 0.1274
vt 0.7442 0.5965 0.1586
vt 0.7609 0.5039 0.2650
vt 0.7754 0.4115 0.2547
vt 0.8011 0.3325 0.1980
vt 0.7738 0.2433 -0.0046
vt 0.7633 0.1802 -0.1299
vt 0.7563 0.1104 -0.3288
vt 0.7336 0.0331 -0.5697
vt 0.6611 0.7984 -0.1619
vt 0.6748 0.7400 -0.0367
vt 0.6083 0.7957 -0.1713
vt 0.6202 0.7464 -0.0589
vt 0.5467 0.7910 -0.1730
vt 0.5642 0.7510 -0.0804
vt 0.4836 0.7866 -0.1771
vt 0.4970 0.7439 -0.0890
vt 0.4216 0.7896 -0.1784
vt 0.4313 0.7493 -0.0896
vt 0.3651 0.7819 -0.1385
vt 0.3686 0.7415 -0.0567
vt 0.3068 0.7962 -0.1296
vt 0.2652 0.7855 -0.0961
vt 0.3156 0.7355 -0.0010
vt 0.2529 0.7354 0.0379
vt 0.6805 0.6628 0.0944
vt 0.6899 0.5800 0.1862
vt 0.6922 0.4983 0.2384
vt 0.7050 0.4075 0.1934
vt 0.7338 0.3239 0.1599
vt 0.7273 0.2350 -0.0619
vt 0.6899 0.1996 -0.1270
vt 0.6884 0.1233 -0.3178
vt 0.6749 0.0391 -0.5697
vt 0.6469 0.1283 -0.3154
vt 0.6055 0.0443 -0.5697
vt 0.6317 0.2166 -0.1225
vt 0.6495 0.2743 0.0330
vt 0.6731 0.3393 0.1249
vt 0.6536 0.4146 0.1553
vt 0.6496 0.5087 0.2287
vt 0.6430 0.5866 0.1818
vt 0.6279 0.6708 0.0891
vt 0.1788 0.7774 -0.0070
vt 0.1648 0.7244 0.0738
vt 0.0311 0.7847 -0.0597
vt 0.0286 0.7282 0.0500
vt 0.5731 0.6825 0.0494
vt 0.5885 0.6028 0.1852
vt 0.5874 0.5164 0.3136
vt 0.6009 0.4272 0.1741
vt 0.6027 0.3528 0.1326
vt 0.5550 0.2796 -0.0190
vt 0.5754 0.2245 -0.1161
vt 0.5574 0.1208 -0.3487
vt 0.5428 0.0482 -0.5697
vt 0.4974 0.1267 -0.3459
vt 0.5022 0.0510 -0.5697
vt 0.5134 0.2106 -0.1422
vt 0.5110 0.2776 -0.0052
vt 0.5464 0.3528 0.1398
vt 0.5395 0.4481 0.2437
vt 0.5379 0.5312 0.3220
vt 0.5198 0.6170 0.1332
vt 0.5097 0.7008 -0.0010
vt 0.4349 0.6966 0.0183
vt 0.3648 0.6831 0.0460
vt 0.3023 0.6719 0.1324
vt 0.2410 0.6563 0.1827
vt 0.1516 0.6576 0.1886
vt 0.0185 0.6512 0.0960
vt 0.0214 0.6140 0.1732
vt 0.1638 0.5954 0.2147
vt 0.2310 0.5875 0.1907
vt 0.3129 0.5872 0.1890
vt 0.3772 0.5964 0.1698
vt 0.4531 0.5935 0.1843
vt 0.0170 0.5364 0.3932
vt 0.1587 0.5249 0.4041
vt 0.2290 0.5303 0.3080
vt 0.3256 0.5305 0.2461
vt 0.3827 0.5382 0.2501
vt 0.4643 0.5450 0.2488
vt 0.0145 0.4472 0.4303
vt 0.1700 0.4601 0.3546
vt 0.2667 0.4537 0.2843
vt 0.3315 0.4537 0.2162
vt 0.3976 0.4705 0.2310
vt 0.4780 0.4654 0.2522
vt 0.4833 0.3394 0.1424
vt 0.4266 0.3455 0.1570
vt 0.3647 0.3357 0.1126
vt 0.2902 0.3562 0.2041
vt 0.1858 0.3594 0.3056
vt 0.0259 0.3565 0.3025
vt 0.0355 0.2752 0.1343
vt 0.1957 0.2887 0.1353
vt 0.3077 0.2830 0.0581
vt 0.3771 0.2688 -0.0212
vt 0.4115 0.2710 -0.0078
vt 0.4541 0.2724 -0.0073
vt 0.4425 0.1981 -0.1664
vt 0.3880 0.2034 -0.1533
vt 0.3596 0.2032 -0.1462
vt 0.3157 0.2053 -0.1048
vt 0.2012 0.1968 -0.0718
vt 0.0475 0.1810 -0.0918
vt 0.4538 0.1293 -0.3394
vt 0.4078 0.1328 -0.3299
vt 0.3695 0.1322 -0.3238
vt 0.3269 0.1313 -0.2916
vt 0.2086 0.1215 -0.2888
vt 0.0570 0.1108 -0.2722
vt 0.4763 0.0519 -0.5697
vt 0.4271 0.0478 -0.5697
vt 0.3835 0.0441 -0.5697
vt 0.3323 0.0381 -0.5697
vt 0.2229 0.0270 -0.5697
vt 0.0763 0.0121 -0.5697
# 182 texture coords

g Group5392
usemtl _Wall2_LPdefault
s off
f 1/1/1 2/2/2 3/3/3 4/4/4 
f 1/1/1 4/4/4 5/5/5 6/6/6 
f 6/6/6 5/5/5 7/7/7 8/8/8 
f 9/9/9 8/8/8 7/7/7 10/10/10 
f 11/11/11 12/12/12 9/9/9 10/10/10 
f 13/13/13 12/12/12 11/11/11 14/14/14 
f 15/15/15 13/13/13 14/14/14 16/16/16 
f 17/17/17 18/18/18 15/15/15 16/16/16 
f 19/19/19 20/20/20 18/18/18 17/17/17 
f 20/20/20 19/19/19 21/21/21 22/22/22 
f 23/23/23 24/24/24 22/22/22 21/21/21 
f 25/25/25 26/26/26 24/24/24 23/23/23 
f 26/26/26 25/25/25 27/27/27 28/28/28 
f 29/29/29 26/26/26 28/28/28 30/30/30 
f 31/31/31 24/24/24 26/26/26 29/29/29 
f 30/30/30 32/32/32 33/33/33 29/29/29 
f 34/34/34 31/31/31 29/29/29 33/33/33 
f 32/32/32 35/35/35 36/36/36 33/33/33 
f 37/37/37 34/34/34 33/33/33 36/36/36 
f 38/38/38 39/39/39 36/36/36 35/35/35 
f 37/37/37 36/36/36 39/39/39 40/40/40 
f 41/41/41 39/39/39 38/38/38 42/42/42 
f 40/40/40 39/39/39 41/41/41 43/43/43 
f 42/42/42 44/44/44 45/45/45 41/41/41 
f 41/41/41 45/45/45 46/46/46 43/43/43 
f 47/47/47 45/45/45 44/44/44 48/48/48 
f 47/47/47 49/49/49 46/46/46 45/45/45 
f 47/47/47 48/48/48 50/50/50 51/51/51 
f 49/49/49 47/47/47 51/51/51 52/52/52 
f 50/50/50 53/53/53 54/54/54 51/51/51 
f 55/55/55 52/52/52 51/51/51 54/54/54 
f 56/56/56 54/54/54 53/53/53 57/57/57 
f 58/58/58 55/55/55 54/54/54 56/56/56 
f 56/56/56 57/57/57 59/59/59 60/60/60 
f 61/61/61 58/58/58 56/56/56 60/60/60 
f 31/31/31 62/62/62 22/22/22 24/24/24 
f 22/22/22 62/62/62 63/63/63 20/20/20 
f 64/64/64 18/18/18 20/20/20 63/63/63 
f 15/15/15 18/18/18 64/64/64 65/65/65 
f 66/66/66 13/13/13 15/15/15 65/65/65 
f 13/13/13 66/66/66 67/67/67 12/12/12 
f 12/12/12 67/67/67 68/68/68 9/9/9 
f 8/8/8 9/9/9 68/68/68 69/69/69 
f 8/8/8 69/69/69 70/70/70 6/6/6 
f 71/71/71 1/1/1 6/6/6 70/70/70 
f 2/2/2 1/1/1 71/71/71 72/72/72 
f 31/31/31 34/34/34 73/73/73 62/62/62 
f 74/74/74 63/63/63 62/62/62 73/73/73 
f 34/34/34 37/37/37 75/75/75 73/73/73 
f 76/76/76 74/74/74 73/73/73 75/75/75 
f 37/37/37 40/40/40 77/77/77 75/75/75 
f 75/75/75 77/77/77 78/78/78 76/76/76 
f 40/40/40 43/43/43 79/79/79 77/77/77 
f 77/77/77 79/79/79 80/80/80 78/78/78 
f 43/43/43 46/46/46 81/81/81 79/79/79 
f 82/82/82 80/80/80 79/79/79 81/81/81 
f 46/46/46 49/49/49 83/83/83 81/81/81 
f 83/83/83 84/84/84 82/82/82 81/81/81 
f 85/85/85 83/83/83 49/49/49 52/52/52 
f 55/55/55 86/86/86 85/85/85 52/52/52 
f 83/83/83 85/85/85 87/87/87 84/84/84 
f 86/86/86 88/88/88 87/87/87 85/85/85 
f 89/89/89 64/64/64 63/63/63 74/74/74 
f 64/64/64 89/89/89 90/90/90 65/65/65 
f 66/66/66 65/65/65 90/90/90 91/91/91 
f 66/66/66 91/91/91 92/92/92 67/67/67 
f 67/67/67 92/92/92 93/93/93 68/68/68 
f 69/69/69 68/68/68 93/93/93 94/94/94 
f 94/94/94 95/95/95 70/70/70 69/69/69 
f 70/70/70 95/95/95 96/96/96 71/71/71 
f 72/72/72 71/71/71 96/96/96 97/97/97 
f 98/98/98 99/99/99 97/97/97 96/96/96 
f 95/95/95 100/100/100 98/98/98 96/96/96 
f 94/94/94 101/101/101 100/100/100 95/95/95 
f 101/101/101 94/94/94 93/93/93 102/102/102 
f 102/102/102 93/93/93 92/92/92 103/103/103 
f 91/91/91 104/104/104 103/103/103 92/92/92 
f 104/104/104 91/91/91 90/90/90 105/105/105 
f 89/89/89 106/106/106 105/105/105 90/90/90 
f 106/106/106 89/89/89 74/74/74 76/76/76 
f 58/58/58 107/107/107 86/86/86 55/55/55 
f 107/107/107 108/108/108 88/88/88 86/86/86 
f 58/58/58 61/61/61 109/109/109 107/107/107 
f 108/108/108 107/107/107 109/109/109 110/110/110 
f 76/76/76 78/78/78 111/111/111 106/106/106 
f 112/112/112 105/105/105 106/106/106 111/111/111 
f 113/113/113 104/104/104 105/105/105 112/112/112 
f 114/114/114 103/103/103 104/104/104 113/113/113 
f 103/103/103 114/114/114 115/115/115 102/102/102 
f 115/115/115 116/116/116 101/101/101 102/102/102 
f 101/101/101 116/116/116 117/117/117 100/100/100 
f 117/117/117 118/118/118 98/98/98 100/100/100 
f 99/99/99 98/98/98 118/118/118 119/119/119 
f 118/118/118 120/120/120 121/121/121 119/119/119 
f 118/118/118 117/117/117 122/122/122 120/120/120 
f 123/123/123 122/122/122 117/117/117 116/116/116 
f 124/124/124 123/123/123 116/116/116 115/115/115 
f 114/114/114 125/125/125 124/124/124 115/115/115 
f 125/125/125 114/114/114 113/113/113 126/126/126 
f 112/112/112 127/127/127 126/126/126 113/113/113 
f 127/127/127 112/112/112 111/111/111 128/128/128 
f 128/128/128 111/111/111 78/78/78 80/80/80 
f 129/129/129 128/128/128 80/80/80 82/82/82 
f 84/84/84 130/130/130 129/129/129 82/82/82 
f 130/130/130 84/84/84 87/87/87 131/131/131 
f 88/88/88 132/132/132 131/131/131 87/87/87 
f 108/108/108 133/133/133 132/132/132 88/88/88 
f 133/133/133 108/108/108 110/110/110 134/134/134 
f 135/135/135 136/136/136 133/133/133 134/134/134 
f 132/132/132 133/133/133 136/136/136 137/137/137 
f 138/138/138 131/131/131 132/132/132 137/137/137 
f 131/131/131 138/138/138 139/139/139 130/130/130 
f 139/139/139 140/140/140 129/129/129 130/130/130 
f 129/129/129 140/140/140 127/127/127 128/128/128 
f 141/141/141 142/142/142 136/136/136 135/135/135 
f 136/136/136 142/142/142 143/143/143 137/137/137 
f 143/143/143 144/144/144 138/138/138 137/137/137 
f 145/145/145 139/139/139 138/138/138 144/144/144 
f 145/145/145 146/146/146 140/140/140 139/139/139 
f 146/146/146 126/126/126 127/127/127 140/140/140 
f 142/142/142 141/141/141 147/147/147 148/148/148 
f 148/148/148 149/149/149 143/143/143 142/142/142 
f 144/144/144 143/143/143 149/149/149 150/150/150 
f 151/151/151 145/145/145 144/144/144 150/150/150 
f 151/151/151 152/152/152 146/146/146 145/145/145 
f 152/152/152 125/125/125 126/126/126 146/146/146 
f 153/153/153 124/124/124 125/125/125 152/152/152 
f 152/152/152 151/151/151 154/154/154 153/153/153 
f 150/150/150 155/155/155 154/154/154 151/151/151 
f 156/156/156 155/155/155 150/150/150 149/149/149 
f 149/149/149 148/148/148 157/157/157 156/156/156 
f 158/158/158 157/157/157 148/148/148 147/147/147 
f 157/157/157 158/158/158 159/159/159 160/160/160 
f 160/160/160 161/161/161 156/156/156 157/157/157 
f 155/155/155 156/156/156 161/161/161 162/162/162 
f 163/163/163 154/154/154 155/155/155 162/162/162 
f 164/164/164 153/153/153 154/154/154 163/163/163 
f 153/153/153 164/164/164 123/123/123 124/124/124 
f 164/164/164 165/165/165 122/122/122 123/123/123 
f 165/165/165 164/164/164 163/163/163 166/166/166 
f 166/166/166 163/163/163 162/162/162 167/167/167 
f 162/162/162 161/161/161 168/168/168 167/167/167 
f 161/161/161 160/160/160 169/169/169 168/168/168 
f 159/159/159 170/170/170 169/169/169 160/160/160 
f 120/120/120 122/122/122 165/165/165 171/171/171 
f 165/165/165 166/166/166 172/172/172 171/171/171 
f 173/173/173 172/172/172 166/166/166 167/167/167 
f 167/167/167 168/168/168 174/174/174 173/173/173 
f 168/168/168 169/169/169 175/175/175 174/174/174 
f 170/170/170 176/176/176 175/175/175 169/169/169 
f 120/120/120 171/171/171 177/177/177 121/121/121 
f 171/171/171 172/172/172 178/178/178 177/177/177 
f 172/172/172 173/173/173 179/179/179 178/178/178 
f 173/173/173 174/174/174 180/180/180 179/179/179 
f 175/175/175 181/181/181 180/180/180 174/174/174 
f 181/181/181 175/175/175 176/176/176 182/182/182 
# 156 polygons

