# 3ds Max Wavefront OBJ Exporter v0.97b - (c)2007 guruware
# File Created: 15.12.2017 04:26:40

mtllib Wall2_Coll.mtl

#
# object Group63212
#

v  0.0151 3.3323 1.5954
v  -0.5919 3.3323 1.4492
v  -0.6673 2.9358 1.5170
v  0.0151 2.8619 1.5954
v  -1.2824 3.3323 0.9146
v  -1.3170 2.9977 0.9451
v  -1.3494 3.3323 0.5298
v  -1.4587 2.9789 0.5466
v  -1.2770 3.3323 0.1186
v  -1.4008 2.9424 0.1273
v  -1.0943 3.3323 -0.6103
v  -1.2627 2.9358 -0.7147
v  -0.7019 3.3323 -1.3595
v  -0.7162 2.8611 -1.3787
v  -0.2405 3.3323 -1.5478
v  -0.1776 2.8242 -1.5773
v  0.0151 3.3323 -1.5394
v  0.0151 2.8178 -1.5394
v  0.0151 2.4484 -1.5394
v  -0.1885 2.4601 -1.4802
v  -0.7190 2.4639 -1.2874
v  0.0151 1.9688 -1.5394
v  -0.2318 1.9948 -1.5594
v  -0.6242 2.0654 -1.2087
v  0.0151 1.7986 -1.5394
v  -0.2555 1.7951 -1.5991
v  -0.6214 1.8521 -1.1858
v  0.0151 1.2990 -1.5394
v  -0.2764 1.3425 -1.5591
v  -0.6130 1.4090 -1.1656
v  0.0151 0.9968 -1.5394
v  -0.3052 1.0011 -1.5696
v  -0.6912 1.0077 -1.2356
v  0.0151 0.4900 -1.5565
v  -0.3126 0.4946 -1.6001
v  -0.8879 0.5820 -1.2490
v  0.0151 0.0357 -1.5394
v  -0.3208 0.0357 -1.5057
v  -0.8033 0.0357 -1.1666
v  -1.1035 2.5480 -0.6216
v  -1.3244 2.5763 0.0374
v  -1.3081 2.6165 0.5085
v  -1.2169 2.7052 0.8960
v  -0.6907 2.6038 1.4618
v  0.0151 2.5732 1.5954
v  -1.0421 2.1329 -0.7571
v  -0.9784 1.9474 -0.7778
v  -0.9284 1.4758 -0.8260
v  -1.1116 1.0460 -0.7726
v  -1.2018 0.4928 -0.6855
v  -1.2661 2.2239 0.0013
v  -1.1483 2.2129 0.4440
v  -1.0997 2.2685 0.8178
v  -0.7027 2.1370 1.2390
v  0.0151 2.0858 1.5954
v  -1.0530 0.0357 -0.5656
v  -1.4024 2.0552 -0.0502
v  -1.1787 2.0371 0.3604
v  -1.1119 2.0394 0.7321
v  -0.7129 1.9378 1.2124
v  0.0151 1.8465 1.5954
v  -0.6321 1.4722 1.3113
v  0.0151 1.5696 1.5954
v  -1.1277 1.6580 0.8205
v  -1.3040 1.6435 0.2133
v  -1.2984 1.5981 -0.1773
v  -1.5303 0.0357 -0.1907
v  -1.5479 0.5955 -0.1389
v  -1.2941 1.1277 -0.1047
v  -1.5897 0.0357 0.2775
v  -1.4681 0.5985 0.2249
v  -1.2459 1.1336 0.2602
v  -1.0798 1.2399 0.8057
v  -1.3896 0.6464 0.7610
v  -1.3845 0.0357 0.7118
v  -0.7516 0.0357 1.3392
v  -0.7840 0.6192 1.3587
v  -0.6645 1.1874 1.2776
v  0.0151 1.1894 1.6146
v  0.0151 0.5916 1.5954
v  0.0151 0.0357 1.5954
# 81 vertices

vn -0.1608 0.0885 0.9830
vn -0.5039 0.0858 0.8595
vn -0.4387 0.2396 0.8661
vn -0.6075 0.1920 0.7708
vn -0.8378 0.1549 0.5235
vn -0.8195 -0.0805 0.5674
vn -0.9431 0.2143 0.2541
vn -0.9580 0.2837 0.0428
vn -0.9934 -0.0423 0.1068
vn -0.9298 0.2969 -0.2176
vn -0.9839 0.0302 -0.1761
vn -0.9425 0.2901 -0.1657
vn -0.9119 0.3618 -0.1938
vn -0.9365 0.3000 -0.1814
vn -0.7907 0.3854 -0.4757
vn -0.6089 0.1350 -0.7817
vn -0.6580 -0.0651 -0.7502
vn -0.7832 -0.0788 -0.6168
vn -0.3936 0.1455 -0.9077
vn -0.0175 0.1031 -0.9945
vn 0.0834 -0.0533 -0.9951
vn -0.3985 -0.0002 -0.9172
vn 0.0711 0.0486 -0.9963
vn 0.1862 0.0000 -0.9825
vn 0.1000 0.0339 -0.9944
vn -0.1937 -0.0760 -0.9781
vn -0.1049 -0.1829 -0.9775
vn -0.3337 -0.2140 -0.9181
vn -0.7164 -0.3030 -0.6285
vn -0.0744 0.0965 -0.9926
vn 0.0780 0.0000 -0.9970
vn -0.2047 0.2154 -0.9548
vn -0.4970 -0.0291 -0.8672
vn 0.1508 0.0927 -0.9842
vn 0.1692 0.0364 -0.9849
vn -0.2680 0.0464 -0.9623
vn -0.6915 0.0634 -0.7196
vn 0.1325 -0.0432 -0.9902
vn 0.0831 -0.0354 -0.9959
vn -0.7459 -0.0329 -0.6653
vn -0.7300 0.0150 -0.6833
vn 0.0798 0.0122 -0.9967
vn 0.0418 0.0000 -0.9991
vn -0.6787 0.1727 -0.7138
vn -0.6865 -0.0437 -0.7258
vn 0.1244 0.0583 -0.9905
vn 0.1103 0.0444 -0.9929
vn 0.1279 0.0102 -0.9917
vn -0.1508 -0.0783 -0.9855
vn -0.5505 0.1579 -0.8197
vn -0.0026 -0.1398 -0.9902
vn -0.2071 -0.2033 -0.9570
vn 0.0137 -0.1176 -0.9930
vn -0.6191 -0.1147 -0.7769
vn -0.7785 -0.1393 -0.6120
vn -0.7357 0.0809 -0.6725
vn -0.5849 0.0901 -0.8061
vn -0.7939 -0.2809 -0.5393
vn -0.7676 -0.3454 -0.5398
vn -0.9133 -0.2508 -0.3209
vn -0.9854 -0.0043 -0.1699
vn -0.9302 -0.2917 -0.2227
vn -0.9619 -0.0893 -0.2584
vn -0.9206 -0.3605 0.1501
vn -0.9730 -0.1856 -0.1371
vn -0.8125 -0.2760 0.5134
vn -0.6880 -0.0019 0.7257
vn -0.6848 -0.1977 0.7014
vn -0.6782 -0.2924 0.6742
vn -0.1908 -0.0934 0.9772
vn 0.0344 0.0000 0.9994
vn -0.0053 0.0404 0.9992
vn -0.1164 0.1102 0.9871
vn -0.8997 -0.0324 -0.4353
vn -0.7521 -0.2390 -0.6142
vn -0.7160 -0.0888 -0.6924
vn -0.7649 -0.1080 -0.6351
vn -0.7284 -0.1598 -0.6663
vn -0.8048 -0.2169 -0.5524
vn -0.8161 -0.0053 -0.5779
vn -0.7445 -0.0509 -0.6657
vn -0.7152 0.1013 -0.6916
vn -0.7367 0.2387 -0.6327
vn -0.6775 0.1861 -0.7116
vn -0.6701 0.3630 -0.6475
vn -0.7240 0.2709 -0.6343
vn -0.6269 0.2660 -0.7323
vn -0.8487 -0.0495 -0.5266
vn -0.7245 0.2289 -0.6502
vn -0.9675 0.2448 0.0633
vn -0.9741 -0.2255 0.0159
vn -0.9659 -0.1652 0.1996
vn -0.8918 -0.4143 0.1817
vn -0.9163 -0.2874 0.2790
vn -0.8271 -0.2625 0.4969
vn -0.7290 -0.2749 0.6269
vn -0.3132 -0.1805 0.9324
vn -0.4056 -0.0670 0.9116
vn -0.6181 -0.2271 0.7526
vn -0.8476 -0.1986 -0.4921
vn -0.8549 -0.0115 -0.5187
vn -0.9341 0.3559 0.0274
vn -0.9178 0.1645 -0.3612
vn -0.9177 0.2452 0.3126
vn -0.9328 -0.0305 0.3591
vn -0.7528 -0.0364 0.6573
vn -0.6907 -0.0889 0.7177
vn -0.6126 -0.1316 0.7794
vn -0.3719 -0.0706 0.9256
vn -0.1345 -0.0332 0.9904
vn -0.1244 0.0166 0.9921
vn -0.6879 0.0378 0.7248
vn -0.6308 -0.0309 0.7753
vn -0.6937 0.1860 0.6958
vn -0.7065 0.0960 0.7012
vn -0.9229 0.1489 0.3552
vn -0.9686 -0.1226 0.2165
vn -0.8225 0.1280 0.5542
vn -0.9669 -0.1181 -0.2261
vn -0.7965 0.0699 -0.6006
vn -0.8753 0.0530 -0.4807
vn -0.7375 -0.1827 -0.6502
vn -0.8263 0.0076 -0.5632
vn -0.8653 0.3475 -0.3612
vn -0.8422 0.1248 -0.5246
vn -0.9424 0.1040 -0.3180
vn -0.9427 -0.0994 -0.3184
vn -0.8099 0.3532 -0.4683
vn -0.9383 0.0927 -0.3332
vn -0.9807 0.1497 -0.1256
vn -0.9816 -0.0454 -0.1853
vn -0.9582 0.1728 0.2279
vn -0.9435 0.2864 0.1668
vn -0.9954 0.0922 0.0248
vn -0.9049 0.4148 0.0953
vn -0.9455 0.2667 0.1868
vn -0.9775 -0.1034 0.1840
vn -0.9965 -0.0562 0.0619
vn -0.8551 0.0807 0.5121
vn -0.8179 0.4241 0.3887
vn -0.8768 0.0322 0.4797
vn -0.8739 0.1923 0.4465
vn -0.6960 -0.0355 0.7172
vn -0.5570 -0.0154 0.8303
vn -0.6944 0.1440 0.7050
vn -0.5362 0.0702 0.8411
vn -0.6124 0.2899 0.7354
vn -0.6953 -0.0911 0.7130
vn -0.8827 -0.0985 0.4595
vn -0.7182 0.0602 0.6933
vn -0.6407 -0.0021 0.7678
vn -0.4545 -0.0873 0.8865
vn -0.3878 0.2219 0.8946
vn -0.3125 0.0105 0.9499
vn -0.6183 0.2921 0.7296
vn -0.3457 0.0842 0.9346
vn -0.1598 0.0416 0.9863
vn -0.2064 0.0000 0.9785
# 158 vertex normals

vt 0.9361 0.0176 -0.5697
vt 0.9528 0.1485 -0.1914
vt 0.8481 0.1644 -0.1445
vt 0.8114 0.0263 -0.5697
vt 0.9712 0.3278 0.2388
vt 0.8844 0.3310 0.2603
vt 0.9765 0.4068 0.2806
vt 0.8796 0.4084 0.3487
vt 0.9784 0.4907 0.2355
vt 0.8653 0.4856 0.3126
vt 0.9730 0.6383 0.1217
vt 0.8581 0.6471 0.2266
vt 0.9670 0.8143 -0.1229
vt 0.8379 0.8117 -0.1141
vt 0.9545 0.9254 -0.4104
vt 0.8165 0.9309 -0.4495
vt 0.9455 0.9793 -0.5697
vt 0.8083 0.9698 -0.5697
vt 0.7081 0.9633 -0.5697
vt 0.7149 0.9207 -0.4428
vt 0.7268 0.7952 -0.1122
vt 0.5793 0.9556 -0.5697
vt 0.5846 0.9043 -0.4158
vt 0.6083 0.7957 -0.1713
vt 0.5338 0.9571 -0.5697
vt 0.5308 0.9014 -0.4010
vt 0.5467 0.7910 -0.1730
vt 0.3993 0.9606 -0.5697
vt 0.4068 0.9000 -0.3880
vt 0.4216 0.7896 -0.1784
vt 0.3183 0.9656 -0.5697
vt 0.3091 0.8993 -0.3701
vt 0.3068 0.7962 -0.1296
vt 0.1815 0.9777 -0.5697
vt 0.1744 0.9100 -0.3655
vt 0.1788 0.7774 -0.0070
vt 0.0604 0.9848 -0.5697
vt 0.0511 0.9140 -0.3605
vt 0.0311 0.7847 -0.0597
vt 0.7434 0.6399 0.1274
vt 0.7609 0.5039 0.2650
vt 0.7754 0.4115 0.2547
vt 0.8011 0.3325 0.1980
vt 0.7633 0.1802 -0.1299
vt 0.7336 0.0331 -0.5697
vt 0.6279 0.6708 0.0891
vt 0.5731 0.6825 0.0494
vt 0.4349 0.6966 0.0183
vt 0.3023 0.6719 0.1324
vt 0.1516 0.6576 0.1886
vt 0.6496 0.5087 0.2287
vt 0.6536 0.4146 0.1553
vt 0.6731 0.3393 0.1249
vt 0.6317 0.2166 -0.1225
vt 0.6055 0.0443 -0.5697
vt 0.0185 0.6512 0.0960
vt 0.5874 0.5164 0.3136
vt 0.6009 0.4272 0.1741
vt 0.6027 0.3528 0.1326
vt 0.5754 0.2245 -0.1161
vt 0.5428 0.0482 -0.5697
vt 0.4425 0.1981 -0.1664
vt 0.4763 0.0519 -0.5697
vt 0.4833 0.3394 0.1424
vt 0.4780 0.4654 0.2522
vt 0.4643 0.5450 0.2488
vt 0.0170 0.5364 0.3932
vt 0.1587 0.5249 0.4041
vt 0.3256 0.5305 0.2461
vt 0.0145 0.4472 0.4303
vt 0.1700 0.4601 0.3546
vt 0.3315 0.4537 0.2162
vt 0.3647 0.3357 0.1126
vt 0.1858 0.3594 0.3056
vt 0.0259 0.3565 0.3025
vt 0.0475 0.1810 -0.0918
vt 0.2012 0.1968 -0.0718
vt 0.3596 0.2032 -0.1462
vt 0.3835 0.0441 -0.5697
vt 0.2229 0.0270 -0.5697
vt 0.0763 0.0121 -0.5697
# 81 texture coords

g Group63212
usemtl _Wall2_LPdefault
s off
f 1/1/1 2/2/1 3/3/1 4/4/1 
f 3/3/2 2/2/3 5/5/4 6/6/5 
f 6/6/6 5/5/7 7/7/8 8/8/9 
f 7/7/8 9/9/10 10/10/11 8/8/12 
f 9/9/13 11/11/13 12/12/14 10/10/13 
f 13/13/15 14/14/16 12/12/17 11/11/18 
f 15/15/19 16/16/20 14/14/21 13/13/22 
f 17/17/23 18/18/24 16/16/21 15/15/25 
f 18/18/24 19/19/26 20/20/27 16/16/21 
f 21/21/28 14/14/29 16/16/17 20/20/22 
f 19/19/26 22/22/30 23/23/31 20/20/32 
f 20/20/33 23/23/33 24/24/33 21/21/33 
f 23/23/34 22/22/31 25/25/35 26/26/36 
f 26/26/32 27/27/37 24/24/37 23/23/37 
f 25/25/38 28/28/38 29/29/39 26/26/38 
f 29/29/40 30/30/40 27/27/40 26/26/41 
f 28/28/42 31/31/42 32/32/43 29/29/42 
f 32/32/44 33/33/44 30/30/44 29/29/45 
f 31/31/46 34/34/47 35/35/48 32/32/49 
f 32/32/50 35/35/50 36/36/50 33/33/50 
f 37/37/51 38/38/52 35/35/53 34/34/48 
f 39/39/54 36/36/55 35/35/56 38/38/57 
f 14/14/17 21/21/58 40/40/59 12/12/60 
f 12/12/61 40/40/62 41/41/60 10/10/63 
f 42/42/64 8/8/9 10/10/11 41/41/65 
f 43/43/66 6/6/6 8/8/9 42/42/64 
f 6/6/67 43/43/6 44/44/68 3/3/69 
f 45/45/70 4/4/71 3/3/72 44/44/73 
f 21/21/74 24/24/60 46/46/59 40/40/75 
f 24/24/76 27/27/77 47/47/78 46/46/79 
f 27/27/77 30/30/80 48/48/81 47/47/82 
f 33/33/83 49/49/84 48/48/85 30/30/86 
f 36/36/87 50/50/56 49/49/88 33/33/89 
f 40/40/60 46/46/74 51/51/74 41/41/90 
f 41/41/65 51/51/91 52/52/90 42/42/92 
f 42/42/64 52/52/93 53/53/92 43/43/94 
f 53/53/66 54/54/95 44/44/94 43/43/69 
f 54/54/96 55/55/97 45/45/98 44/44/99 
f 39/39/56 56/56/55 50/50/100 36/36/88 
f 57/57/101 51/51/102 46/46/90 47/47/103 
f 51/51/90 57/57/102 58/58/104 52/52/92 
f 59/59/105 53/53/94 52/52/92 58/58/104 
f 60/60/106 54/54/107 53/53/108 59/59/105 
f 61/61/109 55/55/110 54/54/111 60/60/107 
f 62/62/107 63/63/112 61/61/113 60/60/109 
f 60/60/114 59/59/112 64/64/115 62/62/106 
f 58/58/104 65/65/116 64/64/117 59/59/118 
f 57/57/104 66/66/102 65/65/119 58/58/116 
f 48/48/79 66/66/120 57/57/121 47/47/101 
f 67/67/122 68/68/123 50/50/124 56/56/125 
f 50/50/126 68/68/127 69/69/125 49/49/124 
f 49/49/128 69/69/129 66/66/130 48/48/131 
f 70/70/132 71/71/133 68/68/124 67/67/134 
f 71/71/133 72/72/135 69/69/136 68/68/130 
f 65/65/137 66/66/117 69/69/138 72/72/131 
f 65/65/117 72/72/137 73/73/136 64/64/139 
f 72/72/139 71/71/136 74/74/135 73/73/140 
f 71/71/133 70/70/132 75/75/141 74/74/142 
f 74/74/142 75/75/141 76/76/143 77/77/144 
f 77/77/145 78/78/146 73/73/147 74/74/139 
f 73/73/148 78/78/149 62/62/139 64/64/150 
f 78/78/151 79/79/152 63/63/153 62/62/113 
f 77/77/147 80/80/146 79/79/154 78/78/155 
f 76/76/144 81/81/156 80/80/157 77/77/158 
# 64 polygons

